<?xml version="1.0" encoding="utf-8" standalone="no"?>
<!DOCTYPE svg PUBLIC "-//W3C//DTD SVG 1.1//EN"
  "http://www.w3.org/Graphics/SVG/1.1/DTD/svg11.dtd">
<!-- Created with matplotlib (http://matplotlib.org/) -->
<svg height="345.6pt" version="1.1" viewBox="0 0 460.8 345.6" width="460.8pt" xmlns="http://www.w3.org/2000/svg" xmlns:xlink="http://www.w3.org/1999/xlink">
 <defs>
  <style type="text/css">
*{stroke-linecap:butt;stroke-linejoin:round;}
  </style>
 </defs>
 <g id="figure_1">
  <g id="patch_1">
   <path d="M 0 345.6 
L 460.8 345.6 
L 460.8 0 
L 0 0 
z
" style="fill:#ffffff;"/>
  </g>
  <g id="axes_1">
   <g id="patch_2">
    <path d="M 57.6 307.584 
L 414.72 307.584 
L 414.72 41.472 
L 57.6 41.472 
z
" style="fill:#ffffff;"/>
   </g>
   <g id="matplotlib.axis_1">
    <g id="xtick_1">
     <g id="line2d_1">
      <path clip-path="url(#pc107d9348e)" d="M 73.832727 307.584 
L 73.832727 41.472 
" style="fill:none;stroke:#b0b0b0;stroke-linecap:square;stroke-width:0.8;"/>
     </g>
     <g id="line2d_2">
      <defs>
       <path d="M 0 0 
L 0 3.5 
" id="m52b8a52980" style="stroke:#000000;stroke-width:0.8;"/>
      </defs>
      <g>
       <use style="stroke:#000000;stroke-width:0.8;" x="73.832727" xlink:href="#m52b8a52980" y="307.584"/>
      </g>
     </g>
     <g id="text_1">
      <!-- 0 -->
      <defs>
       <path d="M 31.78125 66.40625 
Q 24.171875 66.40625 20.328125 58.90625 
Q 16.5 51.421875 16.5 36.375 
Q 16.5 21.390625 20.328125 13.890625 
Q 24.171875 6.390625 31.78125 6.390625 
Q 39.453125 6.390625 43.28125 13.890625 
Q 47.125 21.390625 47.125 36.375 
Q 47.125 51.421875 43.28125 58.90625 
Q 39.453125 66.40625 31.78125 66.40625 
z
M 31.78125 74.21875 
Q 44.046875 74.21875 50.515625 64.515625 
Q 56.984375 54.828125 56.984375 36.375 
Q 56.984375 17.96875 50.515625 8.265625 
Q 44.046875 -1.421875 31.78125 -1.421875 
Q 19.53125 -1.421875 13.0625 8.265625 
Q 6.59375 17.96875 6.59375 36.375 
Q 6.59375 54.828125 13.0625 64.515625 
Q 19.53125 74.21875 31.78125 74.21875 
z
" id="DejaVuSans-30"/>
      </defs>
      <g transform="translate(70.651477 322.182437)scale(0.1 -0.1)">
       <use xlink:href="#DejaVuSans-30"/>
      </g>
     </g>
    </g>
    <g id="xtick_2">
     <g id="line2d_3">
      <path clip-path="url(#pc107d9348e)" d="M 135.088302 307.584 
L 135.088302 41.472 
" style="fill:none;stroke:#b0b0b0;stroke-linecap:square;stroke-width:0.8;"/>
     </g>
     <g id="line2d_4">
      <g>
       <use style="stroke:#000000;stroke-width:0.8;" x="135.088302" xlink:href="#m52b8a52980" y="307.584"/>
      </g>
     </g>
     <g id="text_2">
      <!-- 100 -->
      <defs>
       <path d="M 12.40625 8.296875 
L 28.515625 8.296875 
L 28.515625 63.921875 
L 10.984375 60.40625 
L 10.984375 69.390625 
L 28.421875 72.90625 
L 38.28125 72.90625 
L 38.28125 8.296875 
L 54.390625 8.296875 
L 54.390625 0 
L 12.40625 0 
z
" id="DejaVuSans-31"/>
      </defs>
      <g transform="translate(125.544552 322.182437)scale(0.1 -0.1)">
       <use xlink:href="#DejaVuSans-31"/>
       <use x="63.623047" xlink:href="#DejaVuSans-30"/>
       <use x="127.246094" xlink:href="#DejaVuSans-30"/>
      </g>
     </g>
    </g>
    <g id="xtick_3">
     <g id="line2d_5">
      <path clip-path="url(#pc107d9348e)" d="M 196.343877 307.584 
L 196.343877 41.472 
" style="fill:none;stroke:#b0b0b0;stroke-linecap:square;stroke-width:0.8;"/>
     </g>
     <g id="line2d_6">
      <g>
       <use style="stroke:#000000;stroke-width:0.8;" x="196.343877" xlink:href="#m52b8a52980" y="307.584"/>
      </g>
     </g>
     <g id="text_3">
      <!-- 200 -->
      <defs>
       <path d="M 19.1875 8.296875 
L 53.609375 8.296875 
L 53.609375 0 
L 7.328125 0 
L 7.328125 8.296875 
Q 12.9375 14.109375 22.625 23.890625 
Q 32.328125 33.6875 34.8125 36.53125 
Q 39.546875 41.84375 41.421875 45.53125 
Q 43.3125 49.21875 43.3125 52.78125 
Q 43.3125 58.59375 39.234375 62.25 
Q 35.15625 65.921875 28.609375 65.921875 
Q 23.96875 65.921875 18.8125 64.3125 
Q 13.671875 62.703125 7.8125 59.421875 
L 7.8125 69.390625 
Q 13.765625 71.78125 18.9375 73 
Q 24.125 74.21875 28.421875 74.21875 
Q 39.75 74.21875 46.484375 68.546875 
Q 53.21875 62.890625 53.21875 53.421875 
Q 53.21875 48.921875 51.53125 44.890625 
Q 49.859375 40.875 45.40625 35.40625 
Q 44.1875 33.984375 37.640625 27.21875 
Q 31.109375 20.453125 19.1875 8.296875 
z
" id="DejaVuSans-32"/>
      </defs>
      <g transform="translate(186.800127 322.182437)scale(0.1 -0.1)">
       <use xlink:href="#DejaVuSans-32"/>
       <use x="63.623047" xlink:href="#DejaVuSans-30"/>
       <use x="127.246094" xlink:href="#DejaVuSans-30"/>
      </g>
     </g>
    </g>
    <g id="xtick_4">
     <g id="line2d_7">
      <path clip-path="url(#pc107d9348e)" d="M 257.599451 307.584 
L 257.599451 41.472 
" style="fill:none;stroke:#b0b0b0;stroke-linecap:square;stroke-width:0.8;"/>
     </g>
     <g id="line2d_8">
      <g>
       <use style="stroke:#000000;stroke-width:0.8;" x="257.599451" xlink:href="#m52b8a52980" y="307.584"/>
      </g>
     </g>
     <g id="text_4">
      <!-- 300 -->
      <defs>
       <path d="M 40.578125 39.3125 
Q 47.65625 37.796875 51.625 33 
Q 55.609375 28.21875 55.609375 21.1875 
Q 55.609375 10.40625 48.1875 4.484375 
Q 40.765625 -1.421875 27.09375 -1.421875 
Q 22.515625 -1.421875 17.65625 -0.515625 
Q 12.796875 0.390625 7.625 2.203125 
L 7.625 11.71875 
Q 11.71875 9.328125 16.59375 8.109375 
Q 21.484375 6.890625 26.8125 6.890625 
Q 36.078125 6.890625 40.9375 10.546875 
Q 45.796875 14.203125 45.796875 21.1875 
Q 45.796875 27.640625 41.28125 31.265625 
Q 36.765625 34.90625 28.71875 34.90625 
L 20.21875 34.90625 
L 20.21875 43.015625 
L 29.109375 43.015625 
Q 36.375 43.015625 40.234375 45.921875 
Q 44.09375 48.828125 44.09375 54.296875 
Q 44.09375 59.90625 40.109375 62.90625 
Q 36.140625 65.921875 28.71875 65.921875 
Q 24.65625 65.921875 20.015625 65.03125 
Q 15.375 64.15625 9.8125 62.3125 
L 9.8125 71.09375 
Q 15.4375 72.65625 20.34375 73.4375 
Q 25.25 74.21875 29.59375 74.21875 
Q 40.828125 74.21875 47.359375 69.109375 
Q 53.90625 64.015625 53.90625 55.328125 
Q 53.90625 49.265625 50.4375 45.09375 
Q 46.96875 40.921875 40.578125 39.3125 
z
" id="DejaVuSans-33"/>
      </defs>
      <g transform="translate(248.055701 322.182437)scale(0.1 -0.1)">
       <use xlink:href="#DejaVuSans-33"/>
       <use x="63.623047" xlink:href="#DejaVuSans-30"/>
       <use x="127.246094" xlink:href="#DejaVuSans-30"/>
      </g>
     </g>
    </g>
    <g id="xtick_5">
     <g id="line2d_9">
      <path clip-path="url(#pc107d9348e)" d="M 318.855026 307.584 
L 318.855026 41.472 
" style="fill:none;stroke:#b0b0b0;stroke-linecap:square;stroke-width:0.8;"/>
     </g>
     <g id="line2d_10">
      <g>
       <use style="stroke:#000000;stroke-width:0.8;" x="318.855026" xlink:href="#m52b8a52980" y="307.584"/>
      </g>
     </g>
     <g id="text_5">
      <!-- 400 -->
      <defs>
       <path d="M 37.796875 64.3125 
L 12.890625 25.390625 
L 37.796875 25.390625 
z
M 35.203125 72.90625 
L 47.609375 72.90625 
L 47.609375 25.390625 
L 58.015625 25.390625 
L 58.015625 17.1875 
L 47.609375 17.1875 
L 47.609375 0 
L 37.796875 0 
L 37.796875 17.1875 
L 4.890625 17.1875 
L 4.890625 26.703125 
z
" id="DejaVuSans-34"/>
      </defs>
      <g transform="translate(309.311276 322.182437)scale(0.1 -0.1)">
       <use xlink:href="#DejaVuSans-34"/>
       <use x="63.623047" xlink:href="#DejaVuSans-30"/>
       <use x="127.246094" xlink:href="#DejaVuSans-30"/>
      </g>
     </g>
    </g>
    <g id="xtick_6">
     <g id="line2d_11">
      <path clip-path="url(#pc107d9348e)" d="M 380.1106 307.584 
L 380.1106 41.472 
" style="fill:none;stroke:#b0b0b0;stroke-linecap:square;stroke-width:0.8;"/>
     </g>
     <g id="line2d_12">
      <g>
       <use style="stroke:#000000;stroke-width:0.8;" x="380.1106" xlink:href="#m52b8a52980" y="307.584"/>
      </g>
     </g>
     <g id="text_6">
      <!-- 500 -->
      <defs>
       <path d="M 10.796875 72.90625 
L 49.515625 72.90625 
L 49.515625 64.59375 
L 19.828125 64.59375 
L 19.828125 46.734375 
Q 21.96875 47.46875 24.109375 47.828125 
Q 26.265625 48.1875 28.421875 48.1875 
Q 40.625 48.1875 47.75 41.5 
Q 54.890625 34.8125 54.890625 23.390625 
Q 54.890625 11.625 47.5625 5.09375 
Q 40.234375 -1.421875 26.90625 -1.421875 
Q 22.3125 -1.421875 17.546875 -0.640625 
Q 12.796875 0.140625 7.71875 1.703125 
L 7.71875 11.625 
Q 12.109375 9.234375 16.796875 8.0625 
Q 21.484375 6.890625 26.703125 6.890625 
Q 35.15625 6.890625 40.078125 11.328125 
Q 45.015625 15.765625 45.015625 23.390625 
Q 45.015625 31 40.078125 35.4375 
Q 35.15625 39.890625 26.703125 39.890625 
Q 22.75 39.890625 18.8125 39.015625 
Q 14.890625 38.140625 10.796875 36.28125 
z
" id="DejaVuSans-35"/>
      </defs>
      <g transform="translate(370.56685 322.182437)scale(0.1 -0.1)">
       <use xlink:href="#DejaVuSans-35"/>
       <use x="63.623047" xlink:href="#DejaVuSans-30"/>
       <use x="127.246094" xlink:href="#DejaVuSans-30"/>
      </g>
     </g>
    </g>
   </g>
   <g id="matplotlib.axis_2">
    <g id="ytick_1">
     <g id="line2d_13">
      <path clip-path="url(#pc107d9348e)" d="M 57.6 280.882204 
L 414.72 280.882204 
" style="fill:none;stroke:#b0b0b0;stroke-linecap:square;stroke-width:0.8;"/>
     </g>
     <g id="line2d_14">
      <defs>
       <path d="M 0 0 
L -3.5 0 
" id="mfbc686fb86" style="stroke:#000000;stroke-width:0.8;"/>
      </defs>
      <g>
       <use style="stroke:#000000;stroke-width:0.8;" x="57.6" xlink:href="#mfbc686fb86" y="280.882204"/>
      </g>
     </g>
     <g id="text_7">
      <!-- 10 -->
      <g transform="translate(37.875 284.681422)scale(0.1 -0.1)">
       <use xlink:href="#DejaVuSans-31"/>
       <use x="63.623047" xlink:href="#DejaVuSans-30"/>
      </g>
     </g>
    </g>
    <g id="ytick_2">
     <g id="line2d_15">
      <path clip-path="url(#pc107d9348e)" d="M 57.6 224.706064 
L 414.72 224.706064 
" style="fill:none;stroke:#b0b0b0;stroke-linecap:square;stroke-width:0.8;"/>
     </g>
     <g id="line2d_16">
      <g>
       <use style="stroke:#000000;stroke-width:0.8;" x="57.6" xlink:href="#mfbc686fb86" y="224.706064"/>
      </g>
     </g>
     <g id="text_8">
      <!-- 20 -->
      <g transform="translate(37.875 228.505282)scale(0.1 -0.1)">
       <use xlink:href="#DejaVuSans-32"/>
       <use x="63.623047" xlink:href="#DejaVuSans-30"/>
      </g>
     </g>
    </g>
    <g id="ytick_3">
     <g id="line2d_17">
      <path clip-path="url(#pc107d9348e)" d="M 57.6 168.529924 
L 414.72 168.529924 
" style="fill:none;stroke:#b0b0b0;stroke-linecap:square;stroke-width:0.8;"/>
     </g>
     <g id="line2d_18">
      <g>
       <use style="stroke:#000000;stroke-width:0.8;" x="57.6" xlink:href="#mfbc686fb86" y="168.529924"/>
      </g>
     </g>
     <g id="text_9">
      <!-- 30 -->
      <g transform="translate(37.875 172.329143)scale(0.1 -0.1)">
       <use xlink:href="#DejaVuSans-33"/>
       <use x="63.623047" xlink:href="#DejaVuSans-30"/>
      </g>
     </g>
    </g>
    <g id="ytick_4">
     <g id="line2d_19">
      <path clip-path="url(#pc107d9348e)" d="M 57.6 112.353784 
L 414.72 112.353784 
" style="fill:none;stroke:#b0b0b0;stroke-linecap:square;stroke-width:0.8;"/>
     </g>
     <g id="line2d_20">
      <g>
       <use style="stroke:#000000;stroke-width:0.8;" x="57.6" xlink:href="#mfbc686fb86" y="112.353784"/>
      </g>
     </g>
     <g id="text_10">
      <!-- 40 -->
      <g transform="translate(37.875 116.153003)scale(0.1 -0.1)">
       <use xlink:href="#DejaVuSans-34"/>
       <use x="63.623047" xlink:href="#DejaVuSans-30"/>
      </g>
     </g>
    </g>
    <g id="ytick_5">
     <g id="line2d_21">
      <path clip-path="url(#pc107d9348e)" d="M 57.6 56.177644 
L 414.72 56.177644 
" style="fill:none;stroke:#b0b0b0;stroke-linecap:square;stroke-width:0.8;"/>
     </g>
     <g id="line2d_22">
      <g>
       <use style="stroke:#000000;stroke-width:0.8;" x="57.6" xlink:href="#mfbc686fb86" y="56.177644"/>
      </g>
     </g>
     <g id="text_11">
      <!-- 50 -->
      <g transform="translate(37.875 59.976863)scale(0.1 -0.1)">
       <use xlink:href="#DejaVuSans-35"/>
       <use x="63.623047" xlink:href="#DejaVuSans-30"/>
      </g>
     </g>
    </g>
    <g id="text_12">
     <!-- Accuracy -->
     <defs>
      <path d="M 34.1875 63.1875 
L 20.796875 26.90625 
L 47.609375 26.90625 
z
M 28.609375 72.90625 
L 39.796875 72.90625 
L 67.578125 0 
L 57.328125 0 
L 50.6875 18.703125 
L 17.828125 18.703125 
L 11.1875 0 
L 0.78125 0 
z
" id="DejaVuSans-41"/>
      <path d="M 48.78125 52.59375 
L 48.78125 44.1875 
Q 44.96875 46.296875 41.140625 47.34375 
Q 37.3125 48.390625 33.40625 48.390625 
Q 24.65625 48.390625 19.8125 42.84375 
Q 14.984375 37.3125 14.984375 27.296875 
Q 14.984375 17.28125 19.8125 11.734375 
Q 24.65625 6.203125 33.40625 6.203125 
Q 37.3125 6.203125 41.140625 7.25 
Q 44.96875 8.296875 48.78125 10.40625 
L 48.78125 2.09375 
Q 45.015625 0.34375 40.984375 -0.53125 
Q 36.96875 -1.421875 32.421875 -1.421875 
Q 20.0625 -1.421875 12.78125 6.34375 
Q 5.515625 14.109375 5.515625 27.296875 
Q 5.515625 40.671875 12.859375 48.328125 
Q 20.21875 56 33.015625 56 
Q 37.15625 56 41.109375 55.140625 
Q 45.0625 54.296875 48.78125 52.59375 
z
" id="DejaVuSans-63"/>
      <path d="M 8.5 21.578125 
L 8.5 54.6875 
L 17.484375 54.6875 
L 17.484375 21.921875 
Q 17.484375 14.15625 20.5 10.265625 
Q 23.53125 6.390625 29.59375 6.390625 
Q 36.859375 6.390625 41.078125 11.03125 
Q 45.3125 15.671875 45.3125 23.6875 
L 45.3125 54.6875 
L 54.296875 54.6875 
L 54.296875 0 
L 45.3125 0 
L 45.3125 8.40625 
Q 42.046875 3.421875 37.71875 1 
Q 33.40625 -1.421875 27.6875 -1.421875 
Q 18.265625 -1.421875 13.375 4.4375 
Q 8.5 10.296875 8.5 21.578125 
z
M 31.109375 56 
z
" id="DejaVuSans-75"/>
      <path d="M 41.109375 46.296875 
Q 39.59375 47.171875 37.8125 47.578125 
Q 36.03125 48 33.890625 48 
Q 26.265625 48 22.1875 43.046875 
Q 18.109375 38.09375 18.109375 28.8125 
L 18.109375 0 
L 9.078125 0 
L 9.078125 54.6875 
L 18.109375 54.6875 
L 18.109375 46.1875 
Q 20.953125 51.171875 25.484375 53.578125 
Q 30.03125 56 36.53125 56 
Q 37.453125 56 38.578125 55.875 
Q 39.703125 55.765625 41.0625 55.515625 
z
" id="DejaVuSans-72"/>
      <path d="M 34.28125 27.484375 
Q 23.390625 27.484375 19.1875 25 
Q 14.984375 22.515625 14.984375 16.5 
Q 14.984375 11.71875 18.140625 8.90625 
Q 21.296875 6.109375 26.703125 6.109375 
Q 34.1875 6.109375 38.703125 11.40625 
Q 43.21875 16.703125 43.21875 25.484375 
L 43.21875 27.484375 
z
M 52.203125 31.203125 
L 52.203125 0 
L 43.21875 0 
L 43.21875 8.296875 
Q 40.140625 3.328125 35.546875 0.953125 
Q 30.953125 -1.421875 24.3125 -1.421875 
Q 15.921875 -1.421875 10.953125 3.296875 
Q 6 8.015625 6 15.921875 
Q 6 25.140625 12.171875 29.828125 
Q 18.359375 34.515625 30.609375 34.515625 
L 43.21875 34.515625 
L 43.21875 35.40625 
Q 43.21875 41.609375 39.140625 45 
Q 35.0625 48.390625 27.6875 48.390625 
Q 23 48.390625 18.546875 47.265625 
Q 14.109375 46.140625 10.015625 43.890625 
L 10.015625 52.203125 
Q 14.9375 54.109375 19.578125 55.046875 
Q 24.21875 56 28.609375 56 
Q 40.484375 56 46.34375 49.84375 
Q 52.203125 43.703125 52.203125 31.203125 
z
" id="DejaVuSans-61"/>
      <path d="M 32.171875 -5.078125 
Q 28.375 -14.84375 24.75 -17.8125 
Q 21.140625 -20.796875 15.09375 -20.796875 
L 7.90625 -20.796875 
L 7.90625 -13.28125 
L 13.1875 -13.28125 
Q 16.890625 -13.28125 18.9375 -11.515625 
Q 21 -9.765625 23.484375 -3.21875 
L 25.09375 0.875 
L 2.984375 54.6875 
L 12.5 54.6875 
L 29.59375 11.921875 
L 46.6875 54.6875 
L 56.203125 54.6875 
z
" id="DejaVuSans-79"/>
     </defs>
     <g transform="translate(31.795312 197.442844)rotate(-90)scale(0.1 -0.1)">
      <use xlink:href="#DejaVuSans-41"/>
      <use x="68.392578" xlink:href="#DejaVuSans-63"/>
      <use x="123.373047" xlink:href="#DejaVuSans-63"/>
      <use x="178.353516" xlink:href="#DejaVuSans-75"/>
      <use x="241.732422" xlink:href="#DejaVuSans-72"/>
      <use x="282.845703" xlink:href="#DejaVuSans-61"/>
      <use x="344.125" xlink:href="#DejaVuSans-63"/>
      <use x="399.105469" xlink:href="#DejaVuSans-79"/>
     </g>
    </g>
   </g>
   <g id="line2d_23">
    <path clip-path="url(#pc107d9348e)" d="M 73.832727 295.039838 
L 74.445283 290.669146 
L 75.057839 281.892315 
L 77.508062 226.412988 
L 78.120617 219.236041 
L 78.733173 214.64195 
L 79.958285 211.563042 
L 80.57084 210.428777 
L 81.183396 210.147465 
L 81.795952 208.95719 
L 82.408508 208.02453 
L 83.021063 206.529948 
L 84.246175 202.720503 
L 84.858731 201.316001 
L 85.471286 200.384897 
L 86.696398 197.474738 
L 87.308954 196.620932 
L 87.921509 195.487019 
L 88.534065 193.946271 
L 89.146621 193.127397 
L 90.371732 191.003415 
L 90.984288 190.170193 
L 91.596844 188.95658 
L 92.2094 188.125769 
L 92.821955 186.811337 
L 94.047067 185.395417 
L 94.659623 184.069751 
L 95.272178 183.687469 
L 95.884734 183.552597 
L 96.49729 182.710217 
L 97.109846 181.529954 
L 98.334957 180.170068 
L 100.172624 178.261202 
L 100.78518 177.37315 
L 101.397736 176.78908 
L 102.010292 177.025423 
L 102.622847 176.271925 
L 103.235403 175.237082 
L 103.847959 175.024762 
L 104.460515 174.148128 
L 105.07307 173.553845 
L 106.298182 172.103353 
L 106.910738 172.026056 
L 107.523293 171.329078 
L 108.135849 171.126268 
L 108.748405 170.035758 
L 109.360961 169.822735 
L 109.973516 169.216013 
L 110.586072 168.45247 
L 111.198628 167.992355 
L 112.423739 167.316991 
L 113.648851 166.035775 
L 114.873962 165.29418 
L 115.486518 165.238497 
L 116.71163 163.888975 
L 117.324185 163.327723 
L 117.936741 163.202561 
L 119.774408 161.652271 
L 121.612075 159.887786 
L 122.837187 159.337249 
L 124.062298 158.539469 
L 124.674854 157.729919 
L 125.28741 157.472129 
L 125.899966 156.787423 
L 127.125077 156.07886 
L 127.737633 155.371687 
L 128.350189 155.169028 
L 128.962744 154.494367 
L 129.5753 154.169643 
L 130.187856 153.427546 
L 130.800412 152.359855 
L 131.412967 152.730736 
L 133.250635 151.438102 
L 133.86319 150.60642 
L 135.088302 150.561636 
L 135.700858 149.933484 
L 136.313413 148.639979 
L 136.925969 148.853872 
L 137.538525 148.448737 
L 138.763636 146.764295 
L 139.376192 146.619579 
L 139.988748 146.977988 
L 141.213859 145.48323 
L 142.438971 145.157652 
L 143.051527 145.011195 
L 144.276638 143.798286 
L 144.889194 143.32538 
L 145.50175 143.056339 
L 146.114305 142.168823 
L 146.726861 142.550955 
L 147.339417 142.337932 
L 147.951973 141.574557 
L 148.564528 141.59617 
L 149.78964 140.337422 
L 150.402196 140.101597 
L 151.627307 139.293588 
L 152.239863 139.304671 
L 152.852419 138.629809 
L 153.464974 138.822959 
L 154.07753 137.754213 
L 154.690086 137.73121 
L 155.302642 137.383148 
L 155.915197 136.709174 
L 156.527753 135.867145 
L 157.752864 135.731403 
L 158.36542 134.799454 
L 158.977976 134.675129 
L 159.590532 133.855401 
L 160.203087 134.046274 
L 160.815643 132.77733 
L 161.428199 133.14734 
L 162.040755 132.383613 
L 163.265866 131.383877 
L 163.878422 131.101711 
L 164.490978 130.596812 
L 165.103533 129.79868 
L 165.716089 129.585323 
L 166.328645 129.551772 
L 166.941201 128.540467 
L 168.778868 127.47363 
L 169.391424 126.64178 
L 170.616535 126.124794 
L 171.229091 126.225261 
L 171.841647 124.676042 
L 172.454202 124.787894 
L 173.066758 123.764469 
L 173.679314 123.788175 
L 174.29187 123.52933 
L 174.904425 123.507382 
L 175.516981 123.192519 
L 176.129537 122.192933 
L 176.742093 122.227337 
L 177.354648 121.136157 
L 178.57976 119.989797 
L 179.192316 120.33821 
L 179.804871 118.989541 
L 180.417427 118.360854 
L 181.642539 117.811003 
L 182.255094 117.179569 
L 182.86765 116.203506 
L 183.480206 116.181022 
L 184.092762 115.2923 
L 185.317873 114.497283 
L 185.930429 113.957477 
L 186.542985 113.059581 
L 187.15554 113.181997 
L 188.380652 111.406613 
L 188.993208 111.384313 
L 189.605763 111.013432 
L 191.443431 108.991643 
L 192.055986 109.092964 
L 192.668542 108.171044 
L 193.281098 107.96892 
L 193.893654 107.901652 
L 194.506209 107.104223 
L 195.118765 106.78849 
L 196.343877 105.935563 
L 197.568988 105.598734 
L 198.794099 103.801201 
L 199.406655 103.711281 
L 200.019211 103.216444 
L 201.244322 103.01432 
L 201.856878 102.126453 
L 203.694545 101.576786 
L 204.307101 101.104584 
L 204.919657 100.295034 
L 206.144768 100.253364 
L 206.757324 99.700081 
L 207.36988 100.20565 
L 207.982436 98.823983 
L 208.594991 98.55511 
L 209.207547 97.756292 
L 209.820103 98.104521 
L 210.432659 98.025667 
L 211.045214 97.565553 
L 211.65777 97.306038 
L 212.270326 96.643465 
L 212.882882 96.330494 
L 213.495437 96.161586 
L 214.107993 95.690756 
L 214.720549 95.824423 
L 215.333105 95.509727 
L 215.94566 95.016263 
L 216.558216 95.171861 
L 217.170772 93.84638 
L 217.783328 93.858133 
L 218.395883 94.16054 
L 219.008439 93.306574 
L 219.620995 93.262125 
L 220.233551 92.678573 
L 221.458662 92.375128 
L 222.071218 91.847426 
L 222.683774 92.183367 
L 223.296329 91.856082 
L 224.521441 91.643394 
L 225.746552 90.520555 
L 227.58422 89.631834 
L 228.196775 90.642285 
L 228.809331 89.29658 
L 229.421887 89.497816 
L 230.646998 88.777149 
L 231.259554 88.520748 
L 231.87211 88.846661 
L 232.484666 88.610133 
L 233.097221 87.577181 
L 233.709777 87.858007 
L 234.322333 87.63355 
L 234.934889 88.003761 
L 235.547444 86.937778 
L 236.16 87.049663 
L 236.772556 86.814676 
L 237.385111 86.779585 
L 237.997667 86.43082 
L 238.610223 86.576925 
L 239.222779 86.116141 
L 239.835334 86.250996 
L 241.060446 84.801893 
L 241.673002 85.475884 
L 242.285557 85.262343 
L 243.510669 85.48747 
L 244.123225 84.654934 
L 244.73578 84.353029 
L 245.348336 84.531815 
L 245.960892 83.475541 
L 246.573448 83.846925 
L 248.411115 83.340669 
L 249.023671 82.833728 
L 250.248782 82.890265 
L 250.861338 82.834398 
L 251.473894 82.374634 
L 252.086449 82.71163 
L 252.699005 82.307734 
L 253.311561 81.340661 
L 253.924117 81.745093 
L 254.536672 81.991482 
L 255.149228 81.497833 
L 255.761784 81.959153 
L 256.37434 81.306776 
L 256.986895 81.519983 
L 257.599451 80.49726 
L 258.824563 80.722035 
L 259.437118 80.45281 
L 260.049674 79.744247 
L 260.66223 80.094737 
L 261.274786 80.004482 
L 261.887341 79.36143 
L 262.499897 79.509963 
L 263.112453 79.106234 
L 263.725009 79.43059 
L 264.337564 78.756448 
L 264.95012 78.542722 
L 265.562676 78.858121 
L 266.175232 78.428962 
L 266.787787 78.273883 
L 267.400343 78.621225 
L 268.625455 77.62184 
L 269.23801 77.374061 
L 269.850566 77.542819 
L 270.463122 78.431389 
L 271.075678 77.317692 
L 271.688233 77.171938 
L 272.300789 77.73406 
L 272.913345 77.4199 
L 273.525901 76.868844 
L 274.138456 76.971538 
L 274.751012 76.609296 
L 275.363568 77.002159 
L 275.976123 76.655135 
L 276.588679 77.519815 
L 277.201235 76.071918 
L 277.813791 75.754477 
L 278.426346 75.666968 
L 279.038902 75.431645 
L 279.651458 75.48768 
L 280.264014 75.879823 
L 280.876569 76.069842 
L 282.101681 75.028268 
L 283.326792 75.139785 
L 285.777015 74.733813 
L 286.389571 74.116878 
L 287.002127 74.486571 
L 287.614683 73.9917 
L 288.227238 74.17221 
L 288.839794 73.744809 
L 289.45235 73.666809 
L 290.064906 73.980968 
L 290.677461 73.251662 
L 291.290017 73.453786 
L 291.902573 72.409969 
L 292.515129 73.071655 
L 293.127684 73.059919 
L 293.74024 72.498834 
L 294.965352 72.812492 
L 295.577907 72.609832 
L 296.190463 72.936297 
L 296.803019 72.600155 
L 297.415575 72.083872 
L 298.02813 71.980994 
L 298.640686 72.026632 
L 299.865798 71.65488 
L 300.478353 71.205832 
L 301.090909 71.452422 
L 301.703465 71.565328 
L 302.316021 70.543627 
L 303.541132 70.879919 
L 304.153688 71.184419 
L 304.766244 70.339946 
L 305.378799 70.577864 
L 305.991355 70.308321 
L 306.603911 70.521143 
L 307.829022 69.949009 
L 308.441578 69.881238 
L 309.054134 69.205673 
L 309.66669 70.04894 
L 310.279245 70.263537 
L 311.504357 69.207247 
L 312.116913 69.376171 
L 312.729468 69.026737 
L 313.342024 68.857628 
L 313.95458 69.511211 
L 314.567136 68.240693 
L 315.179691 67.981881 
L 315.792247 69.129448 
L 316.404803 68.150287 
L 317.017358 68.106541 
L 317.629914 67.926885 
L 318.24247 66.971916 
L 318.855026 68.229643 
L 319.467581 67.63536 
L 320.080137 68.105335 
L 320.692693 68.084207 
L 321.305249 68.185713 
L 321.917804 66.984388 
L 322.53036 67.477166 
L 324.368027 66.712569 
L 324.980583 66.634418 
L 325.593139 66.882531 
L 326.205695 66.386824 
L 326.81825 66.75752 
L 327.430806 66.443528 
L 328.043362 66.386824 
L 328.655918 65.837509 
L 329.268473 65.635033 
L 329.881029 65.712665 
L 330.493585 65.420956 
L 331.106141 65.46574 
L 332.331252 65.084496 
L 332.943808 64.859369 
L 333.556364 65.287156 
L 334.168919 64.871306 
L 334.781475 64.825835 
L 335.394031 65.140514 
L 336.619142 64.040846 
L 337.231698 63.959916 
L 337.844254 64.073861 
L 338.45681 63.993634 
L 339.069365 64.185211 
L 339.681921 64.051377 
L 340.294477 64.051226 
L 340.907033 63.793921 
L 341.519588 63.90512 
L 342.7447 62.90381 
L 343.969811 63.276433 
L 344.582367 62.635992 
L 345.194923 62.556284 
L 345.807479 62.960883 
L 346.420034 62.566999 
L 347.645146 62.644296 
L 348.870257 62.287763 
L 349.482813 61.465941 
L 350.095369 61.713703 
L 351.32048 61.399025 
L 351.933036 61.19742 
L 352.545592 62.342927 
L 353.158148 60.814954 
L 353.770703 61.017429 
L 354.383259 61.389348 
L 354.995815 60.872177 
L 355.60837 60.523596 
L 356.220926 60.410187 
L 356.833482 60.736451 
L 357.446038 59.881783 
L 358.058593 60.984749 
L 358.671149 60.376285 
L 359.283705 60.09653 
L 359.896261 60.578944 
L 360.508816 60.253183 
L 361.121372 59.332116 
L 361.733928 59.185676 
L 362.346484 59.962713 
L 362.959039 60.006442 
L 363.571595 59.411305 
L 364.184151 59.343015 
L 364.796707 58.827937 
L 365.409262 59.095588 
L 366.021818 60.007145 
L 366.634374 59.424112 
L 367.24693 59.129658 
L 367.859485 59.061703 
L 368.472041 58.331342 
L 369.084597 58.502024 
L 369.697153 57.973436 
L 370.309708 57.938663 
L 370.922264 58.478318 
L 371.53482 58.275843 
L 372.147376 58.591225 
L 372.759931 57.591673 
L 373.372487 57.792239 
L 373.985043 57.535655 
L 374.597599 56.87047 
L 375.82271 57.568485 
L 376.435266 56.962298 
L 377.047822 57.333514 
L 378.272933 56.793541 
L 378.885489 57.15354 
L 379.498045 56.927358 
L 380.1106 57.624503 
L 380.723156 56.55718 
L 381.335712 56.602484 
L 381.948268 56.354354 
L 382.560823 56.691684 
L 383.173379 55.736899 
L 383.785935 56.186651 
L 384.398491 55.951998 
L 385.011046 56.365068 
L 385.623602 56.075117 
L 386.236158 55.56764 
L 386.848714 55.232201 
L 388.073825 55.993484 
L 388.686381 54.971632 
L 389.298937 55.096291 
L 389.911492 55.016935 
L 390.524048 55.208328 
L 391.136604 54.613224 
L 391.74916 54.589517 
L 392.361715 54.343312 
L 392.974271 53.569038 
L 393.586827 54.232448 
L 394.199383 54.263755 
L 394.811938 54.702759 
L 395.424494 53.962571 
L 396.03705 54.624809 
L 397.262161 54.17556 
L 397.874717 54.027227 
L 398.487273 53.568 
L 398.487273 53.568 
" style="fill:none;stroke:#ff6347;stroke-linecap:square;stroke-width:2;"/>
   </g>
   <g id="line2d_24">
    <path clip-path="url(#pc107d9348e)" d="M 73.832727 295.488 
L 74.445283 289.701858 
L 75.670395 261.276731 
L 76.895506 232.233666 
L 77.508062 218.077279 
L 78.120617 211.617023 
L 78.733173 209.313801 
L 79.345729 209.257625 
L 79.958285 208.583512 
L 80.57084 206.448818 
L 81.183396 206.617347 
L 81.795952 205.999409 
L 83.633619 202.404136 
L 84.246175 202.797369 
L 84.858731 200.88738 
L 85.471286 198.41563 
L 86.083842 197.123579 
L 86.696398 195.325943 
L 87.308954 194.427124 
L 87.921509 192.966545 
L 88.534065 191.168908 
L 89.146621 190.27009 
L 90.371732 187.180402 
L 90.984288 186.056879 
L 91.596844 184.090715 
L 92.2094 183.416601 
L 92.821955 182.967192 
L 94.047067 181.338084 
L 94.659623 180.326913 
L 96.49729 178.136044 
L 97.109846 176.956345 
L 98.334957 175.214884 
L 99.560069 172.574606 
L 100.172624 172.237549 
L 100.78518 171.338731 
L 101.397736 170.102856 
L 102.010292 169.541094 
L 102.622847 169.204037 
L 103.235403 168.249043 
L 103.847959 167.799634 
L 104.460515 166.900816 
L 105.07307 166.507583 
L 105.685626 166.507583 
L 106.298182 165.945821 
L 106.910738 164.822299 
L 107.523293 163.979656 
L 108.135849 163.530247 
L 108.748405 163.305543 
L 109.360961 162.18202 
L 109.973516 161.957315 
L 110.586072 161.395554 
L 111.198628 160.609088 
L 112.423739 160.384383 
L 113.036295 160.047327 
L 113.648851 159.373213 
L 114.261407 159.597918 
L 114.873962 159.260861 
L 115.486518 159.092332 
L 116.099074 158.418219 
L 116.71163 158.305866 
L 117.324185 157.687929 
L 117.936741 157.5194 
L 120.386964 156.058821 
L 120.99952 156.395878 
L 121.612075 156.114997 
L 122.837187 156.452054 
L 123.449743 155.834116 
L 124.674854 155.04765 
L 125.28741 154.879122 
L 126.512521 153.418542 
L 128.350189 151.396201 
L 128.962744 151.396201 
L 130.187856 151.002968 
L 130.800412 150.890616 
L 131.412967 150.160326 
L 132.025523 149.823269 
L 132.638079 149.654741 
L 133.250635 149.261508 
L 133.86319 148.699746 
L 134.475746 148.418866 
L 135.088302 147.800928 
L 135.700858 147.407695 
L 136.313413 146.508877 
L 137.538525 146.115644 
L 138.763636 145.048297 
L 139.376192 145.104473 
L 139.988748 144.935945 
L 141.213859 143.419189 
L 142.438971 143.082132 
L 144.276638 141.172144 
L 146.114305 139.936269 
L 146.726861 139.992445 
L 147.339417 139.655388 
L 148.564528 138.531865 
L 149.177084 137.857751 
L 149.78964 137.970104 
L 150.402196 137.127462 
L 151.014751 137.071285 
L 151.627307 136.509524 
L 152.239863 136.397172 
L 152.852419 135.610706 
L 154.07753 134.82424 
L 154.690086 134.768064 
L 155.302642 134.599535 
L 155.915197 133.756893 
L 157.140309 133.082779 
L 157.752864 132.689547 
L 158.36542 132.464842 
L 158.977976 132.015433 
L 159.590532 131.959257 
L 160.815643 131.228967 
L 161.428199 131.172791 
L 162.040755 130.723382 
L 162.65331 130.611029 
L 163.265866 130.273972 
L 163.878422 130.498677 
L 164.490978 129.487507 
L 165.103533 129.543683 
L 165.716089 129.318978 
L 166.328645 129.487507 
L 168.166312 128.026927 
L 168.778868 127.071933 
L 169.391424 126.566347 
L 170.003979 126.734876 
L 170.616535 125.892234 
L 171.841647 125.330472 
L 172.454202 124.712535 
L 173.679314 124.150773 
L 174.904425 122.858722 
L 175.516981 122.409313 
L 176.129537 122.128432 
L 176.742093 120.948733 
L 177.354648 120.499324 
L 178.57976 118.982568 
L 179.804871 118.139926 
L 181.642539 116.229938 
L 182.255094 115.050239 
L 182.86765 114.713182 
L 183.480206 113.533483 
L 184.092762 113.252602 
L 184.705317 112.803193 
L 185.317873 112.185255 
L 187.15554 111.230261 
L 187.768096 111.286437 
L 188.380652 110.94938 
L 189.605763 109.601153 
L 190.218319 109.264096 
L 190.830875 108.758511 
L 193.281098 107.297931 
L 193.893654 106.73617 
L 194.506209 106.679994 
L 195.118765 106.455289 
L 195.731321 105.949704 
L 196.343877 105.27559 
L 196.956432 105.219414 
L 197.568988 104.938533 
L 198.794099 103.983539 
L 200.019211 103.253249 
L 200.631767 103.028545 
L 201.244322 103.309425 
L 201.856878 102.691488 
L 202.469434 102.298255 
L 203.08199 102.579136 
L 203.694545 102.07355 
L 204.307101 102.298255 
L 204.919657 101.34326 
L 206.144768 100.669147 
L 206.757324 100.556794 
L 207.36988 99.545624 
L 208.594991 98.983863 
L 209.207547 98.028868 
L 209.820103 97.972692 
L 210.432659 97.298578 
L 211.045214 96.961522 
L 212.270326 95.950351 
L 212.882882 95.613294 
L 214.720549 93.871834 
L 215.333105 94.040362 
L 215.94566 93.534777 
L 216.558216 93.703305 
L 217.170772 93.310072 
L 217.783328 93.478601 
L 218.395883 93.19772 
L 219.008439 93.310072 
L 219.620995 92.579783 
L 220.233551 92.860663 
L 220.846106 92.973016 
L 221.458662 92.298902 
L 222.071218 92.523606 
L 222.683774 92.018021 
L 223.296329 91.793317 
L 223.908885 91.793317 
L 224.521441 91.343908 
L 225.133997 91.400084 
L 226.359108 90.557442 
L 226.971664 90.445089 
L 227.58422 90.613618 
L 228.196775 90.220385 
L 228.809331 90.051856 
L 229.421887 89.546271 
L 230.034443 89.714799 
L 230.646998 89.321566 
L 231.87211 89.433919 
L 232.484666 89.770976 
L 233.709777 88.198044 
L 234.322333 88.198044 
L 234.934889 88.591277 
L 235.547444 87.860987 
L 236.16 88.085691 
L 237.385111 87.973339 
L 237.997667 87.973339 
L 238.610223 87.580106 
L 239.222779 86.962169 
L 239.835334 87.018345 
L 240.44789 86.962169 
L 241.060446 87.243049 
L 242.285557 87.299225 
L 243.510669 86.06335 
L 244.123225 86.231879 
L 247.186003 84.602771 
L 250.248782 83.928657 
L 250.861338 83.703952 
L 251.473894 83.928657 
L 252.086449 83.142191 
L 252.699005 83.479248 
L 253.311561 82.748958 
L 253.924117 82.524254 
L 254.536672 81.962492 
L 255.149228 82.524254 
L 255.761784 82.636606 
L 256.986895 81.85014 
L 258.212007 81.906316 
L 259.437118 81.007498 
L 260.049674 81.063674 
L 260.66223 81.232202 
L 261.274786 80.782793 
L 264.337564 79.827799 
L 264.95012 79.490742 
L 266.175232 79.153685 
L 266.787787 78.6481 
L 268.012899 78.591924 
L 268.625455 78.6481 
L 269.23801 78.423395 
L 269.850566 78.591924 
L 270.463122 78.311043 
L 271.075678 78.254867 
L 272.300789 77.693106 
L 273.525901 77.468401 
L 274.138456 77.524577 
L 274.751012 77.131344 
L 275.363568 77.131344 
L 275.976123 76.17635 
L 276.588679 76.288702 
L 279.038902 75.726941 
L 279.651458 75.726941 
L 280.264014 75.502236 
L 280.876569 75.558412 
L 282.101681 75.333708 
L 282.714237 75.502236 
L 283.326792 75.165179 
L 283.939348 75.389884 
L 284.551904 75.221355 
L 285.16446 74.491066 
L 286.389571 74.940475 
L 287.002127 74.771946 
L 287.614683 74.322537 
L 288.227238 74.266361 
L 288.839794 74.491066 
L 289.45235 74.434889 
L 290.677461 73.7046 
L 291.290017 74.322537 
L 292.515129 74.547242 
L 293.127684 74.547242 
L 293.74024 73.7046 
L 294.352796 73.536071 
L 294.965352 73.816952 
L 295.577907 73.929304 
L 296.190463 74.547242 
L 296.803019 73.592247 
L 297.415575 73.929304 
L 298.640686 73.423719 
L 299.253242 73.648423 
L 299.865798 73.648423 
L 301.090909 73.873128 
L 301.703465 73.086662 
L 302.316021 73.873128 
L 302.928576 73.423719 
L 304.153688 72.918134 
L 304.766244 73.142838 
L 305.378799 72.749605 
L 305.991355 72.97431 
L 306.603911 72.412548 
L 307.216467 72.019315 
L 307.829022 72.075492 
L 308.441578 72.412548 
L 309.054134 71.738435 
L 309.66669 72.187844 
L 310.279245 71.850787 
L 310.891801 72.019315 
L 312.116913 71.569906 
L 312.729468 71.569906 
L 313.342024 71.682259 
L 313.95458 71.176673 
L 314.567136 71.064321 
L 315.179691 71.176673 
L 316.404803 70.839616 
L 317.017358 70.277855 
L 317.629914 70.78344 
L 318.24247 70.165503 
L 318.855026 70.277855 
L 319.467581 69.940798 
L 320.080137 69.996974 
L 320.692693 69.379037 
L 321.917804 68.929628 
L 322.53036 69.266685 
L 323.142916 68.817275 
L 323.755472 69.04198 
L 324.368027 68.536395 
L 324.980583 68.367866 
L 325.593139 68.592571 
L 326.81825 68.536395 
L 327.430806 67.974633 
L 328.043362 68.030809 
L 329.268473 67.974633 
L 329.881029 67.131991 
L 330.493585 67.974633 
L 331.106141 66.851111 
L 331.718696 66.963463 
L 332.331252 67.525224 
L 332.943808 66.907287 
L 333.556364 66.626406 
L 334.168919 67.469048 
L 334.781475 66.851111 
L 335.394031 66.626406 
L 336.006587 67.131991 
L 336.619142 66.907287 
L 337.231698 66.907287 
L 338.45681 66.514054 
L 339.069365 66.57023 
L 339.681921 66.851111 
L 340.294477 66.345525 
L 340.907033 66.401701 
L 341.519588 65.896116 
L 342.132144 66.345525 
L 342.7447 66.064645 
L 343.357256 65.559059 
L 343.969811 65.446707 
L 344.582367 64.884946 
L 345.194923 65.222002 
L 345.807479 65.278179 
L 347.03259 64.716417 
L 347.645146 64.772593 
L 348.257702 65.053474 
L 348.870257 64.997298 
L 349.482813 65.278179 
L 350.095369 64.604065 
L 350.707925 64.884946 
L 351.32048 64.09848 
L 352.545592 64.547889 
L 353.158148 64.210832 
L 354.995815 63.817599 
L 355.60837 63.592894 
L 356.220926 63.986127 
L 356.833482 63.536718 
L 357.446038 63.36819 
L 358.058593 64.09848 
L 358.671149 63.143485 
L 359.283705 62.918781 
L 359.896261 63.087309 
L 360.508816 62.525548 
L 361.121372 62.974957 
L 361.733928 62.300843 
L 362.346484 63.143485 
L 362.959039 62.300843 
L 363.571595 61.90761 
L 364.184151 62.132315 
L 364.796707 62.6379 
L 365.409262 62.019962 
L 366.021818 61.682906 
L 367.24693 62.132315 
L 367.859485 61.739082 
L 368.472041 61.064968 
L 369.084597 60.89644 
L 369.697153 61.795258 
L 370.309708 60.952616 
L 371.53482 60.784087 
L 372.147376 60.784087 
L 372.759931 60.278502 
L 373.372487 60.222326 
L 373.985043 59.829093 
L 374.597599 61.008792 
L 375.210154 59.941445 
L 375.82271 61.121144 
L 376.435266 60.671735 
L 377.047822 59.885269 
L 378.272933 60.16615 
L 378.885489 59.211155 
L 379.498045 59.267332 
L 380.1106 60.109974 
L 380.723156 59.604388 
L 381.335712 59.604388 
L 381.948268 59.379684 
L 383.173379 58.42469 
L 383.785935 58.817923 
L 384.398491 58.649394 
L 385.011046 58.70557 
L 385.623602 58.480866 
L 386.236158 58.537042 
L 386.848714 59.098803 
L 387.461269 58.087633 
L 388.073825 58.368513 
L 388.686381 58.817923 
L 389.298937 57.750576 
L 389.911492 57.862928 
L 390.524048 58.312337 
L 391.136604 58.368513 
L 391.74916 57.806752 
L 392.361715 57.020286 
L 392.974271 57.582047 
L 394.199383 56.683229 
L 394.811938 57.413519 
L 395.424494 57.076462 
L 396.03705 57.357343 
L 396.649605 57.020286 
L 397.262161 57.076462 
L 397.874717 56.851758 
L 398.487273 56.96411 
L 398.487273 56.96411 
" style="fill:none;stroke:#4682b4;stroke-linecap:square;stroke-width:2;"/>
   </g>
   <g id="patch_3">
    <path d="M 57.6 307.584 
L 57.6 41.472 
" style="fill:none;stroke:#000000;stroke-linecap:square;stroke-linejoin:miter;stroke-width:0.8;"/>
   </g>
   <g id="patch_4">
    <path d="M 414.72 307.584 
L 414.72 41.472 
" style="fill:none;stroke:#000000;stroke-linecap:square;stroke-linejoin:miter;stroke-width:0.8;"/>
   </g>
   <g id="patch_5">
    <path d="M 57.6 307.584 
L 414.72 307.584 
" style="fill:none;stroke:#000000;stroke-linecap:square;stroke-linejoin:miter;stroke-width:0.8;"/>
   </g>
   <g id="patch_6">
    <path d="M 57.6 41.472 
L 414.72 41.472 
" style="fill:none;stroke:#000000;stroke-linecap:square;stroke-linejoin:miter;stroke-width:0.8;"/>
   </g>
   <g id="legend_1">
    <g id="patch_7">
     <path d="M 64.6 79.3845 
L 142 79.3845 
Q 144 79.3845 144 77.3845 
L 144 48.472 
Q 144 46.472 142 46.472 
L 64.6 46.472 
Q 62.6 46.472 62.6 48.472 
L 62.6 77.3845 
Q 62.6 79.3845 64.6 79.3845 
z
" style="fill:#ffffff;opacity:0.8;stroke:#cccccc;stroke-linejoin:miter;"/>
    </g>
    <g id="line2d_25">
     <path d="M 66.6 54.570438 
L 86.6 54.570438 
" style="fill:none;stroke:#ff6347;stroke-linecap:square;stroke-width:2;"/>
    </g>
    <g id="line2d_26"/>
    <g id="text_13">
     <!-- train_acc -->
     <defs>
      <path d="M 18.3125 70.21875 
L 18.3125 54.6875 
L 36.8125 54.6875 
L 36.8125 47.703125 
L 18.3125 47.703125 
L 18.3125 18.015625 
Q 18.3125 11.328125 20.140625 9.421875 
Q 21.96875 7.515625 27.59375 7.515625 
L 36.8125 7.515625 
L 36.8125 0 
L 27.59375 0 
Q 17.1875 0 13.234375 3.875 
Q 9.28125 7.765625 9.28125 18.015625 
L 9.28125 47.703125 
L 2.6875 47.703125 
L 2.6875 54.6875 
L 9.28125 54.6875 
L 9.28125 70.21875 
z
" id="DejaVuSans-74"/>
      <path d="M 9.421875 54.6875 
L 18.40625 54.6875 
L 18.40625 0 
L 9.421875 0 
z
M 9.421875 75.984375 
L 18.40625 75.984375 
L 18.40625 64.59375 
L 9.421875 64.59375 
z
" id="DejaVuSans-69"/>
      <path d="M 54.890625 33.015625 
L 54.890625 0 
L 45.90625 0 
L 45.90625 32.71875 
Q 45.90625 40.484375 42.875 44.328125 
Q 39.84375 48.1875 33.796875 48.1875 
Q 26.515625 48.1875 22.3125 43.546875 
Q 18.109375 38.921875 18.109375 30.90625 
L 18.109375 0 
L 9.078125 0 
L 9.078125 54.6875 
L 18.109375 54.6875 
L 18.109375 46.1875 
Q 21.34375 51.125 25.703125 53.5625 
Q 30.078125 56 35.796875 56 
Q 45.21875 56 50.046875 50.171875 
Q 54.890625 44.34375 54.890625 33.015625 
z
" id="DejaVuSans-6e"/>
      <path d="M 50.984375 -16.609375 
L 50.984375 -23.578125 
L -0.984375 -23.578125 
L -0.984375 -16.609375 
z
" id="DejaVuSans-5f"/>
     </defs>
     <g transform="translate(94.6 58.070438)scale(0.1 -0.1)">
      <use xlink:href="#DejaVuSans-74"/>
      <use x="39.208984" xlink:href="#DejaVuSans-72"/>
      <use x="80.322266" xlink:href="#DejaVuSans-61"/>
      <use x="141.601562" xlink:href="#DejaVuSans-69"/>
      <use x="169.384766" xlink:href="#DejaVuSans-6e"/>
      <use x="232.763672" xlink:href="#DejaVuSans-5f"/>
      <use x="282.763672" xlink:href="#DejaVuSans-61"/>
      <use x="344.042969" xlink:href="#DejaVuSans-63"/>
      <use x="399.023438" xlink:href="#DejaVuSans-63"/>
     </g>
    </g>
    <g id="line2d_27">
     <path d="M 66.6 69.526688 
L 86.6 69.526688 
" style="fill:none;stroke:#4682b4;stroke-linecap:square;stroke-width:2;"/>
    </g>
    <g id="line2d_28"/>
    <g id="text_14">
     <!-- test_acc -->
     <defs>
      <path d="M 56.203125 29.59375 
L 56.203125 25.203125 
L 14.890625 25.203125 
Q 15.484375 15.921875 20.484375 11.0625 
Q 25.484375 6.203125 34.421875 6.203125 
Q 39.59375 6.203125 44.453125 7.46875 
Q 49.3125 8.734375 54.109375 11.28125 
L 54.109375 2.78125 
Q 49.265625 0.734375 44.1875 -0.34375 
Q 39.109375 -1.421875 33.890625 -1.421875 
Q 20.796875 -1.421875 13.15625 6.1875 
Q 5.515625 13.8125 5.515625 26.8125 
Q 5.515625 40.234375 12.765625 48.109375 
Q 20.015625 56 32.328125 56 
Q 43.359375 56 49.78125 48.890625 
Q 56.203125 41.796875 56.203125 29.59375 
z
M 47.21875 32.234375 
Q 47.125 39.59375 43.09375 43.984375 
Q 39.0625 48.390625 32.421875 48.390625 
Q 24.90625 48.390625 20.390625 44.140625 
Q 15.875 39.890625 15.1875 32.171875 
z
" id="DejaVuSans-65"/>
      <path d="M 44.28125 53.078125 
L 44.28125 44.578125 
Q 40.484375 46.53125 36.375 47.5 
Q 32.28125 48.484375 27.875 48.484375 
Q 21.1875 48.484375 17.84375 46.4375 
Q 14.5 44.390625 14.5 40.28125 
Q 14.5 37.15625 16.890625 35.375 
Q 19.28125 33.59375 26.515625 31.984375 
L 29.59375 31.296875 
Q 39.15625 29.25 43.1875 25.515625 
Q 47.21875 21.78125 47.21875 15.09375 
Q 47.21875 7.46875 41.1875 3.015625 
Q 35.15625 -1.421875 24.609375 -1.421875 
Q 20.21875 -1.421875 15.453125 -0.5625 
Q 10.6875 0.296875 5.421875 2 
L 5.421875 11.28125 
Q 10.40625 8.6875 15.234375 7.390625 
Q 20.0625 6.109375 24.8125 6.109375 
Q 31.15625 6.109375 34.5625 8.28125 
Q 37.984375 10.453125 37.984375 14.40625 
Q 37.984375 18.0625 35.515625 20.015625 
Q 33.0625 21.96875 24.703125 23.78125 
L 21.578125 24.515625 
Q 13.234375 26.265625 9.515625 29.90625 
Q 5.8125 33.546875 5.8125 39.890625 
Q 5.8125 47.609375 11.28125 51.796875 
Q 16.75 56 26.8125 56 
Q 31.78125 56 36.171875 55.265625 
Q 40.578125 54.546875 44.28125 53.078125 
z
" id="DejaVuSans-73"/>
     </defs>
     <g transform="translate(94.6 73.026688)scale(0.1 -0.1)">
      <use xlink:href="#DejaVuSans-74"/>
      <use x="39.208984" xlink:href="#DejaVuSans-65"/>
      <use x="100.732422" xlink:href="#DejaVuSans-73"/>
      <use x="152.832031" xlink:href="#DejaVuSans-74"/>
      <use x="192.041016" xlink:href="#DejaVuSans-5f"/>
      <use x="242.041016" xlink:href="#DejaVuSans-61"/>
      <use x="303.320312" xlink:href="#DejaVuSans-63"/>
      <use x="358.300781" xlink:href="#DejaVuSans-63"/>
     </g>
    </g>
   </g>
  </g>
  <g id="axes_2">
   <g id="matplotlib.axis_3">
    <g id="ytick_6">
     <g id="line2d_29">
      <defs>
       <path d="M 0 0 
L 3.5 0 
" id="m882e1628dc" style="stroke:#000000;stroke-width:0.8;"/>
      </defs>
      <g>
       <use style="stroke:#000000;stroke-width:0.8;" x="414.72" xlink:href="#m882e1628dc" y="299.281381"/>
      </g>
     </g>
     <g id="text_15">
      <!-- 1.4 -->
      <defs>
       <path d="M 10.6875 12.40625 
L 21 12.40625 
L 21 0 
L 10.6875 0 
z
" id="DejaVuSans-2e"/>
      </defs>
      <g transform="translate(421.72 303.0806)scale(0.1 -0.1)">
       <use xlink:href="#DejaVuSans-31"/>
       <use x="63.623047" xlink:href="#DejaVuSans-2e"/>
       <use x="95.410156" xlink:href="#DejaVuSans-34"/>
      </g>
     </g>
    </g>
    <g id="ytick_7">
     <g id="line2d_30">
      <g>
       <use style="stroke:#000000;stroke-width:0.8;" x="414.72" xlink:href="#m882e1628dc" y="251.351831"/>
      </g>
     </g>
     <g id="text_16">
      <!-- 1.6 -->
      <defs>
       <path d="M 33.015625 40.375 
Q 26.375 40.375 22.484375 35.828125 
Q 18.609375 31.296875 18.609375 23.390625 
Q 18.609375 15.53125 22.484375 10.953125 
Q 26.375 6.390625 33.015625 6.390625 
Q 39.65625 6.390625 43.53125 10.953125 
Q 47.40625 15.53125 47.40625 23.390625 
Q 47.40625 31.296875 43.53125 35.828125 
Q 39.65625 40.375 33.015625 40.375 
z
M 52.59375 71.296875 
L 52.59375 62.3125 
Q 48.875 64.0625 45.09375 64.984375 
Q 41.3125 65.921875 37.59375 65.921875 
Q 27.828125 65.921875 22.671875 59.328125 
Q 17.53125 52.734375 16.796875 39.40625 
Q 19.671875 43.65625 24.015625 45.921875 
Q 28.375 48.1875 33.59375 48.1875 
Q 44.578125 48.1875 50.953125 41.515625 
Q 57.328125 34.859375 57.328125 23.390625 
Q 57.328125 12.15625 50.6875 5.359375 
Q 44.046875 -1.421875 33.015625 -1.421875 
Q 20.359375 -1.421875 13.671875 8.265625 
Q 6.984375 17.96875 6.984375 36.375 
Q 6.984375 53.65625 15.1875 63.9375 
Q 23.390625 74.21875 37.203125 74.21875 
Q 40.921875 74.21875 44.703125 73.484375 
Q 48.484375 72.75 52.59375 71.296875 
z
" id="DejaVuSans-36"/>
      </defs>
      <g transform="translate(421.72 255.15105)scale(0.1 -0.1)">
       <use xlink:href="#DejaVuSans-31"/>
       <use x="63.623047" xlink:href="#DejaVuSans-2e"/>
       <use x="95.410156" xlink:href="#DejaVuSans-36"/>
      </g>
     </g>
    </g>
    <g id="ytick_8">
     <g id="line2d_31">
      <g>
       <use style="stroke:#000000;stroke-width:0.8;" x="414.72" xlink:href="#m882e1628dc" y="203.422281"/>
      </g>
     </g>
     <g id="text_17">
      <!-- 1.8 -->
      <defs>
       <path d="M 31.78125 34.625 
Q 24.75 34.625 20.71875 30.859375 
Q 16.703125 27.09375 16.703125 20.515625 
Q 16.703125 13.921875 20.71875 10.15625 
Q 24.75 6.390625 31.78125 6.390625 
Q 38.8125 6.390625 42.859375 10.171875 
Q 46.921875 13.96875 46.921875 20.515625 
Q 46.921875 27.09375 42.890625 30.859375 
Q 38.875 34.625 31.78125 34.625 
z
M 21.921875 38.8125 
Q 15.578125 40.375 12.03125 44.71875 
Q 8.5 49.078125 8.5 55.328125 
Q 8.5 64.0625 14.71875 69.140625 
Q 20.953125 74.21875 31.78125 74.21875 
Q 42.671875 74.21875 48.875 69.140625 
Q 55.078125 64.0625 55.078125 55.328125 
Q 55.078125 49.078125 51.53125 44.71875 
Q 48 40.375 41.703125 38.8125 
Q 48.828125 37.15625 52.796875 32.3125 
Q 56.78125 27.484375 56.78125 20.515625 
Q 56.78125 9.90625 50.3125 4.234375 
Q 43.84375 -1.421875 31.78125 -1.421875 
Q 19.734375 -1.421875 13.25 4.234375 
Q 6.78125 9.90625 6.78125 20.515625 
Q 6.78125 27.484375 10.78125 32.3125 
Q 14.796875 37.15625 21.921875 38.8125 
z
M 18.3125 54.390625 
Q 18.3125 48.734375 21.84375 45.5625 
Q 25.390625 42.390625 31.78125 42.390625 
Q 38.140625 42.390625 41.71875 45.5625 
Q 45.3125 48.734375 45.3125 54.390625 
Q 45.3125 60.0625 41.71875 63.234375 
Q 38.140625 66.40625 31.78125 66.40625 
Q 25.390625 66.40625 21.84375 63.234375 
Q 18.3125 60.0625 18.3125 54.390625 
z
" id="DejaVuSans-38"/>
      </defs>
      <g transform="translate(421.72 207.2215)scale(0.1 -0.1)">
       <use xlink:href="#DejaVuSans-31"/>
       <use x="63.623047" xlink:href="#DejaVuSans-2e"/>
       <use x="95.410156" xlink:href="#DejaVuSans-38"/>
      </g>
     </g>
    </g>
    <g id="ytick_9">
     <g id="line2d_32">
      <g>
       <use style="stroke:#000000;stroke-width:0.8;" x="414.72" xlink:href="#m882e1628dc" y="155.492731"/>
      </g>
     </g>
     <g id="text_18">
      <!-- 2.0 -->
      <g transform="translate(421.72 159.29195)scale(0.1 -0.1)">
       <use xlink:href="#DejaVuSans-32"/>
       <use x="63.623047" xlink:href="#DejaVuSans-2e"/>
       <use x="95.410156" xlink:href="#DejaVuSans-30"/>
      </g>
     </g>
    </g>
    <g id="ytick_10">
     <g id="line2d_33">
      <g>
       <use style="stroke:#000000;stroke-width:0.8;" x="414.72" xlink:href="#m882e1628dc" y="107.563181"/>
      </g>
     </g>
     <g id="text_19">
      <!-- 2.2 -->
      <g transform="translate(421.72 111.3624)scale(0.1 -0.1)">
       <use xlink:href="#DejaVuSans-32"/>
       <use x="63.623047" xlink:href="#DejaVuSans-2e"/>
       <use x="95.410156" xlink:href="#DejaVuSans-32"/>
      </g>
     </g>
    </g>
    <g id="ytick_11">
     <g id="line2d_34">
      <g>
       <use style="stroke:#000000;stroke-width:0.8;" x="414.72" xlink:href="#m882e1628dc" y="59.633631"/>
      </g>
     </g>
     <g id="text_20">
      <!-- 2.4 -->
      <g transform="translate(421.72 63.43285)scale(0.1 -0.1)">
       <use xlink:href="#DejaVuSans-32"/>
       <use x="63.623047" xlink:href="#DejaVuSans-2e"/>
       <use x="95.410156" xlink:href="#DejaVuSans-34"/>
      </g>
     </g>
    </g>
    <g id="text_21">
     <!-- Loss -->
     <defs>
      <path d="M 9.8125 72.90625 
L 19.671875 72.90625 
L 19.671875 8.296875 
L 55.171875 8.296875 
L 55.171875 0 
L 9.8125 0 
z
" id="DejaVuSans-4c"/>
      <path d="M 30.609375 48.390625 
Q 23.390625 48.390625 19.1875 42.75 
Q 14.984375 37.109375 14.984375 27.296875 
Q 14.984375 17.484375 19.15625 11.84375 
Q 23.34375 6.203125 30.609375 6.203125 
Q 37.796875 6.203125 41.984375 11.859375 
Q 46.1875 17.53125 46.1875 27.296875 
Q 46.1875 37.015625 41.984375 42.703125 
Q 37.796875 48.390625 30.609375 48.390625 
z
M 30.609375 56 
Q 42.328125 56 49.015625 48.375 
Q 55.71875 40.765625 55.71875 27.296875 
Q 55.71875 13.875 49.015625 6.21875 
Q 42.328125 -1.421875 30.609375 -1.421875 
Q 18.84375 -1.421875 12.171875 6.21875 
Q 5.515625 13.875 5.515625 27.296875 
Q 5.515625 40.765625 12.171875 48.375 
Q 18.84375 56 30.609375 56 
z
" id="DejaVuSans-6f"/>
     </defs>
     <g transform="translate(449.221563 185.581906)rotate(-90)scale(0.1 -0.1)">
      <use xlink:href="#DejaVuSans-4c"/>
      <use x="55.697266" xlink:href="#DejaVuSans-6f"/>
      <use x="116.878906" xlink:href="#DejaVuSans-73"/>
      <use x="168.978516" xlink:href="#DejaVuSans-73"/>
     </g>
    </g>
   </g>
   <g id="line2d_35">
    <path clip-path="url(#pc107d9348e)" d="M 73.832727 53.568 
L 74.445283 71.399494 
L 75.057839 82.19406 
L 75.670395 89.649056 
L 76.895506 100.07532 
L 78.120617 108.077227 
L 79.958285 118.38219 
L 81.183396 124.237479 
L 82.408508 129.228693 
L 83.633619 133.454164 
L 84.858731 136.977942 
L 86.083842 139.932983 
L 87.921509 143.590632 
L 89.759177 146.640805 
L 91.596844 149.359359 
L 94.047067 152.640078 
L 98.334957 157.86878 
L 105.07307 165.098487 
L 109.973516 169.992426 
L 120.99952 180.863898 
L 124.062298 183.941068 
L 127.125077 187.03718 
L 130.800412 190.905433 
L 132.025523 192.197946 
L 135.088302 195.505091 
L 143.664082 204.252885 
L 147.951973 208.156564 
L 153.464974 212.758564 
L 155.915197 214.632298 
L 158.36542 216.530057 
L 162.65331 219.607199 
L 165.103533 221.21002 
L 171.229091 225.212773 
L 175.516981 227.856021 
L 176.742093 228.60588 
L 186.542985 235.352155 
L 189.605763 237.566793 
L 190.830875 238.379074 
L 191.443431 238.919871 
L 192.055986 239.215666 
L 193.893654 240.544232 
L 203.08199 246.126752 
L 205.532213 247.365471 
L 207.36988 248.309594 
L 208.594991 248.919354 
L 215.333105 252.084829 
L 219.620995 253.960477 
L 220.233551 254.294068 
L 220.846106 254.442223 
L 223.296329 255.405944 
L 231.87211 258.675493 
L 233.709777 259.30728 
L 240.44789 261.882335 
L 243.510669 262.765579 
L 245.348336 263.476957 
L 245.960892 263.588287 
L 247.186003 264.052036 
L 247.798559 264.140426 
L 251.473894 265.266386 
L 258.212007 267.266534 
L 259.437118 267.60961 
L 266.787787 269.523967 
L 268.625455 269.903325 
L 269.850566 270.364131 
L 271.075678 270.575536 
L 274.751012 271.451723 
L 277.813791 272.082653 
L 278.426346 272.350852 
L 280.876569 272.798402 
L 290.677461 274.96096 
L 291.290017 274.933735 
L 291.902573 275.251071 
L 292.515129 275.21356 
L 293.127684 275.354516 
L 293.74024 275.625172 
L 294.352796 275.693078 
L 294.965352 275.876172 
L 295.577907 275.851632 
L 296.803019 276.138886 
L 298.02813 276.419369 
L 298.640686 276.546812 
L 299.253242 276.525785 
L 300.478353 276.847035 
L 306.603911 278.042016 
L 307.216467 278.042873 
L 307.829022 278.267162 
L 308.441578 278.336983 
L 309.054134 278.610695 
L 309.66669 278.518763 
L 310.279245 278.708941 
L 310.891801 278.73911 
L 311.504357 278.939287 
L 312.116913 278.968541 
L 312.729468 279.184745 
L 313.342024 279.186202 
L 316.404803 279.784907 
L 317.017358 279.782707 
L 318.24247 280.181634 
L 318.855026 280.187176 
L 319.467581 280.359871 
L 320.080137 280.388325 
L 321.917804 280.856816 
L 322.53036 280.861015 
L 326.81825 281.672725 
L 328.655918 281.893386 
L 329.881029 282.162299 
L 331.106141 282.334994 
L 338.45681 283.662388 
L 339.069365 283.57297 
L 339.681921 283.76512 
L 340.294477 283.830598 
L 340.907033 284.064115 
L 342.132144 284.158361 
L 342.7447 284.428988 
L 343.969811 284.459442 
L 356.220926 286.527868 
L 356.833482 286.540324 
L 358.058593 286.796153 
L 362.346484 287.418455 
L 363.571595 287.573523 
L 365.409262 288.029786 
L 366.021818 287.869147 
L 366.634374 288.081266 
L 373.372487 289.026561 
L 373.985043 289.288731 
L 374.597599 289.224938 
L 375.82271 289.51842 
L 376.435266 289.420231 
L 377.047822 289.681945 
L 377.660377 289.636464 
L 378.272933 289.930403 
L 378.885489 289.834813 
L 379.498045 290.063302 
L 380.1106 290.081986 
L 381.335712 290.281135 
L 381.948268 290.405807 
L 382.560823 290.405949 
L 383.785935 290.713029 
L 385.623602 290.841729 
L 390.524048 291.642697 
L 392.361715 291.885613 
L 392.974271 292.069906 
L 394.199383 292.097703 
L 395.424494 292.299966 
L 398.487273 292.747574 
L 398.487273 292.747574 
" style="fill:none;stroke:#ff6347;stroke-dasharray:7.4,3.2;stroke-dashoffset:0;stroke-width:2;"/>
   </g>
   <g id="line2d_36">
    <path clip-path="url(#pc107d9348e)" d="M 73.832727 64.987697 
L 74.445283 78.195298 
L 75.057839 86.996131 
L 75.670395 93.514534 
L 76.895506 103.377504 
L 78.733173 115.260722 
L 79.958285 122.069983 
L 81.183396 127.92052 
L 82.408508 132.854091 
L 83.633619 136.982445 
L 84.858731 140.422654 
L 86.083842 143.32404 
L 87.921509 146.961462 
L 89.759177 150.032326 
L 92.2094 153.607634 
L 95.272178 157.610877 
L 98.334957 161.248744 
L 102.010292 165.237125 
L 106.910738 170.188029 
L 126.512521 189.496378 
L 131.412967 194.679758 
L 142.438971 206.254714 
L 146.114305 209.737421 
L 149.78964 213.00096 
L 154.690086 216.999006 
L 159.590532 220.719524 
L 164.490978 224.12493 
L 170.003979 227.756628 
L 177.967204 232.753978 
L 181.029983 234.746758 
L 191.443431 241.899981 
L 195.731321 244.69666 
L 200.019211 247.278604 
L 204.307101 249.628429 
L 209.207547 252.053517 
L 215.94566 255.208342 
L 223.296329 258.260845 
L 233.097221 261.851818 
L 236.772556 262.987577 
L 240.44789 264.307753 
L 248.411115 266.920852 
L 250.861338 267.720826 
L 258.824563 270.118825 
L 262.499897 271.13528 
L 269.850566 273.108184 
L 271.075678 273.393295 
L 274.751012 274.286814 
L 277.201235 274.83883 
L 279.038902 275.265276 
L 283.939348 276.323515 
L 284.551904 276.424275 
L 285.16446 276.650258 
L 285.777015 276.676131 
L 288.227238 277.268163 
L 289.45235 277.496861 
L 290.677461 277.790821 
L 291.290017 277.814358 
L 291.902573 278.059482 
L 292.515129 278.081753 
L 294.965352 278.614206 
L 320.080137 283.391679 
L 320.692693 283.326137 
L 321.305249 283.595423 
L 327.430806 284.654884 
L 328.043362 284.827406 
L 328.655918 284.835309 
L 330.493585 285.229276 
L 331.106141 285.226818 
L 334.168919 285.868399 
L 339.681921 286.767072 
L 340.294477 286.946092 
L 341.519588 287.047255 
L 342.7447 287.358623 
L 343.357256 287.345352 
L 344.582367 287.584974 
L 346.420034 287.883749 
L 348.257702 288.214962 
L 348.870257 288.207797 
L 353.158148 288.898587 
L 354.995815 289.156764 
L 355.60837 289.376633 
L 357.446038 289.531139 
L 358.058593 289.539167 
L 358.671149 289.826573 
L 359.896261 290.043982 
L 361.733928 290.229306 
L 362.346484 290.35308 
L 362.959039 290.31976 
L 363.571595 290.568389 
L 364.796707 290.575576 
L 365.409262 290.875585 
L 367.24693 291.060212 
L 368.472041 291.270032 
L 371.53482 291.702373 
L 377.047822 292.474206 
L 378.272933 292.553425 
L 380.1106 292.895454 
L 383.785935 293.473104 
L 384.398491 293.602141 
L 385.011046 293.495407 
L 386.236158 293.847025 
L 386.848714 293.723803 
L 387.461269 294.041451 
L 388.073825 293.891996 
L 388.686381 294.002958 
L 389.298937 294.285174 
L 390.524048 294.337974 
L 391.74916 294.537801 
L 392.361715 294.771624 
L 392.974271 294.582724 
L 393.586827 294.652105 
L 394.199383 294.909553 
L 396.03705 295.036582 
L 396.649605 295.109388 
L 397.262161 295.342218 
L 397.874717 295.320918 
L 398.487273 295.488 
L 398.487273 295.488 
" style="fill:none;stroke:#4682b4;stroke-dasharray:7.4,3.2;stroke-dashoffset:0;stroke-width:2;"/>
   </g>
   <g id="patch_8">
    <path d="M 57.6 307.584 
L 57.6 41.472 
" style="fill:none;stroke:#000000;stroke-linecap:square;stroke-linejoin:miter;stroke-width:0.8;"/>
   </g>
   <g id="patch_9">
    <path d="M 414.72 307.584 
L 414.72 41.472 
" style="fill:none;stroke:#000000;stroke-linecap:square;stroke-linejoin:miter;stroke-width:0.8;"/>
   </g>
   <g id="patch_10">
    <path d="M 57.6 307.584 
L 414.72 307.584 
" style="fill:none;stroke:#000000;stroke-linecap:square;stroke-linejoin:miter;stroke-width:0.8;"/>
   </g>
   <g id="patch_11">
    <path d="M 57.6 41.472 
L 414.72 41.472 
" style="fill:none;stroke:#000000;stroke-linecap:square;stroke-linejoin:miter;stroke-width:0.8;"/>
   </g>
   <g id="legend_2">
    <g id="patch_12">
     <path d="M 328.129375 79.3845 
L 407.72 79.3845 
Q 409.72 79.3845 409.72 77.3845 
L 409.72 48.472 
Q 409.72 46.472 407.72 46.472 
L 328.129375 46.472 
Q 326.129375 46.472 326.129375 48.472 
L 326.129375 77.3845 
Q 326.129375 79.3845 328.129375 79.3845 
z
" style="fill:#ffffff;opacity:0.8;stroke:#cccccc;stroke-linejoin:miter;"/>
    </g>
    <g id="line2d_37">
     <path d="M 330.129375 54.570438 
L 350.129375 54.570438 
" style="fill:none;stroke:#ff6347;stroke-dasharray:7.4,3.2;stroke-dashoffset:0;stroke-width:2;"/>
    </g>
    <g id="line2d_38"/>
    <g id="text_22">
     <!-- train_loss -->
     <defs>
      <path d="M 9.421875 75.984375 
L 18.40625 75.984375 
L 18.40625 0 
L 9.421875 0 
z
" id="DejaVuSans-6c"/>
     </defs>
     <g transform="translate(358.129375 58.070438)scale(0.1 -0.1)">
      <use xlink:href="#DejaVuSans-74"/>
      <use x="39.208984" xlink:href="#DejaVuSans-72"/>
      <use x="80.322266" xlink:href="#DejaVuSans-61"/>
      <use x="141.601562" xlink:href="#DejaVuSans-69"/>
      <use x="169.384766" xlink:href="#DejaVuSans-6e"/>
      <use x="232.763672" xlink:href="#DejaVuSans-5f"/>
      <use x="282.763672" xlink:href="#DejaVuSans-6c"/>
      <use x="310.546875" xlink:href="#DejaVuSans-6f"/>
      <use x="371.728516" xlink:href="#DejaVuSans-73"/>
      <use x="423.828125" xlink:href="#DejaVuSans-73"/>
     </g>
    </g>
    <g id="line2d_39">
     <path d="M 330.129375 69.526688 
L 350.129375 69.526688 
" style="fill:none;stroke:#4682b4;stroke-dasharray:7.4,3.2;stroke-dashoffset:0;stroke-width:2;"/>
    </g>
    <g id="line2d_40"/>
    <g id="text_23">
     <!-- test_loss -->
     <g transform="translate(358.129375 73.026688)scale(0.1 -0.1)">
      <use xlink:href="#DejaVuSans-74"/>
      <use x="39.208984" xlink:href="#DejaVuSans-65"/>
      <use x="100.732422" xlink:href="#DejaVuSans-73"/>
      <use x="152.832031" xlink:href="#DejaVuSans-74"/>
      <use x="192.041016" xlink:href="#DejaVuSans-5f"/>
      <use x="242.041016" xlink:href="#DejaVuSans-6c"/>
      <use x="269.824219" xlink:href="#DejaVuSans-6f"/>
      <use x="331.005859" xlink:href="#DejaVuSans-73"/>
      <use x="383.105469" xlink:href="#DejaVuSans-73"/>
     </g>
    </g>
   </g>
  </g>
 </g>
 <defs>
  <clipPath id="pc107d9348e">
   <rect height="266.112" width="357.12" x="57.6" y="41.472"/>
  </clipPath>
 </defs>
</svg>
