<?xml version="1.0" encoding="utf-8" standalone="no"?>
<!DOCTYPE svg PUBLIC "-//W3C//DTD SVG 1.1//EN"
  "http://www.w3.org/Graphics/SVG/1.1/DTD/svg11.dtd">
<!-- Created with matplotlib (http://matplotlib.org/) -->
<svg height="345.6pt" version="1.1" viewBox="0 0 460.8 345.6" width="460.8pt" xmlns="http://www.w3.org/2000/svg" xmlns:xlink="http://www.w3.org/1999/xlink">
 <defs>
  <style type="text/css">
*{stroke-linecap:butt;stroke-linejoin:round;}
  </style>
 </defs>
 <g id="figure_1">
  <g id="patch_1">
   <path d="M 0 345.6 
L 460.8 345.6 
L 460.8 0 
L 0 0 
z
" style="fill:#ffffff;"/>
  </g>
  <g id="axes_1">
   <g id="patch_2">
    <path d="M 57.6 307.584 
L 414.72 307.584 
L 414.72 41.472 
L 57.6 41.472 
z
" style="fill:#ffffff;"/>
   </g>
   <g id="matplotlib.axis_1">
    <g id="xtick_1">
     <g id="line2d_1">
      <path clip-path="url(#p1a0494f339)" d="M 73.832727 307.584 
L 73.832727 41.472 
" style="fill:none;stroke:#b0b0b0;stroke-linecap:square;stroke-width:0.8;"/>
     </g>
     <g id="line2d_2">
      <defs>
       <path d="M 0 0 
L 0 3.5 
" id="m796d321b0c" style="stroke:#000000;stroke-width:0.8;"/>
      </defs>
      <g>
       <use style="stroke:#000000;stroke-width:0.8;" x="73.832727" xlink:href="#m796d321b0c" y="307.584"/>
      </g>
     </g>
     <g id="text_1">
      <!-- 0 -->
      <defs>
       <path d="M 31.78125 66.40625 
Q 24.171875 66.40625 20.328125 58.90625 
Q 16.5 51.421875 16.5 36.375 
Q 16.5 21.390625 20.328125 13.890625 
Q 24.171875 6.390625 31.78125 6.390625 
Q 39.453125 6.390625 43.28125 13.890625 
Q 47.125 21.390625 47.125 36.375 
Q 47.125 51.421875 43.28125 58.90625 
Q 39.453125 66.40625 31.78125 66.40625 
z
M 31.78125 74.21875 
Q 44.046875 74.21875 50.515625 64.515625 
Q 56.984375 54.828125 56.984375 36.375 
Q 56.984375 17.96875 50.515625 8.265625 
Q 44.046875 -1.421875 31.78125 -1.421875 
Q 19.53125 -1.421875 13.0625 8.265625 
Q 6.59375 17.96875 6.59375 36.375 
Q 6.59375 54.828125 13.0625 64.515625 
Q 19.53125 74.21875 31.78125 74.21875 
z
" id="DejaVuSans-30"/>
      </defs>
      <g transform="translate(70.651477 322.182437)scale(0.1 -0.1)">
       <use xlink:href="#DejaVuSans-30"/>
      </g>
     </g>
    </g>
    <g id="xtick_2">
     <g id="line2d_3">
      <path clip-path="url(#p1a0494f339)" d="M 134.743524 307.584 
L 134.743524 41.472 
" style="fill:none;stroke:#b0b0b0;stroke-linecap:square;stroke-width:0.8;"/>
     </g>
     <g id="line2d_4">
      <g>
       <use style="stroke:#000000;stroke-width:0.8;" x="134.743524" xlink:href="#m796d321b0c" y="307.584"/>
      </g>
     </g>
     <g id="text_2">
      <!-- 100 -->
      <defs>
       <path d="M 12.40625 8.296875 
L 28.515625 8.296875 
L 28.515625 63.921875 
L 10.984375 60.40625 
L 10.984375 69.390625 
L 28.421875 72.90625 
L 38.28125 72.90625 
L 38.28125 8.296875 
L 54.390625 8.296875 
L 54.390625 0 
L 12.40625 0 
z
" id="DejaVuSans-31"/>
      </defs>
      <g transform="translate(125.199774 322.182437)scale(0.1 -0.1)">
       <use xlink:href="#DejaVuSans-31"/>
       <use x="63.623047" xlink:href="#DejaVuSans-30"/>
       <use x="127.246094" xlink:href="#DejaVuSans-30"/>
      </g>
     </g>
    </g>
    <g id="xtick_3">
     <g id="line2d_5">
      <path clip-path="url(#p1a0494f339)" d="M 195.65432 307.584 
L 195.65432 41.472 
" style="fill:none;stroke:#b0b0b0;stroke-linecap:square;stroke-width:0.8;"/>
     </g>
     <g id="line2d_6">
      <g>
       <use style="stroke:#000000;stroke-width:0.8;" x="195.65432" xlink:href="#m796d321b0c" y="307.584"/>
      </g>
     </g>
     <g id="text_3">
      <!-- 200 -->
      <defs>
       <path d="M 19.1875 8.296875 
L 53.609375 8.296875 
L 53.609375 0 
L 7.328125 0 
L 7.328125 8.296875 
Q 12.9375 14.109375 22.625 23.890625 
Q 32.328125 33.6875 34.8125 36.53125 
Q 39.546875 41.84375 41.421875 45.53125 
Q 43.3125 49.21875 43.3125 52.78125 
Q 43.3125 58.59375 39.234375 62.25 
Q 35.15625 65.921875 28.609375 65.921875 
Q 23.96875 65.921875 18.8125 64.3125 
Q 13.671875 62.703125 7.8125 59.421875 
L 7.8125 69.390625 
Q 13.765625 71.78125 18.9375 73 
Q 24.125 74.21875 28.421875 74.21875 
Q 39.75 74.21875 46.484375 68.546875 
Q 53.21875 62.890625 53.21875 53.421875 
Q 53.21875 48.921875 51.53125 44.890625 
Q 49.859375 40.875 45.40625 35.40625 
Q 44.1875 33.984375 37.640625 27.21875 
Q 31.109375 20.453125 19.1875 8.296875 
z
" id="DejaVuSans-32"/>
      </defs>
      <g transform="translate(186.11057 322.182437)scale(0.1 -0.1)">
       <use xlink:href="#DejaVuSans-32"/>
       <use x="63.623047" xlink:href="#DejaVuSans-30"/>
       <use x="127.246094" xlink:href="#DejaVuSans-30"/>
      </g>
     </g>
    </g>
    <g id="xtick_4">
     <g id="line2d_7">
      <path clip-path="url(#p1a0494f339)" d="M 256.565117 307.584 
L 256.565117 41.472 
" style="fill:none;stroke:#b0b0b0;stroke-linecap:square;stroke-width:0.8;"/>
     </g>
     <g id="line2d_8">
      <g>
       <use style="stroke:#000000;stroke-width:0.8;" x="256.565117" xlink:href="#m796d321b0c" y="307.584"/>
      </g>
     </g>
     <g id="text_4">
      <!-- 300 -->
      <defs>
       <path d="M 40.578125 39.3125 
Q 47.65625 37.796875 51.625 33 
Q 55.609375 28.21875 55.609375 21.1875 
Q 55.609375 10.40625 48.1875 4.484375 
Q 40.765625 -1.421875 27.09375 -1.421875 
Q 22.515625 -1.421875 17.65625 -0.515625 
Q 12.796875 0.390625 7.625 2.203125 
L 7.625 11.71875 
Q 11.71875 9.328125 16.59375 8.109375 
Q 21.484375 6.890625 26.8125 6.890625 
Q 36.078125 6.890625 40.9375 10.546875 
Q 45.796875 14.203125 45.796875 21.1875 
Q 45.796875 27.640625 41.28125 31.265625 
Q 36.765625 34.90625 28.71875 34.90625 
L 20.21875 34.90625 
L 20.21875 43.015625 
L 29.109375 43.015625 
Q 36.375 43.015625 40.234375 45.921875 
Q 44.09375 48.828125 44.09375 54.296875 
Q 44.09375 59.90625 40.109375 62.90625 
Q 36.140625 65.921875 28.71875 65.921875 
Q 24.65625 65.921875 20.015625 65.03125 
Q 15.375 64.15625 9.8125 62.3125 
L 9.8125 71.09375 
Q 15.4375 72.65625 20.34375 73.4375 
Q 25.25 74.21875 29.59375 74.21875 
Q 40.828125 74.21875 47.359375 69.109375 
Q 53.90625 64.015625 53.90625 55.328125 
Q 53.90625 49.265625 50.4375 45.09375 
Q 46.96875 40.921875 40.578125 39.3125 
z
" id="DejaVuSans-33"/>
      </defs>
      <g transform="translate(247.021367 322.182437)scale(0.1 -0.1)">
       <use xlink:href="#DejaVuSans-33"/>
       <use x="63.623047" xlink:href="#DejaVuSans-30"/>
       <use x="127.246094" xlink:href="#DejaVuSans-30"/>
      </g>
     </g>
    </g>
    <g id="xtick_5">
     <g id="line2d_9">
      <path clip-path="url(#p1a0494f339)" d="M 317.475913 307.584 
L 317.475913 41.472 
" style="fill:none;stroke:#b0b0b0;stroke-linecap:square;stroke-width:0.8;"/>
     </g>
     <g id="line2d_10">
      <g>
       <use style="stroke:#000000;stroke-width:0.8;" x="317.475913" xlink:href="#m796d321b0c" y="307.584"/>
      </g>
     </g>
     <g id="text_5">
      <!-- 400 -->
      <defs>
       <path d="M 37.796875 64.3125 
L 12.890625 25.390625 
L 37.796875 25.390625 
z
M 35.203125 72.90625 
L 47.609375 72.90625 
L 47.609375 25.390625 
L 58.015625 25.390625 
L 58.015625 17.1875 
L 47.609375 17.1875 
L 47.609375 0 
L 37.796875 0 
L 37.796875 17.1875 
L 4.890625 17.1875 
L 4.890625 26.703125 
z
" id="DejaVuSans-34"/>
      </defs>
      <g transform="translate(307.932163 322.182437)scale(0.1 -0.1)">
       <use xlink:href="#DejaVuSans-34"/>
       <use x="63.623047" xlink:href="#DejaVuSans-30"/>
       <use x="127.246094" xlink:href="#DejaVuSans-30"/>
      </g>
     </g>
    </g>
    <g id="xtick_6">
     <g id="line2d_11">
      <path clip-path="url(#p1a0494f339)" d="M 378.38671 307.584 
L 378.38671 41.472 
" style="fill:none;stroke:#b0b0b0;stroke-linecap:square;stroke-width:0.8;"/>
     </g>
     <g id="line2d_12">
      <g>
       <use style="stroke:#000000;stroke-width:0.8;" x="378.38671" xlink:href="#m796d321b0c" y="307.584"/>
      </g>
     </g>
     <g id="text_6">
      <!-- 500 -->
      <defs>
       <path d="M 10.796875 72.90625 
L 49.515625 72.90625 
L 49.515625 64.59375 
L 19.828125 64.59375 
L 19.828125 46.734375 
Q 21.96875 47.46875 24.109375 47.828125 
Q 26.265625 48.1875 28.421875 48.1875 
Q 40.625 48.1875 47.75 41.5 
Q 54.890625 34.8125 54.890625 23.390625 
Q 54.890625 11.625 47.5625 5.09375 
Q 40.234375 -1.421875 26.90625 -1.421875 
Q 22.3125 -1.421875 17.546875 -0.640625 
Q 12.796875 0.140625 7.71875 1.703125 
L 7.71875 11.625 
Q 12.109375 9.234375 16.796875 8.0625 
Q 21.484375 6.890625 26.703125 6.890625 
Q 35.15625 6.890625 40.078125 11.328125 
Q 45.015625 15.765625 45.015625 23.390625 
Q 45.015625 31 40.078125 35.4375 
Q 35.15625 39.890625 26.703125 39.890625 
Q 22.75 39.890625 18.8125 39.015625 
Q 14.890625 38.140625 10.796875 36.28125 
z
" id="DejaVuSans-35"/>
      </defs>
      <g transform="translate(368.84296 322.182437)scale(0.1 -0.1)">
       <use xlink:href="#DejaVuSans-35"/>
       <use x="63.623047" xlink:href="#DejaVuSans-30"/>
       <use x="127.246094" xlink:href="#DejaVuSans-30"/>
      </g>
     </g>
    </g>
   </g>
   <g id="matplotlib.axis_2">
    <g id="ytick_1">
     <g id="line2d_13">
      <path clip-path="url(#p1a0494f339)" d="M 57.6 280.905102 
L 414.72 280.905102 
" style="fill:none;stroke:#b0b0b0;stroke-linecap:square;stroke-width:0.8;"/>
     </g>
     <g id="line2d_14">
      <defs>
       <path d="M 0 0 
L -3.5 0 
" id="m18f5eeff47" style="stroke:#000000;stroke-width:0.8;"/>
      </defs>
      <g>
       <use style="stroke:#000000;stroke-width:0.8;" x="57.6" xlink:href="#m18f5eeff47" y="280.905102"/>
      </g>
     </g>
     <g id="text_7">
      <!-- 10 -->
      <g transform="translate(37.875 284.704321)scale(0.1 -0.1)">
       <use xlink:href="#DejaVuSans-31"/>
       <use x="63.623047" xlink:href="#DejaVuSans-30"/>
      </g>
     </g>
    </g>
    <g id="ytick_2">
     <g id="line2d_15">
      <path clip-path="url(#p1a0494f339)" d="M 57.6 224.817034 
L 414.72 224.817034 
" style="fill:none;stroke:#b0b0b0;stroke-linecap:square;stroke-width:0.8;"/>
     </g>
     <g id="line2d_16">
      <g>
       <use style="stroke:#000000;stroke-width:0.8;" x="57.6" xlink:href="#m18f5eeff47" y="224.817034"/>
      </g>
     </g>
     <g id="text_8">
      <!-- 20 -->
      <g transform="translate(37.875 228.616252)scale(0.1 -0.1)">
       <use xlink:href="#DejaVuSans-32"/>
       <use x="63.623047" xlink:href="#DejaVuSans-30"/>
      </g>
     </g>
    </g>
    <g id="ytick_3">
     <g id="line2d_17">
      <path clip-path="url(#p1a0494f339)" d="M 57.6 168.728965 
L 414.72 168.728965 
" style="fill:none;stroke:#b0b0b0;stroke-linecap:square;stroke-width:0.8;"/>
     </g>
     <g id="line2d_18">
      <g>
       <use style="stroke:#000000;stroke-width:0.8;" x="57.6" xlink:href="#m18f5eeff47" y="168.728965"/>
      </g>
     </g>
     <g id="text_9">
      <!-- 30 -->
      <g transform="translate(37.875 172.528184)scale(0.1 -0.1)">
       <use xlink:href="#DejaVuSans-33"/>
       <use x="63.623047" xlink:href="#DejaVuSans-30"/>
      </g>
     </g>
    </g>
    <g id="ytick_4">
     <g id="line2d_19">
      <path clip-path="url(#p1a0494f339)" d="M 57.6 112.640897 
L 414.72 112.640897 
" style="fill:none;stroke:#b0b0b0;stroke-linecap:square;stroke-width:0.8;"/>
     </g>
     <g id="line2d_20">
      <g>
       <use style="stroke:#000000;stroke-width:0.8;" x="57.6" xlink:href="#m18f5eeff47" y="112.640897"/>
      </g>
     </g>
     <g id="text_10">
      <!-- 40 -->
      <g transform="translate(37.875 116.440116)scale(0.1 -0.1)">
       <use xlink:href="#DejaVuSans-34"/>
       <use x="63.623047" xlink:href="#DejaVuSans-30"/>
      </g>
     </g>
    </g>
    <g id="ytick_5">
     <g id="line2d_21">
      <path clip-path="url(#p1a0494f339)" d="M 57.6 56.552828 
L 414.72 56.552828 
" style="fill:none;stroke:#b0b0b0;stroke-linecap:square;stroke-width:0.8;"/>
     </g>
     <g id="line2d_22">
      <g>
       <use style="stroke:#000000;stroke-width:0.8;" x="57.6" xlink:href="#m18f5eeff47" y="56.552828"/>
      </g>
     </g>
     <g id="text_11">
      <!-- 50 -->
      <g transform="translate(37.875 60.352047)scale(0.1 -0.1)">
       <use xlink:href="#DejaVuSans-35"/>
       <use x="63.623047" xlink:href="#DejaVuSans-30"/>
      </g>
     </g>
    </g>
    <g id="text_12">
     <!-- Accuracy -->
     <defs>
      <path d="M 34.1875 63.1875 
L 20.796875 26.90625 
L 47.609375 26.90625 
z
M 28.609375 72.90625 
L 39.796875 72.90625 
L 67.578125 0 
L 57.328125 0 
L 50.6875 18.703125 
L 17.828125 18.703125 
L 11.1875 0 
L 0.78125 0 
z
" id="DejaVuSans-41"/>
      <path d="M 48.78125 52.59375 
L 48.78125 44.1875 
Q 44.96875 46.296875 41.140625 47.34375 
Q 37.3125 48.390625 33.40625 48.390625 
Q 24.65625 48.390625 19.8125 42.84375 
Q 14.984375 37.3125 14.984375 27.296875 
Q 14.984375 17.28125 19.8125 11.734375 
Q 24.65625 6.203125 33.40625 6.203125 
Q 37.3125 6.203125 41.140625 7.25 
Q 44.96875 8.296875 48.78125 10.40625 
L 48.78125 2.09375 
Q 45.015625 0.34375 40.984375 -0.53125 
Q 36.96875 -1.421875 32.421875 -1.421875 
Q 20.0625 -1.421875 12.78125 6.34375 
Q 5.515625 14.109375 5.515625 27.296875 
Q 5.515625 40.671875 12.859375 48.328125 
Q 20.21875 56 33.015625 56 
Q 37.15625 56 41.109375 55.140625 
Q 45.0625 54.296875 48.78125 52.59375 
z
" id="DejaVuSans-63"/>
      <path d="M 8.5 21.578125 
L 8.5 54.6875 
L 17.484375 54.6875 
L 17.484375 21.921875 
Q 17.484375 14.15625 20.5 10.265625 
Q 23.53125 6.390625 29.59375 6.390625 
Q 36.859375 6.390625 41.078125 11.03125 
Q 45.3125 15.671875 45.3125 23.6875 
L 45.3125 54.6875 
L 54.296875 54.6875 
L 54.296875 0 
L 45.3125 0 
L 45.3125 8.40625 
Q 42.046875 3.421875 37.71875 1 
Q 33.40625 -1.421875 27.6875 -1.421875 
Q 18.265625 -1.421875 13.375 4.4375 
Q 8.5 10.296875 8.5 21.578125 
z
M 31.109375 56 
z
" id="DejaVuSans-75"/>
      <path d="M 41.109375 46.296875 
Q 39.59375 47.171875 37.8125 47.578125 
Q 36.03125 48 33.890625 48 
Q 26.265625 48 22.1875 43.046875 
Q 18.109375 38.09375 18.109375 28.8125 
L 18.109375 0 
L 9.078125 0 
L 9.078125 54.6875 
L 18.109375 54.6875 
L 18.109375 46.1875 
Q 20.953125 51.171875 25.484375 53.578125 
Q 30.03125 56 36.53125 56 
Q 37.453125 56 38.578125 55.875 
Q 39.703125 55.765625 41.0625 55.515625 
z
" id="DejaVuSans-72"/>
      <path d="M 34.28125 27.484375 
Q 23.390625 27.484375 19.1875 25 
Q 14.984375 22.515625 14.984375 16.5 
Q 14.984375 11.71875 18.140625 8.90625 
Q 21.296875 6.109375 26.703125 6.109375 
Q 34.1875 6.109375 38.703125 11.40625 
Q 43.21875 16.703125 43.21875 25.484375 
L 43.21875 27.484375 
z
M 52.203125 31.203125 
L 52.203125 0 
L 43.21875 0 
L 43.21875 8.296875 
Q 40.140625 3.328125 35.546875 0.953125 
Q 30.953125 -1.421875 24.3125 -1.421875 
Q 15.921875 -1.421875 10.953125 3.296875 
Q 6 8.015625 6 15.921875 
Q 6 25.140625 12.171875 29.828125 
Q 18.359375 34.515625 30.609375 34.515625 
L 43.21875 34.515625 
L 43.21875 35.40625 
Q 43.21875 41.609375 39.140625 45 
Q 35.0625 48.390625 27.6875 48.390625 
Q 23 48.390625 18.546875 47.265625 
Q 14.109375 46.140625 10.015625 43.890625 
L 10.015625 52.203125 
Q 14.9375 54.109375 19.578125 55.046875 
Q 24.21875 56 28.609375 56 
Q 40.484375 56 46.34375 49.84375 
Q 52.203125 43.703125 52.203125 31.203125 
z
" id="DejaVuSans-61"/>
      <path d="M 32.171875 -5.078125 
Q 28.375 -14.84375 24.75 -17.8125 
Q 21.140625 -20.796875 15.09375 -20.796875 
L 7.90625 -20.796875 
L 7.90625 -13.28125 
L 13.1875 -13.28125 
Q 16.890625 -13.28125 18.9375 -11.515625 
Q 21 -9.765625 23.484375 -3.21875 
L 25.09375 0.875 
L 2.984375 54.6875 
L 12.5 54.6875 
L 29.59375 11.921875 
L 46.6875 54.6875 
L 56.203125 54.6875 
z
" id="DejaVuSans-79"/>
     </defs>
     <g transform="translate(31.795312 197.442844)rotate(-90)scale(0.1 -0.1)">
      <use xlink:href="#DejaVuSans-41"/>
      <use x="68.392578" xlink:href="#DejaVuSans-63"/>
      <use x="123.373047" xlink:href="#DejaVuSans-63"/>
      <use x="178.353516" xlink:href="#DejaVuSans-75"/>
      <use x="241.732422" xlink:href="#DejaVuSans-72"/>
      <use x="282.845703" xlink:href="#DejaVuSans-61"/>
      <use x="344.125" xlink:href="#DejaVuSans-63"/>
      <use x="399.105469" xlink:href="#DejaVuSans-79"/>
     </g>
    </g>
   </g>
   <g id="line2d_23">
    <path clip-path="url(#p1a0494f339)" d="M 73.832727 295.040541 
L 74.441835 290.676701 
L 75.050943 281.91363 
L 77.487375 226.521282 
L 78.096483 219.355586 
L 78.705591 214.768698 
L 79.923807 211.694617 
L 80.532915 210.562131 
L 81.142023 210.281259 
L 81.751131 209.092851 
L 82.360239 208.161653 
L 82.969347 206.669414 
L 84.187563 202.865942 
L 84.796671 201.463641 
L 85.405779 200.533998 
L 86.623995 197.628401 
L 87.233103 196.775933 
L 87.84221 195.643797 
L 88.451318 194.105466 
L 89.060426 193.287875 
L 90.278642 191.167224 
L 90.88775 190.335307 
L 91.496858 189.123597 
L 92.105966 188.294088 
L 92.715074 186.981717 
L 93.93329 185.568017 
L 94.542398 184.24443 
L 95.151506 183.862747 
L 95.760614 183.728086 
L 96.369722 182.887027 
L 96.97883 181.708614 
L 98.197046 180.350861 
L 100.02437 178.444987 
L 100.633478 177.558328 
L 101.242586 176.975173 
L 101.851694 177.211146 
L 102.460802 176.458829 
L 103.06991 175.425608 
L 103.679018 175.213621 
L 104.288126 174.338362 
L 104.897233 173.74501 
L 106.115449 172.296792 
L 106.724557 172.219616 
L 107.333665 171.523731 
L 107.942773 171.321239 
L 108.551881 170.232438 
L 109.160989 170.01975 
L 110.988313 168.192239 
L 112.206529 167.517934 
L 113.424745 166.238727 
L 114.642961 165.498295 
L 115.252069 165.442699 
L 116.470285 164.095292 
L 117.079393 163.53492 
L 117.688501 163.409955 
L 119.515825 161.862095 
L 121.343149 160.100377 
L 122.561364 159.550702 
L 123.77958 158.754173 
L 124.388688 157.945893 
L 124.997796 157.688507 
L 125.606904 157.004875 
L 126.82512 156.297422 
L 127.434228 155.591358 
L 128.043336 155.389016 
L 128.652444 154.715413 
L 129.261552 154.391198 
L 129.87066 153.650265 
L 130.479768 152.584248 
L 131.088876 152.954547 
L 132.9162 151.66394 
L 133.525308 150.833561 
L 134.743524 150.788847 
L 135.352632 150.16168 
L 135.96174 148.870203 
L 136.570848 149.083761 
L 137.179956 148.679262 
L 138.398172 146.99746 
L 139.00728 146.852971 
L 139.616388 147.210818 
L 140.834603 145.718403 
L 142.052819 145.393336 
L 142.661927 145.247109 
L 143.880143 144.036101 
L 144.489251 143.563937 
L 145.098359 143.295318 
L 145.707467 142.409193 
L 146.316575 142.790726 
L 146.925683 142.578037 
L 147.534791 141.815858 
L 148.143899 141.837438 
L 149.362115 140.580663 
L 149.971223 140.345208 
L 151.189439 139.538465 
L 151.798547 139.549531 
L 152.407655 138.875727 
L 153.016763 139.068574 
L 153.625871 138.001504 
L 154.234979 137.978537 
L 154.844087 137.631021 
L 155.453195 136.958103 
L 156.062303 136.117394 
L 157.280519 135.981865 
L 157.889626 135.051377 
L 158.498734 134.927248 
L 159.107842 134.108804 
L 159.71695 134.299378 
L 160.326058 133.032423 
L 160.935166 133.401854 
L 161.544274 132.639324 
L 162.76249 131.641155 
L 163.371598 131.359431 
L 163.980706 130.855324 
L 164.589814 130.058443 
L 165.198922 129.84542 
L 165.80803 129.811922 
L 166.417138 128.802203 
L 168.244462 127.737038 
L 168.85357 126.906493 
L 170.071786 126.390317 
L 170.680894 126.490627 
L 171.290002 124.943837 
L 171.89911 125.055514 
L 172.508218 124.033692 
L 173.117326 124.057361 
L 173.726434 123.798922 
L 174.335542 123.777008 
L 174.944649 123.462639 
L 175.553757 122.46462 
L 176.162865 122.498971 
L 176.771973 121.409502 
L 177.990189 120.264938 
L 178.599297 120.612805 
L 179.208405 119.266251 
L 179.817513 118.638549 
L 181.035729 118.08956 
L 181.644837 117.459116 
L 182.253945 116.484583 
L 182.863053 116.462134 
L 183.472161 115.574806 
L 184.690377 114.781035 
L 185.299485 114.242076 
L 185.908593 113.345588 
L 186.517701 113.467812 
L 187.735917 111.695211 
L 188.345025 111.672946 
L 188.954133 111.302647 
L 190.781457 109.284027 
L 191.390565 109.38519 
L 191.999673 108.464715 
L 192.60878 108.262908 
L 193.217888 108.195745 
L 193.826996 107.399567 
L 194.436104 107.084328 
L 195.65432 106.232738 
L 196.872536 105.896438 
L 198.090752 104.101723 
L 198.69986 104.011944 
L 199.308968 103.517882 
L 200.527184 103.316075 
L 201.136292 102.4296 
L 202.963616 101.880795 
L 203.572724 101.409333 
L 204.181832 100.601053 
L 205.400048 100.559448 
L 206.009156 100.007032 
L 206.618264 100.511808 
L 207.227372 99.132308 
L 207.83648 98.863856 
L 208.445588 98.06629 
L 209.054696 98.413974 
L 209.663804 98.335244 
L 210.272911 97.87585 
L 210.882019 97.616743 
L 211.491127 96.955208 
L 212.100235 96.642728 
L 212.709343 96.474084 
L 213.318451 96.003993 
L 213.927559 96.13745 
L 214.536667 95.823248 
L 215.145775 95.330557 
L 215.754883 95.485911 
L 216.363991 94.162508 
L 216.973099 94.174243 
L 217.582207 94.476175 
L 218.191315 93.623549 
L 218.800423 93.579169 
L 219.409531 92.996532 
L 220.627747 92.693563 
L 221.236855 92.166689 
L 221.845963 92.502103 
L 222.455071 92.175331 
L 223.673287 91.962976 
L 224.891503 90.841898 
L 226.718827 89.95457 
L 227.327935 90.963437 
L 227.937042 89.619841 
L 228.54615 89.820762 
L 229.764366 89.101224 
L 230.373474 88.845226 
L 230.982582 89.170627 
L 231.59169 88.93447 
L 232.200798 87.903138 
L 232.809906 88.183524 
L 233.419014 87.959419 
L 234.028122 88.32905 
L 234.63723 87.264737 
L 235.246338 87.376447 
L 235.855446 87.141828 
L 236.464554 87.106792 
L 237.073662 86.758574 
L 237.68277 86.904451 
L 238.291878 86.444389 
L 238.900986 86.579032 
L 240.119202 85.132201 
L 240.72831 85.805136 
L 241.337418 85.591929 
L 242.555634 85.816703 
L 243.164742 84.985472 
L 243.77385 84.684041 
L 244.382958 84.862546 
L 244.992065 83.807929 
L 245.601173 84.17873 
L 247.428497 83.673268 
L 248.037605 83.167122 
L 249.255821 83.22357 
L 249.864929 83.16779 
L 250.474037 82.708748 
L 251.083145 83.045215 
L 251.692253 82.641953 
L 252.301361 81.676396 
L 252.910469 82.080193 
L 253.519577 82.326196 
L 254.128685 81.833321 
L 254.737793 82.293918 
L 255.346901 81.642564 
L 255.956009 81.855436 
L 256.565117 80.834317 
L 257.783333 81.05874 
L 258.392441 80.789937 
L 259.001549 80.082485 
L 259.610657 80.432425 
L 260.219765 80.342311 
L 260.828873 79.700267 
L 261.437981 79.848567 
L 262.047089 79.445472 
L 262.656196 79.769319 
L 263.265304 79.096234 
L 263.874412 78.882843 
L 264.48352 79.197748 
L 265.092628 78.769261 
L 265.701736 78.614425 
L 266.310844 78.961223 
L 267.52906 77.963405 
L 268.138168 77.716015 
L 268.747276 77.884507 
L 269.356384 78.771685 
L 269.965492 77.659733 
L 270.5746 77.514208 
L 271.183708 78.075449 
L 271.792816 77.761782 
L 272.401924 77.21159 
L 273.011032 77.314123 
L 273.62014 76.952448 
L 274.229248 77.344695 
L 274.838356 76.998216 
L 275.447464 77.86154 
L 276.056572 76.415913 
L 276.66568 76.098969 
L 277.274788 76.011597 
L 277.883896 75.776643 
L 278.493004 75.83259 
L 279.102112 76.224119 
L 279.71122 76.41384 
L 280.929435 75.373899 
L 282.147651 75.485241 
L 284.584083 75.079906 
L 285.193191 74.463938 
L 285.802299 74.833051 
L 286.411407 74.338956 
L 287.020515 74.519183 
L 287.629623 74.092452 
L 288.238731 74.014574 
L 288.847839 74.328241 
L 289.456947 73.600079 
L 290.066055 73.801885 
L 290.675163 72.759705 
L 291.284271 73.420353 
L 291.893379 73.408636 
L 292.502487 72.848431 
L 293.720703 73.161596 
L 294.329811 72.959255 
L 294.938919 73.285208 
L 295.548027 72.949593 
L 296.157135 72.434119 
L 296.766243 72.331402 
L 297.375351 72.376969 
L 298.593566 72.0058 
L 299.202674 71.557456 
L 299.811782 71.803659 
L 300.42089 71.916388 
L 301.029998 70.896289 
L 302.248214 71.232054 
L 302.857322 71.536076 
L 303.46643 70.692927 
L 304.075538 70.930472 
L 304.684646 70.661352 
L 305.293754 70.87384 
L 306.51197 70.302603 
L 307.121078 70.234938 
L 307.730186 69.560432 
L 308.339294 70.402378 
L 308.948402 70.616638 
L 310.166618 69.562004 
L 310.775726 69.730664 
L 311.384834 69.381777 
L 311.993942 69.212933 
L 312.60305 69.865491 
L 313.212158 68.596965 
L 313.821266 68.338559 
L 314.430374 69.484327 
L 315.039481 68.506701 
L 315.648589 68.463023 
L 316.257697 68.283649 
L 316.866805 67.330177 
L 317.475913 68.585933 
L 318.085021 67.992581 
L 318.694129 68.46182 
L 319.303237 68.440725 
L 319.912345 68.542071 
L 320.521453 67.34263 
L 321.130561 67.834636 
L 322.957885 67.071237 
L 323.566993 66.993209 
L 324.176101 67.240933 
L 324.785209 66.746002 
L 325.394317 67.116118 
L 326.003425 66.802618 
L 326.612533 66.746002 
L 327.221641 66.197549 
L 327.830749 65.995391 
L 328.439857 66.072901 
L 329.048965 65.781649 
L 329.658073 65.826363 
L 330.876289 65.445717 
L 331.485397 65.220943 
L 332.094505 65.648058 
L 332.703612 65.232861 
L 333.31272 65.187461 
L 333.921828 65.501647 
L 335.140044 64.403703 
L 335.749152 64.3229 
L 336.35826 64.436666 
L 336.967368 64.356565 
L 337.576476 64.547841 
L 338.185584 64.414217 
L 338.794692 64.414067 
L 339.4038 64.157165 
L 340.012908 64.26819 
L 341.231124 63.26845 
L 342.44934 63.640488 
L 343.058448 63.001051 
L 343.667556 62.921468 
L 344.276664 63.325433 
L 344.885772 62.932166 
L 346.103988 63.009342 
L 347.322204 62.653368 
L 347.931312 61.832835 
L 348.54042 62.080208 
L 349.758636 61.766023 
L 350.367743 61.564734 
L 350.976851 62.708446 
L 351.585959 61.182868 
L 352.195067 61.385026 
L 352.804175 61.756361 
L 353.413283 61.240001 
L 354.022391 60.891967 
L 354.631499 60.778736 
L 355.240607 61.104489 
L 355.849715 60.25116 
L 356.458823 61.352397 
L 357.067931 60.744887 
L 357.677039 60.46557 
L 358.286147 60.947229 
L 358.895255 60.621978 
L 359.504363 59.702355 
L 360.113471 59.556144 
L 360.722579 60.331963 
L 361.331687 60.375624 
L 361.940795 59.78142 
L 362.549903 59.713237 
L 363.159011 59.198966 
L 363.768119 59.466198 
L 364.377227 60.376326 
L 364.986335 59.794207 
L 365.595443 59.500214 
L 366.204551 59.432365 
L 366.813659 58.70315 
L 367.422767 58.873565 
L 368.031874 58.345805 
L 368.640982 58.311087 
L 369.25009 58.849896 
L 369.859198 58.647738 
L 370.468306 58.962625 
L 371.077414 57.96464 
L 371.686522 58.164892 
L 372.29563 57.90871 
L 372.904738 57.244568 
L 374.122954 57.941489 
L 374.732062 57.336253 
L 375.34117 57.706886 
L 376.559386 57.16776 
L 377.168494 57.527194 
L 377.777602 57.301367 
L 378.38671 57.997419 
L 378.995818 56.93177 
L 379.604926 56.977002 
L 380.214034 56.729261 
L 380.823142 57.066063 
L 381.43225 56.112775 
L 382.041358 56.561821 
L 382.650466 56.327536 
L 383.259574 56.739959 
L 383.868682 56.450462 
L 384.47779 55.943781 
L 385.086897 55.608868 
L 386.305113 56.368957 
L 386.914221 55.348707 
L 387.523329 55.473171 
L 388.132437 55.393939 
L 388.741545 55.585032 
L 389.350653 54.990861 
L 389.959761 54.967192 
L 390.568869 54.721373 
L 391.177977 53.948312 
L 391.787085 54.610682 
L 392.396193 54.64194 
L 393.005301 55.080256 
L 393.614409 54.341228 
L 394.223517 55.002428 
L 395.441733 54.553883 
L 396.050841 54.405783 
L 396.659949 53.947276 
L 397.269057 54.2176 
L 397.878165 53.568 
L 398.487273 54.44102 
L 398.487273 54.44102 
" style="fill:none;stroke:#ff6347;stroke-linecap:square;stroke-width:2;"/>
   </g>
   <g id="line2d_24">
    <path clip-path="url(#p1a0494f339)" d="M 73.832727 295.488 
L 74.441835 289.710929 
L 75.660051 261.330366 
L 76.878267 232.332835 
L 77.487375 218.198642 
L 78.096483 211.748514 
L 78.705591 209.448903 
L 79.314699 209.392815 
L 79.923807 208.719758 
L 80.532915 206.588411 
L 81.142023 206.756676 
L 81.751131 206.139707 
L 83.578455 202.550071 
L 84.187563 202.942687 
L 84.796671 201.035693 
L 85.405779 198.567818 
L 86.014887 197.277792 
L 86.623995 195.482974 
L 87.233103 194.585565 
L 87.84221 193.127275 
L 88.451318 191.332457 
L 89.060426 190.435048 
L 90.278642 187.350204 
L 90.88775 186.228443 
L 91.496858 184.26536 
L 92.105966 183.592303 
L 92.715074 183.143599 
L 93.93329 181.517045 
L 94.542398 180.50746 
L 96.369722 178.320025 
L 96.97883 177.142176 
L 98.197046 175.403445 
L 99.415262 172.767306 
L 100.02437 172.430778 
L 100.633478 171.533369 
L 101.242586 170.299431 
L 101.851694 169.738551 
L 102.460802 169.402022 
L 103.06991 168.448525 
L 103.679018 167.99982 
L 104.288126 167.102411 
L 104.897233 166.709795 
L 105.506341 166.709795 
L 106.115449 166.148914 
L 106.724557 165.027153 
L 107.333665 164.185832 
L 107.942773 163.737127 
L 108.551881 163.512775 
L 109.160989 162.391014 
L 109.770097 162.166661 
L 110.379205 161.605781 
L 110.988313 160.820548 
L 112.206529 160.596195 
L 112.815637 160.259667 
L 113.424745 159.58661 
L 114.033853 159.810962 
L 114.642961 159.474434 
L 115.252069 159.30617 
L 115.861177 158.633113 
L 116.470285 158.520937 
L 117.079393 157.903968 
L 117.688501 157.735704 
L 120.124933 156.277414 
L 120.734041 156.613942 
L 121.343149 156.333502 
L 122.561364 156.670031 
L 123.170472 156.053062 
L 124.388688 155.267829 
L 124.997796 155.099565 
L 126.216012 153.641275 
L 128.043336 151.622104 
L 128.652444 151.622104 
L 129.87066 151.229488 
L 130.479768 151.117312 
L 131.088876 150.388167 
L 131.697984 150.051638 
L 132.307092 149.883374 
L 132.9162 149.490758 
L 133.525308 148.929877 
L 134.134416 148.649437 
L 134.743524 148.032468 
L 135.352632 147.639852 
L 135.96174 146.742442 
L 137.179956 146.349826 
L 138.398172 145.284153 
L 139.00728 145.340241 
L 139.616388 145.171977 
L 140.834603 143.657599 
L 142.052819 143.32107 
L 143.880143 141.414076 
L 145.707467 140.180138 
L 146.316575 140.236227 
L 146.925683 139.899698 
L 148.143899 138.777937 
L 148.753007 138.10488 
L 149.362115 138.217056 
L 149.971223 137.375735 
L 150.580331 137.319647 
L 151.189439 136.758766 
L 151.798547 136.64659 
L 152.407655 135.861357 
L 153.625871 135.076124 
L 154.234979 135.020036 
L 154.844087 134.851772 
L 155.453195 134.010451 
L 156.671411 133.337394 
L 157.280519 132.944778 
L 157.889626 132.720425 
L 158.498734 132.271721 
L 159.107842 132.215633 
L 160.326058 131.486488 
L 160.935166 131.4304 
L 161.544274 130.981695 
L 162.153382 130.869519 
L 162.76249 130.532991 
L 163.371598 130.757343 
L 163.980706 129.747758 
L 164.589814 129.803846 
L 165.198922 129.579493 
L 165.80803 129.747758 
L 167.635354 128.289468 
L 168.244462 127.335971 
L 168.85357 126.831178 
L 169.462678 126.999442 
L 170.071786 126.158121 
L 171.290002 125.597241 
L 171.89911 124.980272 
L 173.117326 124.419391 
L 174.335542 123.129366 
L 174.944649 122.680661 
L 175.553757 122.400221 
L 176.162865 121.222371 
L 176.771973 120.773667 
L 177.990189 119.259289 
L 179.208405 118.417968 
L 181.035729 116.510974 
L 181.644837 115.333124 
L 182.253945 114.996596 
L 182.863053 113.818746 
L 183.472161 113.538306 
L 184.081269 113.089601 
L 184.690377 112.472633 
L 186.517701 111.519135 
L 187.126809 111.575224 
L 187.735917 111.238695 
L 188.954133 109.892581 
L 189.563241 109.556053 
L 190.172349 109.05126 
L 192.60878 107.592971 
L 193.217888 107.03209 
L 193.826996 106.976002 
L 194.436104 106.75165 
L 195.045212 106.246857 
L 195.65432 105.5738 
L 196.263428 105.517712 
L 196.872536 105.237272 
L 198.090752 104.283775 
L 199.308968 103.55463 
L 199.918076 103.330277 
L 200.527184 103.610718 
L 201.136292 102.993749 
L 201.7454 102.601133 
L 202.354508 102.881573 
L 202.963616 102.37678 
L 203.572724 102.601133 
L 204.181832 101.647635 
L 205.400048 100.974579 
L 206.009156 100.862402 
L 206.618264 99.852817 
L 207.83648 99.291937 
L 208.445588 98.338439 
L 209.054696 98.282351 
L 209.663804 97.609294 
L 210.272911 97.272766 
L 211.491127 96.263181 
L 212.100235 95.926652 
L 213.927559 94.187922 
L 214.536667 94.356187 
L 215.145775 93.851394 
L 215.754883 94.019658 
L 216.363991 93.627042 
L 216.973099 93.795306 
L 217.582207 93.514865 
L 218.191315 93.627042 
L 218.800423 92.897897 
L 219.409531 93.178337 
L 220.018639 93.290513 
L 220.627747 92.617456 
L 221.236855 92.841809 
L 221.845963 92.337016 
L 222.455071 92.112664 
L 223.064179 92.112664 
L 223.673287 91.663959 
L 224.282395 91.720047 
L 225.500611 90.878726 
L 226.109719 90.76655 
L 226.718827 90.934814 
L 227.327935 90.542198 
L 227.937042 90.373934 
L 228.54615 89.869141 
L 229.155258 90.037405 
L 229.764366 89.644789 
L 230.982582 89.756965 
L 231.59169 90.093493 
L 232.809906 88.523027 
L 233.419014 88.523027 
L 234.028122 88.915644 
L 234.63723 88.186499 
L 235.246338 88.410851 
L 236.464554 88.298675 
L 237.073662 88.298675 
L 237.68277 87.906059 
L 238.291878 87.28909 
L 238.900986 87.345178 
L 239.510094 87.28909 
L 240.119202 87.56953 
L 241.337418 87.625618 
L 242.555634 86.391681 
L 243.164742 86.559945 
L 246.210281 84.933391 
L 249.255821 84.260334 
L 249.864929 84.035982 
L 250.474037 84.260334 
L 251.083145 83.475101 
L 251.692253 83.81163 
L 252.301361 83.082485 
L 252.910469 82.858132 
L 253.519577 82.297252 
L 254.128685 82.858132 
L 254.737793 82.970309 
L 255.956009 82.185076 
L 257.174225 82.241164 
L 258.392441 81.343755 
L 259.001549 81.399843 
L 259.610657 81.568107 
L 260.219765 81.119402 
L 263.265304 80.165905 
L 263.874412 79.829377 
L 265.092628 79.492848 
L 265.701736 78.988056 
L 266.919952 78.931968 
L 267.52906 78.988056 
L 268.138168 78.763703 
L 268.747276 78.931968 
L 269.356384 78.651527 
L 269.965492 78.595439 
L 271.183708 78.034559 
L 272.401924 77.810206 
L 273.011032 77.866294 
L 273.62014 77.473678 
L 274.229248 77.473678 
L 274.838356 76.520181 
L 275.447464 76.632357 
L 277.883896 76.071476 
L 278.493004 76.071476 
L 279.102112 75.847124 
L 279.71122 75.903212 
L 280.929435 75.67886 
L 281.538543 75.847124 
L 282.147651 75.510596 
L 282.756759 75.734948 
L 283.365867 75.566684 
L 283.974975 74.837539 
L 285.193191 75.286243 
L 285.802299 75.117979 
L 286.411407 74.669274 
L 287.020515 74.613186 
L 287.629623 74.837539 
L 288.238731 74.781451 
L 289.456947 74.052306 
L 290.066055 74.669274 
L 291.284271 74.893627 
L 291.893379 74.893627 
L 292.502487 74.052306 
L 293.111595 73.884042 
L 293.720703 74.164482 
L 294.329811 74.276658 
L 294.938919 74.893627 
L 295.548027 73.94013 
L 296.157135 74.276658 
L 297.375351 73.771865 
L 297.984458 73.996218 
L 298.593566 73.996218 
L 299.811782 74.22057 
L 300.42089 73.435337 
L 301.029998 74.22057 
L 301.639106 73.771865 
L 302.857322 73.267073 
L 303.46643 73.491425 
L 304.075538 73.098809 
L 304.684646 73.323161 
L 305.293754 72.76228 
L 305.902862 72.369664 
L 306.51197 72.425752 
L 307.121078 72.76228 
L 307.730186 72.089223 
L 308.339294 72.537928 
L 308.948402 72.201399 
L 309.55751 72.369664 
L 310.775726 71.920959 
L 311.384834 71.920959 
L 311.993942 72.033135 
L 312.60305 71.528343 
L 313.212158 71.416167 
L 313.821266 71.528343 
L 315.039481 71.191814 
L 315.648589 70.630934 
L 316.257697 71.135726 
L 316.866805 70.518757 
L 317.475913 70.630934 
L 318.085021 70.294405 
L 318.694129 70.350493 
L 319.303237 69.733524 
L 320.521453 69.28482 
L 321.130561 69.621348 
L 321.739669 69.172644 
L 322.348777 69.396996 
L 322.957885 68.892203 
L 323.566993 68.723939 
L 324.176101 68.948291 
L 325.394317 68.892203 
L 326.003425 68.331323 
L 326.612533 68.387411 
L 327.830749 68.331323 
L 328.439857 67.490002 
L 329.048965 68.331323 
L 329.658073 67.209561 
L 330.267181 67.321738 
L 330.876289 67.882618 
L 331.485397 67.265649 
L 332.094505 66.985209 
L 332.703612 67.82653 
L 333.31272 67.209561 
L 333.921828 66.985209 
L 334.530936 67.490002 
L 335.140044 67.265649 
L 335.749152 67.265649 
L 336.967368 66.873033 
L 337.576476 66.929121 
L 338.185584 67.209561 
L 338.794692 66.704769 
L 339.4038 66.760857 
L 340.012908 66.256064 
L 340.622016 66.704769 
L 341.231124 66.424328 
L 341.840232 65.919536 
L 342.44934 65.80736 
L 343.058448 65.246479 
L 343.667556 65.583007 
L 344.276664 65.639095 
L 345.49488 65.078215 
L 346.103988 65.134303 
L 346.713096 65.414743 
L 347.322204 65.358655 
L 347.931312 65.639095 
L 348.54042 64.966039 
L 349.149528 65.246479 
L 349.758636 64.461246 
L 350.976851 64.909951 
L 351.585959 64.573422 
L 353.413283 64.180806 
L 354.022391 63.956453 
L 354.631499 64.34907 
L 355.240607 63.900365 
L 355.849715 63.732101 
L 356.458823 64.461246 
L 357.067931 63.507749 
L 357.677039 63.283397 
L 358.286147 63.451661 
L 358.895255 62.89078 
L 359.504363 63.339485 
L 360.113471 62.666428 
L 360.722579 63.507749 
L 361.331687 62.666428 
L 361.940795 62.273811 
L 362.549903 62.498164 
L 363.159011 63.002956 
L 363.768119 62.385987 
L 364.377227 62.049459 
L 365.595443 62.498164 
L 366.204551 62.105547 
L 366.813659 61.43249 
L 367.422767 61.264226 
L 368.031874 62.161635 
L 368.640982 61.320314 
L 369.859198 61.15205 
L 370.468306 61.15205 
L 371.077414 60.647257 
L 371.686522 60.591169 
L 372.29563 60.198553 
L 372.904738 61.376402 
L 373.513846 60.310729 
L 374.122954 61.488578 
L 374.732062 61.039874 
L 375.34117 60.254641 
L 376.559386 60.535081 
L 377.168494 59.581584 
L 377.777602 59.637672 
L 378.38671 60.478993 
L 378.995818 59.974201 
L 379.604926 59.974201 
L 380.214034 59.749848 
L 381.43225 58.796351 
L 382.041358 59.188968 
L 382.650466 59.020703 
L 383.259574 59.076791 
L 383.868682 58.852439 
L 384.47779 58.908527 
L 385.086897 59.469408 
L 385.696005 58.459823 
L 386.305113 58.740263 
L 386.914221 59.188968 
L 387.523329 58.123294 
L 388.132437 58.23547 
L 388.741545 58.684175 
L 389.350653 58.740263 
L 389.959761 58.179382 
L 390.568869 57.394149 
L 391.177977 57.95503 
L 392.396193 57.057621 
L 393.005301 57.786766 
L 393.614409 57.450237 
L 394.223517 57.730678 
L 394.832625 57.394149 
L 395.441733 57.450237 
L 396.050841 57.225885 
L 396.659949 57.338061 
L 397.269057 56.2163 
L 397.878165 56.440652 
L 398.487273 56.328476 
L 398.487273 56.328476 
" style="fill:none;stroke:#4682b4;stroke-linecap:square;stroke-width:2;"/>
   </g>
   <g id="patch_3">
    <path d="M 57.6 307.584 
L 57.6 41.472 
" style="fill:none;stroke:#000000;stroke-linecap:square;stroke-linejoin:miter;stroke-width:0.8;"/>
   </g>
   <g id="patch_4">
    <path d="M 414.72 307.584 
L 414.72 41.472 
" style="fill:none;stroke:#000000;stroke-linecap:square;stroke-linejoin:miter;stroke-width:0.8;"/>
   </g>
   <g id="patch_5">
    <path d="M 57.6 307.584 
L 414.72 307.584 
" style="fill:none;stroke:#000000;stroke-linecap:square;stroke-linejoin:miter;stroke-width:0.8;"/>
   </g>
   <g id="patch_6">
    <path d="M 57.6 41.472 
L 414.72 41.472 
" style="fill:none;stroke:#000000;stroke-linecap:square;stroke-linejoin:miter;stroke-width:0.8;"/>
   </g>
   <g id="legend_1">
    <g id="patch_7">
     <path d="M 64.6 79.3845 
L 142 79.3845 
Q 144 79.3845 144 77.3845 
L 144 48.472 
Q 144 46.472 142 46.472 
L 64.6 46.472 
Q 62.6 46.472 62.6 48.472 
L 62.6 77.3845 
Q 62.6 79.3845 64.6 79.3845 
z
" style="fill:#ffffff;opacity:0.8;stroke:#cccccc;stroke-linejoin:miter;"/>
    </g>
    <g id="line2d_25">
     <path d="M 66.6 54.570438 
L 86.6 54.570438 
" style="fill:none;stroke:#ff6347;stroke-linecap:square;stroke-width:2;"/>
    </g>
    <g id="line2d_26"/>
    <g id="text_13">
     <!-- train_acc -->
     <defs>
      <path d="M 18.3125 70.21875 
L 18.3125 54.6875 
L 36.8125 54.6875 
L 36.8125 47.703125 
L 18.3125 47.703125 
L 18.3125 18.015625 
Q 18.3125 11.328125 20.140625 9.421875 
Q 21.96875 7.515625 27.59375 7.515625 
L 36.8125 7.515625 
L 36.8125 0 
L 27.59375 0 
Q 17.1875 0 13.234375 3.875 
Q 9.28125 7.765625 9.28125 18.015625 
L 9.28125 47.703125 
L 2.6875 47.703125 
L 2.6875 54.6875 
L 9.28125 54.6875 
L 9.28125 70.21875 
z
" id="DejaVuSans-74"/>
      <path d="M 9.421875 54.6875 
L 18.40625 54.6875 
L 18.40625 0 
L 9.421875 0 
z
M 9.421875 75.984375 
L 18.40625 75.984375 
L 18.40625 64.59375 
L 9.421875 64.59375 
z
" id="DejaVuSans-69"/>
      <path d="M 54.890625 33.015625 
L 54.890625 0 
L 45.90625 0 
L 45.90625 32.71875 
Q 45.90625 40.484375 42.875 44.328125 
Q 39.84375 48.1875 33.796875 48.1875 
Q 26.515625 48.1875 22.3125 43.546875 
Q 18.109375 38.921875 18.109375 30.90625 
L 18.109375 0 
L 9.078125 0 
L 9.078125 54.6875 
L 18.109375 54.6875 
L 18.109375 46.1875 
Q 21.34375 51.125 25.703125 53.5625 
Q 30.078125 56 35.796875 56 
Q 45.21875 56 50.046875 50.171875 
Q 54.890625 44.34375 54.890625 33.015625 
z
" id="DejaVuSans-6e"/>
      <path d="M 50.984375 -16.609375 
L 50.984375 -23.578125 
L -0.984375 -23.578125 
L -0.984375 -16.609375 
z
" id="DejaVuSans-5f"/>
     </defs>
     <g transform="translate(94.6 58.070438)scale(0.1 -0.1)">
      <use xlink:href="#DejaVuSans-74"/>
      <use x="39.208984" xlink:href="#DejaVuSans-72"/>
      <use x="80.322266" xlink:href="#DejaVuSans-61"/>
      <use x="141.601562" xlink:href="#DejaVuSans-69"/>
      <use x="169.384766" xlink:href="#DejaVuSans-6e"/>
      <use x="232.763672" xlink:href="#DejaVuSans-5f"/>
      <use x="282.763672" xlink:href="#DejaVuSans-61"/>
      <use x="344.042969" xlink:href="#DejaVuSans-63"/>
      <use x="399.023438" xlink:href="#DejaVuSans-63"/>
     </g>
    </g>
    <g id="line2d_27">
     <path d="M 66.6 69.526688 
L 86.6 69.526688 
" style="fill:none;stroke:#4682b4;stroke-linecap:square;stroke-width:2;"/>
    </g>
    <g id="line2d_28"/>
    <g id="text_14">
     <!-- test_acc -->
     <defs>
      <path d="M 56.203125 29.59375 
L 56.203125 25.203125 
L 14.890625 25.203125 
Q 15.484375 15.921875 20.484375 11.0625 
Q 25.484375 6.203125 34.421875 6.203125 
Q 39.59375 6.203125 44.453125 7.46875 
Q 49.3125 8.734375 54.109375 11.28125 
L 54.109375 2.78125 
Q 49.265625 0.734375 44.1875 -0.34375 
Q 39.109375 -1.421875 33.890625 -1.421875 
Q 20.796875 -1.421875 13.15625 6.1875 
Q 5.515625 13.8125 5.515625 26.8125 
Q 5.515625 40.234375 12.765625 48.109375 
Q 20.015625 56 32.328125 56 
Q 43.359375 56 49.78125 48.890625 
Q 56.203125 41.796875 56.203125 29.59375 
z
M 47.21875 32.234375 
Q 47.125 39.59375 43.09375 43.984375 
Q 39.0625 48.390625 32.421875 48.390625 
Q 24.90625 48.390625 20.390625 44.140625 
Q 15.875 39.890625 15.1875 32.171875 
z
" id="DejaVuSans-65"/>
      <path d="M 44.28125 53.078125 
L 44.28125 44.578125 
Q 40.484375 46.53125 36.375 47.5 
Q 32.28125 48.484375 27.875 48.484375 
Q 21.1875 48.484375 17.84375 46.4375 
Q 14.5 44.390625 14.5 40.28125 
Q 14.5 37.15625 16.890625 35.375 
Q 19.28125 33.59375 26.515625 31.984375 
L 29.59375 31.296875 
Q 39.15625 29.25 43.1875 25.515625 
Q 47.21875 21.78125 47.21875 15.09375 
Q 47.21875 7.46875 41.1875 3.015625 
Q 35.15625 -1.421875 24.609375 -1.421875 
Q 20.21875 -1.421875 15.453125 -0.5625 
Q 10.6875 0.296875 5.421875 2 
L 5.421875 11.28125 
Q 10.40625 8.6875 15.234375 7.390625 
Q 20.0625 6.109375 24.8125 6.109375 
Q 31.15625 6.109375 34.5625 8.28125 
Q 37.984375 10.453125 37.984375 14.40625 
Q 37.984375 18.0625 35.515625 20.015625 
Q 33.0625 21.96875 24.703125 23.78125 
L 21.578125 24.515625 
Q 13.234375 26.265625 9.515625 29.90625 
Q 5.8125 33.546875 5.8125 39.890625 
Q 5.8125 47.609375 11.28125 51.796875 
Q 16.75 56 26.8125 56 
Q 31.78125 56 36.171875 55.265625 
Q 40.578125 54.546875 44.28125 53.078125 
z
" id="DejaVuSans-73"/>
     </defs>
     <g transform="translate(94.6 73.026688)scale(0.1 -0.1)">
      <use xlink:href="#DejaVuSans-74"/>
      <use x="39.208984" xlink:href="#DejaVuSans-65"/>
      <use x="100.732422" xlink:href="#DejaVuSans-73"/>
      <use x="152.832031" xlink:href="#DejaVuSans-74"/>
      <use x="192.041016" xlink:href="#DejaVuSans-5f"/>
      <use x="242.041016" xlink:href="#DejaVuSans-61"/>
      <use x="303.320312" xlink:href="#DejaVuSans-63"/>
      <use x="358.300781" xlink:href="#DejaVuSans-63"/>
     </g>
    </g>
   </g>
  </g>
  <g id="axes_2">
   <g id="matplotlib.axis_3">
    <g id="ytick_6">
     <g id="line2d_29">
      <defs>
       <path d="M 0 0 
L 3.5 0 
" id="mba15d59f9a" style="stroke:#000000;stroke-width:0.8;"/>
      </defs>
      <g>
       <use style="stroke:#000000;stroke-width:0.8;" x="414.72" xlink:href="#mba15d59f9a" y="298.992688"/>
      </g>
     </g>
     <g id="text_15">
      <!-- 1.4 -->
      <defs>
       <path d="M 10.6875 12.40625 
L 21 12.40625 
L 21 0 
L 10.6875 0 
z
" id="DejaVuSans-2e"/>
      </defs>
      <g transform="translate(421.72 302.791906)scale(0.1 -0.1)">
       <use xlink:href="#DejaVuSans-31"/>
       <use x="63.623047" xlink:href="#DejaVuSans-2e"/>
       <use x="95.410156" xlink:href="#DejaVuSans-34"/>
      </g>
     </g>
    </g>
    <g id="ytick_7">
     <g id="line2d_30">
      <g>
       <use style="stroke:#000000;stroke-width:0.8;" x="414.72" xlink:href="#mba15d59f9a" y="251.119451"/>
      </g>
     </g>
     <g id="text_16">
      <!-- 1.6 -->
      <defs>
       <path d="M 33.015625 40.375 
Q 26.375 40.375 22.484375 35.828125 
Q 18.609375 31.296875 18.609375 23.390625 
Q 18.609375 15.53125 22.484375 10.953125 
Q 26.375 6.390625 33.015625 6.390625 
Q 39.65625 6.390625 43.53125 10.953125 
Q 47.40625 15.53125 47.40625 23.390625 
Q 47.40625 31.296875 43.53125 35.828125 
Q 39.65625 40.375 33.015625 40.375 
z
M 52.59375 71.296875 
L 52.59375 62.3125 
Q 48.875 64.0625 45.09375 64.984375 
Q 41.3125 65.921875 37.59375 65.921875 
Q 27.828125 65.921875 22.671875 59.328125 
Q 17.53125 52.734375 16.796875 39.40625 
Q 19.671875 43.65625 24.015625 45.921875 
Q 28.375 48.1875 33.59375 48.1875 
Q 44.578125 48.1875 50.953125 41.515625 
Q 57.328125 34.859375 57.328125 23.390625 
Q 57.328125 12.15625 50.6875 5.359375 
Q 44.046875 -1.421875 33.015625 -1.421875 
Q 20.359375 -1.421875 13.671875 8.265625 
Q 6.984375 17.96875 6.984375 36.375 
Q 6.984375 53.65625 15.1875 63.9375 
Q 23.390625 74.21875 37.203125 74.21875 
Q 40.921875 74.21875 44.703125 73.484375 
Q 48.484375 72.75 52.59375 71.296875 
z
" id="DejaVuSans-36"/>
      </defs>
      <g transform="translate(421.72 254.91867)scale(0.1 -0.1)">
       <use xlink:href="#DejaVuSans-31"/>
       <use x="63.623047" xlink:href="#DejaVuSans-2e"/>
       <use x="95.410156" xlink:href="#DejaVuSans-36"/>
      </g>
     </g>
    </g>
    <g id="ytick_8">
     <g id="line2d_31">
      <g>
       <use style="stroke:#000000;stroke-width:0.8;" x="414.72" xlink:href="#mba15d59f9a" y="203.246214"/>
      </g>
     </g>
     <g id="text_17">
      <!-- 1.8 -->
      <defs>
       <path d="M 31.78125 34.625 
Q 24.75 34.625 20.71875 30.859375 
Q 16.703125 27.09375 16.703125 20.515625 
Q 16.703125 13.921875 20.71875 10.15625 
Q 24.75 6.390625 31.78125 6.390625 
Q 38.8125 6.390625 42.859375 10.171875 
Q 46.921875 13.96875 46.921875 20.515625 
Q 46.921875 27.09375 42.890625 30.859375 
Q 38.875 34.625 31.78125 34.625 
z
M 21.921875 38.8125 
Q 15.578125 40.375 12.03125 44.71875 
Q 8.5 49.078125 8.5 55.328125 
Q 8.5 64.0625 14.71875 69.140625 
Q 20.953125 74.21875 31.78125 74.21875 
Q 42.671875 74.21875 48.875 69.140625 
Q 55.078125 64.0625 55.078125 55.328125 
Q 55.078125 49.078125 51.53125 44.71875 
Q 48 40.375 41.703125 38.8125 
Q 48.828125 37.15625 52.796875 32.3125 
Q 56.78125 27.484375 56.78125 20.515625 
Q 56.78125 9.90625 50.3125 4.234375 
Q 43.84375 -1.421875 31.78125 -1.421875 
Q 19.734375 -1.421875 13.25 4.234375 
Q 6.78125 9.90625 6.78125 20.515625 
Q 6.78125 27.484375 10.78125 32.3125 
Q 14.796875 37.15625 21.921875 38.8125 
z
M 18.3125 54.390625 
Q 18.3125 48.734375 21.84375 45.5625 
Q 25.390625 42.390625 31.78125 42.390625 
Q 38.140625 42.390625 41.71875 45.5625 
Q 45.3125 48.734375 45.3125 54.390625 
Q 45.3125 60.0625 41.71875 63.234375 
Q 38.140625 66.40625 31.78125 66.40625 
Q 25.390625 66.40625 21.84375 63.234375 
Q 18.3125 60.0625 18.3125 54.390625 
z
" id="DejaVuSans-38"/>
      </defs>
      <g transform="translate(421.72 207.045433)scale(0.1 -0.1)">
       <use xlink:href="#DejaVuSans-31"/>
       <use x="63.623047" xlink:href="#DejaVuSans-2e"/>
       <use x="95.410156" xlink:href="#DejaVuSans-38"/>
      </g>
     </g>
    </g>
    <g id="ytick_9">
     <g id="line2d_32">
      <g>
       <use style="stroke:#000000;stroke-width:0.8;" x="414.72" xlink:href="#mba15d59f9a" y="155.372978"/>
      </g>
     </g>
     <g id="text_18">
      <!-- 2.0 -->
      <g transform="translate(421.72 159.172196)scale(0.1 -0.1)">
       <use xlink:href="#DejaVuSans-32"/>
       <use x="63.623047" xlink:href="#DejaVuSans-2e"/>
       <use x="95.410156" xlink:href="#DejaVuSans-30"/>
      </g>
     </g>
    </g>
    <g id="ytick_10">
     <g id="line2d_33">
      <g>
       <use style="stroke:#000000;stroke-width:0.8;" x="414.72" xlink:href="#mba15d59f9a" y="107.499741"/>
      </g>
     </g>
     <g id="text_19">
      <!-- 2.2 -->
      <g transform="translate(421.72 111.29896)scale(0.1 -0.1)">
       <use xlink:href="#DejaVuSans-32"/>
       <use x="63.623047" xlink:href="#DejaVuSans-2e"/>
       <use x="95.410156" xlink:href="#DejaVuSans-32"/>
      </g>
     </g>
    </g>
    <g id="ytick_11">
     <g id="line2d_34">
      <g>
       <use style="stroke:#000000;stroke-width:0.8;" x="414.72" xlink:href="#mba15d59f9a" y="59.626505"/>
      </g>
     </g>
     <g id="text_20">
      <!-- 2.4 -->
      <g transform="translate(421.72 63.425723)scale(0.1 -0.1)">
       <use xlink:href="#DejaVuSans-32"/>
       <use x="63.623047" xlink:href="#DejaVuSans-2e"/>
       <use x="95.410156" xlink:href="#DejaVuSans-34"/>
      </g>
     </g>
    </g>
    <g id="text_21">
     <!-- Loss -->
     <defs>
      <path d="M 9.8125 72.90625 
L 19.671875 72.90625 
L 19.671875 8.296875 
L 55.171875 8.296875 
L 55.171875 0 
L 9.8125 0 
z
" id="DejaVuSans-4c"/>
      <path d="M 30.609375 48.390625 
Q 23.390625 48.390625 19.1875 42.75 
Q 14.984375 37.109375 14.984375 27.296875 
Q 14.984375 17.484375 19.15625 11.84375 
Q 23.34375 6.203125 30.609375 6.203125 
Q 37.796875 6.203125 41.984375 11.859375 
Q 46.1875 17.53125 46.1875 27.296875 
Q 46.1875 37.015625 41.984375 42.703125 
Q 37.796875 48.390625 30.609375 48.390625 
z
M 30.609375 56 
Q 42.328125 56 49.015625 48.375 
Q 55.71875 40.765625 55.71875 27.296875 
Q 55.71875 13.875 49.015625 6.21875 
Q 42.328125 -1.421875 30.609375 -1.421875 
Q 18.84375 -1.421875 12.171875 6.21875 
Q 5.515625 13.875 5.515625 27.296875 
Q 5.515625 40.765625 12.171875 48.375 
Q 18.84375 56 30.609375 56 
z
" id="DejaVuSans-6f"/>
     </defs>
     <g transform="translate(449.221563 185.581906)rotate(-90)scale(0.1 -0.1)">
      <use xlink:href="#DejaVuSans-4c"/>
      <use x="55.697266" xlink:href="#DejaVuSans-6f"/>
      <use x="116.878906" xlink:href="#DejaVuSans-73"/>
      <use x="168.978516" xlink:href="#DejaVuSans-73"/>
     </g>
    </g>
   </g>
   <g id="line2d_35">
    <path clip-path="url(#p1a0494f339)" d="M 73.832727 53.568 
L 74.441835 71.378544 
L 75.050943 82.160427 
L 75.660051 89.606664 
L 76.878267 100.020678 
L 78.096483 108.013183 
L 79.923807 118.306039 
L 81.142023 124.154448 
L 82.360239 129.139798 
L 83.578455 133.360304 
L 84.796671 136.879942 
L 86.014887 139.831511 
L 87.84221 143.484862 
L 89.669534 146.531452 
L 91.496858 149.246812 
L 93.93329 152.523677 
L 98.197046 157.746235 
L 104.897233 164.967448 
L 109.770097 169.855637 
L 120.734041 180.714335 
L 123.77958 183.78789 
L 128.043336 188.139856 
L 139.616388 200.473569 
L 147.534791 207.974935 
L 153.016763 212.571528 
L 155.453195 214.44306 
L 157.889626 216.33859 
L 162.153382 219.412117 
L 164.589814 221.013054 
L 170.680894 225.011104 
L 174.944649 227.651246 
L 176.162865 228.400225 
L 185.908593 235.138573 
L 188.954133 237.35061 
L 190.172349 238.161936 
L 190.781457 238.702097 
L 191.390565 238.997545 
L 193.217888 240.32455 
L 202.354508 245.900511 
L 204.79094 247.137774 
L 206.618264 248.080788 
L 207.83648 248.689832 
L 214.536667 251.851588 
L 218.800423 253.725032 
L 219.409531 254.058231 
L 220.018639 254.206212 
L 222.455071 255.168801 
L 230.982582 258.434508 
L 232.809906 259.065553 
L 239.510094 261.637582 
L 242.555634 262.519789 
L 244.382958 263.230331 
L 244.992065 263.34153 
L 246.210281 263.804734 
L 246.819389 263.89302 
L 250.474037 265.017657 
L 257.174225 267.015455 
L 258.392441 267.358128 
L 265.701736 269.270236 
L 267.52906 269.649148 
L 268.747276 270.109413 
L 269.965492 270.320569 
L 273.62014 271.195728 
L 276.66568 271.825916 
L 277.274788 272.093799 
L 279.71122 272.540823 
L 289.456947 274.700841 
L 290.066055 274.673648 
L 290.675163 274.990611 
L 291.284271 274.953145 
L 291.893379 275.093935 
L 292.502487 275.364272 
L 293.111595 275.432099 
L 293.720703 275.614978 
L 294.329811 275.590467 
L 295.548027 275.877383 
L 296.766243 276.157536 
L 297.375351 276.284829 
L 297.984458 276.263828 
L 299.202674 276.5847 
L 305.293754 277.778277 
L 305.902862 277.779133 
L 306.51197 278.003159 
L 307.121078 278.072898 
L 307.730186 278.346288 
L 308.339294 278.254464 
L 308.948402 278.444419 
L 309.55751 278.474552 
L 310.166618 278.674494 
L 310.775726 278.703714 
L 311.384834 278.919664 
L 311.993942 278.921119 
L 315.039481 279.51912 
L 315.648589 279.516923 
L 316.866805 279.915381 
L 317.475913 279.920917 
L 318.085021 280.093409 
L 318.694129 280.12183 
L 320.521453 280.58977 
L 321.130561 280.593964 
L 325.394317 281.40472 
L 327.221641 281.625122 
L 328.439857 281.893719 
L 329.658073 282.066211 
L 336.967368 283.392046 
L 337.576476 283.302732 
L 338.185584 283.494657 
L 338.794692 283.560058 
L 339.4038 283.7933 
L 340.622016 283.887436 
L 341.231124 284.157745 
L 342.44934 284.188163 
L 354.631499 286.254159 
L 355.240607 286.2666 
L 356.458823 286.522128 
L 360.722579 287.143699 
L 361.940795 287.298585 
L 363.768119 287.754312 
L 364.377227 287.593862 
L 364.986335 287.805732 
L 371.686522 288.749916 
L 372.29563 289.011778 
L 372.904738 288.94806 
L 374.122954 289.241197 
L 374.732062 289.143124 
L 375.34117 289.40453 
L 375.950278 289.359102 
L 376.559386 289.652696 
L 377.168494 289.557219 
L 377.777602 289.785439 
L 378.38671 289.804101 
L 379.604926 290.003016 
L 380.214034 290.127541 
L 380.823142 290.127684 
L 382.041358 290.434403 
L 383.868682 290.562952 
L 388.741545 291.362978 
L 390.568869 291.605609 
L 391.177977 291.789686 
L 392.396193 291.81745 
L 393.614409 292.019476 
L 398.487273 292.629604 
L 398.487273 292.629604 
" style="fill:none;stroke:#ff6347;stroke-dasharray:7.4,3.2;stroke-dashoffset:0;stroke-width:2;"/>
   </g>
   <g id="line2d_36">
    <path clip-path="url(#p1a0494f339)" d="M 73.832727 64.97428 
L 74.441835 78.166363 
L 75.050943 86.956855 
L 75.660051 93.4676 
L 76.878267 103.318982 
L 78.705591 115.188238 
L 79.923807 121.989499 
L 81.142023 127.833162 
L 82.360239 132.760936 
L 83.578455 136.884439 
L 84.796671 140.320607 
L 86.014887 143.218584 
L 87.84221 146.851732 
L 89.669534 149.918988 
L 92.105966 153.490096 
L 95.151506 157.488635 
L 98.197046 161.122228 
L 101.851694 165.105923 
L 106.724557 170.05101 
L 126.216012 189.336674 
L 131.088876 194.513963 
L 142.052819 206.07532 
L 145.707467 209.553934 
L 149.362115 212.813639 
L 154.234979 216.806987 
L 159.107842 220.523135 
L 163.980706 223.924539 
L 169.462678 227.55197 
L 177.381081 232.543449 
L 180.426621 234.533887 
L 190.781457 241.678706 
L 195.045212 244.472099 
L 199.308968 247.05101 
L 203.572724 249.398074 
L 208.445588 251.820313 
L 215.145775 254.971431 
L 222.455071 258.020347 
L 232.200798 261.607102 
L 235.855446 262.741526 
L 239.510094 264.060151 
L 247.428497 266.67018 
L 249.864929 267.469214 
L 257.783333 269.864395 
L 261.437981 270.879656 
L 268.747276 272.850242 
L 269.965492 273.135017 
L 273.62014 274.027487 
L 276.056572 274.578854 
L 277.883896 275.0048 
L 282.756759 276.061795 
L 283.365867 276.162437 
L 283.974975 276.388155 
L 284.584083 276.413997 
L 287.020515 277.005333 
L 288.238731 277.233763 
L 289.456947 277.527377 
L 290.066055 277.550886 
L 290.675163 277.795723 
L 291.284271 277.817967 
L 293.720703 278.349795 
L 318.694129 283.121655 
L 319.303237 283.05619 
L 319.912345 283.325159 
L 326.003425 284.383375 
L 326.612533 284.555695 
L 327.221641 284.563589 
L 329.048965 284.957092 
L 329.658073 284.954637 
L 332.703612 285.595465 
L 338.185584 286.493082 
L 338.794692 286.671892 
L 340.012908 286.772936 
L 341.231124 287.083938 
L 341.840232 287.070682 
L 343.058448 287.310023 
L 344.885772 287.608447 
L 346.713096 287.939271 
L 347.322204 287.932115 
L 351.585959 288.622093 
L 353.413283 288.879966 
L 354.022391 289.099577 
L 355.849715 289.253901 
L 356.458823 289.26192 
L 357.067931 289.548988 
L 358.286147 289.766142 
L 360.113471 289.951248 
L 360.722579 290.074876 
L 361.331687 290.041595 
L 361.940795 290.289932 
L 363.159011 290.297111 
L 363.768119 290.596767 
L 365.595443 290.781177 
L 366.813659 290.990752 
L 370.468306 291.512734 
L 371.077414 291.628411 
L 371.686522 291.626939 
L 373.513846 291.966388 
L 375.34117 292.19351 
L 376.559386 292.272637 
L 378.38671 292.614263 
L 382.041358 293.191234 
L 382.650466 293.320121 
L 383.259574 293.213511 
L 384.47779 293.564716 
L 385.086897 293.441639 
L 385.696005 293.758914 
L 386.305113 293.609635 
L 386.914221 293.720466 
L 387.523329 294.00235 
L 388.741545 294.055089 
L 389.959761 294.254681 
L 390.568869 294.488229 
L 391.177977 294.299551 
L 391.787085 294.368851 
L 392.396193 294.625996 
L 394.223517 294.752876 
L 394.832625 294.825596 
L 395.441733 295.058153 
L 396.050841 295.036878 
L 397.269057 295.286681 
L 397.878165 295.327625 
L 398.487273 295.488 
L 398.487273 295.488 
" style="fill:none;stroke:#4682b4;stroke-dasharray:7.4,3.2;stroke-dashoffset:0;stroke-width:2;"/>
   </g>
   <g id="patch_8">
    <path d="M 57.6 307.584 
L 57.6 41.472 
" style="fill:none;stroke:#000000;stroke-linecap:square;stroke-linejoin:miter;stroke-width:0.8;"/>
   </g>
   <g id="patch_9">
    <path d="M 414.72 307.584 
L 414.72 41.472 
" style="fill:none;stroke:#000000;stroke-linecap:square;stroke-linejoin:miter;stroke-width:0.8;"/>
   </g>
   <g id="patch_10">
    <path d="M 57.6 307.584 
L 414.72 307.584 
" style="fill:none;stroke:#000000;stroke-linecap:square;stroke-linejoin:miter;stroke-width:0.8;"/>
   </g>
   <g id="patch_11">
    <path d="M 57.6 41.472 
L 414.72 41.472 
" style="fill:none;stroke:#000000;stroke-linecap:square;stroke-linejoin:miter;stroke-width:0.8;"/>
   </g>
   <g id="legend_2">
    <g id="patch_12">
     <path d="M 328.129375 79.3845 
L 407.72 79.3845 
Q 409.72 79.3845 409.72 77.3845 
L 409.72 48.472 
Q 409.72 46.472 407.72 46.472 
L 328.129375 46.472 
Q 326.129375 46.472 326.129375 48.472 
L 326.129375 77.3845 
Q 326.129375 79.3845 328.129375 79.3845 
z
" style="fill:#ffffff;opacity:0.8;stroke:#cccccc;stroke-linejoin:miter;"/>
    </g>
    <g id="line2d_37">
     <path d="M 330.129375 54.570438 
L 350.129375 54.570438 
" style="fill:none;stroke:#ff6347;stroke-dasharray:7.4,3.2;stroke-dashoffset:0;stroke-width:2;"/>
    </g>
    <g id="line2d_38"/>
    <g id="text_22">
     <!-- train_loss -->
     <defs>
      <path d="M 9.421875 75.984375 
L 18.40625 75.984375 
L 18.40625 0 
L 9.421875 0 
z
" id="DejaVuSans-6c"/>
     </defs>
     <g transform="translate(358.129375 58.070438)scale(0.1 -0.1)">
      <use xlink:href="#DejaVuSans-74"/>
      <use x="39.208984" xlink:href="#DejaVuSans-72"/>
      <use x="80.322266" xlink:href="#DejaVuSans-61"/>
      <use x="141.601562" xlink:href="#DejaVuSans-69"/>
      <use x="169.384766" xlink:href="#DejaVuSans-6e"/>
      <use x="232.763672" xlink:href="#DejaVuSans-5f"/>
      <use x="282.763672" xlink:href="#DejaVuSans-6c"/>
      <use x="310.546875" xlink:href="#DejaVuSans-6f"/>
      <use x="371.728516" xlink:href="#DejaVuSans-73"/>
      <use x="423.828125" xlink:href="#DejaVuSans-73"/>
     </g>
    </g>
    <g id="line2d_39">
     <path d="M 330.129375 69.526688 
L 350.129375 69.526688 
" style="fill:none;stroke:#4682b4;stroke-dasharray:7.4,3.2;stroke-dashoffset:0;stroke-width:2;"/>
    </g>
    <g id="line2d_40"/>
    <g id="text_23">
     <!-- test_loss -->
     <g transform="translate(358.129375 73.026688)scale(0.1 -0.1)">
      <use xlink:href="#DejaVuSans-74"/>
      <use x="39.208984" xlink:href="#DejaVuSans-65"/>
      <use x="100.732422" xlink:href="#DejaVuSans-73"/>
      <use x="152.832031" xlink:href="#DejaVuSans-74"/>
      <use x="192.041016" xlink:href="#DejaVuSans-5f"/>
      <use x="242.041016" xlink:href="#DejaVuSans-6c"/>
      <use x="269.824219" xlink:href="#DejaVuSans-6f"/>
      <use x="331.005859" xlink:href="#DejaVuSans-73"/>
      <use x="383.105469" xlink:href="#DejaVuSans-73"/>
     </g>
    </g>
   </g>
  </g>
  <g id="text_24">
   <!-- ReLU Stocastic Gradient Descent -->
   <defs>
    <path d="M 44.390625 34.1875 
Q 47.5625 33.109375 50.5625 29.59375 
Q 53.5625 26.078125 56.59375 19.921875 
L 66.609375 0 
L 56 0 
L 46.6875 18.703125 
Q 43.0625 26.03125 39.671875 28.421875 
Q 36.28125 30.8125 30.421875 30.8125 
L 19.671875 30.8125 
L 19.671875 0 
L 9.8125 0 
L 9.8125 72.90625 
L 32.078125 72.90625 
Q 44.578125 72.90625 50.734375 67.671875 
Q 56.890625 62.453125 56.890625 51.90625 
Q 56.890625 45.015625 53.6875 40.46875 
Q 50.484375 35.9375 44.390625 34.1875 
z
M 19.671875 64.796875 
L 19.671875 38.921875 
L 32.078125 38.921875 
Q 39.203125 38.921875 42.84375 42.21875 
Q 46.484375 45.515625 46.484375 51.90625 
Q 46.484375 58.296875 42.84375 61.546875 
Q 39.203125 64.796875 32.078125 64.796875 
z
" id="DejaVuSans-52"/>
    <path d="M 8.6875 72.90625 
L 18.609375 72.90625 
L 18.609375 28.609375 
Q 18.609375 16.890625 22.84375 11.734375 
Q 27.09375 6.59375 36.625 6.59375 
Q 46.09375 6.59375 50.34375 11.734375 
Q 54.59375 16.890625 54.59375 28.609375 
L 54.59375 72.90625 
L 64.5 72.90625 
L 64.5 27.390625 
Q 64.5 13.140625 57.4375 5.859375 
Q 50.390625 -1.421875 36.625 -1.421875 
Q 22.796875 -1.421875 15.734375 5.859375 
Q 8.6875 13.140625 8.6875 27.390625 
z
" id="DejaVuSans-55"/>
    <path id="DejaVuSans-20"/>
    <path d="M 53.515625 70.515625 
L 53.515625 60.890625 
Q 47.90625 63.578125 42.921875 64.890625 
Q 37.9375 66.21875 33.296875 66.21875 
Q 25.25 66.21875 20.875 63.09375 
Q 16.5 59.96875 16.5 54.203125 
Q 16.5 49.359375 19.40625 46.890625 
Q 22.3125 44.4375 30.421875 42.921875 
L 36.375 41.703125 
Q 47.40625 39.59375 52.65625 34.296875 
Q 57.90625 29 57.90625 20.125 
Q 57.90625 9.515625 50.796875 4.046875 
Q 43.703125 -1.421875 29.984375 -1.421875 
Q 24.8125 -1.421875 18.96875 -0.25 
Q 13.140625 0.921875 6.890625 3.21875 
L 6.890625 13.375 
Q 12.890625 10.015625 18.65625 8.296875 
Q 24.421875 6.59375 29.984375 6.59375 
Q 38.421875 6.59375 43.015625 9.90625 
Q 47.609375 13.234375 47.609375 19.390625 
Q 47.609375 24.75 44.3125 27.78125 
Q 41.015625 30.8125 33.5 32.328125 
L 27.484375 33.5 
Q 16.453125 35.6875 11.515625 40.375 
Q 6.59375 45.0625 6.59375 53.421875 
Q 6.59375 63.09375 13.40625 68.65625 
Q 20.21875 74.21875 32.171875 74.21875 
Q 37.3125 74.21875 42.625 73.28125 
Q 47.953125 72.359375 53.515625 70.515625 
z
" id="DejaVuSans-53"/>
    <path d="M 59.515625 10.40625 
L 59.515625 29.984375 
L 43.40625 29.984375 
L 43.40625 38.09375 
L 69.28125 38.09375 
L 69.28125 6.78125 
Q 63.578125 2.734375 56.6875 0.65625 
Q 49.8125 -1.421875 42 -1.421875 
Q 24.90625 -1.421875 15.25 8.5625 
Q 5.609375 18.5625 5.609375 36.375 
Q 5.609375 54.25 15.25 64.234375 
Q 24.90625 74.21875 42 74.21875 
Q 49.125 74.21875 55.546875 72.453125 
Q 61.96875 70.703125 67.390625 67.28125 
L 67.390625 56.78125 
Q 61.921875 61.421875 55.765625 63.765625 
Q 49.609375 66.109375 42.828125 66.109375 
Q 29.4375 66.109375 22.71875 58.640625 
Q 16.015625 51.171875 16.015625 36.375 
Q 16.015625 21.625 22.71875 14.15625 
Q 29.4375 6.6875 42.828125 6.6875 
Q 48.046875 6.6875 52.140625 7.59375 
Q 56.25 8.5 59.515625 10.40625 
z
" id="DejaVuSans-47"/>
    <path d="M 45.40625 46.390625 
L 45.40625 75.984375 
L 54.390625 75.984375 
L 54.390625 0 
L 45.40625 0 
L 45.40625 8.203125 
Q 42.578125 3.328125 38.25 0.953125 
Q 33.9375 -1.421875 27.875 -1.421875 
Q 17.96875 -1.421875 11.734375 6.484375 
Q 5.515625 14.40625 5.515625 27.296875 
Q 5.515625 40.1875 11.734375 48.09375 
Q 17.96875 56 27.875 56 
Q 33.9375 56 38.25 53.625 
Q 42.578125 51.265625 45.40625 46.390625 
z
M 14.796875 27.296875 
Q 14.796875 17.390625 18.875 11.75 
Q 22.953125 6.109375 30.078125 6.109375 
Q 37.203125 6.109375 41.296875 11.75 
Q 45.40625 17.390625 45.40625 27.296875 
Q 45.40625 37.203125 41.296875 42.84375 
Q 37.203125 48.484375 30.078125 48.484375 
Q 22.953125 48.484375 18.875 42.84375 
Q 14.796875 37.203125 14.796875 27.296875 
z
" id="DejaVuSans-64"/>
    <path d="M 19.671875 64.796875 
L 19.671875 8.109375 
L 31.59375 8.109375 
Q 46.6875 8.109375 53.6875 14.9375 
Q 60.6875 21.78125 60.6875 36.53125 
Q 60.6875 51.171875 53.6875 57.984375 
Q 46.6875 64.796875 31.59375 64.796875 
z
M 9.8125 72.90625 
L 30.078125 72.90625 
Q 51.265625 72.90625 61.171875 64.09375 
Q 71.09375 55.28125 71.09375 36.53125 
Q 71.09375 17.671875 61.125 8.828125 
Q 51.171875 0 30.078125 0 
L 9.8125 0 
z
" id="DejaVuSans-44"/>
   </defs>
   <g transform="translate(64.970313 22.108875)scale(0.2 -0.2)">
    <use xlink:href="#DejaVuSans-52"/>
    <use x="69.419922" xlink:href="#DejaVuSans-65"/>
    <use x="130.943359" xlink:href="#DejaVuSans-4c"/>
    <use x="186.578125" xlink:href="#DejaVuSans-55"/>
    <use x="259.771484" xlink:href="#DejaVuSans-20"/>
    <use x="291.558594" xlink:href="#DejaVuSans-53"/>
    <use x="355.035156" xlink:href="#DejaVuSans-74"/>
    <use x="394.244141" xlink:href="#DejaVuSans-6f"/>
    <use x="455.425781" xlink:href="#DejaVuSans-63"/>
    <use x="510.40625" xlink:href="#DejaVuSans-61"/>
    <use x="571.685547" xlink:href="#DejaVuSans-73"/>
    <use x="623.785156" xlink:href="#DejaVuSans-74"/>
    <use x="662.994141" xlink:href="#DejaVuSans-69"/>
    <use x="690.777344" xlink:href="#DejaVuSans-63"/>
    <use x="745.757812" xlink:href="#DejaVuSans-20"/>
    <use x="777.544922" xlink:href="#DejaVuSans-47"/>
    <use x="855.035156" xlink:href="#DejaVuSans-72"/>
    <use x="896.148438" xlink:href="#DejaVuSans-61"/>
    <use x="957.427734" xlink:href="#DejaVuSans-64"/>
    <use x="1020.904297" xlink:href="#DejaVuSans-69"/>
    <use x="1048.6875" xlink:href="#DejaVuSans-65"/>
    <use x="1110.210938" xlink:href="#DejaVuSans-6e"/>
    <use x="1173.589844" xlink:href="#DejaVuSans-74"/>
    <use x="1212.798828" xlink:href="#DejaVuSans-20"/>
    <use x="1244.585938" xlink:href="#DejaVuSans-44"/>
    <use x="1321.587891" xlink:href="#DejaVuSans-65"/>
    <use x="1383.111328" xlink:href="#DejaVuSans-73"/>
    <use x="1435.210938" xlink:href="#DejaVuSans-63"/>
    <use x="1490.191406" xlink:href="#DejaVuSans-65"/>
    <use x="1551.714844" xlink:href="#DejaVuSans-6e"/>
    <use x="1615.09375" xlink:href="#DejaVuSans-74"/>
   </g>
  </g>
 </g>
 <defs>
  <clipPath id="p1a0494f339">
   <rect height="266.112" width="357.12" x="57.6" y="41.472"/>
  </clipPath>
 </defs>
</svg>
