<?xml version="1.0" encoding="utf-8" standalone="no"?>
<!DOCTYPE svg PUBLIC "-//W3C//DTD SVG 1.1//EN"
  "http://www.w3.org/Graphics/SVG/1.1/DTD/svg11.dtd">
<!-- Created with matplotlib (http://matplotlib.org/) -->
<svg height="345.6pt" version="1.1" viewBox="0 0 460.8 345.6" width="460.8pt" xmlns="http://www.w3.org/2000/svg" xmlns:xlink="http://www.w3.org/1999/xlink">
 <defs>
  <style type="text/css">
*{stroke-linecap:butt;stroke-linejoin:round;}
  </style>
 </defs>
 <g id="figure_1">
  <g id="patch_1">
   <path d="M 0 345.6 
L 460.8 345.6 
L 460.8 0 
L 0 0 
z
" style="fill:#ffffff;"/>
  </g>
  <g id="axes_1">
   <g id="patch_2">
    <path d="M 57.6 307.584 
L 414.72 307.584 
L 414.72 41.472 
L 57.6 41.472 
z
" style="fill:#ffffff;"/>
   </g>
   <g id="matplotlib.axis_1">
    <g id="xtick_1">
     <g id="line2d_1">
      <path clip-path="url(#pa347b6204a)" d="M 73.832727 307.584 
L 73.832727 41.472 
" style="fill:none;stroke:#b0b0b0;stroke-linecap:square;stroke-width:0.8;"/>
     </g>
     <g id="line2d_2">
      <defs>
       <path d="M 0 0 
L 0 3.5 
" id="m30b67b0ee1" style="stroke:#000000;stroke-width:0.8;"/>
      </defs>
      <g>
       <use style="stroke:#000000;stroke-width:0.8;" x="73.832727" xlink:href="#m30b67b0ee1" y="307.584"/>
      </g>
     </g>
     <g id="text_1">
      <!-- 0 -->
      <defs>
       <path d="M 31.78125 66.40625 
Q 24.171875 66.40625 20.328125 58.90625 
Q 16.5 51.421875 16.5 36.375 
Q 16.5 21.390625 20.328125 13.890625 
Q 24.171875 6.390625 31.78125 6.390625 
Q 39.453125 6.390625 43.28125 13.890625 
Q 47.125 21.390625 47.125 36.375 
Q 47.125 51.421875 43.28125 58.90625 
Q 39.453125 66.40625 31.78125 66.40625 
z
M 31.78125 74.21875 
Q 44.046875 74.21875 50.515625 64.515625 
Q 56.984375 54.828125 56.984375 36.375 
Q 56.984375 17.96875 50.515625 8.265625 
Q 44.046875 -1.421875 31.78125 -1.421875 
Q 19.53125 -1.421875 13.0625 8.265625 
Q 6.59375 17.96875 6.59375 36.375 
Q 6.59375 54.828125 13.0625 64.515625 
Q 19.53125 74.21875 31.78125 74.21875 
z
" id="DejaVuSans-30"/>
      </defs>
      <g transform="translate(70.651477 322.182437)scale(0.1 -0.1)">
       <use xlink:href="#DejaVuSans-30"/>
      </g>
     </g>
    </g>
    <g id="xtick_2">
     <g id="line2d_3">
      <path clip-path="url(#pa347b6204a)" d="M 138.893758 307.584 
L 138.893758 41.472 
" style="fill:none;stroke:#b0b0b0;stroke-linecap:square;stroke-width:0.8;"/>
     </g>
     <g id="line2d_4">
      <g>
       <use style="stroke:#000000;stroke-width:0.8;" x="138.893758" xlink:href="#m30b67b0ee1" y="307.584"/>
      </g>
     </g>
     <g id="text_2">
      <!-- 100 -->
      <defs>
       <path d="M 12.40625 8.296875 
L 28.515625 8.296875 
L 28.515625 63.921875 
L 10.984375 60.40625 
L 10.984375 69.390625 
L 28.421875 72.90625 
L 38.28125 72.90625 
L 38.28125 8.296875 
L 54.390625 8.296875 
L 54.390625 0 
L 12.40625 0 
z
" id="DejaVuSans-31"/>
      </defs>
      <g transform="translate(129.350008 322.182437)scale(0.1 -0.1)">
       <use xlink:href="#DejaVuSans-31"/>
       <use x="63.623047" xlink:href="#DejaVuSans-30"/>
       <use x="127.246094" xlink:href="#DejaVuSans-30"/>
      </g>
     </g>
    </g>
    <g id="xtick_3">
     <g id="line2d_5">
      <path clip-path="url(#pa347b6204a)" d="M 203.95479 307.584 
L 203.95479 41.472 
" style="fill:none;stroke:#b0b0b0;stroke-linecap:square;stroke-width:0.8;"/>
     </g>
     <g id="line2d_6">
      <g>
       <use style="stroke:#000000;stroke-width:0.8;" x="203.95479" xlink:href="#m30b67b0ee1" y="307.584"/>
      </g>
     </g>
     <g id="text_3">
      <!-- 200 -->
      <defs>
       <path d="M 19.1875 8.296875 
L 53.609375 8.296875 
L 53.609375 0 
L 7.328125 0 
L 7.328125 8.296875 
Q 12.9375 14.109375 22.625 23.890625 
Q 32.328125 33.6875 34.8125 36.53125 
Q 39.546875 41.84375 41.421875 45.53125 
Q 43.3125 49.21875 43.3125 52.78125 
Q 43.3125 58.59375 39.234375 62.25 
Q 35.15625 65.921875 28.609375 65.921875 
Q 23.96875 65.921875 18.8125 64.3125 
Q 13.671875 62.703125 7.8125 59.421875 
L 7.8125 69.390625 
Q 13.765625 71.78125 18.9375 73 
Q 24.125 74.21875 28.421875 74.21875 
Q 39.75 74.21875 46.484375 68.546875 
Q 53.21875 62.890625 53.21875 53.421875 
Q 53.21875 48.921875 51.53125 44.890625 
Q 49.859375 40.875 45.40625 35.40625 
Q 44.1875 33.984375 37.640625 27.21875 
Q 31.109375 20.453125 19.1875 8.296875 
z
" id="DejaVuSans-32"/>
      </defs>
      <g transform="translate(194.41104 322.182437)scale(0.1 -0.1)">
       <use xlink:href="#DejaVuSans-32"/>
       <use x="63.623047" xlink:href="#DejaVuSans-30"/>
       <use x="127.246094" xlink:href="#DejaVuSans-30"/>
      </g>
     </g>
    </g>
    <g id="xtick_4">
     <g id="line2d_7">
      <path clip-path="url(#pa347b6204a)" d="M 269.015821 307.584 
L 269.015821 41.472 
" style="fill:none;stroke:#b0b0b0;stroke-linecap:square;stroke-width:0.8;"/>
     </g>
     <g id="line2d_8">
      <g>
       <use style="stroke:#000000;stroke-width:0.8;" x="269.015821" xlink:href="#m30b67b0ee1" y="307.584"/>
      </g>
     </g>
     <g id="text_4">
      <!-- 300 -->
      <defs>
       <path d="M 40.578125 39.3125 
Q 47.65625 37.796875 51.625 33 
Q 55.609375 28.21875 55.609375 21.1875 
Q 55.609375 10.40625 48.1875 4.484375 
Q 40.765625 -1.421875 27.09375 -1.421875 
Q 22.515625 -1.421875 17.65625 -0.515625 
Q 12.796875 0.390625 7.625 2.203125 
L 7.625 11.71875 
Q 11.71875 9.328125 16.59375 8.109375 
Q 21.484375 6.890625 26.8125 6.890625 
Q 36.078125 6.890625 40.9375 10.546875 
Q 45.796875 14.203125 45.796875 21.1875 
Q 45.796875 27.640625 41.28125 31.265625 
Q 36.765625 34.90625 28.71875 34.90625 
L 20.21875 34.90625 
L 20.21875 43.015625 
L 29.109375 43.015625 
Q 36.375 43.015625 40.234375 45.921875 
Q 44.09375 48.828125 44.09375 54.296875 
Q 44.09375 59.90625 40.109375 62.90625 
Q 36.140625 65.921875 28.71875 65.921875 
Q 24.65625 65.921875 20.015625 65.03125 
Q 15.375 64.15625 9.8125 62.3125 
L 9.8125 71.09375 
Q 15.4375 72.65625 20.34375 73.4375 
Q 25.25 74.21875 29.59375 74.21875 
Q 40.828125 74.21875 47.359375 69.109375 
Q 53.90625 64.015625 53.90625 55.328125 
Q 53.90625 49.265625 50.4375 45.09375 
Q 46.96875 40.921875 40.578125 39.3125 
z
" id="DejaVuSans-33"/>
      </defs>
      <g transform="translate(259.472071 322.182437)scale(0.1 -0.1)">
       <use xlink:href="#DejaVuSans-33"/>
       <use x="63.623047" xlink:href="#DejaVuSans-30"/>
       <use x="127.246094" xlink:href="#DejaVuSans-30"/>
      </g>
     </g>
    </g>
    <g id="xtick_5">
     <g id="line2d_9">
      <path clip-path="url(#pa347b6204a)" d="M 334.076852 307.584 
L 334.076852 41.472 
" style="fill:none;stroke:#b0b0b0;stroke-linecap:square;stroke-width:0.8;"/>
     </g>
     <g id="line2d_10">
      <g>
       <use style="stroke:#000000;stroke-width:0.8;" x="334.076852" xlink:href="#m30b67b0ee1" y="307.584"/>
      </g>
     </g>
     <g id="text_5">
      <!-- 400 -->
      <defs>
       <path d="M 37.796875 64.3125 
L 12.890625 25.390625 
L 37.796875 25.390625 
z
M 35.203125 72.90625 
L 47.609375 72.90625 
L 47.609375 25.390625 
L 58.015625 25.390625 
L 58.015625 17.1875 
L 47.609375 17.1875 
L 47.609375 0 
L 37.796875 0 
L 37.796875 17.1875 
L 4.890625 17.1875 
L 4.890625 26.703125 
z
" id="DejaVuSans-34"/>
      </defs>
      <g transform="translate(324.533102 322.182437)scale(0.1 -0.1)">
       <use xlink:href="#DejaVuSans-34"/>
       <use x="63.623047" xlink:href="#DejaVuSans-30"/>
       <use x="127.246094" xlink:href="#DejaVuSans-30"/>
      </g>
     </g>
    </g>
    <g id="xtick_6">
     <g id="line2d_11">
      <path clip-path="url(#pa347b6204a)" d="M 399.137883 307.584 
L 399.137883 41.472 
" style="fill:none;stroke:#b0b0b0;stroke-linecap:square;stroke-width:0.8;"/>
     </g>
     <g id="line2d_12">
      <g>
       <use style="stroke:#000000;stroke-width:0.8;" x="399.137883" xlink:href="#m30b67b0ee1" y="307.584"/>
      </g>
     </g>
     <g id="text_6">
      <!-- 500 -->
      <defs>
       <path d="M 10.796875 72.90625 
L 49.515625 72.90625 
L 49.515625 64.59375 
L 19.828125 64.59375 
L 19.828125 46.734375 
Q 21.96875 47.46875 24.109375 47.828125 
Q 26.265625 48.1875 28.421875 48.1875 
Q 40.625 48.1875 47.75 41.5 
Q 54.890625 34.8125 54.890625 23.390625 
Q 54.890625 11.625 47.5625 5.09375 
Q 40.234375 -1.421875 26.90625 -1.421875 
Q 22.3125 -1.421875 17.546875 -0.640625 
Q 12.796875 0.140625 7.71875 1.703125 
L 7.71875 11.625 
Q 12.109375 9.234375 16.796875 8.0625 
Q 21.484375 6.890625 26.703125 6.890625 
Q 35.15625 6.890625 40.078125 11.328125 
Q 45.015625 15.765625 45.015625 23.390625 
Q 45.015625 31 40.078125 35.4375 
Q 35.15625 39.890625 26.703125 39.890625 
Q 22.75 39.890625 18.8125 39.015625 
Q 14.890625 38.140625 10.796875 36.28125 
z
" id="DejaVuSans-35"/>
      </defs>
      <g transform="translate(389.594133 322.182437)scale(0.1 -0.1)">
       <use xlink:href="#DejaVuSans-35"/>
       <use x="63.623047" xlink:href="#DejaVuSans-30"/>
       <use x="127.246094" xlink:href="#DejaVuSans-30"/>
      </g>
     </g>
    </g>
   </g>
   <g id="matplotlib.axis_2">
    <g id="ytick_1">
     <g id="line2d_13">
      <path clip-path="url(#pa347b6204a)" d="M 57.6 280.755891 
L 414.72 280.755891 
" style="fill:none;stroke:#b0b0b0;stroke-linecap:square;stroke-width:0.8;"/>
     </g>
     <g id="line2d_14">
      <defs>
       <path d="M 0 0 
L -3.5 0 
" id="m52fb45780a" style="stroke:#000000;stroke-width:0.8;"/>
      </defs>
      <g>
       <use style="stroke:#000000;stroke-width:0.8;" x="57.6" xlink:href="#m52fb45780a" y="280.755891"/>
      </g>
     </g>
     <g id="text_7">
      <!-- 10 -->
      <g transform="translate(37.875 284.55511)scale(0.1 -0.1)">
       <use xlink:href="#DejaVuSans-31"/>
       <use x="63.623047" xlink:href="#DejaVuSans-30"/>
      </g>
     </g>
    </g>
    <g id="ytick_2">
     <g id="line2d_15">
      <path clip-path="url(#pa347b6204a)" d="M 57.6 250.744281 
L 414.72 250.744281 
" style="fill:none;stroke:#b0b0b0;stroke-linecap:square;stroke-width:0.8;"/>
     </g>
     <g id="line2d_16">
      <g>
       <use style="stroke:#000000;stroke-width:0.8;" x="57.6" xlink:href="#m52fb45780a" y="250.744281"/>
      </g>
     </g>
     <g id="text_8">
      <!-- 12 -->
      <g transform="translate(37.875 254.5435)scale(0.1 -0.1)">
       <use xlink:href="#DejaVuSans-31"/>
       <use x="63.623047" xlink:href="#DejaVuSans-32"/>
      </g>
     </g>
    </g>
    <g id="ytick_3">
     <g id="line2d_17">
      <path clip-path="url(#pa347b6204a)" d="M 57.6 220.73267 
L 414.72 220.73267 
" style="fill:none;stroke:#b0b0b0;stroke-linecap:square;stroke-width:0.8;"/>
     </g>
     <g id="line2d_18">
      <g>
       <use style="stroke:#000000;stroke-width:0.8;" x="57.6" xlink:href="#m52fb45780a" y="220.73267"/>
      </g>
     </g>
     <g id="text_9">
      <!-- 14 -->
      <g transform="translate(37.875 224.531889)scale(0.1 -0.1)">
       <use xlink:href="#DejaVuSans-31"/>
       <use x="63.623047" xlink:href="#DejaVuSans-34"/>
      </g>
     </g>
    </g>
    <g id="ytick_4">
     <g id="line2d_19">
      <path clip-path="url(#pa347b6204a)" d="M 57.6 190.72106 
L 414.72 190.72106 
" style="fill:none;stroke:#b0b0b0;stroke-linecap:square;stroke-width:0.8;"/>
     </g>
     <g id="line2d_20">
      <g>
       <use style="stroke:#000000;stroke-width:0.8;" x="57.6" xlink:href="#m52fb45780a" y="190.72106"/>
      </g>
     </g>
     <g id="text_10">
      <!-- 16 -->
      <defs>
       <path d="M 33.015625 40.375 
Q 26.375 40.375 22.484375 35.828125 
Q 18.609375 31.296875 18.609375 23.390625 
Q 18.609375 15.53125 22.484375 10.953125 
Q 26.375 6.390625 33.015625 6.390625 
Q 39.65625 6.390625 43.53125 10.953125 
Q 47.40625 15.53125 47.40625 23.390625 
Q 47.40625 31.296875 43.53125 35.828125 
Q 39.65625 40.375 33.015625 40.375 
z
M 52.59375 71.296875 
L 52.59375 62.3125 
Q 48.875 64.0625 45.09375 64.984375 
Q 41.3125 65.921875 37.59375 65.921875 
Q 27.828125 65.921875 22.671875 59.328125 
Q 17.53125 52.734375 16.796875 39.40625 
Q 19.671875 43.65625 24.015625 45.921875 
Q 28.375 48.1875 33.59375 48.1875 
Q 44.578125 48.1875 50.953125 41.515625 
Q 57.328125 34.859375 57.328125 23.390625 
Q 57.328125 12.15625 50.6875 5.359375 
Q 44.046875 -1.421875 33.015625 -1.421875 
Q 20.359375 -1.421875 13.671875 8.265625 
Q 6.984375 17.96875 6.984375 36.375 
Q 6.984375 53.65625 15.1875 63.9375 
Q 23.390625 74.21875 37.203125 74.21875 
Q 40.921875 74.21875 44.703125 73.484375 
Q 48.484375 72.75 52.59375 71.296875 
z
" id="DejaVuSans-36"/>
      </defs>
      <g transform="translate(37.875 194.520279)scale(0.1 -0.1)">
       <use xlink:href="#DejaVuSans-31"/>
       <use x="63.623047" xlink:href="#DejaVuSans-36"/>
      </g>
     </g>
    </g>
    <g id="ytick_5">
     <g id="line2d_21">
      <path clip-path="url(#pa347b6204a)" d="M 57.6 160.709449 
L 414.72 160.709449 
" style="fill:none;stroke:#b0b0b0;stroke-linecap:square;stroke-width:0.8;"/>
     </g>
     <g id="line2d_22">
      <g>
       <use style="stroke:#000000;stroke-width:0.8;" x="57.6" xlink:href="#m52fb45780a" y="160.709449"/>
      </g>
     </g>
     <g id="text_11">
      <!-- 18 -->
      <defs>
       <path d="M 31.78125 34.625 
Q 24.75 34.625 20.71875 30.859375 
Q 16.703125 27.09375 16.703125 20.515625 
Q 16.703125 13.921875 20.71875 10.15625 
Q 24.75 6.390625 31.78125 6.390625 
Q 38.8125 6.390625 42.859375 10.171875 
Q 46.921875 13.96875 46.921875 20.515625 
Q 46.921875 27.09375 42.890625 30.859375 
Q 38.875 34.625 31.78125 34.625 
z
M 21.921875 38.8125 
Q 15.578125 40.375 12.03125 44.71875 
Q 8.5 49.078125 8.5 55.328125 
Q 8.5 64.0625 14.71875 69.140625 
Q 20.953125 74.21875 31.78125 74.21875 
Q 42.671875 74.21875 48.875 69.140625 
Q 55.078125 64.0625 55.078125 55.328125 
Q 55.078125 49.078125 51.53125 44.71875 
Q 48 40.375 41.703125 38.8125 
Q 48.828125 37.15625 52.796875 32.3125 
Q 56.78125 27.484375 56.78125 20.515625 
Q 56.78125 9.90625 50.3125 4.234375 
Q 43.84375 -1.421875 31.78125 -1.421875 
Q 19.734375 -1.421875 13.25 4.234375 
Q 6.78125 9.90625 6.78125 20.515625 
Q 6.78125 27.484375 10.78125 32.3125 
Q 14.796875 37.15625 21.921875 38.8125 
z
M 18.3125 54.390625 
Q 18.3125 48.734375 21.84375 45.5625 
Q 25.390625 42.390625 31.78125 42.390625 
Q 38.140625 42.390625 41.71875 45.5625 
Q 45.3125 48.734375 45.3125 54.390625 
Q 45.3125 60.0625 41.71875 63.234375 
Q 38.140625 66.40625 31.78125 66.40625 
Q 25.390625 66.40625 21.84375 63.234375 
Q 18.3125 60.0625 18.3125 54.390625 
z
" id="DejaVuSans-38"/>
      </defs>
      <g transform="translate(37.875 164.508668)scale(0.1 -0.1)">
       <use xlink:href="#DejaVuSans-31"/>
       <use x="63.623047" xlink:href="#DejaVuSans-38"/>
      </g>
     </g>
    </g>
    <g id="ytick_6">
     <g id="line2d_23">
      <path clip-path="url(#pa347b6204a)" d="M 57.6 130.697839 
L 414.72 130.697839 
" style="fill:none;stroke:#b0b0b0;stroke-linecap:square;stroke-width:0.8;"/>
     </g>
     <g id="line2d_24">
      <g>
       <use style="stroke:#000000;stroke-width:0.8;" x="57.6" xlink:href="#m52fb45780a" y="130.697839"/>
      </g>
     </g>
     <g id="text_12">
      <!-- 20 -->
      <g transform="translate(37.875 134.497058)scale(0.1 -0.1)">
       <use xlink:href="#DejaVuSans-32"/>
       <use x="63.623047" xlink:href="#DejaVuSans-30"/>
      </g>
     </g>
    </g>
    <g id="ytick_7">
     <g id="line2d_25">
      <path clip-path="url(#pa347b6204a)" d="M 57.6 100.686228 
L 414.72 100.686228 
" style="fill:none;stroke:#b0b0b0;stroke-linecap:square;stroke-width:0.8;"/>
     </g>
     <g id="line2d_26">
      <g>
       <use style="stroke:#000000;stroke-width:0.8;" x="57.6" xlink:href="#m52fb45780a" y="100.686228"/>
      </g>
     </g>
     <g id="text_13">
      <!-- 22 -->
      <g transform="translate(37.875 104.485447)scale(0.1 -0.1)">
       <use xlink:href="#DejaVuSans-32"/>
       <use x="63.623047" xlink:href="#DejaVuSans-32"/>
      </g>
     </g>
    </g>
    <g id="ytick_8">
     <g id="line2d_27">
      <path clip-path="url(#pa347b6204a)" d="M 57.6 70.674618 
L 414.72 70.674618 
" style="fill:none;stroke:#b0b0b0;stroke-linecap:square;stroke-width:0.8;"/>
     </g>
     <g id="line2d_28">
      <g>
       <use style="stroke:#000000;stroke-width:0.8;" x="57.6" xlink:href="#m52fb45780a" y="70.674618"/>
      </g>
     </g>
     <g id="text_14">
      <!-- 24 -->
      <g transform="translate(37.875 74.473837)scale(0.1 -0.1)">
       <use xlink:href="#DejaVuSans-32"/>
       <use x="63.623047" xlink:href="#DejaVuSans-34"/>
      </g>
     </g>
    </g>
    <g id="text_15">
     <!-- Accuracy -->
     <defs>
      <path d="M 34.1875 63.1875 
L 20.796875 26.90625 
L 47.609375 26.90625 
z
M 28.609375 72.90625 
L 39.796875 72.90625 
L 67.578125 0 
L 57.328125 0 
L 50.6875 18.703125 
L 17.828125 18.703125 
L 11.1875 0 
L 0.78125 0 
z
" id="DejaVuSans-41"/>
      <path d="M 48.78125 52.59375 
L 48.78125 44.1875 
Q 44.96875 46.296875 41.140625 47.34375 
Q 37.3125 48.390625 33.40625 48.390625 
Q 24.65625 48.390625 19.8125 42.84375 
Q 14.984375 37.3125 14.984375 27.296875 
Q 14.984375 17.28125 19.8125 11.734375 
Q 24.65625 6.203125 33.40625 6.203125 
Q 37.3125 6.203125 41.140625 7.25 
Q 44.96875 8.296875 48.78125 10.40625 
L 48.78125 2.09375 
Q 45.015625 0.34375 40.984375 -0.53125 
Q 36.96875 -1.421875 32.421875 -1.421875 
Q 20.0625 -1.421875 12.78125 6.34375 
Q 5.515625 14.109375 5.515625 27.296875 
Q 5.515625 40.671875 12.859375 48.328125 
Q 20.21875 56 33.015625 56 
Q 37.15625 56 41.109375 55.140625 
Q 45.0625 54.296875 48.78125 52.59375 
z
" id="DejaVuSans-63"/>
      <path d="M 8.5 21.578125 
L 8.5 54.6875 
L 17.484375 54.6875 
L 17.484375 21.921875 
Q 17.484375 14.15625 20.5 10.265625 
Q 23.53125 6.390625 29.59375 6.390625 
Q 36.859375 6.390625 41.078125 11.03125 
Q 45.3125 15.671875 45.3125 23.6875 
L 45.3125 54.6875 
L 54.296875 54.6875 
L 54.296875 0 
L 45.3125 0 
L 45.3125 8.40625 
Q 42.046875 3.421875 37.71875 1 
Q 33.40625 -1.421875 27.6875 -1.421875 
Q 18.265625 -1.421875 13.375 4.4375 
Q 8.5 10.296875 8.5 21.578125 
z
M 31.109375 56 
z
" id="DejaVuSans-75"/>
      <path d="M 41.109375 46.296875 
Q 39.59375 47.171875 37.8125 47.578125 
Q 36.03125 48 33.890625 48 
Q 26.265625 48 22.1875 43.046875 
Q 18.109375 38.09375 18.109375 28.8125 
L 18.109375 0 
L 9.078125 0 
L 9.078125 54.6875 
L 18.109375 54.6875 
L 18.109375 46.1875 
Q 20.953125 51.171875 25.484375 53.578125 
Q 30.03125 56 36.53125 56 
Q 37.453125 56 38.578125 55.875 
Q 39.703125 55.765625 41.0625 55.515625 
z
" id="DejaVuSans-72"/>
      <path d="M 34.28125 27.484375 
Q 23.390625 27.484375 19.1875 25 
Q 14.984375 22.515625 14.984375 16.5 
Q 14.984375 11.71875 18.140625 8.90625 
Q 21.296875 6.109375 26.703125 6.109375 
Q 34.1875 6.109375 38.703125 11.40625 
Q 43.21875 16.703125 43.21875 25.484375 
L 43.21875 27.484375 
z
M 52.203125 31.203125 
L 52.203125 0 
L 43.21875 0 
L 43.21875 8.296875 
Q 40.140625 3.328125 35.546875 0.953125 
Q 30.953125 -1.421875 24.3125 -1.421875 
Q 15.921875 -1.421875 10.953125 3.296875 
Q 6 8.015625 6 15.921875 
Q 6 25.140625 12.171875 29.828125 
Q 18.359375 34.515625 30.609375 34.515625 
L 43.21875 34.515625 
L 43.21875 35.40625 
Q 43.21875 41.609375 39.140625 45 
Q 35.0625 48.390625 27.6875 48.390625 
Q 23 48.390625 18.546875 47.265625 
Q 14.109375 46.140625 10.015625 43.890625 
L 10.015625 52.203125 
Q 14.9375 54.109375 19.578125 55.046875 
Q 24.21875 56 28.609375 56 
Q 40.484375 56 46.34375 49.84375 
Q 52.203125 43.703125 52.203125 31.203125 
z
" id="DejaVuSans-61"/>
      <path d="M 32.171875 -5.078125 
Q 28.375 -14.84375 24.75 -17.8125 
Q 21.140625 -20.796875 15.09375 -20.796875 
L 7.90625 -20.796875 
L 7.90625 -13.28125 
L 13.1875 -13.28125 
Q 16.890625 -13.28125 18.9375 -11.515625 
Q 21 -9.765625 23.484375 -3.21875 
L 25.09375 0.875 
L 2.984375 54.6875 
L 12.5 54.6875 
L 29.59375 11.921875 
L 46.6875 54.6875 
L 56.203125 54.6875 
z
" id="DejaVuSans-79"/>
     </defs>
     <g transform="translate(31.795312 197.442844)rotate(-90)scale(0.1 -0.1)">
      <use xlink:href="#DejaVuSans-41"/>
      <use x="68.392578" xlink:href="#DejaVuSans-63"/>
      <use x="123.373047" xlink:href="#DejaVuSans-63"/>
      <use x="178.353516" xlink:href="#DejaVuSans-75"/>
      <use x="241.732422" xlink:href="#DejaVuSans-72"/>
      <use x="282.845703" xlink:href="#DejaVuSans-61"/>
      <use x="344.125" xlink:href="#DejaVuSans-63"/>
      <use x="399.105469" xlink:href="#DejaVuSans-79"/>
     </g>
    </g>
   </g>
   <g id="line2d_29">
    <path clip-path="url(#pa347b6204a)" d="M 73.832727 295.488 
L 75.133948 242.787842 
L 76.435169 222.655127 
L 77.085779 206.685245 
L 77.736389 195.37556 
L 78.386999 188.172316 
L 79.03761 183.670051 
L 79.68822 180.851278 
L 80.33883 175.145397 
L 80.989441 174.786983 
L 81.640051 170.79373 
L 82.290661 168.846475 
L 83.591882 163.653743 
L 84.242492 161.433088 
L 84.893103 157.769584 
L 85.543713 156.568741 
L 86.844934 152.905684 
L 88.796764 149.098067 
L 89.447375 146.906525 
L 90.097985 143.45502 
L 90.748595 142.316496 
L 91.399206 139.464942 
L 92.049816 138.022562 
L 92.700426 137.12562 
L 94.001647 133.973386 
L 94.652257 132.591939 
L 95.302868 128.749685 
L 95.953478 127.400593 
L 96.604088 126.590007 
L 99.206529 121.307655 
L 99.85714 120.94602 
L 100.50775 119.896222 
L 101.15836 119.475914 
L 101.808971 118.784486 
L 102.459581 118.486601 
L 103.110191 118.003952 
L 103.760802 116.624807 
L 104.411412 114.705302 
L 105.062022 114.523333 
L 105.712633 112.933107 
L 106.363243 113.832844 
L 107.013853 112.272648 
L 107.664463 113.352028 
L 108.315074 112.632471 
L 108.965684 112.392298 
L 109.616294 112.391359 
L 110.266905 111.911035 
L 110.917515 111.130926 
L 112.218736 110.559618 
L 112.869346 110.259407 
L 113.519956 110.139779 
L 114.170567 109.17911 
L 115.471787 108.309402 
L 116.122398 107.258195 
L 116.773008 107.408301 
L 117.423618 106.658669 
L 118.074228 106.149724 
L 118.724839 105.909551 
L 119.375449 105.039418 
L 120.026059 104.709178 
L 120.67667 104.168325 
L 121.32728 102.879695 
L 121.97789 102.339312 
L 122.628501 102.308387 
L 123.279111 101.230415 
L 123.929721 100.809637 
L 124.580332 100.211072 
L 125.230942 98.798231 
L 125.881552 98.770056 
L 126.532163 97.809365 
L 127.182773 97.330405 
L 127.833383 96.458886 
L 128.483993 96.548484 
L 129.134604 95.85842 
L 129.785214 95.800261 
L 130.435824 94.780448 
L 131.086435 95.409513 
L 131.737045 94.508412 
L 132.387655 94.869129 
L 133.038266 93.760658 
L 133.688876 92.949624 
L 134.339486 93.369015 
L 134.990097 93.220721 
L 135.640707 92.049462 
L 136.941927 91.389428 
L 137.592538 91.509503 
L 138.243148 90.308236 
L 138.893758 89.468066 
L 139.544369 89.499035 
L 140.194979 89.108757 
L 140.845589 89.167408 
L 141.4962 87.965627 
L 142.14681 88.149451 
L 142.79742 87.607234 
L 143.448031 87.788286 
L 144.098641 86.978617 
L 144.749251 87.54903 
L 145.399862 87.609068 
L 146.050472 87.070071 
L 146.701082 86.019803 
L 147.351692 87.009586 
L 148.652913 86.108954 
L 149.303523 86.769413 
L 150.604744 85.327458 
L 151.905965 85.327928 
L 152.556575 84.337698 
L 153.207185 84.486864 
L 154.508406 85.357958 
L 155.159016 84.128919 
L 155.809627 84.608795 
L 156.460237 83.768201 
L 157.110847 83.138219 
L 157.761457 83.708633 
L 158.412068 83.586232 
L 159.062678 83.617626 
L 159.713288 83.317415 
L 161.014509 82.356746 
L 161.665119 83.19781 
L 162.31573 82.687434 
L 162.96634 81.998801 
L 164.267561 81.548954 
L 164.918171 81.458887 
L 166.219392 81.007184 
L 166.870002 81.188684 
L 167.520612 81.008571 
L 168.171222 80.648322 
L 169.472443 80.46727 
L 170.123053 80.798428 
L 170.773664 80.468187 
L 171.424274 79.866849 
L 172.074884 80.076523 
L 172.725495 79.027641 
L 173.376105 79.6881 
L 174.026715 79.178171 
L 174.677326 78.907074 
L 175.327936 79.388337 
L 175.978546 78.577325 
L 176.629156 78.097427 
L 177.279767 78.967604 
L 177.930377 78.786529 
L 178.580987 77.794913 
L 179.231598 78.245229 
L 179.882208 77.495172 
L 180.532818 77.945488 
L 181.183429 77.375096 
L 181.834039 78.095123 
L 182.484649 77.404165 
L 183.78587 77.673429 
L 184.43648 77.523793 
L 185.087091 77.194961 
L 185.737701 77.31365 
L 186.388311 77.25359 
L 187.038921 77.045303 
L 187.689532 77.464225 
L 188.340142 77.402801 
L 188.990752 77.013909 
L 189.641363 77.10259 
L 190.291973 75.902642 
L 190.942583 76.534033 
L 191.593194 76.442556 
L 192.243804 76.503064 
L 192.894414 76.743236 
L 193.545025 76.56404 
L 194.195635 76.683199 
L 194.846245 75.993649 
L 195.496856 75.572402 
L 196.147466 75.96268 
L 196.798076 75.511894 
L 198.099297 75.183979 
L 198.749907 75.8149 
L 199.400517 76.173315 
L 200.051128 76.233352 
L 200.701738 75.99271 
L 201.352348 75.033427 
L 202.002959 75.874021 
L 202.653569 75.542864 
L 203.304179 76.145141 
L 203.95479 75.363198 
L 204.6054 75.242653 
L 205.906621 75.33319 
L 206.557231 75.062987 
L 207.207841 75.064374 
L 207.858451 75.362728 
L 208.509062 74.763246 
L 209.159672 75.093912 
L 209.810282 74.673626 
L 210.460893 74.973389 
L 211.111503 75.813044 
L 211.762113 74.944276 
L 212.412724 75.093017 
L 213.063334 74.044561 
L 213.713944 74.584028 
L 214.364555 74.584028 
L 215.015165 75.063904 
L 215.665775 74.643596 
L 216.316385 74.612671 
L 216.966996 74.463483 
L 217.617606 74.103212 
L 218.268216 74.434839 
L 218.918827 74.073204 
L 219.569437 74.734133 
L 220.220047 74.31293 
L 220.870658 74.223779 
L 221.521268 74.703208 
L 222.171878 74.2829 
L 222.822489 74.222863 
L 223.473099 74.763246 
L 224.123709 73.924463 
L 224.77432 74.102318 
L 225.42493 73.113899 
L 226.07554 73.743903 
L 226.72615 73.922652 
L 227.376761 73.653366 
L 228.027371 73.023831 
L 228.677981 73.742964 
L 229.328592 72.902839 
L 229.979202 73.142543 
L 230.629812 73.683396 
L 231.280423 72.662197 
L 232.581643 72.511644 
L 233.232254 72.752264 
L 233.882864 73.414109 
L 234.533474 72.753203 
L 235.184085 72.573985 
L 235.834695 72.633553 
L 236.485305 73.113452 
L 237.135915 73.173489 
L 237.786526 72.752734 
L 238.437136 72.632658 
L 239.087746 72.69084 
L 239.738357 73.053414 
L 240.388967 72.87234 
L 241.039577 72.362925 
L 241.690188 72.484856 
L 242.340798 72.753203 
L 242.991408 72.662197 
L 243.642019 72.003571 
L 244.292629 72.843271 
L 244.943239 72.993376 
L 245.59385 72.753651 
L 246.24446 72.693591 
L 246.89507 73.532821 
L 247.54568 72.901922 
L 248.196291 72.842801 
L 249.497511 72.272857 
L 250.798732 72.873279 
L 252.099953 72.392955 
L 253.401173 72.42388 
L 254.051784 73.564215 
L 254.702394 72.543955 
L 256.003615 72.304721 
L 256.654225 72.663136 
L 257.304835 72.334281 
L 257.955445 72.664052 
L 258.606056 72.513478 
L 259.256666 72.874665 
L 259.907276 72.153207 
L 260.557887 72.781847 
L 261.208497 72.664052 
L 261.859107 71.732474 
L 262.509718 72.002207 
L 263.160328 72.454357 
L 263.810938 73.382715 
L 264.461549 72.603545 
L 265.762769 72.093169 
L 266.413379 72.783658 
L 267.06399 72.544424 
L 267.7146 72.572598 
L 269.015821 72.183707 
L 269.666431 72.603098 
L 271.618262 72.573068 
L 272.268872 73.323125 
L 272.919483 71.732474 
L 273.570093 72.573068 
L 274.220703 72.302418 
L 274.871314 72.153677 
L 275.521924 72.273305 
L 276.172534 73.442753 
L 276.823144 72.063162 
L 277.473755 71.70383 
L 278.124365 72.961982 
L 278.774975 72.303782 
L 281.377417 72.124138 
L 282.028027 72.452523 
L 282.678637 72.542121 
L 283.329248 71.702891 
L 283.979858 72.273774 
L 284.630468 72.004041 
L 285.931689 72.512561 
L 286.582299 72.123669 
L 287.232909 72.004041 
L 287.88352 72.124608 
L 288.53413 72.363372 
L 289.18474 71.641489 
L 289.835351 71.911223 
L 290.485961 72.033132 
L 291.136571 71.852571 
L 291.787182 71.822541 
L 292.437792 71.614702 
L 293.088402 71.912609 
L 293.739013 71.791147 
L 294.389623 71.43365 
L 295.690844 72.332895 
L 296.341454 72.301032 
L 296.992064 71.943534 
L 297.642674 72.122283 
L 298.293285 71.972177 
L 298.943895 71.492748 
L 299.594505 72.18232 
L 300.245116 72.093169 
L 300.895726 71.852571 
L 301.546336 72.03454 
L 302.196947 72.092275 
L 302.847557 71.522331 
L 303.498167 71.792511 
L 304.148778 71.582369 
L 305.449998 71.973094 
L 306.100608 71.943064 
L 306.751219 71.552361 
L 307.401829 71.792064 
L 308.70305 71.611929 
L 309.35366 71.702466 
L 310.00427 71.282158 
L 310.654881 72.033132 
L 311.305491 71.552786 
L 311.956101 72.094108 
L 312.606712 71.431794 
L 313.257322 71.521861 
L 313.907932 71.762034 
L 314.558543 71.76389 
L 315.859763 71.402256 
L 316.510373 71.612399 
L 317.160984 71.344051 
L 317.811594 71.432263 
L 318.462204 71.282605 
L 319.112815 71.73433 
L 319.763425 71.401786 
L 321.064646 71.672436 
L 321.715256 71.583755 
L 323.016477 71.253045 
L 323.667087 71.822541 
L 324.317697 71.372673 
L 325.618918 72.063162 
L 326.269528 71.281688 
L 326.920138 71.461824 
L 327.570749 72.033601 
L 328.221359 72.033132 
L 328.871969 71.401316 
L 329.52258 71.943064 
L 330.17319 71.852571 
L 330.8238 71.883496 
L 331.474411 72.124608 
L 332.125021 71.523717 
L 332.775631 72.151843 
L 333.426242 71.520945 
L 334.076852 71.494157 
L 334.727462 71.132053 
L 335.378073 71.971708 
L 336.028683 71.642406 
L 336.679293 71.672436 
L 337.329903 70.831842 
L 337.980514 71.463657 
L 338.631124 71.672883 
L 339.281734 71.762951 
L 339.932345 71.493218 
L 340.582955 71.673823 
L 341.233565 71.282158 
L 341.884176 71.70383 
L 342.534786 71.732474 
L 343.836007 71.314938 
L 344.486617 71.492748 
L 345.137227 71.9417 
L 345.787837 70.983803 
L 346.438448 71.463188 
L 347.089058 71.581899 
L 347.739668 71.493687 
L 348.390279 71.702891 
L 350.34211 72.063631 
L 350.99272 71.524187 
L 351.64333 71.972647 
L 352.293941 70.862297 
L 352.944551 71.674292 
L 353.595161 70.952364 
L 354.245772 71.942639 
L 354.896382 71.523717 
L 355.546992 72.121388 
L 356.197602 71.613293 
L 356.848213 72.122752 
L 357.498823 72.063631 
L 358.149433 71.43365 
L 359.450654 71.131583 
L 360.101264 71.283544 
L 360.751875 71.553725 
L 361.402485 71.311718 
L 362.053095 71.554664 
L 364.655537 71.162507 
L 365.956757 71.252575 
L 366.607367 71.702891 
L 367.257978 71.644262 
L 367.908588 71.792064 
L 368.559198 71.583755 
L 369.209809 71.88211 
L 369.860419 71.340832 
L 370.511029 71.822989 
L 371.16164 70.773168 
L 371.81225 71.40268 
L 372.46286 71.73386 
L 373.113471 71.762951 
L 373.764081 71.10247 
L 374.414691 71.253045 
L 375.065302 71.701997 
L 375.715912 71.252575 
L 376.366522 71.793428 
L 377.017132 71.462718 
L 377.667743 71.401786 
L 378.968963 71.883965 
L 380.270184 71.283075 
L 381.571405 71.372673 
L 382.222015 71.733391 
L 384.173846 71.701997 
L 384.824456 71.223037 
L 386.125677 71.732474 
L 386.776287 70.652154 
L 387.426897 71.342196 
L 388.077508 71.643323 
L 389.378728 71.612846 
L 390.029339 71.223037 
L 390.679949 71.491362 
L 391.330559 71.583285 
L 391.98117 71.281688 
L 392.63178 71.942639 
L 393.28239 71.462293 
L 394.583611 71.043841 
L 395.234221 71.162977 
L 396.535442 71.7043 
L 397.186052 71.792511 
L 397.836662 72.033601 
L 398.487273 71.822989 
L 398.487273 71.822989 
" style="fill:none;stroke:#ff6347;stroke-linecap:square;stroke-width:2;"/>
   </g>
   <g id="line2d_30">
    <path clip-path="url(#pa347b6204a)" d="M 73.832727 280.305717 
L 74.483338 242.941262 
L 75.133948 238.589579 
L 75.784558 242.791204 
L 77.736389 206.477155 
L 78.386999 201.825356 
L 79.68822 195.37286 
L 80.33883 190.270886 
L 80.989441 186.969609 
L 82.290661 177.365893 
L 82.941272 174.51479 
L 83.591882 169.712933 
L 84.893103 161.909914 
L 85.543713 159.809101 
L 86.194323 158.158463 
L 86.844934 154.256953 
L 87.495544 153.956837 
L 88.146154 154.256953 
L 88.796764 153.056489 
L 90.097985 144.203064 
L 91.399206 139.401206 
L 92.049816 137.900625 
L 94.001647 132.498536 
L 94.652257 129.497375 
L 95.953478 124.845575 
L 96.604088 124.695517 
L 97.254698 121.544298 
L 97.905309 122.444646 
L 98.555919 121.844414 
L 99.206529 121.994472 
L 99.85714 121.094124 
L 100.50775 120.794007 
L 101.15836 121.39424 
L 101.808971 120.343833 
L 102.459581 121.094124 
L 103.110191 120.944066 
L 103.760802 120.193775 
L 104.411412 119.893659 
L 105.062022 119.443485 
L 105.712633 117.49273 
L 106.363243 116.292266 
L 107.664463 114.641627 
L 108.315074 112.09064 
L 108.965684 111.490408 
L 109.616294 109.989828 
L 110.266905 110.289944 
L 110.917515 109.539654 
L 111.568125 109.539654 
L 112.218736 109.239537 
L 112.869346 108.339189 
L 113.519956 108.339189 
L 114.170567 107.889015 
L 114.821177 105.488086 
L 115.471787 104.737796 
L 116.122398 103.237215 
L 116.773008 103.537331 
L 117.423618 102.336867 
L 118.074228 102.636983 
L 118.724839 101.436519 
L 119.375449 100.836287 
L 120.026059 99.185648 
L 121.32728 97.985184 
L 122.628501 97.384951 
L 123.929721 95.284139 
L 124.580332 93.483442 
L 125.230942 90.932455 
L 126.532163 89.431875 
L 127.182773 88.081352 
L 127.833383 87.030946 
L 128.483993 84.930133 
L 129.134604 84.630017 
L 129.785214 84.179843 
L 130.435824 84.479959 
L 131.086435 83.729669 
L 131.737045 83.879727 
L 132.387655 83.279494 
L 133.038266 84.029785 
L 133.688876 83.129436 
L 134.339486 82.82932 
L 134.990097 82.379146 
L 135.640707 82.379146 
L 136.291317 81.778914 
L 136.941927 82.529204 
L 137.592538 82.379146 
L 139.544369 78.927811 
L 140.194979 78.627695 
L 140.845589 78.177521 
L 141.4962 77.42723 
L 142.14681 75.776592 
L 142.79742 76.376824 
L 143.448031 76.226766 
L 144.098641 76.826998 
L 144.749251 76.977056 
L 145.399862 76.376824 
L 146.701082 76.076708 
L 147.351692 75.626534 
L 148.002303 75.92665 
L 148.652913 75.626534 
L 149.954134 75.326418 
L 150.604744 75.326418 
L 151.255354 74.726185 
L 151.905965 75.17636 
L 152.556575 75.17636 
L 153.207185 74.876243 
L 153.857796 74.276011 
L 154.508406 73.975895 
L 155.159016 73.825837 
L 155.809627 73.075547 
L 156.460237 73.225605 
L 157.110847 72.625373 
L 157.761457 72.625373 
L 158.412068 72.475315 
L 159.062678 72.475315 
L 159.713288 72.625373 
L 160.363899 72.325257 
L 161.014509 72.325257 
L 161.665119 72.775431 
L 162.96634 73.375663 
L 164.267561 74.426069 
L 164.918171 73.975895 
L 165.568781 74.125953 
L 166.219392 73.225605 
L 166.870002 73.375663 
L 167.520612 73.375663 
L 168.171222 73.225605 
L 168.821833 72.775431 
L 170.773664 71.124792 
L 171.424274 70.974734 
L 172.074884 71.124792 
L 172.725495 70.52456 
L 173.376105 69.324096 
L 174.026715 69.023979 
L 174.677326 69.174037 
L 175.327936 69.023979 
L 175.978546 68.573805 
L 176.629156 68.873921 
L 178.580987 67.973573 
L 179.882208 66.923167 
L 180.532818 67.073225 
L 181.183429 66.773109 
L 181.834039 66.623051 
L 182.484649 65.87276 
L 183.13526 65.722702 
L 183.78587 65.722702 
L 184.43648 66.172876 
L 185.087091 65.572644 
L 185.737701 65.272528 
L 187.038921 66.773109 
L 187.689532 66.923167 
L 188.340142 66.472993 
L 188.990752 66.472993 
L 189.641363 67.523399 
L 190.291973 67.373341 
L 190.942583 67.073225 
L 191.593194 66.923167 
L 192.243804 66.923167 
L 193.545025 66.623051 
L 195.496856 65.722702 
L 196.147466 65.572644 
L 196.798076 65.272528 
L 198.749907 63.922006 
L 199.400517 63.171715 
L 200.051128 63.021657 
L 200.701738 62.571483 
L 201.352348 63.171715 
L 202.002959 63.021657 
L 202.653569 63.171715 
L 203.304179 62.571483 
L 204.6054 62.271367 
L 205.25601 62.571483 
L 205.906621 62.571483 
L 206.557231 62.271367 
L 207.207841 62.421425 
L 207.858451 62.871599 
L 208.509062 62.121309 
L 209.159672 61.671135 
L 209.810282 61.971251 
L 211.111503 61.971251 
L 212.412724 61.371019 
L 213.063334 61.220961 
L 213.713944 61.220961 
L 214.364555 60.770787 
L 215.015165 60.920845 
L 215.665775 61.220961 
L 216.966996 60.620728 
L 217.617606 60.920845 
L 218.268216 60.320612 
L 218.918827 60.170554 
L 219.569437 60.170554 
L 220.220047 60.620728 
L 220.870658 60.320612 
L 221.521268 60.320612 
L 222.171878 59.870438 
L 223.473099 59.870438 
L 224.77432 59.270206 
L 225.42493 59.420264 
L 226.72615 59.120148 
L 227.376761 59.120148 
L 228.027371 58.820032 
L 228.677981 58.820032 
L 229.328592 58.669974 
L 229.979202 58.669974 
L 230.629812 57.919684 
L 231.280423 58.069742 
L 231.931033 57.619567 
L 232.581643 57.319451 
L 233.232254 57.319451 
L 233.882864 57.169393 
L 234.533474 56.719219 
L 235.184085 56.419103 
L 235.834695 56.269045 
L 236.485305 56.419103 
L 237.135915 56.419103 
L 237.786526 56.269045 
L 238.437136 56.269045 
L 239.087746 56.118987 
L 241.039577 56.118987 
L 241.690188 55.968929 
L 242.340798 56.118987 
L 242.991408 55.968929 
L 243.642019 56.419103 
L 244.292629 56.118987 
L 245.59385 56.118987 
L 246.89507 56.419103 
L 247.54568 56.419103 
L 248.196291 56.269045 
L 256.003615 56.269045 
L 256.654225 56.118987 
L 258.606056 56.118987 
L 259.256666 55.968929 
L 259.907276 55.968929 
L 260.557887 55.818871 
L 261.208497 55.968929 
L 263.810938 55.968929 
L 264.461549 55.668813 
L 265.112159 55.668813 
L 265.762769 55.818871 
L 267.06399 55.518755 
L 270.317041 55.518755 
L 270.967652 55.368697 
L 274.871314 55.368697 
L 275.521924 55.218639 
L 276.172534 55.368697 
L 276.823144 55.068581 
L 277.473755 55.218639 
L 278.774975 55.218639 
L 279.425586 54.918522 
L 280.726806 55.218639 
L 281.377417 55.218639 
L 282.028027 55.068581 
L 283.329248 55.068581 
L 283.979858 55.218639 
L 284.630468 54.918522 
L 286.582299 54.918522 
L 287.232909 54.768464 
L 289.835351 54.768464 
L 290.485961 54.618406 
L 291.136571 54.768464 
L 291.787182 54.768464 
L 292.437792 54.618406 
L 296.992064 54.618406 
L 297.642674 54.768464 
L 298.293285 54.618406 
L 298.943895 54.618406 
L 299.594505 54.768464 
L 300.245116 54.618406 
L 300.895726 54.618406 
L 301.546336 54.468348 
L 302.196947 54.468348 
L 302.847557 54.618406 
L 303.498167 54.31829 
L 304.148778 54.468348 
L 305.449998 54.168232 
L 306.100608 54.168232 
L 306.751219 54.468348 
L 307.401829 54.31829 
L 308.052439 54.31829 
L 308.70305 54.468348 
L 309.35366 54.31829 
L 310.00427 54.31829 
L 310.654881 54.468348 
L 312.606712 54.468348 
L 313.257322 54.31829 
L 313.907932 54.468348 
L 314.558543 54.468348 
L 315.859763 54.168232 
L 316.510373 54.168232 
L 317.160984 54.018174 
L 363.354316 54.018174 
L 364.004926 53.868116 
L 364.655537 54.018174 
L 365.306147 54.018174 
L 365.956757 53.868116 
L 367.908588 53.868116 
L 368.559198 54.018174 
L 369.209809 54.018174 
L 369.860419 53.868116 
L 377.017132 53.868116 
L 377.667743 54.018174 
L 378.318353 53.868116 
L 380.270184 53.868116 
L 380.920794 54.018174 
L 381.571405 54.018174 
L 382.222015 53.868116 
L 382.872625 54.018174 
L 383.523236 54.018174 
L 384.173846 53.868116 
L 386.125677 53.868116 
L 386.776287 53.718058 
L 387.426897 53.868116 
L 388.077508 53.718058 
L 388.728118 53.718058 
L 389.378728 54.018174 
L 390.029339 53.718058 
L 390.679949 53.718058 
L 391.330559 54.018174 
L 391.98117 54.018174 
L 392.63178 53.718058 
L 393.28239 53.718058 
L 393.933001 53.868116 
L 394.583611 53.718058 
L 395.234221 53.868116 
L 396.535442 53.568 
L 397.186052 53.568 
L 397.836662 53.718058 
L 398.487273 53.718058 
L 398.487273 53.718058 
" style="fill:none;stroke:#4682b4;stroke-linecap:square;stroke-width:2;"/>
   </g>
   <g id="patch_3">
    <path d="M 57.6 307.584 
L 57.6 41.472 
" style="fill:none;stroke:#000000;stroke-linecap:square;stroke-linejoin:miter;stroke-width:0.8;"/>
   </g>
   <g id="patch_4">
    <path d="M 414.72 307.584 
L 414.72 41.472 
" style="fill:none;stroke:#000000;stroke-linecap:square;stroke-linejoin:miter;stroke-width:0.8;"/>
   </g>
   <g id="patch_5">
    <path d="M 57.6 307.584 
L 414.72 307.584 
" style="fill:none;stroke:#000000;stroke-linecap:square;stroke-linejoin:miter;stroke-width:0.8;"/>
   </g>
   <g id="patch_6">
    <path d="M 57.6 41.472 
L 414.72 41.472 
" style="fill:none;stroke:#000000;stroke-linecap:square;stroke-linejoin:miter;stroke-width:0.8;"/>
   </g>
   <g id="legend_1">
    <g id="patch_7">
     <path d="M 330.32 302.584 
L 407.72 302.584 
Q 409.72 302.584 409.72 300.584 
L 409.72 271.6715 
Q 409.72 269.6715 407.72 269.6715 
L 330.32 269.6715 
Q 328.32 269.6715 328.32 271.6715 
L 328.32 300.584 
Q 328.32 302.584 330.32 302.584 
z
" style="fill:#ffffff;opacity:0.8;stroke:#cccccc;stroke-linejoin:miter;"/>
    </g>
    <g id="line2d_31">
     <path d="M 332.32 277.769937 
L 352.32 277.769937 
" style="fill:none;stroke:#ff6347;stroke-linecap:square;stroke-width:2;"/>
    </g>
    <g id="line2d_32"/>
    <g id="text_16">
     <!-- train_acc -->
     <defs>
      <path d="M 18.3125 70.21875 
L 18.3125 54.6875 
L 36.8125 54.6875 
L 36.8125 47.703125 
L 18.3125 47.703125 
L 18.3125 18.015625 
Q 18.3125 11.328125 20.140625 9.421875 
Q 21.96875 7.515625 27.59375 7.515625 
L 36.8125 7.515625 
L 36.8125 0 
L 27.59375 0 
Q 17.1875 0 13.234375 3.875 
Q 9.28125 7.765625 9.28125 18.015625 
L 9.28125 47.703125 
L 2.6875 47.703125 
L 2.6875 54.6875 
L 9.28125 54.6875 
L 9.28125 70.21875 
z
" id="DejaVuSans-74"/>
      <path d="M 9.421875 54.6875 
L 18.40625 54.6875 
L 18.40625 0 
L 9.421875 0 
z
M 9.421875 75.984375 
L 18.40625 75.984375 
L 18.40625 64.59375 
L 9.421875 64.59375 
z
" id="DejaVuSans-69"/>
      <path d="M 54.890625 33.015625 
L 54.890625 0 
L 45.90625 0 
L 45.90625 32.71875 
Q 45.90625 40.484375 42.875 44.328125 
Q 39.84375 48.1875 33.796875 48.1875 
Q 26.515625 48.1875 22.3125 43.546875 
Q 18.109375 38.921875 18.109375 30.90625 
L 18.109375 0 
L 9.078125 0 
L 9.078125 54.6875 
L 18.109375 54.6875 
L 18.109375 46.1875 
Q 21.34375 51.125 25.703125 53.5625 
Q 30.078125 56 35.796875 56 
Q 45.21875 56 50.046875 50.171875 
Q 54.890625 44.34375 54.890625 33.015625 
z
" id="DejaVuSans-6e"/>
      <path d="M 50.984375 -16.609375 
L 50.984375 -23.578125 
L -0.984375 -23.578125 
L -0.984375 -16.609375 
z
" id="DejaVuSans-5f"/>
     </defs>
     <g transform="translate(360.32 281.269937)scale(0.1 -0.1)">
      <use xlink:href="#DejaVuSans-74"/>
      <use x="39.208984" xlink:href="#DejaVuSans-72"/>
      <use x="80.322266" xlink:href="#DejaVuSans-61"/>
      <use x="141.601562" xlink:href="#DejaVuSans-69"/>
      <use x="169.384766" xlink:href="#DejaVuSans-6e"/>
      <use x="232.763672" xlink:href="#DejaVuSans-5f"/>
      <use x="282.763672" xlink:href="#DejaVuSans-61"/>
      <use x="344.042969" xlink:href="#DejaVuSans-63"/>
      <use x="399.023438" xlink:href="#DejaVuSans-63"/>
     </g>
    </g>
    <g id="line2d_33">
     <path d="M 332.32 292.726187 
L 352.32 292.726187 
" style="fill:none;stroke:#4682b4;stroke-linecap:square;stroke-width:2;"/>
    </g>
    <g id="line2d_34"/>
    <g id="text_17">
     <!-- test_acc -->
     <defs>
      <path d="M 56.203125 29.59375 
L 56.203125 25.203125 
L 14.890625 25.203125 
Q 15.484375 15.921875 20.484375 11.0625 
Q 25.484375 6.203125 34.421875 6.203125 
Q 39.59375 6.203125 44.453125 7.46875 
Q 49.3125 8.734375 54.109375 11.28125 
L 54.109375 2.78125 
Q 49.265625 0.734375 44.1875 -0.34375 
Q 39.109375 -1.421875 33.890625 -1.421875 
Q 20.796875 -1.421875 13.15625 6.1875 
Q 5.515625 13.8125 5.515625 26.8125 
Q 5.515625 40.234375 12.765625 48.109375 
Q 20.015625 56 32.328125 56 
Q 43.359375 56 49.78125 48.890625 
Q 56.203125 41.796875 56.203125 29.59375 
z
M 47.21875 32.234375 
Q 47.125 39.59375 43.09375 43.984375 
Q 39.0625 48.390625 32.421875 48.390625 
Q 24.90625 48.390625 20.390625 44.140625 
Q 15.875 39.890625 15.1875 32.171875 
z
" id="DejaVuSans-65"/>
      <path d="M 44.28125 53.078125 
L 44.28125 44.578125 
Q 40.484375 46.53125 36.375 47.5 
Q 32.28125 48.484375 27.875 48.484375 
Q 21.1875 48.484375 17.84375 46.4375 
Q 14.5 44.390625 14.5 40.28125 
Q 14.5 37.15625 16.890625 35.375 
Q 19.28125 33.59375 26.515625 31.984375 
L 29.59375 31.296875 
Q 39.15625 29.25 43.1875 25.515625 
Q 47.21875 21.78125 47.21875 15.09375 
Q 47.21875 7.46875 41.1875 3.015625 
Q 35.15625 -1.421875 24.609375 -1.421875 
Q 20.21875 -1.421875 15.453125 -0.5625 
Q 10.6875 0.296875 5.421875 2 
L 5.421875 11.28125 
Q 10.40625 8.6875 15.234375 7.390625 
Q 20.0625 6.109375 24.8125 6.109375 
Q 31.15625 6.109375 34.5625 8.28125 
Q 37.984375 10.453125 37.984375 14.40625 
Q 37.984375 18.0625 35.515625 20.015625 
Q 33.0625 21.96875 24.703125 23.78125 
L 21.578125 24.515625 
Q 13.234375 26.265625 9.515625 29.90625 
Q 5.8125 33.546875 5.8125 39.890625 
Q 5.8125 47.609375 11.28125 51.796875 
Q 16.75 56 26.8125 56 
Q 31.78125 56 36.171875 55.265625 
Q 40.578125 54.546875 44.28125 53.078125 
z
" id="DejaVuSans-73"/>
     </defs>
     <g transform="translate(360.32 296.226187)scale(0.1 -0.1)">
      <use xlink:href="#DejaVuSans-74"/>
      <use x="39.208984" xlink:href="#DejaVuSans-65"/>
      <use x="100.732422" xlink:href="#DejaVuSans-73"/>
      <use x="152.832031" xlink:href="#DejaVuSans-74"/>
      <use x="192.041016" xlink:href="#DejaVuSans-5f"/>
      <use x="242.041016" xlink:href="#DejaVuSans-61"/>
      <use x="303.320312" xlink:href="#DejaVuSans-63"/>
      <use x="358.300781" xlink:href="#DejaVuSans-63"/>
     </g>
    </g>
   </g>
  </g>
  <g id="axes_2">
   <g id="matplotlib.axis_3">
    <g id="ytick_9">
     <g id="line2d_35">
      <defs>
       <path d="M 0 0 
L 3.5 0 
" id="m0cbf71328e" style="stroke:#000000;stroke-width:0.8;"/>
      </defs>
      <g>
       <use style="stroke:#000000;stroke-width:0.8;" x="414.72" xlink:href="#m0cbf71328e" y="285.085348"/>
      </g>
     </g>
     <g id="text_18">
      <!-- 2.05 -->
      <defs>
       <path d="M 10.6875 12.40625 
L 21 12.40625 
L 21 0 
L 10.6875 0 
z
" id="DejaVuSans-2e"/>
      </defs>
      <g transform="translate(421.72 288.884567)scale(0.1 -0.1)">
       <use xlink:href="#DejaVuSans-32"/>
       <use x="63.623047" xlink:href="#DejaVuSans-2e"/>
       <use x="95.410156" xlink:href="#DejaVuSans-30"/>
       <use x="159.033203" xlink:href="#DejaVuSans-35"/>
      </g>
     </g>
    </g>
    <g id="ytick_10">
     <g id="line2d_36">
      <g>
       <use style="stroke:#000000;stroke-width:0.8;" x="414.72" xlink:href="#m0cbf71328e" y="249.512415"/>
      </g>
     </g>
     <g id="text_19">
      <!-- 2.10 -->
      <g transform="translate(421.72 253.311633)scale(0.1 -0.1)">
       <use xlink:href="#DejaVuSans-32"/>
       <use x="63.623047" xlink:href="#DejaVuSans-2e"/>
       <use x="95.410156" xlink:href="#DejaVuSans-31"/>
       <use x="159.033203" xlink:href="#DejaVuSans-30"/>
      </g>
     </g>
    </g>
    <g id="ytick_11">
     <g id="line2d_37">
      <g>
       <use style="stroke:#000000;stroke-width:0.8;" x="414.72" xlink:href="#m0cbf71328e" y="213.939481"/>
      </g>
     </g>
     <g id="text_20">
      <!-- 2.15 -->
      <g transform="translate(421.72 217.7387)scale(0.1 -0.1)">
       <use xlink:href="#DejaVuSans-32"/>
       <use x="63.623047" xlink:href="#DejaVuSans-2e"/>
       <use x="95.410156" xlink:href="#DejaVuSans-31"/>
       <use x="159.033203" xlink:href="#DejaVuSans-35"/>
      </g>
     </g>
    </g>
    <g id="ytick_12">
     <g id="line2d_38">
      <g>
       <use style="stroke:#000000;stroke-width:0.8;" x="414.72" xlink:href="#m0cbf71328e" y="178.366548"/>
      </g>
     </g>
     <g id="text_21">
      <!-- 2.20 -->
      <g transform="translate(421.72 182.165767)scale(0.1 -0.1)">
       <use xlink:href="#DejaVuSans-32"/>
       <use x="63.623047" xlink:href="#DejaVuSans-2e"/>
       <use x="95.410156" xlink:href="#DejaVuSans-32"/>
       <use x="159.033203" xlink:href="#DejaVuSans-30"/>
      </g>
     </g>
    </g>
    <g id="ytick_13">
     <g id="line2d_39">
      <g>
       <use style="stroke:#000000;stroke-width:0.8;" x="414.72" xlink:href="#m0cbf71328e" y="142.793615"/>
      </g>
     </g>
     <g id="text_22">
      <!-- 2.25 -->
      <g transform="translate(421.72 146.592833)scale(0.1 -0.1)">
       <use xlink:href="#DejaVuSans-32"/>
       <use x="63.623047" xlink:href="#DejaVuSans-2e"/>
       <use x="95.410156" xlink:href="#DejaVuSans-32"/>
       <use x="159.033203" xlink:href="#DejaVuSans-35"/>
      </g>
     </g>
    </g>
    <g id="ytick_14">
     <g id="line2d_40">
      <g>
       <use style="stroke:#000000;stroke-width:0.8;" x="414.72" xlink:href="#m0cbf71328e" y="107.220681"/>
      </g>
     </g>
     <g id="text_23">
      <!-- 2.30 -->
      <g transform="translate(421.72 111.0199)scale(0.1 -0.1)">
       <use xlink:href="#DejaVuSans-32"/>
       <use x="63.623047" xlink:href="#DejaVuSans-2e"/>
       <use x="95.410156" xlink:href="#DejaVuSans-33"/>
       <use x="159.033203" xlink:href="#DejaVuSans-30"/>
      </g>
     </g>
    </g>
    <g id="ytick_15">
     <g id="line2d_41">
      <g>
       <use style="stroke:#000000;stroke-width:0.8;" x="414.72" xlink:href="#m0cbf71328e" y="71.647748"/>
      </g>
     </g>
     <g id="text_24">
      <!-- 2.35 -->
      <g transform="translate(421.72 75.446967)scale(0.1 -0.1)">
       <use xlink:href="#DejaVuSans-32"/>
       <use x="63.623047" xlink:href="#DejaVuSans-2e"/>
       <use x="95.410156" xlink:href="#DejaVuSans-33"/>
       <use x="159.033203" xlink:href="#DejaVuSans-35"/>
      </g>
     </g>
    </g>
    <g id="text_25">
     <!-- Loss -->
     <defs>
      <path d="M 9.8125 72.90625 
L 19.671875 72.90625 
L 19.671875 8.296875 
L 55.171875 8.296875 
L 55.171875 0 
L 9.8125 0 
z
" id="DejaVuSans-4c"/>
      <path d="M 30.609375 48.390625 
Q 23.390625 48.390625 19.1875 42.75 
Q 14.984375 37.109375 14.984375 27.296875 
Q 14.984375 17.484375 19.15625 11.84375 
Q 23.34375 6.203125 30.609375 6.203125 
Q 37.796875 6.203125 41.984375 11.859375 
Q 46.1875 17.53125 46.1875 27.296875 
Q 46.1875 37.015625 41.984375 42.703125 
Q 37.796875 48.390625 30.609375 48.390625 
z
M 30.609375 56 
Q 42.328125 56 49.015625 48.375 
Q 55.71875 40.765625 55.71875 27.296875 
Q 55.71875 13.875 49.015625 6.21875 
Q 42.328125 -1.421875 30.609375 -1.421875 
Q 18.84375 -1.421875 12.171875 6.21875 
Q 5.515625 13.875 5.515625 27.296875 
Q 5.515625 40.765625 12.171875 48.375 
Q 18.84375 56 30.609375 56 
z
" id="DejaVuSans-6f"/>
     </defs>
     <g transform="translate(455.584063 185.581906)rotate(-90)scale(0.1 -0.1)">
      <use xlink:href="#DejaVuSans-4c"/>
      <use x="55.697266" xlink:href="#DejaVuSans-6f"/>
      <use x="116.878906" xlink:href="#DejaVuSans-73"/>
      <use x="168.978516" xlink:href="#DejaVuSans-73"/>
     </g>
    </g>
   </g>
   <g id="line2d_42">
    <path clip-path="url(#pa347b6204a)" d="M 73.832727 53.568 
L 74.483338 97.148385 
L 75.133948 110.510252 
L 75.784558 116.611153 
L 77.085779 124.391342 
L 82.941272 155.759577 
L 85.543713 168.009044 
L 87.495544 176.287421 
L 89.447375 183.820126 
L 91.399206 190.609196 
L 93.351037 196.694661 
L 95.302868 202.18135 
L 97.254698 207.115571 
L 99.206529 211.57993 
L 101.808971 216.865783 
L 103.760802 220.413829 
L 106.363243 224.624599 
L 108.965684 228.38247 
L 112.218736 232.52098 
L 114.821177 235.533689 
L 118.724839 239.656763 
L 126.532163 247.346541 
L 131.086435 251.297446 
L 134.339486 253.942069 
L 138.893758 257.345594 
L 142.79742 259.946453 
L 148.002303 262.966456 
L 151.255354 264.702907 
L 156.460237 267.201652 
L 164.267561 270.40943 
L 171.424274 272.861868 
L 179.231598 275.161643 
L 192.243804 278.264592 
L 197.448686 279.345273 
L 202.653569 280.296021 
L 204.6054 280.673606 
L 211.111503 281.801782 
L 213.713944 282.219907 
L 224.123709 283.827104 
L 233.882864 285.262301 
L 237.135915 285.688568 
L 242.991408 285.797298 
L 246.89507 285.83241 
L 250.798732 285.907215 
L 325.618918 287.017919 
L 327.570749 286.978396 
L 336.679293 287.014526 
L 348.390279 287.015375 
L 388.728118 287.08984 
L 393.28239 287.103919 
L 398.487273 287.095777 
L 398.487273 287.095777 
" style="fill:none;stroke:#ff6347;stroke-dasharray:7.4,3.2;stroke-dashoffset:0;stroke-width:2;"/>
   </g>
   <g id="line2d_43">
    <path clip-path="url(#pa347b6204a)" d="M 73.832727 84.370709 
L 74.483338 106.052453 
L 75.133948 114.525856 
L 75.784558 119.482796 
L 77.736389 130.926006 
L 82.941272 160.010343 
L 84.893103 169.693092 
L 87.495544 181.313267 
L 89.447375 189.09977 
L 91.399206 196.094891 
L 93.351037 202.362783 
L 95.302868 208.003835 
L 97.254698 213.080407 
L 99.206529 217.662407 
L 101.15836 221.804466 
L 103.760802 226.723729 
L 106.363243 231.057975 
L 108.965684 234.91038 
L 111.568125 238.373621 
L 114.821177 242.280813 
L 118.724839 246.57528 
L 124.580332 252.683011 
L 128.483993 256.414069 
L 133.038266 260.456357 
L 136.941927 263.656302 
L 140.194979 266.086973 
L 144.098641 268.716083 
L 148.002303 271.082714 
L 152.556575 273.570187 
L 157.110847 275.793726 
L 161.665119 277.778374 
L 166.219392 279.54375 
L 171.424274 281.336804 
L 177.279767 283.114008 
L 183.78587 284.84399 
L 190.942583 286.506302 
L 198.099297 287.9737 
L 207.858451 289.731626 
L 220.870658 291.803521 
L 236.485305 294.044702 
L 320.414035 295.357834 
L 398.487273 295.488 
L 398.487273 295.488 
" style="fill:none;stroke:#4682b4;stroke-dasharray:7.4,3.2;stroke-dashoffset:0;stroke-width:2;"/>
   </g>
   <g id="patch_8">
    <path d="M 57.6 307.584 
L 57.6 41.472 
" style="fill:none;stroke:#000000;stroke-linecap:square;stroke-linejoin:miter;stroke-width:0.8;"/>
   </g>
   <g id="patch_9">
    <path d="M 414.72 307.584 
L 414.72 41.472 
" style="fill:none;stroke:#000000;stroke-linecap:square;stroke-linejoin:miter;stroke-width:0.8;"/>
   </g>
   <g id="patch_10">
    <path d="M 57.6 307.584 
L 414.72 307.584 
" style="fill:none;stroke:#000000;stroke-linecap:square;stroke-linejoin:miter;stroke-width:0.8;"/>
   </g>
   <g id="patch_11">
    <path d="M 57.6 41.472 
L 414.72 41.472 
" style="fill:none;stroke:#000000;stroke-linecap:square;stroke-linejoin:miter;stroke-width:0.8;"/>
   </g>
   <g id="legend_2">
    <g id="patch_12">
     <path d="M 328.129375 79.3845 
L 407.72 79.3845 
Q 409.72 79.3845 409.72 77.3845 
L 409.72 48.472 
Q 409.72 46.472 407.72 46.472 
L 328.129375 46.472 
Q 326.129375 46.472 326.129375 48.472 
L 326.129375 77.3845 
Q 326.129375 79.3845 328.129375 79.3845 
z
" style="fill:#ffffff;opacity:0.8;stroke:#cccccc;stroke-linejoin:miter;"/>
    </g>
    <g id="line2d_44">
     <path d="M 330.129375 54.570438 
L 350.129375 54.570438 
" style="fill:none;stroke:#ff6347;stroke-dasharray:7.4,3.2;stroke-dashoffset:0;stroke-width:2;"/>
    </g>
    <g id="line2d_45"/>
    <g id="text_26">
     <!-- train_loss -->
     <defs>
      <path d="M 9.421875 75.984375 
L 18.40625 75.984375 
L 18.40625 0 
L 9.421875 0 
z
" id="DejaVuSans-6c"/>
     </defs>
     <g transform="translate(358.129375 58.070438)scale(0.1 -0.1)">
      <use xlink:href="#DejaVuSans-74"/>
      <use x="39.208984" xlink:href="#DejaVuSans-72"/>
      <use x="80.322266" xlink:href="#DejaVuSans-61"/>
      <use x="141.601562" xlink:href="#DejaVuSans-69"/>
      <use x="169.384766" xlink:href="#DejaVuSans-6e"/>
      <use x="232.763672" xlink:href="#DejaVuSans-5f"/>
      <use x="282.763672" xlink:href="#DejaVuSans-6c"/>
      <use x="310.546875" xlink:href="#DejaVuSans-6f"/>
      <use x="371.728516" xlink:href="#DejaVuSans-73"/>
      <use x="423.828125" xlink:href="#DejaVuSans-73"/>
     </g>
    </g>
    <g id="line2d_46">
     <path d="M 330.129375 69.526688 
L 350.129375 69.526688 
" style="fill:none;stroke:#4682b4;stroke-dasharray:7.4,3.2;stroke-dashoffset:0;stroke-width:2;"/>
    </g>
    <g id="line2d_47"/>
    <g id="text_27">
     <!-- test_loss -->
     <g transform="translate(358.129375 73.026688)scale(0.1 -0.1)">
      <use xlink:href="#DejaVuSans-74"/>
      <use x="39.208984" xlink:href="#DejaVuSans-65"/>
      <use x="100.732422" xlink:href="#DejaVuSans-73"/>
      <use x="152.832031" xlink:href="#DejaVuSans-74"/>
      <use x="192.041016" xlink:href="#DejaVuSans-5f"/>
      <use x="242.041016" xlink:href="#DejaVuSans-6c"/>
      <use x="269.824219" xlink:href="#DejaVuSans-6f"/>
      <use x="331.005859" xlink:href="#DejaVuSans-73"/>
      <use x="383.105469" xlink:href="#DejaVuSans-73"/>
     </g>
    </g>
   </g>
  </g>
  <g id="text_28">
   <!-- Sigmoid Stocastic Gradient Descent -->
   <defs>
    <path d="M 53.515625 70.515625 
L 53.515625 60.890625 
Q 47.90625 63.578125 42.921875 64.890625 
Q 37.9375 66.21875 33.296875 66.21875 
Q 25.25 66.21875 20.875 63.09375 
Q 16.5 59.96875 16.5 54.203125 
Q 16.5 49.359375 19.40625 46.890625 
Q 22.3125 44.4375 30.421875 42.921875 
L 36.375 41.703125 
Q 47.40625 39.59375 52.65625 34.296875 
Q 57.90625 29 57.90625 20.125 
Q 57.90625 9.515625 50.796875 4.046875 
Q 43.703125 -1.421875 29.984375 -1.421875 
Q 24.8125 -1.421875 18.96875 -0.25 
Q 13.140625 0.921875 6.890625 3.21875 
L 6.890625 13.375 
Q 12.890625 10.015625 18.65625 8.296875 
Q 24.421875 6.59375 29.984375 6.59375 
Q 38.421875 6.59375 43.015625 9.90625 
Q 47.609375 13.234375 47.609375 19.390625 
Q 47.609375 24.75 44.3125 27.78125 
Q 41.015625 30.8125 33.5 32.328125 
L 27.484375 33.5 
Q 16.453125 35.6875 11.515625 40.375 
Q 6.59375 45.0625 6.59375 53.421875 
Q 6.59375 63.09375 13.40625 68.65625 
Q 20.21875 74.21875 32.171875 74.21875 
Q 37.3125 74.21875 42.625 73.28125 
Q 47.953125 72.359375 53.515625 70.515625 
z
" id="DejaVuSans-53"/>
    <path d="M 45.40625 27.984375 
Q 45.40625 37.75 41.375 43.109375 
Q 37.359375 48.484375 30.078125 48.484375 
Q 22.859375 48.484375 18.828125 43.109375 
Q 14.796875 37.75 14.796875 27.984375 
Q 14.796875 18.265625 18.828125 12.890625 
Q 22.859375 7.515625 30.078125 7.515625 
Q 37.359375 7.515625 41.375 12.890625 
Q 45.40625 18.265625 45.40625 27.984375 
z
M 54.390625 6.78125 
Q 54.390625 -7.171875 48.1875 -13.984375 
Q 42 -20.796875 29.203125 -20.796875 
Q 24.46875 -20.796875 20.265625 -20.09375 
Q 16.0625 -19.390625 12.109375 -17.921875 
L 12.109375 -9.1875 
Q 16.0625 -11.328125 19.921875 -12.34375 
Q 23.78125 -13.375 27.78125 -13.375 
Q 36.625 -13.375 41.015625 -8.765625 
Q 45.40625 -4.15625 45.40625 5.171875 
L 45.40625 9.625 
Q 42.625 4.78125 38.28125 2.390625 
Q 33.9375 0 27.875 0 
Q 17.828125 0 11.671875 7.65625 
Q 5.515625 15.328125 5.515625 27.984375 
Q 5.515625 40.671875 11.671875 48.328125 
Q 17.828125 56 27.875 56 
Q 33.9375 56 38.28125 53.609375 
Q 42.625 51.21875 45.40625 46.390625 
L 45.40625 54.6875 
L 54.390625 54.6875 
z
" id="DejaVuSans-67"/>
    <path d="M 52 44.1875 
Q 55.375 50.25 60.0625 53.125 
Q 64.75 56 71.09375 56 
Q 79.640625 56 84.28125 50.015625 
Q 88.921875 44.046875 88.921875 33.015625 
L 88.921875 0 
L 79.890625 0 
L 79.890625 32.71875 
Q 79.890625 40.578125 77.09375 44.375 
Q 74.3125 48.1875 68.609375 48.1875 
Q 61.625 48.1875 57.5625 43.546875 
Q 53.515625 38.921875 53.515625 30.90625 
L 53.515625 0 
L 44.484375 0 
L 44.484375 32.71875 
Q 44.484375 40.625 41.703125 44.40625 
Q 38.921875 48.1875 33.109375 48.1875 
Q 26.21875 48.1875 22.15625 43.53125 
Q 18.109375 38.875 18.109375 30.90625 
L 18.109375 0 
L 9.078125 0 
L 9.078125 54.6875 
L 18.109375 54.6875 
L 18.109375 46.1875 
Q 21.1875 51.21875 25.484375 53.609375 
Q 29.78125 56 35.6875 56 
Q 41.65625 56 45.828125 52.96875 
Q 50 49.953125 52 44.1875 
z
" id="DejaVuSans-6d"/>
    <path d="M 45.40625 46.390625 
L 45.40625 75.984375 
L 54.390625 75.984375 
L 54.390625 0 
L 45.40625 0 
L 45.40625 8.203125 
Q 42.578125 3.328125 38.25 0.953125 
Q 33.9375 -1.421875 27.875 -1.421875 
Q 17.96875 -1.421875 11.734375 6.484375 
Q 5.515625 14.40625 5.515625 27.296875 
Q 5.515625 40.1875 11.734375 48.09375 
Q 17.96875 56 27.875 56 
Q 33.9375 56 38.25 53.625 
Q 42.578125 51.265625 45.40625 46.390625 
z
M 14.796875 27.296875 
Q 14.796875 17.390625 18.875 11.75 
Q 22.953125 6.109375 30.078125 6.109375 
Q 37.203125 6.109375 41.296875 11.75 
Q 45.40625 17.390625 45.40625 27.296875 
Q 45.40625 37.203125 41.296875 42.84375 
Q 37.203125 48.484375 30.078125 48.484375 
Q 22.953125 48.484375 18.875 42.84375 
Q 14.796875 37.203125 14.796875 27.296875 
z
" id="DejaVuSans-64"/>
    <path id="DejaVuSans-20"/>
    <path d="M 59.515625 10.40625 
L 59.515625 29.984375 
L 43.40625 29.984375 
L 43.40625 38.09375 
L 69.28125 38.09375 
L 69.28125 6.78125 
Q 63.578125 2.734375 56.6875 0.65625 
Q 49.8125 -1.421875 42 -1.421875 
Q 24.90625 -1.421875 15.25 8.5625 
Q 5.609375 18.5625 5.609375 36.375 
Q 5.609375 54.25 15.25 64.234375 
Q 24.90625 74.21875 42 74.21875 
Q 49.125 74.21875 55.546875 72.453125 
Q 61.96875 70.703125 67.390625 67.28125 
L 67.390625 56.78125 
Q 61.921875 61.421875 55.765625 63.765625 
Q 49.609375 66.109375 42.828125 66.109375 
Q 29.4375 66.109375 22.71875 58.640625 
Q 16.015625 51.171875 16.015625 36.375 
Q 16.015625 21.625 22.71875 14.15625 
Q 29.4375 6.6875 42.828125 6.6875 
Q 48.046875 6.6875 52.140625 7.59375 
Q 56.25 8.5 59.515625 10.40625 
z
" id="DejaVuSans-47"/>
    <path d="M 19.671875 64.796875 
L 19.671875 8.109375 
L 31.59375 8.109375 
Q 46.6875 8.109375 53.6875 14.9375 
Q 60.6875 21.78125 60.6875 36.53125 
Q 60.6875 51.171875 53.6875 57.984375 
Q 46.6875 64.796875 31.59375 64.796875 
z
M 9.8125 72.90625 
L 30.078125 72.90625 
Q 51.265625 72.90625 61.171875 64.09375 
Q 71.09375 55.28125 71.09375 36.53125 
Q 71.09375 17.671875 61.125 8.828125 
Q 51.171875 0 30.078125 0 
L 9.8125 0 
z
" id="DejaVuSans-44"/>
   </defs>
   <g transform="translate(50.4875 22.108875)scale(0.2 -0.2)">
    <use xlink:href="#DejaVuSans-53"/>
    <use x="63.476562" xlink:href="#DejaVuSans-69"/>
    <use x="91.259766" xlink:href="#DejaVuSans-67"/>
    <use x="154.736328" xlink:href="#DejaVuSans-6d"/>
    <use x="252.148438" xlink:href="#DejaVuSans-6f"/>
    <use x="313.330078" xlink:href="#DejaVuSans-69"/>
    <use x="341.113281" xlink:href="#DejaVuSans-64"/>
    <use x="404.589844" xlink:href="#DejaVuSans-20"/>
    <use x="436.376953" xlink:href="#DejaVuSans-53"/>
    <use x="499.853516" xlink:href="#DejaVuSans-74"/>
    <use x="539.0625" xlink:href="#DejaVuSans-6f"/>
    <use x="600.244141" xlink:href="#DejaVuSans-63"/>
    <use x="655.224609" xlink:href="#DejaVuSans-61"/>
    <use x="716.503906" xlink:href="#DejaVuSans-73"/>
    <use x="768.603516" xlink:href="#DejaVuSans-74"/>
    <use x="807.8125" xlink:href="#DejaVuSans-69"/>
    <use x="835.595703" xlink:href="#DejaVuSans-63"/>
    <use x="890.576172" xlink:href="#DejaVuSans-20"/>
    <use x="922.363281" xlink:href="#DejaVuSans-47"/>
    <use x="999.853516" xlink:href="#DejaVuSans-72"/>
    <use x="1040.966797" xlink:href="#DejaVuSans-61"/>
    <use x="1102.246094" xlink:href="#DejaVuSans-64"/>
    <use x="1165.722656" xlink:href="#DejaVuSans-69"/>
    <use x="1193.505859" xlink:href="#DejaVuSans-65"/>
    <use x="1255.029297" xlink:href="#DejaVuSans-6e"/>
    <use x="1318.408203" xlink:href="#DejaVuSans-74"/>
    <use x="1357.617188" xlink:href="#DejaVuSans-20"/>
    <use x="1389.404297" xlink:href="#DejaVuSans-44"/>
    <use x="1466.40625" xlink:href="#DejaVuSans-65"/>
    <use x="1527.929688" xlink:href="#DejaVuSans-73"/>
    <use x="1580.029297" xlink:href="#DejaVuSans-63"/>
    <use x="1635.009766" xlink:href="#DejaVuSans-65"/>
    <use x="1696.533203" xlink:href="#DejaVuSans-6e"/>
    <use x="1759.912109" xlink:href="#DejaVuSans-74"/>
   </g>
  </g>
 </g>
 <defs>
  <clipPath id="pa347b6204a">
   <rect height="266.112" width="357.12" x="57.6" y="41.472"/>
  </clipPath>
 </defs>
</svg>
