<?xml version="1.0" encoding="utf-8" standalone="no"?>
<!DOCTYPE svg PUBLIC "-//W3C//DTD SVG 1.1//EN"
  "http://www.w3.org/Graphics/SVG/1.1/DTD/svg11.dtd">
<!-- Created with matplotlib (http://matplotlib.org/) -->
<svg height="345.6pt" version="1.1" viewBox="0 0 460.8 345.6" width="460.8pt" xmlns="http://www.w3.org/2000/svg" xmlns:xlink="http://www.w3.org/1999/xlink">
 <defs>
  <style type="text/css">
*{stroke-linecap:butt;stroke-linejoin:round;}
  </style>
 </defs>
 <g id="figure_1">
  <g id="patch_1">
   <path d="M 0 345.6 
L 460.8 345.6 
L 460.8 0 
L 0 0 
z
" style="fill:#ffffff;"/>
  </g>
  <g id="axes_1">
   <g id="patch_2">
    <path d="M 57.6 307.584 
L 414.72 307.584 
L 414.72 41.472 
L 57.6 41.472 
z
" style="fill:#ffffff;"/>
   </g>
   <g id="matplotlib.axis_1">
    <g id="xtick_1">
     <g id="line2d_1">
      <path clip-path="url(#p77a1359680)" d="M 73.832727 307.584 
L 73.832727 41.472 
" style="fill:none;stroke:#b0b0b0;stroke-linecap:square;stroke-width:0.8;"/>
     </g>
     <g id="line2d_2">
      <defs>
       <path d="M 0 0 
L 0 3.5 
" id="m3051c3087f" style="stroke:#000000;stroke-width:0.8;"/>
      </defs>
      <g>
       <use style="stroke:#000000;stroke-width:0.8;" x="73.832727" xlink:href="#m3051c3087f" y="307.584"/>
      </g>
     </g>
     <g id="text_1">
      <!-- 0 -->
      <defs>
       <path d="M 31.78125 66.40625 
Q 24.171875 66.40625 20.328125 58.90625 
Q 16.5 51.421875 16.5 36.375 
Q 16.5 21.390625 20.328125 13.890625 
Q 24.171875 6.390625 31.78125 6.390625 
Q 39.453125 6.390625 43.28125 13.890625 
Q 47.125 21.390625 47.125 36.375 
Q 47.125 51.421875 43.28125 58.90625 
Q 39.453125 66.40625 31.78125 66.40625 
z
M 31.78125 74.21875 
Q 44.046875 74.21875 50.515625 64.515625 
Q 56.984375 54.828125 56.984375 36.375 
Q 56.984375 17.96875 50.515625 8.265625 
Q 44.046875 -1.421875 31.78125 -1.421875 
Q 19.53125 -1.421875 13.0625 8.265625 
Q 6.59375 17.96875 6.59375 36.375 
Q 6.59375 54.828125 13.0625 64.515625 
Q 19.53125 74.21875 31.78125 74.21875 
z
" id="DejaVuSans-30"/>
      </defs>
      <g transform="translate(70.651477 322.182437)scale(0.1 -0.1)">
       <use xlink:href="#DejaVuSans-30"/>
      </g>
     </g>
    </g>
    <g id="xtick_2">
     <g id="line2d_3">
      <path clip-path="url(#p77a1359680)" d="M 138.893758 307.584 
L 138.893758 41.472 
" style="fill:none;stroke:#b0b0b0;stroke-linecap:square;stroke-width:0.8;"/>
     </g>
     <g id="line2d_4">
      <g>
       <use style="stroke:#000000;stroke-width:0.8;" x="138.893758" xlink:href="#m3051c3087f" y="307.584"/>
      </g>
     </g>
     <g id="text_2">
      <!-- 100 -->
      <defs>
       <path d="M 12.40625 8.296875 
L 28.515625 8.296875 
L 28.515625 63.921875 
L 10.984375 60.40625 
L 10.984375 69.390625 
L 28.421875 72.90625 
L 38.28125 72.90625 
L 38.28125 8.296875 
L 54.390625 8.296875 
L 54.390625 0 
L 12.40625 0 
z
" id="DejaVuSans-31"/>
      </defs>
      <g transform="translate(129.350008 322.182437)scale(0.1 -0.1)">
       <use xlink:href="#DejaVuSans-31"/>
       <use x="63.623047" xlink:href="#DejaVuSans-30"/>
       <use x="127.246094" xlink:href="#DejaVuSans-30"/>
      </g>
     </g>
    </g>
    <g id="xtick_3">
     <g id="line2d_5">
      <path clip-path="url(#p77a1359680)" d="M 203.95479 307.584 
L 203.95479 41.472 
" style="fill:none;stroke:#b0b0b0;stroke-linecap:square;stroke-width:0.8;"/>
     </g>
     <g id="line2d_6">
      <g>
       <use style="stroke:#000000;stroke-width:0.8;" x="203.95479" xlink:href="#m3051c3087f" y="307.584"/>
      </g>
     </g>
     <g id="text_3">
      <!-- 200 -->
      <defs>
       <path d="M 19.1875 8.296875 
L 53.609375 8.296875 
L 53.609375 0 
L 7.328125 0 
L 7.328125 8.296875 
Q 12.9375 14.109375 22.625 23.890625 
Q 32.328125 33.6875 34.8125 36.53125 
Q 39.546875 41.84375 41.421875 45.53125 
Q 43.3125 49.21875 43.3125 52.78125 
Q 43.3125 58.59375 39.234375 62.25 
Q 35.15625 65.921875 28.609375 65.921875 
Q 23.96875 65.921875 18.8125 64.3125 
Q 13.671875 62.703125 7.8125 59.421875 
L 7.8125 69.390625 
Q 13.765625 71.78125 18.9375 73 
Q 24.125 74.21875 28.421875 74.21875 
Q 39.75 74.21875 46.484375 68.546875 
Q 53.21875 62.890625 53.21875 53.421875 
Q 53.21875 48.921875 51.53125 44.890625 
Q 49.859375 40.875 45.40625 35.40625 
Q 44.1875 33.984375 37.640625 27.21875 
Q 31.109375 20.453125 19.1875 8.296875 
z
" id="DejaVuSans-32"/>
      </defs>
      <g transform="translate(194.41104 322.182437)scale(0.1 -0.1)">
       <use xlink:href="#DejaVuSans-32"/>
       <use x="63.623047" xlink:href="#DejaVuSans-30"/>
       <use x="127.246094" xlink:href="#DejaVuSans-30"/>
      </g>
     </g>
    </g>
    <g id="xtick_4">
     <g id="line2d_7">
      <path clip-path="url(#p77a1359680)" d="M 269.015821 307.584 
L 269.015821 41.472 
" style="fill:none;stroke:#b0b0b0;stroke-linecap:square;stroke-width:0.8;"/>
     </g>
     <g id="line2d_8">
      <g>
       <use style="stroke:#000000;stroke-width:0.8;" x="269.015821" xlink:href="#m3051c3087f" y="307.584"/>
      </g>
     </g>
     <g id="text_4">
      <!-- 300 -->
      <defs>
       <path d="M 40.578125 39.3125 
Q 47.65625 37.796875 51.625 33 
Q 55.609375 28.21875 55.609375 21.1875 
Q 55.609375 10.40625 48.1875 4.484375 
Q 40.765625 -1.421875 27.09375 -1.421875 
Q 22.515625 -1.421875 17.65625 -0.515625 
Q 12.796875 0.390625 7.625 2.203125 
L 7.625 11.71875 
Q 11.71875 9.328125 16.59375 8.109375 
Q 21.484375 6.890625 26.8125 6.890625 
Q 36.078125 6.890625 40.9375 10.546875 
Q 45.796875 14.203125 45.796875 21.1875 
Q 45.796875 27.640625 41.28125 31.265625 
Q 36.765625 34.90625 28.71875 34.90625 
L 20.21875 34.90625 
L 20.21875 43.015625 
L 29.109375 43.015625 
Q 36.375 43.015625 40.234375 45.921875 
Q 44.09375 48.828125 44.09375 54.296875 
Q 44.09375 59.90625 40.109375 62.90625 
Q 36.140625 65.921875 28.71875 65.921875 
Q 24.65625 65.921875 20.015625 65.03125 
Q 15.375 64.15625 9.8125 62.3125 
L 9.8125 71.09375 
Q 15.4375 72.65625 20.34375 73.4375 
Q 25.25 74.21875 29.59375 74.21875 
Q 40.828125 74.21875 47.359375 69.109375 
Q 53.90625 64.015625 53.90625 55.328125 
Q 53.90625 49.265625 50.4375 45.09375 
Q 46.96875 40.921875 40.578125 39.3125 
z
" id="DejaVuSans-33"/>
      </defs>
      <g transform="translate(259.472071 322.182437)scale(0.1 -0.1)">
       <use xlink:href="#DejaVuSans-33"/>
       <use x="63.623047" xlink:href="#DejaVuSans-30"/>
       <use x="127.246094" xlink:href="#DejaVuSans-30"/>
      </g>
     </g>
    </g>
    <g id="xtick_5">
     <g id="line2d_9">
      <path clip-path="url(#p77a1359680)" d="M 334.076852 307.584 
L 334.076852 41.472 
" style="fill:none;stroke:#b0b0b0;stroke-linecap:square;stroke-width:0.8;"/>
     </g>
     <g id="line2d_10">
      <g>
       <use style="stroke:#000000;stroke-width:0.8;" x="334.076852" xlink:href="#m3051c3087f" y="307.584"/>
      </g>
     </g>
     <g id="text_5">
      <!-- 400 -->
      <defs>
       <path d="M 37.796875 64.3125 
L 12.890625 25.390625 
L 37.796875 25.390625 
z
M 35.203125 72.90625 
L 47.609375 72.90625 
L 47.609375 25.390625 
L 58.015625 25.390625 
L 58.015625 17.1875 
L 47.609375 17.1875 
L 47.609375 0 
L 37.796875 0 
L 37.796875 17.1875 
L 4.890625 17.1875 
L 4.890625 26.703125 
z
" id="DejaVuSans-34"/>
      </defs>
      <g transform="translate(324.533102 322.182437)scale(0.1 -0.1)">
       <use xlink:href="#DejaVuSans-34"/>
       <use x="63.623047" xlink:href="#DejaVuSans-30"/>
       <use x="127.246094" xlink:href="#DejaVuSans-30"/>
      </g>
     </g>
    </g>
    <g id="xtick_6">
     <g id="line2d_11">
      <path clip-path="url(#p77a1359680)" d="M 399.137883 307.584 
L 399.137883 41.472 
" style="fill:none;stroke:#b0b0b0;stroke-linecap:square;stroke-width:0.8;"/>
     </g>
     <g id="line2d_12">
      <g>
       <use style="stroke:#000000;stroke-width:0.8;" x="399.137883" xlink:href="#m3051c3087f" y="307.584"/>
      </g>
     </g>
     <g id="text_6">
      <!-- 500 -->
      <defs>
       <path d="M 10.796875 72.90625 
L 49.515625 72.90625 
L 49.515625 64.59375 
L 19.828125 64.59375 
L 19.828125 46.734375 
Q 21.96875 47.46875 24.109375 47.828125 
Q 26.265625 48.1875 28.421875 48.1875 
Q 40.625 48.1875 47.75 41.5 
Q 54.890625 34.8125 54.890625 23.390625 
Q 54.890625 11.625 47.5625 5.09375 
Q 40.234375 -1.421875 26.90625 -1.421875 
Q 22.3125 -1.421875 17.546875 -0.640625 
Q 12.796875 0.140625 7.71875 1.703125 
L 7.71875 11.625 
Q 12.109375 9.234375 16.796875 8.0625 
Q 21.484375 6.890625 26.703125 6.890625 
Q 35.15625 6.890625 40.078125 11.328125 
Q 45.015625 15.765625 45.015625 23.390625 
Q 45.015625 31 40.078125 35.4375 
Q 35.15625 39.890625 26.703125 39.890625 
Q 22.75 39.890625 18.8125 39.015625 
Q 14.890625 38.140625 10.796875 36.28125 
z
" id="DejaVuSans-35"/>
      </defs>
      <g transform="translate(389.594133 322.182437)scale(0.1 -0.1)">
       <use xlink:href="#DejaVuSans-35"/>
       <use x="63.623047" xlink:href="#DejaVuSans-30"/>
       <use x="127.246094" xlink:href="#DejaVuSans-30"/>
      </g>
     </g>
    </g>
   </g>
   <g id="matplotlib.axis_2">
    <g id="ytick_1">
     <g id="line2d_13">
      <path clip-path="url(#p77a1359680)" d="M 57.6 299.030365 
L 414.72 299.030365 
" style="fill:none;stroke:#b0b0b0;stroke-linecap:square;stroke-width:0.8;"/>
     </g>
     <g id="line2d_14">
      <defs>
       <path d="M 0 0 
L -3.5 0 
" id="m45edf1bdce" style="stroke:#000000;stroke-width:0.8;"/>
      </defs>
      <g>
       <use style="stroke:#000000;stroke-width:0.8;" x="57.6" xlink:href="#m45edf1bdce" y="299.030365"/>
      </g>
     </g>
     <g id="text_7">
      <!-- 10 -->
      <g transform="translate(37.875 302.829584)scale(0.1 -0.1)">
       <use xlink:href="#DejaVuSans-31"/>
       <use x="63.623047" xlink:href="#DejaVuSans-30"/>
      </g>
     </g>
    </g>
    <g id="ytick_2">
     <g id="line2d_15">
      <path clip-path="url(#p77a1359680)" d="M 57.6 256.341258 
L 414.72 256.341258 
" style="fill:none;stroke:#b0b0b0;stroke-linecap:square;stroke-width:0.8;"/>
     </g>
     <g id="line2d_16">
      <g>
       <use style="stroke:#000000;stroke-width:0.8;" x="57.6" xlink:href="#m45edf1bdce" y="256.341258"/>
      </g>
     </g>
     <g id="text_8">
      <!-- 12 -->
      <g transform="translate(37.875 260.140477)scale(0.1 -0.1)">
       <use xlink:href="#DejaVuSans-31"/>
       <use x="63.623047" xlink:href="#DejaVuSans-32"/>
      </g>
     </g>
    </g>
    <g id="ytick_3">
     <g id="line2d_17">
      <path clip-path="url(#p77a1359680)" d="M 57.6 213.652151 
L 414.72 213.652151 
" style="fill:none;stroke:#b0b0b0;stroke-linecap:square;stroke-width:0.8;"/>
     </g>
     <g id="line2d_18">
      <g>
       <use style="stroke:#000000;stroke-width:0.8;" x="57.6" xlink:href="#m45edf1bdce" y="213.652151"/>
      </g>
     </g>
     <g id="text_9">
      <!-- 14 -->
      <g transform="translate(37.875 217.45137)scale(0.1 -0.1)">
       <use xlink:href="#DejaVuSans-31"/>
       <use x="63.623047" xlink:href="#DejaVuSans-34"/>
      </g>
     </g>
    </g>
    <g id="ytick_4">
     <g id="line2d_19">
      <path clip-path="url(#p77a1359680)" d="M 57.6 170.963044 
L 414.72 170.963044 
" style="fill:none;stroke:#b0b0b0;stroke-linecap:square;stroke-width:0.8;"/>
     </g>
     <g id="line2d_20">
      <g>
       <use style="stroke:#000000;stroke-width:0.8;" x="57.6" xlink:href="#m45edf1bdce" y="170.963044"/>
      </g>
     </g>
     <g id="text_10">
      <!-- 16 -->
      <defs>
       <path d="M 33.015625 40.375 
Q 26.375 40.375 22.484375 35.828125 
Q 18.609375 31.296875 18.609375 23.390625 
Q 18.609375 15.53125 22.484375 10.953125 
Q 26.375 6.390625 33.015625 6.390625 
Q 39.65625 6.390625 43.53125 10.953125 
Q 47.40625 15.53125 47.40625 23.390625 
Q 47.40625 31.296875 43.53125 35.828125 
Q 39.65625 40.375 33.015625 40.375 
z
M 52.59375 71.296875 
L 52.59375 62.3125 
Q 48.875 64.0625 45.09375 64.984375 
Q 41.3125 65.921875 37.59375 65.921875 
Q 27.828125 65.921875 22.671875 59.328125 
Q 17.53125 52.734375 16.796875 39.40625 
Q 19.671875 43.65625 24.015625 45.921875 
Q 28.375 48.1875 33.59375 48.1875 
Q 44.578125 48.1875 50.953125 41.515625 
Q 57.328125 34.859375 57.328125 23.390625 
Q 57.328125 12.15625 50.6875 5.359375 
Q 44.046875 -1.421875 33.015625 -1.421875 
Q 20.359375 -1.421875 13.671875 8.265625 
Q 6.984375 17.96875 6.984375 36.375 
Q 6.984375 53.65625 15.1875 63.9375 
Q 23.390625 74.21875 37.203125 74.21875 
Q 40.921875 74.21875 44.703125 73.484375 
Q 48.484375 72.75 52.59375 71.296875 
z
" id="DejaVuSans-36"/>
      </defs>
      <g transform="translate(37.875 174.762263)scale(0.1 -0.1)">
       <use xlink:href="#DejaVuSans-31"/>
       <use x="63.623047" xlink:href="#DejaVuSans-36"/>
      </g>
     </g>
    </g>
    <g id="ytick_5">
     <g id="line2d_21">
      <path clip-path="url(#p77a1359680)" d="M 57.6 128.273937 
L 414.72 128.273937 
" style="fill:none;stroke:#b0b0b0;stroke-linecap:square;stroke-width:0.8;"/>
     </g>
     <g id="line2d_22">
      <g>
       <use style="stroke:#000000;stroke-width:0.8;" x="57.6" xlink:href="#m45edf1bdce" y="128.273937"/>
      </g>
     </g>
     <g id="text_11">
      <!-- 18 -->
      <defs>
       <path d="M 31.78125 34.625 
Q 24.75 34.625 20.71875 30.859375 
Q 16.703125 27.09375 16.703125 20.515625 
Q 16.703125 13.921875 20.71875 10.15625 
Q 24.75 6.390625 31.78125 6.390625 
Q 38.8125 6.390625 42.859375 10.171875 
Q 46.921875 13.96875 46.921875 20.515625 
Q 46.921875 27.09375 42.890625 30.859375 
Q 38.875 34.625 31.78125 34.625 
z
M 21.921875 38.8125 
Q 15.578125 40.375 12.03125 44.71875 
Q 8.5 49.078125 8.5 55.328125 
Q 8.5 64.0625 14.71875 69.140625 
Q 20.953125 74.21875 31.78125 74.21875 
Q 42.671875 74.21875 48.875 69.140625 
Q 55.078125 64.0625 55.078125 55.328125 
Q 55.078125 49.078125 51.53125 44.71875 
Q 48 40.375 41.703125 38.8125 
Q 48.828125 37.15625 52.796875 32.3125 
Q 56.78125 27.484375 56.78125 20.515625 
Q 56.78125 9.90625 50.3125 4.234375 
Q 43.84375 -1.421875 31.78125 -1.421875 
Q 19.734375 -1.421875 13.25 4.234375 
Q 6.78125 9.90625 6.78125 20.515625 
Q 6.78125 27.484375 10.78125 32.3125 
Q 14.796875 37.15625 21.921875 38.8125 
z
M 18.3125 54.390625 
Q 18.3125 48.734375 21.84375 45.5625 
Q 25.390625 42.390625 31.78125 42.390625 
Q 38.140625 42.390625 41.71875 45.5625 
Q 45.3125 48.734375 45.3125 54.390625 
Q 45.3125 60.0625 41.71875 63.234375 
Q 38.140625 66.40625 31.78125 66.40625 
Q 25.390625 66.40625 21.84375 63.234375 
Q 18.3125 60.0625 18.3125 54.390625 
z
" id="DejaVuSans-38"/>
      </defs>
      <g transform="translate(37.875 132.073156)scale(0.1 -0.1)">
       <use xlink:href="#DejaVuSans-31"/>
       <use x="63.623047" xlink:href="#DejaVuSans-38"/>
      </g>
     </g>
    </g>
    <g id="ytick_6">
     <g id="line2d_23">
      <path clip-path="url(#p77a1359680)" d="M 57.6 85.58483 
L 414.72 85.58483 
" style="fill:none;stroke:#b0b0b0;stroke-linecap:square;stroke-width:0.8;"/>
     </g>
     <g id="line2d_24">
      <g>
       <use style="stroke:#000000;stroke-width:0.8;" x="57.6" xlink:href="#m45edf1bdce" y="85.58483"/>
      </g>
     </g>
     <g id="text_12">
      <!-- 20 -->
      <g transform="translate(37.875 89.384049)scale(0.1 -0.1)">
       <use xlink:href="#DejaVuSans-32"/>
       <use x="63.623047" xlink:href="#DejaVuSans-30"/>
      </g>
     </g>
    </g>
    <g id="ytick_7">
     <g id="line2d_25">
      <path clip-path="url(#p77a1359680)" d="M 57.6 42.895723 
L 414.72 42.895723 
" style="fill:none;stroke:#b0b0b0;stroke-linecap:square;stroke-width:0.8;"/>
     </g>
     <g id="line2d_26">
      <g>
       <use style="stroke:#000000;stroke-width:0.8;" x="57.6" xlink:href="#m45edf1bdce" y="42.895723"/>
      </g>
     </g>
     <g id="text_13">
      <!-- 22 -->
      <g transform="translate(37.875 46.694942)scale(0.1 -0.1)">
       <use xlink:href="#DejaVuSans-32"/>
       <use x="63.623047" xlink:href="#DejaVuSans-32"/>
      </g>
     </g>
    </g>
    <g id="text_14">
     <!-- Accuracy -->
     <defs>
      <path d="M 34.1875 63.1875 
L 20.796875 26.90625 
L 47.609375 26.90625 
z
M 28.609375 72.90625 
L 39.796875 72.90625 
L 67.578125 0 
L 57.328125 0 
L 50.6875 18.703125 
L 17.828125 18.703125 
L 11.1875 0 
L 0.78125 0 
z
" id="DejaVuSans-41"/>
      <path d="M 48.78125 52.59375 
L 48.78125 44.1875 
Q 44.96875 46.296875 41.140625 47.34375 
Q 37.3125 48.390625 33.40625 48.390625 
Q 24.65625 48.390625 19.8125 42.84375 
Q 14.984375 37.3125 14.984375 27.296875 
Q 14.984375 17.28125 19.8125 11.734375 
Q 24.65625 6.203125 33.40625 6.203125 
Q 37.3125 6.203125 41.140625 7.25 
Q 44.96875 8.296875 48.78125 10.40625 
L 48.78125 2.09375 
Q 45.015625 0.34375 40.984375 -0.53125 
Q 36.96875 -1.421875 32.421875 -1.421875 
Q 20.0625 -1.421875 12.78125 6.34375 
Q 5.515625 14.109375 5.515625 27.296875 
Q 5.515625 40.671875 12.859375 48.328125 
Q 20.21875 56 33.015625 56 
Q 37.15625 56 41.109375 55.140625 
Q 45.0625 54.296875 48.78125 52.59375 
z
" id="DejaVuSans-63"/>
      <path d="M 8.5 21.578125 
L 8.5 54.6875 
L 17.484375 54.6875 
L 17.484375 21.921875 
Q 17.484375 14.15625 20.5 10.265625 
Q 23.53125 6.390625 29.59375 6.390625 
Q 36.859375 6.390625 41.078125 11.03125 
Q 45.3125 15.671875 45.3125 23.6875 
L 45.3125 54.6875 
L 54.296875 54.6875 
L 54.296875 0 
L 45.3125 0 
L 45.3125 8.40625 
Q 42.046875 3.421875 37.71875 1 
Q 33.40625 -1.421875 27.6875 -1.421875 
Q 18.265625 -1.421875 13.375 4.4375 
Q 8.5 10.296875 8.5 21.578125 
z
M 31.109375 56 
z
" id="DejaVuSans-75"/>
      <path d="M 41.109375 46.296875 
Q 39.59375 47.171875 37.8125 47.578125 
Q 36.03125 48 33.890625 48 
Q 26.265625 48 22.1875 43.046875 
Q 18.109375 38.09375 18.109375 28.8125 
L 18.109375 0 
L 9.078125 0 
L 9.078125 54.6875 
L 18.109375 54.6875 
L 18.109375 46.1875 
Q 20.953125 51.171875 25.484375 53.578125 
Q 30.03125 56 36.53125 56 
Q 37.453125 56 38.578125 55.875 
Q 39.703125 55.765625 41.0625 55.515625 
z
" id="DejaVuSans-72"/>
      <path d="M 34.28125 27.484375 
Q 23.390625 27.484375 19.1875 25 
Q 14.984375 22.515625 14.984375 16.5 
Q 14.984375 11.71875 18.140625 8.90625 
Q 21.296875 6.109375 26.703125 6.109375 
Q 34.1875 6.109375 38.703125 11.40625 
Q 43.21875 16.703125 43.21875 25.484375 
L 43.21875 27.484375 
z
M 52.203125 31.203125 
L 52.203125 0 
L 43.21875 0 
L 43.21875 8.296875 
Q 40.140625 3.328125 35.546875 0.953125 
Q 30.953125 -1.421875 24.3125 -1.421875 
Q 15.921875 -1.421875 10.953125 3.296875 
Q 6 8.015625 6 15.921875 
Q 6 25.140625 12.171875 29.828125 
Q 18.359375 34.515625 30.609375 34.515625 
L 43.21875 34.515625 
L 43.21875 35.40625 
Q 43.21875 41.609375 39.140625 45 
Q 35.0625 48.390625 27.6875 48.390625 
Q 23 48.390625 18.546875 47.265625 
Q 14.109375 46.140625 10.015625 43.890625 
L 10.015625 52.203125 
Q 14.9375 54.109375 19.578125 55.046875 
Q 24.21875 56 28.609375 56 
Q 40.484375 56 46.34375 49.84375 
Q 52.203125 43.703125 52.203125 31.203125 
z
" id="DejaVuSans-61"/>
      <path d="M 32.171875 -5.078125 
Q 28.375 -14.84375 24.75 -17.8125 
Q 21.140625 -20.796875 15.09375 -20.796875 
L 7.90625 -20.796875 
L 7.90625 -13.28125 
L 13.1875 -13.28125 
Q 16.890625 -13.28125 18.9375 -11.515625 
Q 21 -9.765625 23.484375 -3.21875 
L 25.09375 0.875 
L 2.984375 54.6875 
L 12.5 54.6875 
L 29.59375 11.921875 
L 46.6875 54.6875 
L 56.203125 54.6875 
z
" id="DejaVuSans-79"/>
     </defs>
     <g transform="translate(31.795312 197.442844)rotate(-90)scale(0.1 -0.1)">
      <use xlink:href="#DejaVuSans-41"/>
      <use x="68.392578" xlink:href="#DejaVuSans-63"/>
      <use x="123.373047" xlink:href="#DejaVuSans-63"/>
      <use x="178.353516" xlink:href="#DejaVuSans-75"/>
      <use x="241.732422" xlink:href="#DejaVuSans-72"/>
      <use x="282.845703" xlink:href="#DejaVuSans-61"/>
      <use x="344.125" xlink:href="#DejaVuSans-63"/>
      <use x="399.105469" xlink:href="#DejaVuSans-79"/>
     </g>
    </g>
   </g>
   <g id="line2d_27">
    <path clip-path="url(#p77a1359680)" d="M 73.832727 295.488 
L 74.483338 292.584204 
L 75.133948 287.973626 
L 75.784558 282.426875 
L 76.435169 275.766552 
L 77.085779 270.344622 
L 77.736389 262.185766 
L 78.386999 256.294096 
L 79.68822 239.902801 
L 80.989441 227.610312 
L 81.640051 224.025887 
L 82.290661 219.583498 
L 82.941272 213.389624 
L 83.591882 212.665659 
L 84.893103 208.31325 
L 85.543713 205.025796 
L 86.194323 204.171077 
L 88.146154 194.22462 
L 88.796764 189.87027 
L 89.447375 184.278163 
L 90.097985 179.844966 
L 90.748595 177.710475 
L 91.399206 172.371956 
L 93.351037 161.277117 
L 94.001647 158.160492 
L 94.652257 155.857175 
L 95.302868 155.169978 
L 95.953478 150.945046 
L 96.604088 150.689454 
L 97.254698 147.612237 
L 97.905309 146.588056 
L 98.555919 145.904135 
L 99.206529 144.882562 
L 99.85714 141.97681 
L 100.50775 141.422339 
L 101.15836 142.617349 
L 101.808971 141.934763 
L 102.459581 141.464386 
L 103.110191 139.285875 
L 103.760802 139.671521 
L 104.411412 139.802879 
L 105.062022 140.228633 
L 105.712633 139.420573 
L 106.363243 137.925984 
L 107.013853 137.584961 
L 107.664463 136.986502 
L 108.315074 134.338282 
L 108.965684 134.721925 
L 109.616294 135.577312 
L 110.266905 133.269351 
L 110.917515 133.487475 
L 111.568125 134.165449 
L 112.869346 132.885041 
L 113.519956 132.118392 
L 114.170567 130.406982 
L 114.821177 130.961454 
L 115.471787 129.38541 
L 116.122398 130.025948 
L 116.773008 129.728341 
L 117.423618 127.513698 
L 118.074228 128.574074 
L 118.724839 126.570273 
L 119.375449 127.637868 
L 120.026059 127.466371 
L 121.32728 125.886383 
L 121.97789 124.439121 
L 122.628501 127.424324 
L 123.279111 126.782513 
L 123.929721 124.605943 
L 124.580332 123.707236 
L 125.230942 124.606611 
L 125.881552 123.026622 
L 126.532163 123.537107 
L 127.182773 124.261708 
L 127.833383 122.727043 
L 128.483993 121.830945 
L 129.785214 121.528725 
L 130.435824 121.573381 
L 131.737045 120.121507 
L 132.387655 119.478997 
L 133.038266 119.435677 
L 133.688876 117.814246 
L 134.339486 116.744074 
L 134.990097 116.746014 
L 136.291317 114.65357 
L 136.941927 114.310671 
L 137.592538 112.860069 
L 138.243148 113.073582 
L 138.893758 111.750458 
L 139.544369 111.877268 
L 140.194979 112.477063 
L 140.845589 110.935146 
L 141.4962 110.895103 
L 143.448031 108.380245 
L 144.098641 108.553682 
L 145.399862 107.27321 
L 146.050472 107.786302 
L 146.701082 107.191119 
L 147.351692 107.318597 
L 148.002303 106.764094 
L 148.652913 105.311552 
L 149.954134 104.927846 
L 151.255354 103.096273 
L 151.905965 103.774883 
L 152.556575 101.639756 
L 153.857796 102.279658 
L 154.508406 101.769174 
L 155.159016 101.598376 
L 155.809627 100.405338 
L 156.460237 100.01508 
L 157.110847 98.86603 
L 157.761457 98.73992 
L 158.412068 99.207021 
L 159.062678 97.839877 
L 159.713288 98.096074 
L 160.363899 96.475342 
L 161.014509 96.905676 
L 161.665119 96.263165 
L 162.31573 96.562745 
L 162.96634 95.877487 
L 164.918171 95.8335 
L 165.568781 94.299503 
L 166.870002 94.554395 
L 167.520612 93.275927 
L 168.171222 94.043911 
L 168.821833 93.057834 
L 169.472443 94.512348 
L 170.123053 92.54471 
L 170.773664 92.374581 
L 171.424274 94.806679 
L 172.074884 94.041271 
L 172.725495 93.952628 
L 173.376105 94.38223 
L 174.026715 93.440809 
L 174.677326 93.057166 
L 175.327936 92.9711 
L 176.629156 92.032954 
L 177.279767 92.331197 
L 177.930377 92.759527 
L 178.580987 91.691963 
L 179.231598 91.220282 
L 179.882208 91.733374 
L 180.532818 91.011381 
L 181.183429 91.991543 
L 181.834039 91.437071 
L 183.13526 91.735346 
L 183.78587 90.410887 
L 184.43648 91.224894 
L 185.087091 92.250379 
L 185.737701 91.438407 
L 186.388311 91.052093 
L 187.038921 91.950163 
L 188.340142 90.967362 
L 188.990752 90.32746 
L 189.641363 90.072536 
L 190.291973 90.925315 
L 190.942583 89.38801 
L 191.593194 90.542944 
L 192.243804 91.224226 
L 192.894414 89.219153 
L 193.545025 88.704756 
L 194.195635 89.772352 
L 194.846245 89.902406 
L 195.496856 88.579282 
L 196.147466 89.218485 
L 196.798076 88.750716 
L 197.448686 87.553766 
L 198.099297 87.809962 
L 200.051128 87.380996 
L 200.701738 86.528218 
L 201.352348 85.890319 
L 202.002959 86.444759 
L 202.653569 86.230642 
L 203.304179 84.052799 
L 203.95479 85.890319 
L 204.6054 85.289825 
L 205.25601 85.503337 
L 205.906621 85.29116 
L 206.557231 84.606603 
L 207.207841 84.650622 
L 207.858451 84.949565 
L 208.509062 84.521872 
L 209.159672 86.314069 
L 209.810282 84.39503 
L 210.460893 83.924017 
L 211.111503 84.351711 
L 211.762113 83.243403 
L 212.412724 82.475419 
L 213.063334 82.815042 
L 214.364555 82.81571 
L 215.015165 82.432036 
L 215.665775 81.449203 
L 216.316385 82.944492 
L 216.966996 80.764677 
L 217.617606 81.748814 
L 218.268216 81.537909 
L 218.918827 81.108944 
L 219.569437 79.914538 
L 220.220047 80.080756 
L 220.870658 81.191035 
L 222.171878 79.953946 
L 222.822489 80.20693 
L 223.473099 80.08206 
L 224.123709 79.612319 
L 224.77432 79.570303 
L 225.42493 78.032999 
L 226.72615 78.97512 
L 227.376761 78.76094 
L 228.027371 77.990283 
L 228.677981 77.563258 
L 229.328592 76.624476 
L 229.979202 77.777439 
L 230.629812 76.370252 
L 231.280423 75.258637 
L 231.931033 75.897203 
L 232.581643 74.874327 
L 233.882864 75.000437 
L 234.533474 74.317183 
L 235.184085 74.702861 
L 235.834695 74.403918 
L 236.485305 74.572775 
L 237.135915 72.224739 
L 237.786526 74.101094 
L 238.437136 73.248983 
L 239.087746 73.505211 
L 239.738357 74.998465 
L 241.039577 73.038111 
L 242.340798 73.296947 
L 242.991408 72.952712 
L 243.642019 72.437648 
L 244.943239 73.63199 
L 245.59385 72.778607 
L 246.24446 73.034803 
L 246.89507 73.162249 
L 247.54568 73.588002 
L 248.196291 73.038778 
L 249.497511 72.395569 
L 250.148122 72.905417 
L 250.798732 72.907357 
L 251.449342 72.733919 
L 252.099953 73.034135 
L 252.750563 72.436312 
L 253.401173 74.018272 
L 254.051784 73.042023 
L 254.702394 73.588002 
L 255.353004 73.335686 
L 256.003615 72.268122 
L 256.654225 72.779274 
L 257.304835 72.480331 
L 257.955445 72.052638 
L 258.606056 73.118261 
L 259.256666 72.522379 
L 259.907276 71.285289 
L 260.557887 70.900343 
L 261.208497 71.670268 
L 261.859107 71.411432 
L 262.509718 72.950072 
L 263.160328 72.225407 
L 263.810938 72.734587 
L 264.461549 71.028457 
L 265.112159 71.412099 
L 265.762769 72.009286 
L 266.413379 72.096021 
L 267.06399 72.011894 
L 267.7146 72.395569 
L 268.36521 71.027789 
L 269.015821 72.952044 
L 269.666431 71.672271 
L 270.317041 71.155235 
L 270.967652 71.412767 
L 271.618262 71.027789 
L 272.268872 71.628252 
L 272.919483 71.92058 
L 273.570093 72.779879 
L 274.220703 71.666356 
L 274.871314 71.155903 
L 275.521924 72.396236 
L 276.172534 70.985074 
L 276.823144 70.8596 
L 277.473755 70.219062 
L 278.124365 71.414071 
L 278.774975 70.897703 
L 279.425586 71.197314 
L 280.076196 70.470678 
L 280.726806 71.88184 
L 281.377417 71.625612 
L 282.028027 71.114492 
L 282.678637 70.089612 
L 283.329248 69.615959 
L 283.979858 71.670268 
L 284.630468 72.094685 
L 285.281079 71.026485 
L 285.931689 71.923251 
L 286.582299 71.069805 
L 287.232909 71.027789 
L 287.88352 70.089612 
L 288.53413 70.85502 
L 289.18474 71.159179 
L 289.835351 69.27764 
L 291.136571 70.644751 
L 291.787182 70.985074 
L 292.437792 69.620539 
L 293.088402 69.619267 
L 293.739013 70.555409 
L 295.040233 69.318987 
L 295.690844 70.772229 
L 296.341454 70.558716 
L 296.992064 69.449073 
L 297.642674 69.92015 
L 298.293285 70.045624 
L 298.943895 70.560688 
L 299.594505 70.30182 
L 300.245116 69.921486 
L 300.895726 68.553643 
L 302.196947 70.389191 
L 302.847557 68.551703 
L 303.498167 70.813609 
L 304.148778 70.68419 
L 304.799388 70.684858 
L 305.449998 69.916206 
L 306.100608 69.661282 
L 306.751219 68.891962 
L 307.401829 69.875463 
L 308.052439 69.407026 
L 308.70305 70.387251 
L 309.35366 69.619267 
L 311.305491 68.339462 
L 311.956101 69.110118 
L 312.606712 70.17501 
L 313.257322 68.594386 
L 313.907932 69.91751 
L 314.558543 69.363038 
L 315.209153 68.425529 
L 315.859763 70.473922 
L 317.160984 68.894602 
L 317.811594 68.807231 
L 318.462204 69.105475 
L 319.112815 68.424193 
L 319.763425 68.552307 
L 320.414035 68.508987 
L 321.064646 68.039247 
L 321.715256 69.321627 
L 322.365866 69.194181 
L 323.016477 68.72514 
L 323.667087 68.508987 
L 324.317697 68.851219 
L 324.968308 68.551703 
L 325.618918 68.89527 
L 326.269528 70.258469 
L 326.920138 69.064731 
L 327.570749 68.97806 
L 328.221359 68.637101 
L 328.871969 69.406358 
L 329.52258 67.911133 
L 330.17319 69.233589 
L 330.8238 68.466908 
L 331.474411 69.791368 
L 332.125021 70.261745 
L 332.775631 70.002909 
L 333.426242 69.108782 
L 334.076852 69.190269 
L 334.727462 68.043159 
L 335.378073 69.576551 
L 336.028683 69.960893 
L 336.679293 70.174406 
L 337.329903 68.97806 
L 337.980514 69.10681 
L 338.631124 67.184528 
L 339.281734 69.660614 
L 339.932345 67.058386 
L 340.582955 69.703997 
L 341.233565 69.236896 
L 341.884176 68.467576 
L 342.534786 70.773533 
L 343.185396 67.612857 
L 343.836007 68.294139 
L 344.486617 69.874127 
L 345.137227 68.71986 
L 345.787837 68.424861 
L 346.438448 68.7225 
L 347.089058 69.234924 
L 348.390279 69.021412 
L 349.040889 69.10681 
L 349.691499 68.083902 
L 350.34211 68.294139 
L 350.99272 68.169333 
L 351.64333 67.869053 
L 352.293941 69.067403 
L 352.944551 68.339462 
L 353.595161 68.934677 
L 354.245772 68.807231 
L 354.896382 69.404418 
L 355.546992 70.343232 
L 356.197602 69.066067 
L 356.848213 68.851886 
L 357.498823 69.107447 
L 358.149433 68.510959 
L 358.800044 69.361703 
L 359.450654 69.531896 
L 360.101264 68.422921 
L 360.751875 68.167361 
L 361.402485 69.448437 
L 362.703706 67.998503 
L 363.354316 68.680421 
L 364.004926 69.022048 
L 364.655537 67.699592 
L 365.306147 68.123977 
L 365.956757 68.937985 
L 367.257978 69.235561 
L 367.908588 68.553643 
L 368.559198 68.166693 
L 369.209809 68.295475 
L 369.860419 67.866477 
L 371.16164 69.236896 
L 371.81225 67.740335 
L 372.46286 69.705301 
L 373.113471 68.936649 
L 374.414691 69.320959 
L 375.065302 69.872187 
L 375.715912 69.321627 
L 376.366522 70.347176 
L 377.017132 68.38151 
L 377.667743 69.92015 
L 378.318353 68.851219 
L 378.968963 68.338158 
L 379.619574 68.895938 
L 380.270184 70.003577 
L 380.920794 68.891358 
L 381.571405 68.166693 
L 382.222015 69.278244 
L 382.872625 68.171336 
L 383.523236 67.824398 
L 384.173846 68.639042 
L 384.824456 69.105475 
L 385.475066 70.003577 
L 386.776287 68.169333 
L 387.426897 68.677845 
L 388.728118 68.766488 
L 389.378728 68.509624 
L 390.029339 69.320959 
L 390.679949 68.338794 
L 391.98117 68.040551 
L 392.63178 69.062155 
L 393.28239 68.253396 
L 393.933001 69.535808 
L 394.583611 68.808535 
L 395.234221 69.961498 
L 395.884831 67.190444 
L 396.535442 68.934041 
L 397.186052 68.851219 
L 397.836662 69.66195 
L 398.487273 69.021412 
L 398.487273 69.021412 
" style="fill:none;stroke:#ff6347;stroke-linecap:square;stroke-width:2;"/>
   </g>
   <g id="line2d_28">
    <path clip-path="url(#p77a1359680)" d="M 73.832727 293.694227 
L 74.483338 291.559772 
L 75.133948 288.358089 
L 75.784558 281.527831 
L 76.435169 276.191693 
L 77.736389 258.475714 
L 78.386999 256.127813 
L 79.68822 237.558051 
L 80.33883 232.862249 
L 80.989441 229.02023 
L 81.640051 223.897537 
L 82.290661 217.494171 
L 82.941272 213.865597 
L 83.591882 209.596686 
L 84.242492 208.742904 
L 85.543713 201.058865 
L 86.194323 194.655499 
L 86.844934 191.453816 
L 87.495544 189.31936 
L 88.146154 183.556331 
L 88.796764 182.489103 
L 89.447375 178.220192 
L 90.097985 175.872292 
L 90.748595 169.682371 
L 91.399206 165.626906 
L 92.049816 162.638668 
L 92.700426 156.021857 
L 94.001647 149.405045 
L 94.652257 144.922689 
L 95.302868 143.215125 
L 95.953478 140.226887 
L 96.604088 137.878986 
L 97.254698 137.23865 
L 97.905309 136.171422 
L 98.555919 132.756293 
L 99.206529 134.036967 
L 99.85714 137.665541 
L 100.50775 138.092432 
L 101.15836 137.665541 
L 101.808971 137.452095 
L 102.459581 135.744531 
L 103.110191 134.890749 
L 103.760802 135.531085 
L 104.411412 136.811759 
L 105.062022 136.171422 
L 105.712633 136.384868 
L 106.363243 135.531085 
L 107.013853 132.969739 
L 108.315074 132.542848 
L 108.965684 133.183185 
L 109.616294 133.39663 
L 110.266905 133.823521 
L 110.917515 134.036967 
L 111.568125 132.542848 
L 112.218736 132.756293 
L 112.869346 131.902511 
L 113.519956 129.981502 
L 114.170567 128.700828 
L 114.821177 129.341165 
L 115.471787 130.408393 
L 116.122398 131.048729 
L 117.423618 131.47562 
L 118.074228 130.408393 
L 118.724839 130.408393 
L 119.375449 129.55461 
L 120.026059 128.273937 
L 120.67667 128.914274 
L 121.97789 128.060492 
L 122.628501 131.048729 
L 123.279111 131.47562 
L 123.929721 131.262175 
L 124.580332 132.115957 
L 125.230942 131.689066 
L 125.881552 130.194947 
L 126.532163 127.20671 
L 127.833383 125.926036 
L 129.134604 122.724353 
L 129.785214 122.297462 
L 130.435824 120.163007 
L 131.086435 120.163007 
L 131.737045 117.815106 
L 133.038266 116.107542 
L 133.688876 116.534433 
L 134.339486 117.388215 
L 134.990097 117.174769 
L 135.640707 116.747878 
L 136.291317 115.25376 
L 137.592538 113.546195 
L 138.243148 112.052077 
L 138.893758 110.131067 
L 139.544369 108.850394 
L 140.194979 105.862156 
L 140.845589 106.715938 
L 141.4962 106.502493 
L 142.14681 105.221819 
L 142.79742 103.30081 
L 143.448031 103.514255 
L 144.098641 101.166354 
L 144.749251 101.3798 
L 145.399862 100.526018 
L 146.050472 100.099127 
L 146.701082 99.031899 
L 147.351692 99.245344 
L 148.002303 98.178117 
L 149.303523 98.178117 
L 149.954134 97.964671 
L 150.604744 97.324335 
L 151.255354 96.257107 
L 151.905965 94.762988 
L 152.556575 94.762988 
L 153.207185 94.976434 
L 153.857796 95.403325 
L 154.508406 94.762988 
L 155.809627 94.336097 
L 156.460237 94.762988 
L 157.110847 94.122652 
L 157.761457 94.122652 
L 158.412068 93.695761 
L 159.062678 93.695761 
L 159.713288 94.976434 
L 160.363899 95.189879 
L 161.014509 94.122652 
L 161.665119 92.415087 
L 162.96634 91.988196 
L 163.61695 92.415087 
L 164.267561 90.494078 
L 164.918171 90.067186 
L 165.568781 89.853741 
L 166.219392 88.786513 
L 166.870002 88.573068 
L 167.520612 88.146177 
L 168.821833 86.438612 
L 170.123053 85.157939 
L 171.424274 83.236929 
L 172.074884 83.66382 
L 172.725495 83.023484 
L 173.376105 82.169702 
L 174.026715 82.596593 
L 174.677326 81.102474 
L 175.327936 80.889028 
L 175.978546 80.248692 
L 176.629156 81.31592 
L 177.279767 79.821801 
L 177.930377 80.248692 
L 178.580987 80.462137 
L 179.231598 80.248692 
L 179.882208 80.248692 
L 180.532818 79.39491 
L 181.183429 77.900791 
L 181.834039 78.114237 
L 183.13526 76.833563 
L 183.78587 75.979781 
L 184.43648 75.55289 
L 185.087091 75.766336 
L 185.737701 74.272217 
L 186.388311 73.418435 
L 187.038921 72.991544 
L 187.689532 73.845326 
L 188.340142 74.912554 
L 188.990752 74.058771 
L 189.641363 72.564653 
L 190.942583 72.564653 
L 191.593194 71.924316 
L 192.243804 71.924316 
L 192.894414 72.137762 
L 193.545025 71.924316 
L 194.846245 69.789861 
L 195.496856 69.36297 
L 196.147466 69.789861 
L 196.798076 69.789861 
L 197.448686 68.722633 
L 198.099297 68.936079 
L 198.749907 68.722633 
L 199.400517 68.295742 
L 200.051128 68.509187 
L 200.701738 68.936079 
L 201.352348 71.070534 
L 202.002959 70.003306 
L 202.653569 69.789861 
L 203.304179 69.149524 
L 203.95479 68.722633 
L 204.6054 68.509187 
L 205.906621 66.374732 
L 206.557231 67.015069 
L 207.207841 67.44196 
L 207.858451 66.588178 
L 208.509062 65.947841 
L 209.159672 65.947841 
L 209.810282 65.094059 
L 211.111503 64.240277 
L 211.762113 62.959604 
L 212.412724 63.173049 
L 213.063334 62.959604 
L 213.713944 64.453722 
L 214.364555 65.094059 
L 215.015165 65.094059 
L 215.665775 64.453722 
L 216.316385 64.667168 
L 216.966996 62.746158 
L 217.617606 62.532712 
L 218.268216 61.465485 
L 218.918827 61.892376 
L 219.569437 59.971366 
L 220.220047 60.398257 
L 220.870658 60.184812 
L 221.521268 61.252039 
L 222.171878 61.892376 
L 222.822489 61.892376 
L 223.473099 61.465485 
L 224.123709 61.67893 
L 224.77432 62.105821 
L 225.42493 62.319267 
L 226.07554 62.746158 
L 226.72615 62.105821 
L 227.376761 61.252039 
L 228.027371 61.67893 
L 228.677981 60.611703 
L 229.328592 60.611703 
L 229.979202 59.544475 
L 230.629812 59.971366 
L 232.581643 58.690693 
L 233.232254 58.477247 
L 233.882864 58.050356 
L 234.533474 58.690693 
L 235.184085 58.690693 
L 236.485305 58.263802 
L 237.135915 58.477247 
L 237.786526 58.477247 
L 238.437136 58.690693 
L 242.991408 58.690693 
L 243.642019 58.477247 
L 244.292629 58.477247 
L 245.59385 58.904138 
L 246.89507 58.904138 
L 247.54568 58.690693 
L 248.196291 58.904138 
L 248.846901 58.690693 
L 249.497511 58.904138 
L 250.148122 58.690693 
L 250.798732 58.690693 
L 251.449342 58.904138 
L 252.099953 58.690693 
L 252.750563 58.904138 
L 253.401173 58.690693 
L 254.051784 58.690693 
L 254.702394 58.904138 
L 255.353004 58.904138 
L 256.003615 58.690693 
L 256.654225 58.904138 
L 257.304835 58.690693 
L 257.955445 59.117584 
L 258.606056 58.904138 
L 259.256666 58.477247 
L 259.907276 58.690693 
L 260.557887 58.263802 
L 264.461549 58.263802 
L 265.112159 57.836911 
L 266.413379 57.41002 
L 267.06399 57.41002 
L 267.7146 57.196574 
L 268.36521 57.196574 
L 269.015821 57.41002 
L 269.666431 56.769683 
L 270.317041 56.556237 
L 270.967652 57.41002 
L 271.618262 56.556237 
L 272.268872 56.769683 
L 276.823144 56.769683 
L 277.473755 56.556237 
L 278.124365 56.556237 
L 278.774975 56.342792 
L 280.076196 56.342792 
L 281.377417 55.915901 
L 282.028027 56.556237 
L 282.678637 56.342792 
L 284.630468 56.342792 
L 285.931689 55.915901 
L 287.232909 55.915901 
L 287.88352 55.702455 
L 288.53413 56.129346 
L 289.18474 55.915901 
L 289.835351 56.129346 
L 290.485961 56.129346 
L 291.136571 55.915901 
L 291.787182 55.275564 
L 292.437792 55.702455 
L 293.088402 55.275564 
L 293.739013 55.275564 
L 294.389623 55.062119 
L 295.040233 55.062119 
L 295.690844 54.635228 
L 296.341454 54.421782 
L 299.594505 54.421782 
L 300.245116 54.848673 
L 300.895726 55.062119 
L 301.546336 55.062119 
L 302.196947 54.848673 
L 304.148778 54.848673 
L 304.799388 55.062119 
L 305.449998 54.848673 
L 306.100608 54.421782 
L 306.751219 54.421782 
L 308.70305 53.781446 
L 309.35366 54.208337 
L 310.00427 53.994891 
L 310.654881 53.994891 
L 311.305491 54.208337 
L 311.956101 53.994891 
L 312.606712 53.994891 
L 313.257322 54.208337 
L 313.907932 54.208337 
L 314.558543 53.781446 
L 315.209153 53.781446 
L 315.859763 54.208337 
L 316.510373 53.994891 
L 317.160984 53.994891 
L 317.811594 53.568 
L 318.462204 54.421782 
L 319.112815 53.994891 
L 319.763425 53.994891 
L 320.414035 54.208337 
L 321.064646 53.568 
L 321.715256 54.421782 
L 323.016477 54.421782 
L 323.667087 54.635228 
L 326.920138 54.635228 
L 327.570749 54.848673 
L 328.221359 54.848673 
L 328.871969 54.421782 
L 329.52258 54.848673 
L 334.727462 54.848673 
L 335.378073 55.062119 
L 336.028683 54.635228 
L 336.679293 54.848673 
L 341.233565 54.848673 
L 341.884176 55.275564 
L 342.534786 54.635228 
L 343.185396 54.848673 
L 343.836007 54.635228 
L 344.486617 55.062119 
L 345.137227 55.275564 
L 345.787837 54.848673 
L 347.089058 54.848673 
L 347.739668 54.635228 
L 348.390279 55.062119 
L 349.040889 55.275564 
L 349.691499 54.848673 
L 350.34211 55.275564 
L 350.99272 55.275564 
L 352.293941 54.848673 
L 352.944551 55.062119 
L 353.595161 55.062119 
L 354.245772 54.848673 
L 355.546992 54.848673 
L 356.197602 55.275564 
L 356.848213 55.275564 
L 358.149433 54.421782 
L 358.800044 55.275564 
L 359.450654 54.635228 
L 360.101264 54.635228 
L 360.751875 55.062119 
L 361.402485 55.062119 
L 362.053095 54.848673 
L 362.703706 54.848673 
L 363.354316 54.635228 
L 364.004926 54.848673 
L 364.655537 54.848673 
L 365.306147 55.062119 
L 365.956757 55.062119 
L 366.607367 54.848673 
L 367.257978 55.062119 
L 367.908588 54.848673 
L 368.559198 55.062119 
L 369.209809 55.062119 
L 369.860419 55.275564 
L 370.511029 54.635228 
L 371.16164 55.062119 
L 371.81225 55.062119 
L 372.46286 55.275564 
L 373.113471 54.848673 
L 373.764081 55.275564 
L 374.414691 54.848673 
L 375.065302 54.848673 
L 375.715912 54.635228 
L 376.366522 55.275564 
L 377.667743 54.848673 
L 378.318353 55.275564 
L 378.968963 54.848673 
L 379.619574 55.275564 
L 380.270184 54.848673 
L 380.920794 54.848673 
L 381.571405 55.062119 
L 382.222015 54.635228 
L 382.872625 55.275564 
L 384.173846 55.275564 
L 384.824456 54.848673 
L 385.475066 55.062119 
L 386.125677 54.848673 
L 386.776287 54.848673 
L 387.426897 54.635228 
L 388.077508 54.635228 
L 388.728118 55.062119 
L 389.378728 55.275564 
L 390.029339 54.848673 
L 390.679949 54.635228 
L 391.330559 54.635228 
L 391.98117 54.848673 
L 393.28239 54.421782 
L 395.234221 55.062119 
L 395.884831 54.848673 
L 396.535442 54.421782 
L 397.186052 54.635228 
L 398.487273 54.635228 
L 398.487273 54.635228 
" style="fill:none;stroke:#4682b4;stroke-linecap:square;stroke-width:2;"/>
   </g>
   <g id="patch_3">
    <path d="M 57.6 307.584 
L 57.6 41.472 
" style="fill:none;stroke:#000000;stroke-linecap:square;stroke-linejoin:miter;stroke-width:0.8;"/>
   </g>
   <g id="patch_4">
    <path d="M 414.72 307.584 
L 414.72 41.472 
" style="fill:none;stroke:#000000;stroke-linecap:square;stroke-linejoin:miter;stroke-width:0.8;"/>
   </g>
   <g id="patch_5">
    <path d="M 57.6 307.584 
L 414.72 307.584 
" style="fill:none;stroke:#000000;stroke-linecap:square;stroke-linejoin:miter;stroke-width:0.8;"/>
   </g>
   <g id="patch_6">
    <path d="M 57.6 41.472 
L 414.72 41.472 
" style="fill:none;stroke:#000000;stroke-linecap:square;stroke-linejoin:miter;stroke-width:0.8;"/>
   </g>
   <g id="legend_1">
    <g id="patch_7">
     <path d="M 64.6 79.3845 
L 142 79.3845 
Q 144 79.3845 144 77.3845 
L 144 48.472 
Q 144 46.472 142 46.472 
L 64.6 46.472 
Q 62.6 46.472 62.6 48.472 
L 62.6 77.3845 
Q 62.6 79.3845 64.6 79.3845 
z
" style="fill:#ffffff;opacity:0.8;stroke:#cccccc;stroke-linejoin:miter;"/>
    </g>
    <g id="line2d_29">
     <path d="M 66.6 54.570438 
L 86.6 54.570438 
" style="fill:none;stroke:#ff6347;stroke-linecap:square;stroke-width:2;"/>
    </g>
    <g id="line2d_30"/>
    <g id="text_15">
     <!-- train_acc -->
     <defs>
      <path d="M 18.3125 70.21875 
L 18.3125 54.6875 
L 36.8125 54.6875 
L 36.8125 47.703125 
L 18.3125 47.703125 
L 18.3125 18.015625 
Q 18.3125 11.328125 20.140625 9.421875 
Q 21.96875 7.515625 27.59375 7.515625 
L 36.8125 7.515625 
L 36.8125 0 
L 27.59375 0 
Q 17.1875 0 13.234375 3.875 
Q 9.28125 7.765625 9.28125 18.015625 
L 9.28125 47.703125 
L 2.6875 47.703125 
L 2.6875 54.6875 
L 9.28125 54.6875 
L 9.28125 70.21875 
z
" id="DejaVuSans-74"/>
      <path d="M 9.421875 54.6875 
L 18.40625 54.6875 
L 18.40625 0 
L 9.421875 0 
z
M 9.421875 75.984375 
L 18.40625 75.984375 
L 18.40625 64.59375 
L 9.421875 64.59375 
z
" id="DejaVuSans-69"/>
      <path d="M 54.890625 33.015625 
L 54.890625 0 
L 45.90625 0 
L 45.90625 32.71875 
Q 45.90625 40.484375 42.875 44.328125 
Q 39.84375 48.1875 33.796875 48.1875 
Q 26.515625 48.1875 22.3125 43.546875 
Q 18.109375 38.921875 18.109375 30.90625 
L 18.109375 0 
L 9.078125 0 
L 9.078125 54.6875 
L 18.109375 54.6875 
L 18.109375 46.1875 
Q 21.34375 51.125 25.703125 53.5625 
Q 30.078125 56 35.796875 56 
Q 45.21875 56 50.046875 50.171875 
Q 54.890625 44.34375 54.890625 33.015625 
z
" id="DejaVuSans-6e"/>
      <path d="M 50.984375 -16.609375 
L 50.984375 -23.578125 
L -0.984375 -23.578125 
L -0.984375 -16.609375 
z
" id="DejaVuSans-5f"/>
     </defs>
     <g transform="translate(94.6 58.070438)scale(0.1 -0.1)">
      <use xlink:href="#DejaVuSans-74"/>
      <use x="39.208984" xlink:href="#DejaVuSans-72"/>
      <use x="80.322266" xlink:href="#DejaVuSans-61"/>
      <use x="141.601562" xlink:href="#DejaVuSans-69"/>
      <use x="169.384766" xlink:href="#DejaVuSans-6e"/>
      <use x="232.763672" xlink:href="#DejaVuSans-5f"/>
      <use x="282.763672" xlink:href="#DejaVuSans-61"/>
      <use x="344.042969" xlink:href="#DejaVuSans-63"/>
      <use x="399.023438" xlink:href="#DejaVuSans-63"/>
     </g>
    </g>
    <g id="line2d_31">
     <path d="M 66.6 69.526688 
L 86.6 69.526688 
" style="fill:none;stroke:#4682b4;stroke-linecap:square;stroke-width:2;"/>
    </g>
    <g id="line2d_32"/>
    <g id="text_16">
     <!-- test_acc -->
     <defs>
      <path d="M 56.203125 29.59375 
L 56.203125 25.203125 
L 14.890625 25.203125 
Q 15.484375 15.921875 20.484375 11.0625 
Q 25.484375 6.203125 34.421875 6.203125 
Q 39.59375 6.203125 44.453125 7.46875 
Q 49.3125 8.734375 54.109375 11.28125 
L 54.109375 2.78125 
Q 49.265625 0.734375 44.1875 -0.34375 
Q 39.109375 -1.421875 33.890625 -1.421875 
Q 20.796875 -1.421875 13.15625 6.1875 
Q 5.515625 13.8125 5.515625 26.8125 
Q 5.515625 40.234375 12.765625 48.109375 
Q 20.015625 56 32.328125 56 
Q 43.359375 56 49.78125 48.890625 
Q 56.203125 41.796875 56.203125 29.59375 
z
M 47.21875 32.234375 
Q 47.125 39.59375 43.09375 43.984375 
Q 39.0625 48.390625 32.421875 48.390625 
Q 24.90625 48.390625 20.390625 44.140625 
Q 15.875 39.890625 15.1875 32.171875 
z
" id="DejaVuSans-65"/>
      <path d="M 44.28125 53.078125 
L 44.28125 44.578125 
Q 40.484375 46.53125 36.375 47.5 
Q 32.28125 48.484375 27.875 48.484375 
Q 21.1875 48.484375 17.84375 46.4375 
Q 14.5 44.390625 14.5 40.28125 
Q 14.5 37.15625 16.890625 35.375 
Q 19.28125 33.59375 26.515625 31.984375 
L 29.59375 31.296875 
Q 39.15625 29.25 43.1875 25.515625 
Q 47.21875 21.78125 47.21875 15.09375 
Q 47.21875 7.46875 41.1875 3.015625 
Q 35.15625 -1.421875 24.609375 -1.421875 
Q 20.21875 -1.421875 15.453125 -0.5625 
Q 10.6875 0.296875 5.421875 2 
L 5.421875 11.28125 
Q 10.40625 8.6875 15.234375 7.390625 
Q 20.0625 6.109375 24.8125 6.109375 
Q 31.15625 6.109375 34.5625 8.28125 
Q 37.984375 10.453125 37.984375 14.40625 
Q 37.984375 18.0625 35.515625 20.015625 
Q 33.0625 21.96875 24.703125 23.78125 
L 21.578125 24.515625 
Q 13.234375 26.265625 9.515625 29.90625 
Q 5.8125 33.546875 5.8125 39.890625 
Q 5.8125 47.609375 11.28125 51.796875 
Q 16.75 56 26.8125 56 
Q 31.78125 56 36.171875 55.265625 
Q 40.578125 54.546875 44.28125 53.078125 
z
" id="DejaVuSans-73"/>
     </defs>
     <g transform="translate(94.6 73.026688)scale(0.1 -0.1)">
      <use xlink:href="#DejaVuSans-74"/>
      <use x="39.208984" xlink:href="#DejaVuSans-65"/>
      <use x="100.732422" xlink:href="#DejaVuSans-73"/>
      <use x="152.832031" xlink:href="#DejaVuSans-74"/>
      <use x="192.041016" xlink:href="#DejaVuSans-5f"/>
      <use x="242.041016" xlink:href="#DejaVuSans-61"/>
      <use x="303.320312" xlink:href="#DejaVuSans-63"/>
      <use x="358.300781" xlink:href="#DejaVuSans-63"/>
     </g>
    </g>
   </g>
  </g>
  <g id="axes_2">
   <g id="matplotlib.axis_3">
    <g id="ytick_8">
     <g id="line2d_33">
      <defs>
       <path d="M 0 0 
L 3.5 0 
" id="m11de7a8ea2" style="stroke:#000000;stroke-width:0.8;"/>
      </defs>
      <g>
       <use style="stroke:#000000;stroke-width:0.8;" x="414.72" xlink:href="#m11de7a8ea2" y="275.182887"/>
      </g>
     </g>
     <g id="text_17">
      <!-- 2.18 -->
      <defs>
       <path d="M 10.6875 12.40625 
L 21 12.40625 
L 21 0 
L 10.6875 0 
z
" id="DejaVuSans-2e"/>
      </defs>
      <g transform="translate(421.72 278.982106)scale(0.1 -0.1)">
       <use xlink:href="#DejaVuSans-32"/>
       <use x="63.623047" xlink:href="#DejaVuSans-2e"/>
       <use x="95.410156" xlink:href="#DejaVuSans-31"/>
       <use x="159.033203" xlink:href="#DejaVuSans-38"/>
      </g>
     </g>
    </g>
    <g id="ytick_9">
     <g id="line2d_34">
      <g>
       <use style="stroke:#000000;stroke-width:0.8;" x="414.72" xlink:href="#m11de7a8ea2" y="241.90976"/>
      </g>
     </g>
     <g id="text_18">
      <!-- 2.20 -->
      <g transform="translate(421.72 245.708979)scale(0.1 -0.1)">
       <use xlink:href="#DejaVuSans-32"/>
       <use x="63.623047" xlink:href="#DejaVuSans-2e"/>
       <use x="95.410156" xlink:href="#DejaVuSans-32"/>
       <use x="159.033203" xlink:href="#DejaVuSans-30"/>
      </g>
     </g>
    </g>
    <g id="ytick_10">
     <g id="line2d_35">
      <g>
       <use style="stroke:#000000;stroke-width:0.8;" x="414.72" xlink:href="#m11de7a8ea2" y="208.636633"/>
      </g>
     </g>
     <g id="text_19">
      <!-- 2.22 -->
      <g transform="translate(421.72 212.435852)scale(0.1 -0.1)">
       <use xlink:href="#DejaVuSans-32"/>
       <use x="63.623047" xlink:href="#DejaVuSans-2e"/>
       <use x="95.410156" xlink:href="#DejaVuSans-32"/>
       <use x="159.033203" xlink:href="#DejaVuSans-32"/>
      </g>
     </g>
    </g>
    <g id="ytick_11">
     <g id="line2d_36">
      <g>
       <use style="stroke:#000000;stroke-width:0.8;" x="414.72" xlink:href="#m11de7a8ea2" y="175.363506"/>
      </g>
     </g>
     <g id="text_20">
      <!-- 2.24 -->
      <g transform="translate(421.72 179.162725)scale(0.1 -0.1)">
       <use xlink:href="#DejaVuSans-32"/>
       <use x="63.623047" xlink:href="#DejaVuSans-2e"/>
       <use x="95.410156" xlink:href="#DejaVuSans-32"/>
       <use x="159.033203" xlink:href="#DejaVuSans-34"/>
      </g>
     </g>
    </g>
    <g id="ytick_12">
     <g id="line2d_37">
      <g>
       <use style="stroke:#000000;stroke-width:0.8;" x="414.72" xlink:href="#m11de7a8ea2" y="142.090379"/>
      </g>
     </g>
     <g id="text_21">
      <!-- 2.26 -->
      <g transform="translate(421.72 145.889598)scale(0.1 -0.1)">
       <use xlink:href="#DejaVuSans-32"/>
       <use x="63.623047" xlink:href="#DejaVuSans-2e"/>
       <use x="95.410156" xlink:href="#DejaVuSans-32"/>
       <use x="159.033203" xlink:href="#DejaVuSans-36"/>
      </g>
     </g>
    </g>
    <g id="ytick_13">
     <g id="line2d_38">
      <g>
       <use style="stroke:#000000;stroke-width:0.8;" x="414.72" xlink:href="#m11de7a8ea2" y="108.817252"/>
      </g>
     </g>
     <g id="text_22">
      <!-- 2.28 -->
      <g transform="translate(421.72 112.61647)scale(0.1 -0.1)">
       <use xlink:href="#DejaVuSans-32"/>
       <use x="63.623047" xlink:href="#DejaVuSans-2e"/>
       <use x="95.410156" xlink:href="#DejaVuSans-32"/>
       <use x="159.033203" xlink:href="#DejaVuSans-38"/>
      </g>
     </g>
    </g>
    <g id="ytick_14">
     <g id="line2d_39">
      <g>
       <use style="stroke:#000000;stroke-width:0.8;" x="414.72" xlink:href="#m11de7a8ea2" y="75.544125"/>
      </g>
     </g>
     <g id="text_23">
      <!-- 2.30 -->
      <g transform="translate(421.72 79.343343)scale(0.1 -0.1)">
       <use xlink:href="#DejaVuSans-32"/>
       <use x="63.623047" xlink:href="#DejaVuSans-2e"/>
       <use x="95.410156" xlink:href="#DejaVuSans-33"/>
       <use x="159.033203" xlink:href="#DejaVuSans-30"/>
      </g>
     </g>
    </g>
    <g id="ytick_15">
     <g id="line2d_40">
      <g>
       <use style="stroke:#000000;stroke-width:0.8;" x="414.72" xlink:href="#m11de7a8ea2" y="42.270998"/>
      </g>
     </g>
     <g id="text_24">
      <!-- 2.32 -->
      <g transform="translate(421.72 46.070216)scale(0.1 -0.1)">
       <use xlink:href="#DejaVuSans-32"/>
       <use x="63.623047" xlink:href="#DejaVuSans-2e"/>
       <use x="95.410156" xlink:href="#DejaVuSans-33"/>
       <use x="159.033203" xlink:href="#DejaVuSans-32"/>
      </g>
     </g>
    </g>
    <g id="text_25">
     <!-- Loss -->
     <defs>
      <path d="M 9.8125 72.90625 
L 19.671875 72.90625 
L 19.671875 8.296875 
L 55.171875 8.296875 
L 55.171875 0 
L 9.8125 0 
z
" id="DejaVuSans-4c"/>
      <path d="M 30.609375 48.390625 
Q 23.390625 48.390625 19.1875 42.75 
Q 14.984375 37.109375 14.984375 27.296875 
Q 14.984375 17.484375 19.15625 11.84375 
Q 23.34375 6.203125 30.609375 6.203125 
Q 37.796875 6.203125 41.984375 11.859375 
Q 46.1875 17.53125 46.1875 27.296875 
Q 46.1875 37.015625 41.984375 42.703125 
Q 37.796875 48.390625 30.609375 48.390625 
z
M 30.609375 56 
Q 42.328125 56 49.015625 48.375 
Q 55.71875 40.765625 55.71875 27.296875 
Q 55.71875 13.875 49.015625 6.21875 
Q 42.328125 -1.421875 30.609375 -1.421875 
Q 18.84375 -1.421875 12.171875 6.21875 
Q 5.515625 13.875 5.515625 27.296875 
Q 5.515625 40.765625 12.171875 48.375 
Q 18.84375 56 30.609375 56 
z
" id="DejaVuSans-6f"/>
     </defs>
     <g transform="translate(455.584063 185.581906)rotate(-90)scale(0.1 -0.1)">
      <use xlink:href="#DejaVuSans-4c"/>
      <use x="55.697266" xlink:href="#DejaVuSans-6f"/>
      <use x="116.878906" xlink:href="#DejaVuSans-73"/>
      <use x="168.978516" xlink:href="#DejaVuSans-73"/>
     </g>
    </g>
   </g>
   <g id="line2d_41">
    <path clip-path="url(#p77a1359680)" d="M 73.832727 53.568 
L 77.085779 55.845941 
L 87.495544 62.321197 
L 92.700426 65.210371 
L 98.555919 68.458113 
L 102.459581 70.736847 
L 107.013853 73.532016 
L 112.869346 77.385437 
L 116.122398 79.636803 
L 120.026059 82.454977 
L 127.833383 88.606966 
L 133.038266 93.149759 
L 136.941927 96.835796 
L 142.79742 102.889813 
L 146.050472 106.538168 
L 149.954134 111.196782 
L 154.508406 117.031453 
L 162.31573 128.131211 
L 165.568781 133.097227 
L 168.821833 138.352397 
L 174.026715 147.249973 
L 177.930377 154.323769 
L 181.834039 161.674026 
L 205.906621 209.60004 
L 207.858451 213.593081 
L 225.42493 249.144514 
L 232.581643 262.744336 
L 235.834695 268.698794 
L 236.485305 269.462736 
L 248.196291 271.54275 
L 248.846901 271.797001 
L 249.497511 271.791844 
L 261.208497 273.938892 
L 261.859107 273.952378 
L 262.509718 274.133646 
L 263.160328 274.154668 
L 264.461549 274.466036 
L 272.268872 275.89198 
L 272.919483 275.971309 
L 273.570093 276.198588 
L 275.521924 276.437766 
L 277.473755 276.921675 
L 278.774975 276.989105 
L 280.076196 277.300076 
L 283.329248 277.828012 
L 283.979858 278.044978 
L 285.281079 278.13938 
L 286.582299 278.403943 
L 292.437792 279.470129 
L 293.088402 279.545095 
L 293.739013 279.749368 
L 295.690844 280.050423 
L 296.341454 280.186473 
L 296.992064 280.174177 
L 297.642674 280.375673 
L 299.594505 280.600175 
L 300.245116 280.867912 
L 300.895726 280.902816 
L 302.196947 281.197921 
L 303.498167 281.316915 
L 304.148778 281.567596 
L 305.449998 281.655652 
L 306.100608 281.937667 
L 307.401829 281.993595 
L 308.70305 282.269661 
L 309.35366 282.325984 
L 310.00427 282.561989 
L 311.956101 282.793234 
L 315.209153 283.507198 
L 317.160984 283.680136 
L 317.811594 283.812219 
L 323.016477 283.850694 
L 323.667087 283.934386 
L 324.317697 283.875683 
L 325.618918 284.00023 
L 328.221359 283.962945 
L 328.871969 284.13152 
L 330.17319 283.996263 
L 330.8238 284.077179 
L 332.125021 283.991107 
L 332.775631 284.149369 
L 333.426242 284.06528 
L 334.727462 284.12319 
L 336.028683 284.120017 
L 337.329903 284.228301 
L 339.932345 284.113671 
L 340.582955 284.24615 
L 341.233565 284.207279 
L 342.534786 284.273916 
L 343.185396 284.200536 
L 343.836007 284.255273 
L 344.486617 284.158492 
L 345.137227 284.244564 
L 345.787837 284.200536 
L 347.739668 284.324687 
L 348.390279 284.358005 
L 349.040889 284.262413 
L 350.34211 284.378234 
L 350.99272 284.311201 
L 352.293941 284.382994 
L 362.703706 284.64954 
L 363.354316 284.768137 
L 364.004926 284.518647 
L 365.306147 284.562278 
L 367.908588 284.782417 
L 368.559198 284.610272 
L 373.113471 284.71816 
L 376.366522 284.85778 
L 377.017132 284.736009 
L 378.318353 284.876025 
L 379.619574 284.869679 
L 381.571405 284.8554 
L 382.872625 284.891098 
L 391.330559 285.068796 
L 391.98117 284.987483 
L 394.583611 285.124326 
L 397.836662 285.101717 
L 398.487273 285.194929 
L 398.487273 285.194929 
" style="fill:none;stroke:#ff6347;stroke-dasharray:7.4,3.2;stroke-dashoffset:0;stroke-width:2;"/>
   </g>
   <g id="line2d_42">
    <path clip-path="url(#p77a1359680)" d="M 73.832727 53.685903 
L 76.435169 55.484542 
L 84.242492 60.392926 
L 88.796764 63.019396 
L 103.110191 71.082196 
L 108.965684 74.771332 
L 116.773008 80.126511 
L 121.97789 83.980315 
L 128.483993 89.228865 
L 132.387655 92.644206 
L 137.592538 97.5931 
L 140.845589 100.913729 
L 146.050472 106.681795 
L 151.255354 113.007421 
L 155.809627 118.988635 
L 161.665119 127.365218 
L 166.870002 135.424075 
L 170.123053 140.770394 
L 174.026715 147.518356 
L 179.231598 157.099515 
L 183.78587 165.969197 
L 188.990752 176.564756 
L 198.749907 197.252207 
L 206.557231 214.217036 
L 230.629812 266.699935 
L 235.834695 277.567318 
L 237.786526 277.999843 
L 239.738357 278.390659 
L 247.54568 279.970258 
L 249.497511 280.410478 
L 252.099953 280.923017 
L 253.401173 281.203471 
L 259.256666 282.384682 
L 263.160328 283.191704 
L 273.570093 285.277319 
L 279.425586 286.471396 
L 283.979858 287.371452 
L 298.943895 290.342292 
L 300.245116 290.610467 
L 303.498167 291.24134 
L 305.449998 291.655563 
L 306.751219 291.907175 
L 317.160984 293.955325 
L 319.763425 293.996352 
L 332.125021 294.22631 
L 338.631124 294.354928 
L 344.486617 294.477494 
L 398.487273 295.488 
L 398.487273 295.488 
" style="fill:none;stroke:#4682b4;stroke-dasharray:7.4,3.2;stroke-dashoffset:0;stroke-width:2;"/>
   </g>
   <g id="patch_8">
    <path d="M 57.6 307.584 
L 57.6 41.472 
" style="fill:none;stroke:#000000;stroke-linecap:square;stroke-linejoin:miter;stroke-width:0.8;"/>
   </g>
   <g id="patch_9">
    <path d="M 414.72 307.584 
L 414.72 41.472 
" style="fill:none;stroke:#000000;stroke-linecap:square;stroke-linejoin:miter;stroke-width:0.8;"/>
   </g>
   <g id="patch_10">
    <path d="M 57.6 307.584 
L 414.72 307.584 
" style="fill:none;stroke:#000000;stroke-linecap:square;stroke-linejoin:miter;stroke-width:0.8;"/>
   </g>
   <g id="patch_11">
    <path d="M 57.6 41.472 
L 414.72 41.472 
" style="fill:none;stroke:#000000;stroke-linecap:square;stroke-linejoin:miter;stroke-width:0.8;"/>
   </g>
   <g id="legend_2">
    <g id="patch_12">
     <path d="M 328.129375 79.3845 
L 407.72 79.3845 
Q 409.72 79.3845 409.72 77.3845 
L 409.72 48.472 
Q 409.72 46.472 407.72 46.472 
L 328.129375 46.472 
Q 326.129375 46.472 326.129375 48.472 
L 326.129375 77.3845 
Q 326.129375 79.3845 328.129375 79.3845 
z
" style="fill:#ffffff;opacity:0.8;stroke:#cccccc;stroke-linejoin:miter;"/>
    </g>
    <g id="line2d_43">
     <path d="M 330.129375 54.570438 
L 350.129375 54.570438 
" style="fill:none;stroke:#ff6347;stroke-dasharray:7.4,3.2;stroke-dashoffset:0;stroke-width:2;"/>
    </g>
    <g id="line2d_44"/>
    <g id="text_26">
     <!-- train_loss -->
     <defs>
      <path d="M 9.421875 75.984375 
L 18.40625 75.984375 
L 18.40625 0 
L 9.421875 0 
z
" id="DejaVuSans-6c"/>
     </defs>
     <g transform="translate(358.129375 58.070438)scale(0.1 -0.1)">
      <use xlink:href="#DejaVuSans-74"/>
      <use x="39.208984" xlink:href="#DejaVuSans-72"/>
      <use x="80.322266" xlink:href="#DejaVuSans-61"/>
      <use x="141.601562" xlink:href="#DejaVuSans-69"/>
      <use x="169.384766" xlink:href="#DejaVuSans-6e"/>
      <use x="232.763672" xlink:href="#DejaVuSans-5f"/>
      <use x="282.763672" xlink:href="#DejaVuSans-6c"/>
      <use x="310.546875" xlink:href="#DejaVuSans-6f"/>
      <use x="371.728516" xlink:href="#DejaVuSans-73"/>
      <use x="423.828125" xlink:href="#DejaVuSans-73"/>
     </g>
    </g>
    <g id="line2d_45">
     <path d="M 330.129375 69.526688 
L 350.129375 69.526688 
" style="fill:none;stroke:#4682b4;stroke-dasharray:7.4,3.2;stroke-dashoffset:0;stroke-width:2;"/>
    </g>
    <g id="line2d_46"/>
    <g id="text_27">
     <!-- test_loss -->
     <g transform="translate(358.129375 73.026688)scale(0.1 -0.1)">
      <use xlink:href="#DejaVuSans-74"/>
      <use x="39.208984" xlink:href="#DejaVuSans-65"/>
      <use x="100.732422" xlink:href="#DejaVuSans-73"/>
      <use x="152.832031" xlink:href="#DejaVuSans-74"/>
      <use x="192.041016" xlink:href="#DejaVuSans-5f"/>
      <use x="242.041016" xlink:href="#DejaVuSans-6c"/>
      <use x="269.824219" xlink:href="#DejaVuSans-6f"/>
      <use x="331.005859" xlink:href="#DejaVuSans-73"/>
      <use x="383.105469" xlink:href="#DejaVuSans-73"/>
     </g>
    </g>
   </g>
  </g>
 </g>
 <defs>
  <clipPath id="p77a1359680">
   <rect height="266.112" width="357.12" x="57.6" y="41.472"/>
  </clipPath>
 </defs>
</svg>
