<?xml version="1.0" encoding="utf-8" standalone="no"?>
<!DOCTYPE svg PUBLIC "-//W3C//DTD SVG 1.1//EN"
  "http://www.w3.org/Graphics/SVG/1.1/DTD/svg11.dtd">
<!-- Created with matplotlib (http://matplotlib.org/) -->
<svg height="345.6pt" version="1.1" viewBox="0 0 460.8 345.6" width="460.8pt" xmlns="http://www.w3.org/2000/svg" xmlns:xlink="http://www.w3.org/1999/xlink">
 <defs>
  <style type="text/css">
*{stroke-linecap:butt;stroke-linejoin:round;}
  </style>
 </defs>
 <g id="figure_1">
  <g id="patch_1">
   <path d="M 0 345.6 
L 460.8 345.6 
L 460.8 0 
L 0 0 
z
" style="fill:#ffffff;"/>
  </g>
  <g id="axes_1">
   <g id="patch_2">
    <path d="M 57.6 307.584 
L 414.72 307.584 
L 414.72 41.472 
L 57.6 41.472 
z
" style="fill:#ffffff;"/>
   </g>
   <g id="matplotlib.axis_1">
    <g id="xtick_1">
     <g id="line2d_1">
      <path clip-path="url(#p25a340b4e6)" d="M 73.832727 307.584 
L 73.832727 41.472 
" style="fill:none;stroke:#b0b0b0;stroke-linecap:square;stroke-width:0.8;"/>
     </g>
     <g id="line2d_2">
      <defs>
       <path d="M 0 0 
L 0 3.5 
" id="mfbee937293" style="stroke:#000000;stroke-width:0.8;"/>
      </defs>
      <g>
       <use style="stroke:#000000;stroke-width:0.8;" x="73.832727" xlink:href="#mfbee937293" y="307.584"/>
      </g>
     </g>
     <g id="text_1">
      <!-- 0 -->
      <defs>
       <path d="M 31.78125 66.40625 
Q 24.171875 66.40625 20.328125 58.90625 
Q 16.5 51.421875 16.5 36.375 
Q 16.5 21.390625 20.328125 13.890625 
Q 24.171875 6.390625 31.78125 6.390625 
Q 39.453125 6.390625 43.28125 13.890625 
Q 47.125 21.390625 47.125 36.375 
Q 47.125 51.421875 43.28125 58.90625 
Q 39.453125 66.40625 31.78125 66.40625 
z
M 31.78125 74.21875 
Q 44.046875 74.21875 50.515625 64.515625 
Q 56.984375 54.828125 56.984375 36.375 
Q 56.984375 17.96875 50.515625 8.265625 
Q 44.046875 -1.421875 31.78125 -1.421875 
Q 19.53125 -1.421875 13.0625 8.265625 
Q 6.59375 17.96875 6.59375 36.375 
Q 6.59375 54.828125 13.0625 64.515625 
Q 19.53125 74.21875 31.78125 74.21875 
z
" id="DejaVuSans-30"/>
      </defs>
      <g transform="translate(70.651477 322.182437)scale(0.1 -0.1)">
       <use xlink:href="#DejaVuSans-30"/>
      </g>
     </g>
    </g>
    <g id="xtick_2">
     <g id="line2d_3">
      <path clip-path="url(#p25a340b4e6)" d="M 114.112448 307.584 
L 114.112448 41.472 
" style="fill:none;stroke:#b0b0b0;stroke-linecap:square;stroke-width:0.8;"/>
     </g>
     <g id="line2d_4">
      <g>
       <use style="stroke:#000000;stroke-width:0.8;" x="114.112448" xlink:href="#mfbee937293" y="307.584"/>
      </g>
     </g>
     <g id="text_2">
      <!-- 50 -->
      <defs>
       <path d="M 10.796875 72.90625 
L 49.515625 72.90625 
L 49.515625 64.59375 
L 19.828125 64.59375 
L 19.828125 46.734375 
Q 21.96875 47.46875 24.109375 47.828125 
Q 26.265625 48.1875 28.421875 48.1875 
Q 40.625 48.1875 47.75 41.5 
Q 54.890625 34.8125 54.890625 23.390625 
Q 54.890625 11.625 47.5625 5.09375 
Q 40.234375 -1.421875 26.90625 -1.421875 
Q 22.3125 -1.421875 17.546875 -0.640625 
Q 12.796875 0.140625 7.71875 1.703125 
L 7.71875 11.625 
Q 12.109375 9.234375 16.796875 8.0625 
Q 21.484375 6.890625 26.703125 6.890625 
Q 35.15625 6.890625 40.078125 11.328125 
Q 45.015625 15.765625 45.015625 23.390625 
Q 45.015625 31 40.078125 35.4375 
Q 35.15625 39.890625 26.703125 39.890625 
Q 22.75 39.890625 18.8125 39.015625 
Q 14.890625 38.140625 10.796875 36.28125 
z
" id="DejaVuSans-35"/>
      </defs>
      <g transform="translate(107.749948 322.182437)scale(0.1 -0.1)">
       <use xlink:href="#DejaVuSans-35"/>
       <use x="63.623047" xlink:href="#DejaVuSans-30"/>
      </g>
     </g>
    </g>
    <g id="xtick_3">
     <g id="line2d_5">
      <path clip-path="url(#p25a340b4e6)" d="M 154.392168 307.584 
L 154.392168 41.472 
" style="fill:none;stroke:#b0b0b0;stroke-linecap:square;stroke-width:0.8;"/>
     </g>
     <g id="line2d_6">
      <g>
       <use style="stroke:#000000;stroke-width:0.8;" x="154.392168" xlink:href="#mfbee937293" y="307.584"/>
      </g>
     </g>
     <g id="text_3">
      <!-- 100 -->
      <defs>
       <path d="M 12.40625 8.296875 
L 28.515625 8.296875 
L 28.515625 63.921875 
L 10.984375 60.40625 
L 10.984375 69.390625 
L 28.421875 72.90625 
L 38.28125 72.90625 
L 38.28125 8.296875 
L 54.390625 8.296875 
L 54.390625 0 
L 12.40625 0 
z
" id="DejaVuSans-31"/>
      </defs>
      <g transform="translate(144.848418 322.182437)scale(0.1 -0.1)">
       <use xlink:href="#DejaVuSans-31"/>
       <use x="63.623047" xlink:href="#DejaVuSans-30"/>
       <use x="127.246094" xlink:href="#DejaVuSans-30"/>
      </g>
     </g>
    </g>
    <g id="xtick_4">
     <g id="line2d_7">
      <path clip-path="url(#p25a340b4e6)" d="M 194.671888 307.584 
L 194.671888 41.472 
" style="fill:none;stroke:#b0b0b0;stroke-linecap:square;stroke-width:0.8;"/>
     </g>
     <g id="line2d_8">
      <g>
       <use style="stroke:#000000;stroke-width:0.8;" x="194.671888" xlink:href="#mfbee937293" y="307.584"/>
      </g>
     </g>
     <g id="text_4">
      <!-- 150 -->
      <g transform="translate(185.128138 322.182437)scale(0.1 -0.1)">
       <use xlink:href="#DejaVuSans-31"/>
       <use x="63.623047" xlink:href="#DejaVuSans-35"/>
       <use x="127.246094" xlink:href="#DejaVuSans-30"/>
      </g>
     </g>
    </g>
    <g id="xtick_5">
     <g id="line2d_9">
      <path clip-path="url(#p25a340b4e6)" d="M 234.951608 307.584 
L 234.951608 41.472 
" style="fill:none;stroke:#b0b0b0;stroke-linecap:square;stroke-width:0.8;"/>
     </g>
     <g id="line2d_10">
      <g>
       <use style="stroke:#000000;stroke-width:0.8;" x="234.951608" xlink:href="#mfbee937293" y="307.584"/>
      </g>
     </g>
     <g id="text_5">
      <!-- 200 -->
      <defs>
       <path d="M 19.1875 8.296875 
L 53.609375 8.296875 
L 53.609375 0 
L 7.328125 0 
L 7.328125 8.296875 
Q 12.9375 14.109375 22.625 23.890625 
Q 32.328125 33.6875 34.8125 36.53125 
Q 39.546875 41.84375 41.421875 45.53125 
Q 43.3125 49.21875 43.3125 52.78125 
Q 43.3125 58.59375 39.234375 62.25 
Q 35.15625 65.921875 28.609375 65.921875 
Q 23.96875 65.921875 18.8125 64.3125 
Q 13.671875 62.703125 7.8125 59.421875 
L 7.8125 69.390625 
Q 13.765625 71.78125 18.9375 73 
Q 24.125 74.21875 28.421875 74.21875 
Q 39.75 74.21875 46.484375 68.546875 
Q 53.21875 62.890625 53.21875 53.421875 
Q 53.21875 48.921875 51.53125 44.890625 
Q 49.859375 40.875 45.40625 35.40625 
Q 44.1875 33.984375 37.640625 27.21875 
Q 31.109375 20.453125 19.1875 8.296875 
z
" id="DejaVuSans-32"/>
      </defs>
      <g transform="translate(225.407858 322.182437)scale(0.1 -0.1)">
       <use xlink:href="#DejaVuSans-32"/>
       <use x="63.623047" xlink:href="#DejaVuSans-30"/>
       <use x="127.246094" xlink:href="#DejaVuSans-30"/>
      </g>
     </g>
    </g>
    <g id="xtick_6">
     <g id="line2d_11">
      <path clip-path="url(#p25a340b4e6)" d="M 275.231329 307.584 
L 275.231329 41.472 
" style="fill:none;stroke:#b0b0b0;stroke-linecap:square;stroke-width:0.8;"/>
     </g>
     <g id="line2d_12">
      <g>
       <use style="stroke:#000000;stroke-width:0.8;" x="275.231329" xlink:href="#mfbee937293" y="307.584"/>
      </g>
     </g>
     <g id="text_6">
      <!-- 250 -->
      <g transform="translate(265.687579 322.182437)scale(0.1 -0.1)">
       <use xlink:href="#DejaVuSans-32"/>
       <use x="63.623047" xlink:href="#DejaVuSans-35"/>
       <use x="127.246094" xlink:href="#DejaVuSans-30"/>
      </g>
     </g>
    </g>
    <g id="xtick_7">
     <g id="line2d_13">
      <path clip-path="url(#p25a340b4e6)" d="M 315.511049 307.584 
L 315.511049 41.472 
" style="fill:none;stroke:#b0b0b0;stroke-linecap:square;stroke-width:0.8;"/>
     </g>
     <g id="line2d_14">
      <g>
       <use style="stroke:#000000;stroke-width:0.8;" x="315.511049" xlink:href="#mfbee937293" y="307.584"/>
      </g>
     </g>
     <g id="text_7">
      <!-- 300 -->
      <defs>
       <path d="M 40.578125 39.3125 
Q 47.65625 37.796875 51.625 33 
Q 55.609375 28.21875 55.609375 21.1875 
Q 55.609375 10.40625 48.1875 4.484375 
Q 40.765625 -1.421875 27.09375 -1.421875 
Q 22.515625 -1.421875 17.65625 -0.515625 
Q 12.796875 0.390625 7.625 2.203125 
L 7.625 11.71875 
Q 11.71875 9.328125 16.59375 8.109375 
Q 21.484375 6.890625 26.8125 6.890625 
Q 36.078125 6.890625 40.9375 10.546875 
Q 45.796875 14.203125 45.796875 21.1875 
Q 45.796875 27.640625 41.28125 31.265625 
Q 36.765625 34.90625 28.71875 34.90625 
L 20.21875 34.90625 
L 20.21875 43.015625 
L 29.109375 43.015625 
Q 36.375 43.015625 40.234375 45.921875 
Q 44.09375 48.828125 44.09375 54.296875 
Q 44.09375 59.90625 40.109375 62.90625 
Q 36.140625 65.921875 28.71875 65.921875 
Q 24.65625 65.921875 20.015625 65.03125 
Q 15.375 64.15625 9.8125 62.3125 
L 9.8125 71.09375 
Q 15.4375 72.65625 20.34375 73.4375 
Q 25.25 74.21875 29.59375 74.21875 
Q 40.828125 74.21875 47.359375 69.109375 
Q 53.90625 64.015625 53.90625 55.328125 
Q 53.90625 49.265625 50.4375 45.09375 
Q 46.96875 40.921875 40.578125 39.3125 
z
" id="DejaVuSans-33"/>
      </defs>
      <g transform="translate(305.967299 322.182437)scale(0.1 -0.1)">
       <use xlink:href="#DejaVuSans-33"/>
       <use x="63.623047" xlink:href="#DejaVuSans-30"/>
       <use x="127.246094" xlink:href="#DejaVuSans-30"/>
      </g>
     </g>
    </g>
    <g id="xtick_8">
     <g id="line2d_15">
      <path clip-path="url(#p25a340b4e6)" d="M 355.790769 307.584 
L 355.790769 41.472 
" style="fill:none;stroke:#b0b0b0;stroke-linecap:square;stroke-width:0.8;"/>
     </g>
     <g id="line2d_16">
      <g>
       <use style="stroke:#000000;stroke-width:0.8;" x="355.790769" xlink:href="#mfbee937293" y="307.584"/>
      </g>
     </g>
     <g id="text_8">
      <!-- 350 -->
      <g transform="translate(346.247019 322.182437)scale(0.1 -0.1)">
       <use xlink:href="#DejaVuSans-33"/>
       <use x="63.623047" xlink:href="#DejaVuSans-35"/>
       <use x="127.246094" xlink:href="#DejaVuSans-30"/>
      </g>
     </g>
    </g>
    <g id="xtick_9">
     <g id="line2d_17">
      <path clip-path="url(#p25a340b4e6)" d="M 396.07049 307.584 
L 396.07049 41.472 
" style="fill:none;stroke:#b0b0b0;stroke-linecap:square;stroke-width:0.8;"/>
     </g>
     <g id="line2d_18">
      <g>
       <use style="stroke:#000000;stroke-width:0.8;" x="396.07049" xlink:href="#mfbee937293" y="307.584"/>
      </g>
     </g>
     <g id="text_9">
      <!-- 400 -->
      <defs>
       <path d="M 37.796875 64.3125 
L 12.890625 25.390625 
L 37.796875 25.390625 
z
M 35.203125 72.90625 
L 47.609375 72.90625 
L 47.609375 25.390625 
L 58.015625 25.390625 
L 58.015625 17.1875 
L 47.609375 17.1875 
L 47.609375 0 
L 37.796875 0 
L 37.796875 17.1875 
L 4.890625 17.1875 
L 4.890625 26.703125 
z
" id="DejaVuSans-34"/>
      </defs>
      <g transform="translate(386.52674 322.182437)scale(0.1 -0.1)">
       <use xlink:href="#DejaVuSans-34"/>
       <use x="63.623047" xlink:href="#DejaVuSans-30"/>
       <use x="127.246094" xlink:href="#DejaVuSans-30"/>
      </g>
     </g>
    </g>
   </g>
   <g id="matplotlib.axis_2">
    <g id="ytick_1">
     <g id="line2d_19">
      <path clip-path="url(#p25a340b4e6)" d="M 57.6 302.816787 
L 414.72 302.816787 
" style="fill:none;stroke:#b0b0b0;stroke-linecap:square;stroke-width:0.8;"/>
     </g>
     <g id="line2d_20">
      <defs>
       <path d="M 0 0 
L -3.5 0 
" id="m75c110be40" style="stroke:#000000;stroke-width:0.8;"/>
      </defs>
      <g>
       <use style="stroke:#000000;stroke-width:0.8;" x="57.6" xlink:href="#m75c110be40" y="302.816787"/>
      </g>
     </g>
     <g id="text_10">
      <!-- 15 -->
      <g transform="translate(37.875 306.616006)scale(0.1 -0.1)">
       <use xlink:href="#DejaVuSans-31"/>
       <use x="63.623047" xlink:href="#DejaVuSans-35"/>
      </g>
     </g>
    </g>
    <g id="ytick_2">
     <g id="line2d_21">
      <path clip-path="url(#p25a340b4e6)" d="M 57.6 252.036311 
L 414.72 252.036311 
" style="fill:none;stroke:#b0b0b0;stroke-linecap:square;stroke-width:0.8;"/>
     </g>
     <g id="line2d_22">
      <g>
       <use style="stroke:#000000;stroke-width:0.8;" x="57.6" xlink:href="#m75c110be40" y="252.036311"/>
      </g>
     </g>
     <g id="text_11">
      <!-- 20 -->
      <g transform="translate(37.875 255.835529)scale(0.1 -0.1)">
       <use xlink:href="#DejaVuSans-32"/>
       <use x="63.623047" xlink:href="#DejaVuSans-30"/>
      </g>
     </g>
    </g>
    <g id="ytick_3">
     <g id="line2d_23">
      <path clip-path="url(#p25a340b4e6)" d="M 57.6 201.255834 
L 414.72 201.255834 
" style="fill:none;stroke:#b0b0b0;stroke-linecap:square;stroke-width:0.8;"/>
     </g>
     <g id="line2d_24">
      <g>
       <use style="stroke:#000000;stroke-width:0.8;" x="57.6" xlink:href="#m75c110be40" y="201.255834"/>
      </g>
     </g>
     <g id="text_12">
      <!-- 25 -->
      <g transform="translate(37.875 205.055053)scale(0.1 -0.1)">
       <use xlink:href="#DejaVuSans-32"/>
       <use x="63.623047" xlink:href="#DejaVuSans-35"/>
      </g>
     </g>
    </g>
    <g id="ytick_4">
     <g id="line2d_25">
      <path clip-path="url(#p25a340b4e6)" d="M 57.6 150.475358 
L 414.72 150.475358 
" style="fill:none;stroke:#b0b0b0;stroke-linecap:square;stroke-width:0.8;"/>
     </g>
     <g id="line2d_26">
      <g>
       <use style="stroke:#000000;stroke-width:0.8;" x="57.6" xlink:href="#m75c110be40" y="150.475358"/>
      </g>
     </g>
     <g id="text_13">
      <!-- 30 -->
      <g transform="translate(37.875 154.274576)scale(0.1 -0.1)">
       <use xlink:href="#DejaVuSans-33"/>
       <use x="63.623047" xlink:href="#DejaVuSans-30"/>
      </g>
     </g>
    </g>
    <g id="ytick_5">
     <g id="line2d_27">
      <path clip-path="url(#p25a340b4e6)" d="M 57.6 99.694881 
L 414.72 99.694881 
" style="fill:none;stroke:#b0b0b0;stroke-linecap:square;stroke-width:0.8;"/>
     </g>
     <g id="line2d_28">
      <g>
       <use style="stroke:#000000;stroke-width:0.8;" x="57.6" xlink:href="#m75c110be40" y="99.694881"/>
      </g>
     </g>
     <g id="text_14">
      <!-- 35 -->
      <g transform="translate(37.875 103.4941)scale(0.1 -0.1)">
       <use xlink:href="#DejaVuSans-33"/>
       <use x="63.623047" xlink:href="#DejaVuSans-35"/>
      </g>
     </g>
    </g>
    <g id="ytick_6">
     <g id="line2d_29">
      <path clip-path="url(#p25a340b4e6)" d="M 57.6 48.914405 
L 414.72 48.914405 
" style="fill:none;stroke:#b0b0b0;stroke-linecap:square;stroke-width:0.8;"/>
     </g>
     <g id="line2d_30">
      <g>
       <use style="stroke:#000000;stroke-width:0.8;" x="57.6" xlink:href="#m75c110be40" y="48.914405"/>
      </g>
     </g>
     <g id="text_15">
      <!-- 40 -->
      <g transform="translate(37.875 52.713623)scale(0.1 -0.1)">
       <use xlink:href="#DejaVuSans-34"/>
       <use x="63.623047" xlink:href="#DejaVuSans-30"/>
      </g>
     </g>
    </g>
    <g id="text_16">
     <!-- Accuracy -->
     <defs>
      <path d="M 34.1875 63.1875 
L 20.796875 26.90625 
L 47.609375 26.90625 
z
M 28.609375 72.90625 
L 39.796875 72.90625 
L 67.578125 0 
L 57.328125 0 
L 50.6875 18.703125 
L 17.828125 18.703125 
L 11.1875 0 
L 0.78125 0 
z
" id="DejaVuSans-41"/>
      <path d="M 48.78125 52.59375 
L 48.78125 44.1875 
Q 44.96875 46.296875 41.140625 47.34375 
Q 37.3125 48.390625 33.40625 48.390625 
Q 24.65625 48.390625 19.8125 42.84375 
Q 14.984375 37.3125 14.984375 27.296875 
Q 14.984375 17.28125 19.8125 11.734375 
Q 24.65625 6.203125 33.40625 6.203125 
Q 37.3125 6.203125 41.140625 7.25 
Q 44.96875 8.296875 48.78125 10.40625 
L 48.78125 2.09375 
Q 45.015625 0.34375 40.984375 -0.53125 
Q 36.96875 -1.421875 32.421875 -1.421875 
Q 20.0625 -1.421875 12.78125 6.34375 
Q 5.515625 14.109375 5.515625 27.296875 
Q 5.515625 40.671875 12.859375 48.328125 
Q 20.21875 56 33.015625 56 
Q 37.15625 56 41.109375 55.140625 
Q 45.0625 54.296875 48.78125 52.59375 
z
" id="DejaVuSans-63"/>
      <path d="M 8.5 21.578125 
L 8.5 54.6875 
L 17.484375 54.6875 
L 17.484375 21.921875 
Q 17.484375 14.15625 20.5 10.265625 
Q 23.53125 6.390625 29.59375 6.390625 
Q 36.859375 6.390625 41.078125 11.03125 
Q 45.3125 15.671875 45.3125 23.6875 
L 45.3125 54.6875 
L 54.296875 54.6875 
L 54.296875 0 
L 45.3125 0 
L 45.3125 8.40625 
Q 42.046875 3.421875 37.71875 1 
Q 33.40625 -1.421875 27.6875 -1.421875 
Q 18.265625 -1.421875 13.375 4.4375 
Q 8.5 10.296875 8.5 21.578125 
z
M 31.109375 56 
z
" id="DejaVuSans-75"/>
      <path d="M 41.109375 46.296875 
Q 39.59375 47.171875 37.8125 47.578125 
Q 36.03125 48 33.890625 48 
Q 26.265625 48 22.1875 43.046875 
Q 18.109375 38.09375 18.109375 28.8125 
L 18.109375 0 
L 9.078125 0 
L 9.078125 54.6875 
L 18.109375 54.6875 
L 18.109375 46.1875 
Q 20.953125 51.171875 25.484375 53.578125 
Q 30.03125 56 36.53125 56 
Q 37.453125 56 38.578125 55.875 
Q 39.703125 55.765625 41.0625 55.515625 
z
" id="DejaVuSans-72"/>
      <path d="M 34.28125 27.484375 
Q 23.390625 27.484375 19.1875 25 
Q 14.984375 22.515625 14.984375 16.5 
Q 14.984375 11.71875 18.140625 8.90625 
Q 21.296875 6.109375 26.703125 6.109375 
Q 34.1875 6.109375 38.703125 11.40625 
Q 43.21875 16.703125 43.21875 25.484375 
L 43.21875 27.484375 
z
M 52.203125 31.203125 
L 52.203125 0 
L 43.21875 0 
L 43.21875 8.296875 
Q 40.140625 3.328125 35.546875 0.953125 
Q 30.953125 -1.421875 24.3125 -1.421875 
Q 15.921875 -1.421875 10.953125 3.296875 
Q 6 8.015625 6 15.921875 
Q 6 25.140625 12.171875 29.828125 
Q 18.359375 34.515625 30.609375 34.515625 
L 43.21875 34.515625 
L 43.21875 35.40625 
Q 43.21875 41.609375 39.140625 45 
Q 35.0625 48.390625 27.6875 48.390625 
Q 23 48.390625 18.546875 47.265625 
Q 14.109375 46.140625 10.015625 43.890625 
L 10.015625 52.203125 
Q 14.9375 54.109375 19.578125 55.046875 
Q 24.21875 56 28.609375 56 
Q 40.484375 56 46.34375 49.84375 
Q 52.203125 43.703125 52.203125 31.203125 
z
" id="DejaVuSans-61"/>
      <path d="M 32.171875 -5.078125 
Q 28.375 -14.84375 24.75 -17.8125 
Q 21.140625 -20.796875 15.09375 -20.796875 
L 7.90625 -20.796875 
L 7.90625 -13.28125 
L 13.1875 -13.28125 
Q 16.890625 -13.28125 18.9375 -11.515625 
Q 21 -9.765625 23.484375 -3.21875 
L 25.09375 0.875 
L 2.984375 54.6875 
L 12.5 54.6875 
L 29.59375 11.921875 
L 46.6875 54.6875 
L 56.203125 54.6875 
z
" id="DejaVuSans-79"/>
     </defs>
     <g transform="translate(31.795312 197.442844)rotate(-90)scale(0.1 -0.1)">
      <use xlink:href="#DejaVuSans-41"/>
      <use x="68.392578" xlink:href="#DejaVuSans-63"/>
      <use x="123.373047" xlink:href="#DejaVuSans-63"/>
      <use x="178.353516" xlink:href="#DejaVuSans-75"/>
      <use x="241.732422" xlink:href="#DejaVuSans-72"/>
      <use x="282.845703" xlink:href="#DejaVuSans-61"/>
      <use x="344.125" xlink:href="#DejaVuSans-63"/>
      <use x="399.105469" xlink:href="#DejaVuSans-79"/>
     </g>
    </g>
   </g>
   <g id="line2d_31">
    <path clip-path="url(#p25a340b4e6)" d="M 73.832727 295.488 
L 75.443916 265.406305 
L 76.24951 258.378247 
L 77.860699 249.297657 
L 79.471888 243.832856 
L 80.277483 242.146728 
L 81.083077 238.021098 
L 81.888671 236.458128 
L 82.694266 234.101484 
L 83.49986 232.415341 
L 84.305455 231.035217 
L 85.916643 227.115286 
L 86.722238 226.080273 
L 87.527832 225.389764 
L 88.333427 224.048732 
L 89.139021 223.277545 
L 89.944615 221.895878 
L 90.75021 220.820549 
L 92.361399 220.006549 
L 93.166993 218.808364 
L 93.972587 217.93498 
L 94.778182 217.243821 
L 95.583776 216.91905 
L 96.389371 215.151639 
L 98.000559 214.116641 
L 99.611748 212.409553 
L 101.222937 212.288573 
L 102.028531 211.049133 
L 102.834126 210.439878 
L 103.63972 209.484908 
L 106.056503 208.771881 
L 106.862098 207.817198 
L 107.667692 207.351123 
L 108.473287 206.334876 
L 109.278881 206.477739 
L 110.084476 205.381161 
L 110.89007 204.853175 
L 111.695664 204.627803 
L 112.501259 204.121412 
L 113.306853 203.248315 
L 114.112448 203.247694 
L 114.918042 202.415247 
L 115.723636 201.805371 
L 116.529231 201.947598 
L 117.334825 200.891655 
L 118.14042 201.602821 
L 118.946014 199.7529 
L 119.751608 200.30271 
L 121.362797 198.698168 
L 122.168392 198.859797 
L 122.973986 198.148631 
L 123.77958 197.844806 
L 124.585175 197.762871 
L 125.390769 196.461882 
L 126.196364 196.746639 
L 127.001958 196.319958 
L 127.807552 195.731013 
L 128.613147 195.649744 
L 130.224336 193.943594 
L 131.02993 193.597546 
L 132.641119 192.317805 
L 133.446713 192.237475 
L 135.057902 190.774524 
L 135.863497 190.734813 
L 136.669091 190.146503 
L 137.474685 188.275335 
L 138.28028 187.099018 
L 139.085874 186.368178 
L 139.891469 185.007138 
L 140.697063 185.006806 
L 141.502657 183.889601 
L 143.113846 181.02593 
L 144.725035 179.442303 
L 145.530629 178.302882 
L 146.336224 177.796204 
L 147.141818 176.63832 
L 147.947413 175.72306 
L 148.753007 174.56675 
L 149.558601 173.694622 
L 151.16979 171.622719 
L 151.975385 170.626827 
L 152.780979 169.429262 
L 153.586573 168.634013 
L 154.392168 168.046944 
L 155.197762 167.030409 
L 156.003357 166.400815 
L 156.808951 165.447721 
L 157.614545 164.269557 
L 158.42014 163.94291 
L 159.225734 163.070449 
L 160.031329 161.343051 
L 160.836923 160.1855 
L 161.642517 159.720076 
L 162.448112 158.175524 
L 163.253706 157.283995 
L 164.059301 155.962666 
L 164.864895 155.740381 
L 166.476084 154.662585 
L 167.281678 152.856401 
L 168.087273 152.368125 
L 168.892867 151.17056 
L 169.698462 150.784195 
L 170.504056 150.012737 
L 171.30965 148.936454 
L 172.115245 148.58977 
L 172.920839 147.166833 
L 173.726434 146.112464 
L 174.532028 146.863613 
L 176.948811 143.92055 
L 177.754406 143.187834 
L 178.56 143.351006 
L 179.365594 141.908698 
L 180.976783 142.29131 
L 181.782378 140.812076 
L 182.587972 140.934629 
L 183.393566 139.997789 
L 184.199161 138.453903 
L 185.004755 139.103777 
L 185.81035 138.861818 
L 186.615944 137.967171 
L 187.421538 137.924342 
L 188.227133 137.175372 
L 189.838322 136.463601 
L 190.643916 134.940933 
L 191.44951 135.306353 
L 192.255105 135.507057 
L 193.060699 134.45296 
L 193.866294 133.881872 
L 194.671888 133.535824 
L 195.477483 133.333274 
L 196.283077 132.623349 
L 197.088671 132.56239 
L 197.894266 131.648371 
L 198.69986 131.303564 
L 199.505455 130.550841 
L 200.311049 131.056611 
L 201.116643 130.898766 
L 201.922238 130.003483 
L 202.727832 130.267325 
L 203.533427 129.435816 
L 205.144615 128.376422 
L 205.95021 129.53585 
L 206.755804 128.925656 
L 207.561399 128.034127 
L 208.366993 128.174507 
L 209.172587 126.448048 
L 209.978182 126.773454 
L 210.783776 125.816607 
L 211.589371 126.691853 
L 212.394965 125.369586 
L 213.200559 124.823166 
L 214.006154 124.84287 
L 214.811748 124.599338 
L 215.617343 124.232677 
L 216.422937 124.213609 
L 218.034126 123.380525 
L 218.83972 122.383664 
L 219.645315 122.68752 
L 220.450909 121.144875 
L 221.256503 121.408384 
L 222.062098 120.010751 
L 223.673287 120.151737 
L 224.478881 120.008875 
L 225.284476 119.338994 
L 226.09007 118.444346 
L 226.895664 117.75352 
L 227.701259 118.344615 
L 228.506853 118.32367 
L 229.312448 118.178961 
L 230.118042 116.636619 
L 230.923636 116.53501 
L 231.729231 116.08802 
L 232.534825 116.57566 
L 233.34042 116.536887 
L 234.146014 115.236171 
L 234.951608 116.08923 
L 235.757203 113.874828 
L 236.562797 114.502849 
L 237.368392 113.267177 
L 238.173986 113.186817 
L 238.97958 113.265271 
L 239.785175 112.98015 
L 240.590769 112.106145 
L 241.396364 111.476581 
L 243.007552 111.07148 
L 243.813147 110.970841 
L 244.618741 111.254992 
L 245.424336 110.054583 
L 246.22993 110.217149 
L 247.035524 110.624157 
L 247.841119 109.347806 
L 249.452308 108.838918 
L 250.257902 108.391594 
L 251.063497 109.22498 
L 251.869091 109.101821 
L 252.674685 107.232197 
L 253.48028 107.191245 
L 254.285874 106.725458 
L 255.091469 107.070568 
L 255.897063 106.339093 
L 257.508252 105.81268 
L 258.313846 105.525744 
L 259.119441 104.553854 
L 259.925035 104.937737 
L 260.730629 105.059957 
L 261.536224 103.150924 
L 262.341818 103.376659 
L 263.147413 104.003711 
L 263.953007 103.008364 
L 264.758601 102.622634 
L 265.564196 101.970884 
L 266.36979 101.769242 
L 267.175385 101.910258 
L 267.980979 101.911469 
L 268.786573 101.137831 
L 269.592168 101.160622 
L 270.397762 100.042782 
L 271.203357 100.816178 
L 272.008951 99.13064 
L 273.62014 99.109392 
L 274.425734 99.189087 
L 275.231329 98.703021 
L 276.036923 98.763041 
L 276.842517 96.813389 
L 277.648112 98.113772 
L 279.259301 96.874348 
L 280.064895 96.550485 
L 280.87049 96.711175 
L 281.676084 95.290115 
L 282.481678 95.532982 
L 283.287273 95.106301 
L 284.092867 95.635861 
L 284.898462 94.540207 
L 285.704056 94.316379 
L 286.50965 94.396709 
L 287.315245 93.198206 
L 288.120839 93.014119 
L 288.926434 93.400484 
L 289.732028 93.136339 
L 291.343217 91.247313 
L 292.148811 91.797455 
L 292.954406 91.409577 
L 293.76 91.694303 
L 294.565594 91.309815 
L 295.371189 89.623339 
L 296.176783 90.110071 
L 296.982378 90.780285 
L 297.787972 89.828129 
L 298.593566 89.682482 
L 299.399161 90.253872 
L 300.204755 89.197929 
L 301.01035 87.452098 
L 302.621538 87.937226 
L 303.427133 87.877841 
L 304.232727 87.470531 
L 305.038322 86.638083 
L 305.843916 86.719685 
L 306.64951 86.598403 
L 308.260699 85.197047 
L 309.066294 84.141376 
L 309.871888 84.974126 
L 310.677483 85.235456 
L 311.483077 84.221131 
L 312.288671 84.363994 
L 313.094266 83.732825 
L 313.89986 83.37019 
L 314.705455 82.692863 
L 315.511049 82.698765 
L 316.316643 83.064821 
L 317.927832 82.06796 
L 318.733427 82.292061 
L 319.539021 80.770361 
L 320.344615 80.949181 
L 321.15021 81.43776 
L 322.761399 79.629396 
L 323.566993 80.238349 
L 324.372587 79.122688 
L 325.178182 78.736928 
L 325.983776 78.756632 
L 326.789371 79.000437 
L 327.594965 77.821971 
L 328.400559 78.14768 
L 329.206154 76.786943 
L 330.011748 77.658829 
L 330.817343 77.476528 
L 331.622937 76.603159 
L 332.428531 76.460024 
L 333.234126 76.480333 
L 334.03972 75.505325 
L 335.650909 75.404353 
L 336.456503 75.018926 
L 337.262098 74.490637 
L 338.067692 74.265265 
L 340.484476 72.92514 
L 341.29007 72.112397 
L 342.095664 73.048026 
L 342.901259 73.354334 
L 343.706853 71.869802 
L 344.512448 70.79355 
L 345.318042 71.038959 
L 346.123636 70.954876 
L 347.734825 71.321204 
L 348.54042 70.589728 
L 349.346014 70.57069 
L 350.151608 69.736063 
L 350.957203 69.554428 
L 351.762797 68.781698 
L 352.568392 70.203394 
L 353.373986 68.823921 
L 354.17958 67.706384 
L 354.985175 68.458501 
L 355.790769 68.234037 
L 356.596364 66.792032 
L 357.401958 67.685741 
L 358.207552 66.182172 
L 359.013147 65.878013 
L 359.818741 66.751716 
L 360.624336 66.425341 
L 362.235524 65.407868 
L 363.041119 65.147174 
L 363.846713 64.57884 
L 364.652308 64.597939 
L 365.457902 63.458518 
L 366.263497 63.847396 
L 367.069091 62.809885 
L 367.874685 64.110299 
L 368.68028 63.052147 
L 369.485874 63.07403 
L 370.291469 62.158437 
L 371.097063 61.630784 
L 371.902657 62.158437 
L 372.708252 62.341919 
L 373.513846 62.260015 
L 374.319441 61.427598 
L 375.125035 61.712052 
L 375.930629 60.249737 
L 376.736224 60.798336 
L 377.541818 59.498891 
L 378.347413 59.194732 
L 379.153007 59.597654 
L 380.764196 58.989973 
L 381.56979 58.115635 
L 382.375385 59.457636 
L 383.180979 57.406679 
L 383.986573 57.629599 
L 384.792168 57.527052 
L 385.597762 58.602669 
L 386.403357 57.161633 
L 387.208951 58.016872 
L 388.014545 56.55268 
L 388.82014 56.675506 
L 390.431329 56.411694 
L 391.236923 56.613639 
L 392.848112 55.091879 
L 395.264895 55.783038 
L 396.07049 54.561743 
L 396.876084 53.568 
L 397.681678 53.87122 
L 398.487273 54.665833 
L 398.487273 54.665833 
" style="fill:none;stroke:#ff6347;stroke-linecap:square;stroke-width:2;"/>
   </g>
   <g id="line2d_32">
    <path clip-path="url(#p25a340b4e6)" d="M 73.832727 295.199716 
L 74.638322 274.887525 
L 75.443916 260.161187 
L 76.24951 251.426945 
L 77.055105 245.942654 
L 78.666294 239.239631 
L 80.277483 233.552217 
L 81.888671 229.794462 
L 82.694266 228.372609 
L 83.49986 227.560121 
L 85.111049 224.716414 
L 85.916643 224.005488 
L 86.722238 222.786756 
L 87.527832 222.888317 
L 88.333427 221.974269 
L 89.139021 220.755537 
L 89.944615 219.94305 
L 90.75021 218.622757 
L 91.555804 217.607148 
L 92.361399 217.099343 
L 93.166993 215.779051 
L 93.972587 214.763441 
L 94.778182 214.66188 
L 95.583776 213.54471 
L 96.389371 213.443149 
L 97.194965 212.935344 
L 98.806154 210.599442 
L 99.611748 209.990076 
L 101.222937 207.857296 
L 102.028531 207.654174 
L 102.834126 207.14637 
L 103.63972 206.435443 
L 105.250909 203.794858 
L 106.862098 203.287053 
L 107.667692 202.169883 
L 108.473287 201.560517 
L 110.084476 199.630859 
L 110.89007 198.71681 
L 111.695664 198.005884 
L 112.501259 196.888713 
L 114.918042 195.060616 
L 115.723636 194.857494 
L 116.529231 193.841885 
L 117.334825 193.130958 
L 119.751608 192.115348 
L 120.557203 190.795056 
L 121.362797 189.982568 
L 122.168392 189.677886 
L 122.973986 189.576325 
L 123.77958 188.966959 
L 124.585175 187.646667 
L 125.390769 187.240423 
L 127.001958 187.138862 
L 127.807552 186.326374 
L 128.613147 185.92013 
L 130.224336 184.80296 
L 131.02993 184.498277 
L 131.835524 183.685789 
L 132.641119 183.990472 
L 133.446713 183.78735 
L 134.252308 182.974863 
L 136.669091 181.045205 
L 137.474685 180.131156 
L 138.28028 179.724912 
L 139.085874 180.334278 
L 140.697063 179.217107 
L 141.502657 178.810864 
L 142.308252 179.115546 
L 143.113846 178.303059 
L 143.919441 176.474962 
L 144.725035 175.662474 
L 145.530629 174.646865 
L 147.141818 173.12345 
L 147.947413 172.717206 
L 148.753007 173.021889 
L 149.558601 172.107841 
L 150.364196 171.396914 
L 151.16979 170.99067 
L 151.975385 170.076622 
L 153.586573 167.537598 
L 154.392168 167.436037 
L 155.197762 166.72511 
L 156.003357 165.506379 
L 156.808951 163.982964 
L 157.614545 163.779843 
L 159.225734 162.154867 
L 160.836923 161.545502 
L 161.642517 160.428331 
L 163.253706 157.686185 
L 164.059301 156.975259 
L 164.864895 155.553405 
L 166.476084 153.217503 
L 168.087273 149.967553 
L 168.892867 148.037895 
L 169.698462 146.41292 
L 170.504056 145.39731 
L 171.30965 144.787944 
L 172.115245 143.772335 
L 172.920839 142.959847 
L 173.726434 141.13175 
L 174.532028 141.13175 
L 175.337622 140.116141 
L 176.143217 139.709897 
L 176.948811 138.99897 
L 177.754406 137.577117 
L 179.365594 137.983361 
L 180.171189 137.8818 
L 180.976783 137.373995 
L 181.782378 137.272434 
L 182.587972 136.155263 
L 183.393566 136.155263 
L 184.199161 134.936532 
L 185.81035 134.73341 
L 186.615944 134.225605 
L 188.227133 132.092825 
L 189.032727 131.788142 
L 189.838322 131.178777 
L 190.643916 130.061606 
L 193.060699 129.35068 
L 193.866294 129.655362 
L 195.477483 128.538192 
L 196.283077 128.33507 
L 197.088671 126.913217 
L 197.894266 126.608534 
L 198.69986 125.18668 
L 199.505455 125.491363 
L 200.311049 124.678876 
L 201.116643 124.780437 
L 201.922238 124.06951 
L 202.727832 124.374193 
L 204.339021 123.663266 
L 205.144615 123.155461 
L 205.95021 123.0539 
L 206.755804 122.444535 
L 207.561399 121.428925 
L 208.366993 120.92112 
L 209.172587 121.022681 
L 209.978182 120.92112 
L 210.783776 120.616438 
L 213.200559 120.311755 
L 214.006154 119.194584 
L 214.811748 119.397706 
L 216.422937 118.280536 
L 218.83972 117.569609 
L 220.450909 116.452438 
L 221.256503 116.249317 
L 222.062098 115.639951 
L 222.867692 115.436829 
L 223.673287 115.53839 
L 225.284476 113.202488 
L 226.09007 113.202488 
L 226.895664 112.491561 
L 227.701259 112.897805 
L 228.506853 112.39 
L 230.118042 112.085317 
L 230.923636 111.27283 
L 231.729231 110.663464 
L 232.534825 111.069708 
L 234.146014 110.561903 
L 234.951608 110.054098 
L 235.757203 109.952537 
L 236.562797 109.647855 
L 237.368392 109.749416 
L 239.785175 109.343172 
L 240.590769 108.632245 
L 243.007552 107.00727 
L 244.618741 107.108831 
L 245.424336 106.702587 
L 246.22993 106.905709 
L 248.646713 104.772929 
L 249.452308 104.671368 
L 251.063497 102.132344 
L 251.869091 102.437027 
L 253.48028 102.335466 
L 254.285874 101.827661 
L 255.091469 100.913613 
L 255.897063 99.491759 
L 256.702657 100.101125 
L 257.508252 98.882394 
L 258.313846 98.171467 
L 259.119441 98.069906 
L 259.925035 98.171467 
L 260.730629 97.866784 
L 261.536224 98.273028 
L 262.341818 98.374589 
L 263.147413 98.273028 
L 263.953007 98.983955 
L 267.175385 98.171467 
L 267.980979 98.577711 
L 268.786573 97.968345 
L 269.592168 97.765223 
L 270.397762 96.952735 
L 271.203357 97.054296 
L 272.008951 96.749614 
L 272.814545 95.835565 
L 273.62014 95.530882 
L 274.425734 94.616834 
L 275.231329 94.109029 
L 276.036923 94.312151 
L 277.648112 94.007468 
L 278.453706 93.804346 
L 279.259301 92.991858 
L 280.064895 93.19498 
L 283.287273 92.382493 
L 284.092867 92.687175 
L 284.898462 92.07781 
L 285.704056 92.07781 
L 286.50965 91.0622 
L 287.315245 90.554395 
L 288.120839 90.757517 
L 288.926434 90.554395 
L 289.732028 90.148152 
L 290.537622 90.148152 
L 291.343217 89.234103 
L 292.954406 89.335664 
L 293.76 88.92942 
L 294.565594 88.726298 
L 295.371189 87.710689 
L 297.787972 86.999762 
L 299.399161 85.984153 
L 300.204755 85.781031 
L 301.01035 84.968543 
L 301.815944 85.070104 
L 302.621538 83.851373 
L 303.427133 83.952934 
L 305.038322 83.851373 
L 305.843916 84.054494 
L 306.64951 82.53108 
L 307.455105 82.835763 
L 309.066294 82.632641 
L 309.871888 81.718593 
L 310.677483 81.718593 
L 311.483077 81.515471 
L 312.288671 80.804544 
L 313.094266 80.296739 
L 313.89986 80.3983 
L 314.705455 80.804544 
L 315.511049 80.296739 
L 316.316643 79.992056 
L 317.122238 79.484252 
L 317.927832 78.671764 
L 320.344615 78.062398 
L 321.15021 77.453033 
L 321.955804 77.960837 
L 323.566993 75.929618 
L 324.372587 75.929618 
L 325.178182 75.218692 
L 325.983776 75.117131 
L 326.789371 75.218692 
L 327.594965 74.507765 
L 328.400559 75.117131 
L 329.206154 74.710887 
L 330.011748 73.085912 
L 331.622937 73.085912 
L 333.234126 72.171863 
L 334.845315 71.257814 
L 335.650909 70.75001 
L 336.456503 70.445327 
L 337.262098 69.429717 
L 338.067692 69.632839 
L 338.873287 69.632839 
L 340.484476 68.718791 
L 341.29007 68.61723 
L 342.095664 67.703181 
L 342.901259 67.60162 
L 343.706853 67.296937 
L 344.512448 67.804742 
L 345.318042 67.60162 
L 346.929231 66.687571 
L 347.734825 67.296937 
L 349.346014 66.789132 
L 351.762797 65.671962 
L 352.568392 66.281328 
L 353.373986 65.570401 
L 354.17958 65.671962 
L 355.790769 64.35167 
L 356.596364 64.148548 
L 357.401958 63.234499 
L 358.207552 62.828255 
L 359.013147 63.031377 
L 359.818741 62.015768 
L 360.624336 62.625133 
L 361.42993 61.101719 
L 362.235524 60.289231 
L 363.041119 60.593914 
L 363.846713 60.18767 
L 364.652308 60.08611 
L 365.457902 60.797036 
L 366.263497 59.984549 
L 367.069091 60.08611 
L 367.874685 60.492353 
L 368.68028 60.08611 
L 369.485874 60.797036 
L 370.291469 60.695475 
L 371.902657 60.797036 
L 372.708252 60.797036 
L 373.513846 61.101719 
L 374.319441 60.492353 
L 375.930629 60.390792 
L 377.541818 59.476744 
L 378.347413 58.867378 
L 379.153007 59.273622 
L 379.958601 59.0705 
L 380.764196 59.476744 
L 381.56979 58.562695 
L 382.375385 58.968939 
L 383.180979 58.359573 
L 383.986573 58.562695 
L 384.792168 57.95333 
L 385.597762 57.750208 
L 386.403357 58.258012 
L 387.208951 57.648647 
L 388.82014 57.95333 
L 389.625734 57.547086 
L 391.236923 57.445525 
L 392.042517 56.734598 
L 392.848112 57.547086 
L 393.653706 57.445525 
L 394.459301 57.140842 
L 395.264895 57.547086 
L 396.07049 57.242403 
L 396.876084 57.343964 
L 397.681678 58.05489 
L 398.487273 56.226793 
L 398.487273 56.226793 
" style="fill:none;stroke:#4682b4;stroke-linecap:square;stroke-width:2;"/>
   </g>
   <g id="patch_3">
    <path d="M 57.6 307.584 
L 57.6 41.472 
" style="fill:none;stroke:#000000;stroke-linecap:square;stroke-linejoin:miter;stroke-width:0.8;"/>
   </g>
   <g id="patch_4">
    <path d="M 414.72 307.584 
L 414.72 41.472 
" style="fill:none;stroke:#000000;stroke-linecap:square;stroke-linejoin:miter;stroke-width:0.8;"/>
   </g>
   <g id="patch_5">
    <path d="M 57.6 307.584 
L 414.72 307.584 
" style="fill:none;stroke:#000000;stroke-linecap:square;stroke-linejoin:miter;stroke-width:0.8;"/>
   </g>
   <g id="patch_6">
    <path d="M 57.6 41.472 
L 414.72 41.472 
" style="fill:none;stroke:#000000;stroke-linecap:square;stroke-linejoin:miter;stroke-width:0.8;"/>
   </g>
   <g id="legend_1">
    <g id="patch_7">
     <path d="M 64.6 79.3845 
L 142 79.3845 
Q 144 79.3845 144 77.3845 
L 144 48.472 
Q 144 46.472 142 46.472 
L 64.6 46.472 
Q 62.6 46.472 62.6 48.472 
L 62.6 77.3845 
Q 62.6 79.3845 64.6 79.3845 
z
" style="fill:#ffffff;opacity:0.8;stroke:#cccccc;stroke-linejoin:miter;"/>
    </g>
    <g id="line2d_33">
     <path d="M 66.6 54.570438 
L 86.6 54.570438 
" style="fill:none;stroke:#ff6347;stroke-linecap:square;stroke-width:2;"/>
    </g>
    <g id="line2d_34"/>
    <g id="text_17">
     <!-- train_acc -->
     <defs>
      <path d="M 18.3125 70.21875 
L 18.3125 54.6875 
L 36.8125 54.6875 
L 36.8125 47.703125 
L 18.3125 47.703125 
L 18.3125 18.015625 
Q 18.3125 11.328125 20.140625 9.421875 
Q 21.96875 7.515625 27.59375 7.515625 
L 36.8125 7.515625 
L 36.8125 0 
L 27.59375 0 
Q 17.1875 0 13.234375 3.875 
Q 9.28125 7.765625 9.28125 18.015625 
L 9.28125 47.703125 
L 2.6875 47.703125 
L 2.6875 54.6875 
L 9.28125 54.6875 
L 9.28125 70.21875 
z
" id="DejaVuSans-74"/>
      <path d="M 9.421875 54.6875 
L 18.40625 54.6875 
L 18.40625 0 
L 9.421875 0 
z
M 9.421875 75.984375 
L 18.40625 75.984375 
L 18.40625 64.59375 
L 9.421875 64.59375 
z
" id="DejaVuSans-69"/>
      <path d="M 54.890625 33.015625 
L 54.890625 0 
L 45.90625 0 
L 45.90625 32.71875 
Q 45.90625 40.484375 42.875 44.328125 
Q 39.84375 48.1875 33.796875 48.1875 
Q 26.515625 48.1875 22.3125 43.546875 
Q 18.109375 38.921875 18.109375 30.90625 
L 18.109375 0 
L 9.078125 0 
L 9.078125 54.6875 
L 18.109375 54.6875 
L 18.109375 46.1875 
Q 21.34375 51.125 25.703125 53.5625 
Q 30.078125 56 35.796875 56 
Q 45.21875 56 50.046875 50.171875 
Q 54.890625 44.34375 54.890625 33.015625 
z
" id="DejaVuSans-6e"/>
      <path d="M 50.984375 -16.609375 
L 50.984375 -23.578125 
L -0.984375 -23.578125 
L -0.984375 -16.609375 
z
" id="DejaVuSans-5f"/>
     </defs>
     <g transform="translate(94.6 58.070438)scale(0.1 -0.1)">
      <use xlink:href="#DejaVuSans-74"/>
      <use x="39.208984" xlink:href="#DejaVuSans-72"/>
      <use x="80.322266" xlink:href="#DejaVuSans-61"/>
      <use x="141.601562" xlink:href="#DejaVuSans-69"/>
      <use x="169.384766" xlink:href="#DejaVuSans-6e"/>
      <use x="232.763672" xlink:href="#DejaVuSans-5f"/>
      <use x="282.763672" xlink:href="#DejaVuSans-61"/>
      <use x="344.042969" xlink:href="#DejaVuSans-63"/>
      <use x="399.023438" xlink:href="#DejaVuSans-63"/>
     </g>
    </g>
    <g id="line2d_35">
     <path d="M 66.6 69.526688 
L 86.6 69.526688 
" style="fill:none;stroke:#4682b4;stroke-linecap:square;stroke-width:2;"/>
    </g>
    <g id="line2d_36"/>
    <g id="text_18">
     <!-- test_acc -->
     <defs>
      <path d="M 56.203125 29.59375 
L 56.203125 25.203125 
L 14.890625 25.203125 
Q 15.484375 15.921875 20.484375 11.0625 
Q 25.484375 6.203125 34.421875 6.203125 
Q 39.59375 6.203125 44.453125 7.46875 
Q 49.3125 8.734375 54.109375 11.28125 
L 54.109375 2.78125 
Q 49.265625 0.734375 44.1875 -0.34375 
Q 39.109375 -1.421875 33.890625 -1.421875 
Q 20.796875 -1.421875 13.15625 6.1875 
Q 5.515625 13.8125 5.515625 26.8125 
Q 5.515625 40.234375 12.765625 48.109375 
Q 20.015625 56 32.328125 56 
Q 43.359375 56 49.78125 48.890625 
Q 56.203125 41.796875 56.203125 29.59375 
z
M 47.21875 32.234375 
Q 47.125 39.59375 43.09375 43.984375 
Q 39.0625 48.390625 32.421875 48.390625 
Q 24.90625 48.390625 20.390625 44.140625 
Q 15.875 39.890625 15.1875 32.171875 
z
" id="DejaVuSans-65"/>
      <path d="M 44.28125 53.078125 
L 44.28125 44.578125 
Q 40.484375 46.53125 36.375 47.5 
Q 32.28125 48.484375 27.875 48.484375 
Q 21.1875 48.484375 17.84375 46.4375 
Q 14.5 44.390625 14.5 40.28125 
Q 14.5 37.15625 16.890625 35.375 
Q 19.28125 33.59375 26.515625 31.984375 
L 29.59375 31.296875 
Q 39.15625 29.25 43.1875 25.515625 
Q 47.21875 21.78125 47.21875 15.09375 
Q 47.21875 7.46875 41.1875 3.015625 
Q 35.15625 -1.421875 24.609375 -1.421875 
Q 20.21875 -1.421875 15.453125 -0.5625 
Q 10.6875 0.296875 5.421875 2 
L 5.421875 11.28125 
Q 10.40625 8.6875 15.234375 7.390625 
Q 20.0625 6.109375 24.8125 6.109375 
Q 31.15625 6.109375 34.5625 8.28125 
Q 37.984375 10.453125 37.984375 14.40625 
Q 37.984375 18.0625 35.515625 20.015625 
Q 33.0625 21.96875 24.703125 23.78125 
L 21.578125 24.515625 
Q 13.234375 26.265625 9.515625 29.90625 
Q 5.8125 33.546875 5.8125 39.890625 
Q 5.8125 47.609375 11.28125 51.796875 
Q 16.75 56 26.8125 56 
Q 31.78125 56 36.171875 55.265625 
Q 40.578125 54.546875 44.28125 53.078125 
z
" id="DejaVuSans-73"/>
     </defs>
     <g transform="translate(94.6 73.026688)scale(0.1 -0.1)">
      <use xlink:href="#DejaVuSans-74"/>
      <use x="39.208984" xlink:href="#DejaVuSans-65"/>
      <use x="100.732422" xlink:href="#DejaVuSans-73"/>
      <use x="152.832031" xlink:href="#DejaVuSans-74"/>
      <use x="192.041016" xlink:href="#DejaVuSans-5f"/>
      <use x="242.041016" xlink:href="#DejaVuSans-61"/>
      <use x="303.320312" xlink:href="#DejaVuSans-63"/>
      <use x="358.300781" xlink:href="#DejaVuSans-63"/>
     </g>
    </g>
   </g>
  </g>
  <g id="axes_2">
   <g id="matplotlib.axis_3">
    <g id="ytick_7">
     <g id="line2d_37">
      <defs>
       <path d="M 0 0 
L 3.5 0 
" id="m1f7d1df687" style="stroke:#000000;stroke-width:0.8;"/>
      </defs>
      <g>
       <use style="stroke:#000000;stroke-width:0.8;" x="414.72" xlink:href="#m1f7d1df687" y="276.970587"/>
      </g>
     </g>
     <g id="text_19">
      <!-- 1.7 -->
      <defs>
       <path d="M 10.6875 12.40625 
L 21 12.40625 
L 21 0 
L 10.6875 0 
z
" id="DejaVuSans-2e"/>
       <path d="M 8.203125 72.90625 
L 55.078125 72.90625 
L 55.078125 68.703125 
L 28.609375 0 
L 18.3125 0 
L 43.21875 64.59375 
L 8.203125 64.59375 
z
" id="DejaVuSans-37"/>
      </defs>
      <g transform="translate(421.72 280.769806)scale(0.1 -0.1)">
       <use xlink:href="#DejaVuSans-31"/>
       <use x="63.623047" xlink:href="#DejaVuSans-2e"/>
       <use x="95.410156" xlink:href="#DejaVuSans-37"/>
      </g>
     </g>
    </g>
    <g id="ytick_8">
     <g id="line2d_38">
      <g>
       <use style="stroke:#000000;stroke-width:0.8;" x="414.72" xlink:href="#m1f7d1df687" y="238.091547"/>
      </g>
     </g>
     <g id="text_20">
      <!-- 1.8 -->
      <defs>
       <path d="M 31.78125 34.625 
Q 24.75 34.625 20.71875 30.859375 
Q 16.703125 27.09375 16.703125 20.515625 
Q 16.703125 13.921875 20.71875 10.15625 
Q 24.75 6.390625 31.78125 6.390625 
Q 38.8125 6.390625 42.859375 10.171875 
Q 46.921875 13.96875 46.921875 20.515625 
Q 46.921875 27.09375 42.890625 30.859375 
Q 38.875 34.625 31.78125 34.625 
z
M 21.921875 38.8125 
Q 15.578125 40.375 12.03125 44.71875 
Q 8.5 49.078125 8.5 55.328125 
Q 8.5 64.0625 14.71875 69.140625 
Q 20.953125 74.21875 31.78125 74.21875 
Q 42.671875 74.21875 48.875 69.140625 
Q 55.078125 64.0625 55.078125 55.328125 
Q 55.078125 49.078125 51.53125 44.71875 
Q 48 40.375 41.703125 38.8125 
Q 48.828125 37.15625 52.796875 32.3125 
Q 56.78125 27.484375 56.78125 20.515625 
Q 56.78125 9.90625 50.3125 4.234375 
Q 43.84375 -1.421875 31.78125 -1.421875 
Q 19.734375 -1.421875 13.25 4.234375 
Q 6.78125 9.90625 6.78125 20.515625 
Q 6.78125 27.484375 10.78125 32.3125 
Q 14.796875 37.15625 21.921875 38.8125 
z
M 18.3125 54.390625 
Q 18.3125 48.734375 21.84375 45.5625 
Q 25.390625 42.390625 31.78125 42.390625 
Q 38.140625 42.390625 41.71875 45.5625 
Q 45.3125 48.734375 45.3125 54.390625 
Q 45.3125 60.0625 41.71875 63.234375 
Q 38.140625 66.40625 31.78125 66.40625 
Q 25.390625 66.40625 21.84375 63.234375 
Q 18.3125 60.0625 18.3125 54.390625 
z
" id="DejaVuSans-38"/>
      </defs>
      <g transform="translate(421.72 241.890766)scale(0.1 -0.1)">
       <use xlink:href="#DejaVuSans-31"/>
       <use x="63.623047" xlink:href="#DejaVuSans-2e"/>
       <use x="95.410156" xlink:href="#DejaVuSans-38"/>
      </g>
     </g>
    </g>
    <g id="ytick_9">
     <g id="line2d_39">
      <g>
       <use style="stroke:#000000;stroke-width:0.8;" x="414.72" xlink:href="#m1f7d1df687" y="199.212508"/>
      </g>
     </g>
     <g id="text_21">
      <!-- 1.9 -->
      <defs>
       <path d="M 10.984375 1.515625 
L 10.984375 10.5 
Q 14.703125 8.734375 18.5 7.8125 
Q 22.3125 6.890625 25.984375 6.890625 
Q 35.75 6.890625 40.890625 13.453125 
Q 46.046875 20.015625 46.78125 33.40625 
Q 43.953125 29.203125 39.59375 26.953125 
Q 35.25 24.703125 29.984375 24.703125 
Q 19.046875 24.703125 12.671875 31.3125 
Q 6.296875 37.9375 6.296875 49.421875 
Q 6.296875 60.640625 12.9375 67.421875 
Q 19.578125 74.21875 30.609375 74.21875 
Q 43.265625 74.21875 49.921875 64.515625 
Q 56.59375 54.828125 56.59375 36.375 
Q 56.59375 19.140625 48.40625 8.859375 
Q 40.234375 -1.421875 26.421875 -1.421875 
Q 22.703125 -1.421875 18.890625 -0.6875 
Q 15.09375 0.046875 10.984375 1.515625 
z
M 30.609375 32.421875 
Q 37.25 32.421875 41.125 36.953125 
Q 45.015625 41.5 45.015625 49.421875 
Q 45.015625 57.28125 41.125 61.84375 
Q 37.25 66.40625 30.609375 66.40625 
Q 23.96875 66.40625 20.09375 61.84375 
Q 16.21875 57.28125 16.21875 49.421875 
Q 16.21875 41.5 20.09375 36.953125 
Q 23.96875 32.421875 30.609375 32.421875 
z
" id="DejaVuSans-39"/>
      </defs>
      <g transform="translate(421.72 203.011727)scale(0.1 -0.1)">
       <use xlink:href="#DejaVuSans-31"/>
       <use x="63.623047" xlink:href="#DejaVuSans-2e"/>
       <use x="95.410156" xlink:href="#DejaVuSans-39"/>
      </g>
     </g>
    </g>
    <g id="ytick_10">
     <g id="line2d_40">
      <g>
       <use style="stroke:#000000;stroke-width:0.8;" x="414.72" xlink:href="#m1f7d1df687" y="160.333469"/>
      </g>
     </g>
     <g id="text_22">
      <!-- 2.0 -->
      <g transform="translate(421.72 164.132687)scale(0.1 -0.1)">
       <use xlink:href="#DejaVuSans-32"/>
       <use x="63.623047" xlink:href="#DejaVuSans-2e"/>
       <use x="95.410156" xlink:href="#DejaVuSans-30"/>
      </g>
     </g>
    </g>
    <g id="ytick_11">
     <g id="line2d_41">
      <g>
       <use style="stroke:#000000;stroke-width:0.8;" x="414.72" xlink:href="#m1f7d1df687" y="121.454429"/>
      </g>
     </g>
     <g id="text_23">
      <!-- 2.1 -->
      <g transform="translate(421.72 125.253648)scale(0.1 -0.1)">
       <use xlink:href="#DejaVuSans-32"/>
       <use x="63.623047" xlink:href="#DejaVuSans-2e"/>
       <use x="95.410156" xlink:href="#DejaVuSans-31"/>
      </g>
     </g>
    </g>
    <g id="ytick_12">
     <g id="line2d_42">
      <g>
       <use style="stroke:#000000;stroke-width:0.8;" x="414.72" xlink:href="#m1f7d1df687" y="82.57539"/>
      </g>
     </g>
     <g id="text_24">
      <!-- 2.2 -->
      <g transform="translate(421.72 86.374609)scale(0.1 -0.1)">
       <use xlink:href="#DejaVuSans-32"/>
       <use x="63.623047" xlink:href="#DejaVuSans-2e"/>
       <use x="95.410156" xlink:href="#DejaVuSans-32"/>
      </g>
     </g>
    </g>
    <g id="ytick_13">
     <g id="line2d_43">
      <g>
       <use style="stroke:#000000;stroke-width:0.8;" x="414.72" xlink:href="#m1f7d1df687" y="43.69635"/>
      </g>
     </g>
     <g id="text_25">
      <!-- 2.3 -->
      <g transform="translate(421.72 47.495569)scale(0.1 -0.1)">
       <use xlink:href="#DejaVuSans-32"/>
       <use x="63.623047" xlink:href="#DejaVuSans-2e"/>
       <use x="95.410156" xlink:href="#DejaVuSans-33"/>
      </g>
     </g>
    </g>
    <g id="text_26">
     <!-- Loss -->
     <defs>
      <path d="M 9.8125 72.90625 
L 19.671875 72.90625 
L 19.671875 8.296875 
L 55.171875 8.296875 
L 55.171875 0 
L 9.8125 0 
z
" id="DejaVuSans-4c"/>
      <path d="M 30.609375 48.390625 
Q 23.390625 48.390625 19.1875 42.75 
Q 14.984375 37.109375 14.984375 27.296875 
Q 14.984375 17.484375 19.15625 11.84375 
Q 23.34375 6.203125 30.609375 6.203125 
Q 37.796875 6.203125 41.984375 11.859375 
Q 46.1875 17.53125 46.1875 27.296875 
Q 46.1875 37.015625 41.984375 42.703125 
Q 37.796875 48.390625 30.609375 48.390625 
z
M 30.609375 56 
Q 42.328125 56 49.015625 48.375 
Q 55.71875 40.765625 55.71875 27.296875 
Q 55.71875 13.875 49.015625 6.21875 
Q 42.328125 -1.421875 30.609375 -1.421875 
Q 18.84375 -1.421875 12.171875 6.21875 
Q 5.515625 13.875 5.515625 27.296875 
Q 5.515625 40.765625 12.171875 48.375 
Q 18.84375 56 30.609375 56 
z
" id="DejaVuSans-6f"/>
     </defs>
     <g transform="translate(449.221563 185.581906)rotate(-90)scale(0.1 -0.1)">
      <use xlink:href="#DejaVuSans-4c"/>
      <use x="55.697266" xlink:href="#DejaVuSans-6f"/>
      <use x="116.878906" xlink:href="#DejaVuSans-73"/>
      <use x="168.978516" xlink:href="#DejaVuSans-73"/>
     </g>
    </g>
   </g>
   <g id="line2d_44">
    <path clip-path="url(#p25a340b4e6)" d="M 73.832727 53.568 
L 74.638322 71.753525 
L 75.443916 82.226097 
L 76.24951 89.893259 
L 77.055105 96.134589 
L 78.666294 106.032175 
L 80.277483 113.429687 
L 81.888671 119.001112 
L 83.49986 123.354711 
L 85.111049 126.84634 
L 86.722238 129.775034 
L 88.333427 132.196039 
L 90.75021 135.151521 
L 93.166993 137.551669 
L 96.389371 140.073896 
L 99.611748 142.167039 
L 104.445315 144.65469 
L 111.695664 147.493285 
L 115.723636 148.876014 
L 119.751608 150.12758 
L 123.77958 151.44774 
L 129.418741 153.390439 
L 134.252308 155.460686 
L 138.28028 157.632341 
L 142.308252 160.236324 
L 147.141818 163.857171 
L 151.16979 167.181301 
L 157.614545 172.857331 
L 162.448112 177.379311 
L 169.698462 184.459204 
L 179.365594 193.219424 
L 184.199161 197.095599 
L 192.255105 202.936487 
L 200.311049 208.136158 
L 201.116643 208.518849 
L 201.922238 209.060836 
L 203.533427 209.962896 
L 216.422937 216.45478 
L 222.062098 219.011072 
L 223.673287 219.807367 
L 225.284476 220.450947 
L 255.091469 232.819917 
L 285.704056 245.291917 
L 286.50965 245.53093 
L 288.120839 246.238702 
L 296.982378 249.663035 
L 298.593566 250.371548 
L 299.399161 250.646528 
L 300.204755 251.077003 
L 301.815944 251.534683 
L 302.621538 251.975772 
L 303.427133 252.221506 
L 305.038322 252.880566 
L 305.843916 253.102802 
L 307.455105 253.775072 
L 319.539021 258.345901 
L 321.15021 258.962322 
L 335.650909 264.442627 
L 336.456503 264.598679 
L 339.678881 265.890752 
L 342.095664 266.738447 
L 344.512448 267.586419 
L 350.151608 269.589694 
L 350.957203 270.03741 
L 352.568392 270.479009 
L 353.373986 270.893169 
L 354.17958 271.077076 
L 354.985175 271.389967 
L 355.790769 271.580594 
L 357.401958 272.237523 
L 358.207552 272.577018 
L 359.013147 272.771677 
L 360.624336 273.32386 
L 366.263497 275.27657 
L 367.069091 275.389936 
L 367.874685 275.676733 
L 368.68028 276.151702 
L 373.513846 277.608633 
L 378.347413 279.211605 
L 380.764196 279.873493 
L 383.180979 280.70631 
L 383.986573 280.85629 
L 384.792168 281.174882 
L 385.597762 281.287553 
L 388.014545 282.145073 
L 388.82014 282.288704 
L 389.625734 282.65851 
L 390.431329 282.810483 
L 392.848112 283.558206 
L 396.07049 284.400385 
L 397.681678 284.897183 
L 398.487273 285.102271 
L 398.487273 285.102271 
" style="fill:none;stroke:#ff6347;stroke-dasharray:7.4,3.2;stroke-dashoffset:0;stroke-width:2;"/>
   </g>
   <g id="line2d_45">
    <path clip-path="url(#p25a340b4e6)" d="M 73.832727 65.489169 
L 74.638322 79.717327 
L 75.443916 89.222528 
L 76.24951 96.635968 
L 77.055105 102.762914 
L 78.666294 112.46959 
L 79.471888 116.32212 
L 81.083077 122.459805 
L 82.694266 127.169297 
L 84.305455 130.942759 
L 85.916643 134.03814 
L 87.527832 136.628676 
L 89.139021 138.830104 
L 90.75021 140.724704 
L 92.361399 142.373659 
L 94.778182 144.488442 
L 97.194965 146.272357 
L 99.611748 147.809159 
L 102.834126 149.57522 
L 106.056503 151.09246 
L 110.084476 152.72218 
L 115.723636 154.709725 
L 128.613147 159.139485 
L 131.835524 160.472995 
L 135.057902 162.056958 
L 138.28028 163.963967 
L 141.502657 166.152186 
L 144.725035 168.600284 
L 147.947413 171.310962 
L 152.780979 175.700587 
L 156.808951 179.626871 
L 162.448112 185.529417 
L 170.504056 194.118699 
L 174.532028 198.100064 
L 178.56 201.771938 
L 182.587972 205.156955 
L 186.615944 208.29181 
L 191.44951 211.74916 
L 196.283077 214.893363 
L 200.311049 217.296155 
L 205.95021 220.351169 
L 210.783776 222.753122 
L 217.228531 225.711294 
L 230.118042 231.058543 
L 249.452308 238.59985 
L 253.48028 240.229975 
L 261.536224 243.515785 
L 265.564196 245.256674 
L 267.980979 246.226774 
L 269.592168 246.958814 
L 273.62014 248.656465 
L 281.676084 252.159843 
L 284.898462 253.528362 
L 292.148811 256.660951 
L 294.565594 257.611507 
L 298.593566 259.315505 
L 302.621538 261.011828 
L 305.843916 262.305887 
L 309.871888 263.996431 
L 312.288671 264.919317 
L 314.705455 265.927294 
L 342.095664 276.849579 
L 347.734825 279.010356 
L 354.985175 281.73456 
L 375.930629 288.86694 
L 394.459301 294.413244 
L 396.876084 295.049869 
L 398.487273 295.488 
L 398.487273 295.488 
" style="fill:none;stroke:#4682b4;stroke-dasharray:7.4,3.2;stroke-dashoffset:0;stroke-width:2;"/>
   </g>
   <g id="patch_8">
    <path d="M 57.6 307.584 
L 57.6 41.472 
" style="fill:none;stroke:#000000;stroke-linecap:square;stroke-linejoin:miter;stroke-width:0.8;"/>
   </g>
   <g id="patch_9">
    <path d="M 414.72 307.584 
L 414.72 41.472 
" style="fill:none;stroke:#000000;stroke-linecap:square;stroke-linejoin:miter;stroke-width:0.8;"/>
   </g>
   <g id="patch_10">
    <path d="M 57.6 307.584 
L 414.72 307.584 
" style="fill:none;stroke:#000000;stroke-linecap:square;stroke-linejoin:miter;stroke-width:0.8;"/>
   </g>
   <g id="patch_11">
    <path d="M 57.6 41.472 
L 414.72 41.472 
" style="fill:none;stroke:#000000;stroke-linecap:square;stroke-linejoin:miter;stroke-width:0.8;"/>
   </g>
   <g id="legend_2">
    <g id="patch_12">
     <path d="M 328.129375 79.3845 
L 407.72 79.3845 
Q 409.72 79.3845 409.72 77.3845 
L 409.72 48.472 
Q 409.72 46.472 407.72 46.472 
L 328.129375 46.472 
Q 326.129375 46.472 326.129375 48.472 
L 326.129375 77.3845 
Q 326.129375 79.3845 328.129375 79.3845 
z
" style="fill:#ffffff;opacity:0.8;stroke:#cccccc;stroke-linejoin:miter;"/>
    </g>
    <g id="line2d_46">
     <path d="M 330.129375 54.570438 
L 350.129375 54.570438 
" style="fill:none;stroke:#ff6347;stroke-dasharray:7.4,3.2;stroke-dashoffset:0;stroke-width:2;"/>
    </g>
    <g id="line2d_47"/>
    <g id="text_27">
     <!-- train_loss -->
     <defs>
      <path d="M 9.421875 75.984375 
L 18.40625 75.984375 
L 18.40625 0 
L 9.421875 0 
z
" id="DejaVuSans-6c"/>
     </defs>
     <g transform="translate(358.129375 58.070438)scale(0.1 -0.1)">
      <use xlink:href="#DejaVuSans-74"/>
      <use x="39.208984" xlink:href="#DejaVuSans-72"/>
      <use x="80.322266" xlink:href="#DejaVuSans-61"/>
      <use x="141.601562" xlink:href="#DejaVuSans-69"/>
      <use x="169.384766" xlink:href="#DejaVuSans-6e"/>
      <use x="232.763672" xlink:href="#DejaVuSans-5f"/>
      <use x="282.763672" xlink:href="#DejaVuSans-6c"/>
      <use x="310.546875" xlink:href="#DejaVuSans-6f"/>
      <use x="371.728516" xlink:href="#DejaVuSans-73"/>
      <use x="423.828125" xlink:href="#DejaVuSans-73"/>
     </g>
    </g>
    <g id="line2d_48">
     <path d="M 330.129375 69.526688 
L 350.129375 69.526688 
" style="fill:none;stroke:#4682b4;stroke-dasharray:7.4,3.2;stroke-dashoffset:0;stroke-width:2;"/>
    </g>
    <g id="line2d_49"/>
    <g id="text_28">
     <!-- test_loss -->
     <g transform="translate(358.129375 73.026688)scale(0.1 -0.1)">
      <use xlink:href="#DejaVuSans-74"/>
      <use x="39.208984" xlink:href="#DejaVuSans-65"/>
      <use x="100.732422" xlink:href="#DejaVuSans-73"/>
      <use x="152.832031" xlink:href="#DejaVuSans-74"/>
      <use x="192.041016" xlink:href="#DejaVuSans-5f"/>
      <use x="242.041016" xlink:href="#DejaVuSans-6c"/>
      <use x="269.824219" xlink:href="#DejaVuSans-6f"/>
      <use x="331.005859" xlink:href="#DejaVuSans-73"/>
      <use x="383.105469" xlink:href="#DejaVuSans-73"/>
     </g>
    </g>
   </g>
  </g>
 </g>
 <defs>
  <clipPath id="p25a340b4e6">
   <rect height="266.112" width="357.12" x="57.6" y="41.472"/>
  </clipPath>
 </defs>
</svg>
